<svg xmlns="http://www.w3.org/2000/svg" version="1.1" xmlns:xlink="http://www.w3.org/1999/xlink" width="322" height="334"><svg width="322" height="334" viewBox="0 0 322 334" fill="none" xmlns="http://www.w3.org/2000/svg">
<path d="M165.332 0.0121936C165.69 0.0103907 166.049 0.00857015 166.408 0.00673325C167.55 0.0017433 168.692 0.000430666 169.835 0.000229161C170.029 0.000153975 170.224 7.87886e-05 170.425 1.32304e-06C176.331 -0.000366977 182.18 0.0756787 188.046 0.829762C188.467 0.882368 188.888 0.934961 189.309 0.987542C203.555 2.79079 217.526 6.03862 231.166 10.5289C231.48 10.6317 231.48 10.6317 231.8 10.7366C242.771 14.3355 253.445 18.6603 264.14 22.9943C267.348 24.2942 270.561 25.5817 273.777 26.8643C273.192 27.1599 272.608 27.4408 272.009 27.7078C269.888 28.6919 268.183 29.8883 266.389 31.3799C265.276 32.3031 264.117 33.1584 262.949 34.0111C262.536 34.3128 262.124 34.6146 261.712 34.9164C261.51 35.0636 261.309 35.2108 261.102 35.3625C258.564 37.2251 256.057 39.1291 253.569 41.0572C253.241 41.311 252.913 41.5645 252.585 41.8177C250.336 43.5546 248.103 45.3084 245.904 47.1089C244.825 47.9912 243.733 48.8541 242.632 49.7084C240.869 51.0814 239.189 52.5427 237.51 54.0161C236.74 54.6871 235.962 55.3476 235.185 56.0096C233.859 57.1423 232.561 58.3009 231.276 59.4803C230.757 59.9538 230.232 60.4168 229.699 60.8752C226.602 63.5771 223.682 66.4704 220.782 69.3799C220.189 69.9737 219.596 70.5662 219.002 71.1586C218.618 71.5427 218.234 71.9269 217.851 72.3111C217.59 72.5716 217.59 72.5716 217.323 72.8374C216.329 73.8365 215.38 74.8618 214.461 75.9304C213.89 76.5906 213.295 77.2258 212.7 77.8646C211.625 79.0303 210.601 80.2257 209.606 81.4619C209.122 82.0617 208.633 82.6565 208.139 83.2486C206.124 85.6676 204.181 88.1241 202.334 90.6745C202.194 90.8689 202.053 91.0632 201.908 91.2635C193.893 102.395 184.462 117.526 184.729 131.768C185.888 132.355 187.049 132.937 188.213 133.513C188.597 133.704 188.981 133.895 189.365 134.087C211.972 145.34 238.616 150.819 263.414 154.389C264.085 154.485 264.755 154.583 265.425 154.681C273.579 155.869 281.768 156.696 289.97 157.463C290.826 157.543 291.682 157.624 292.538 157.705C299.801 158.389 307.055 158.822 314.345 159.079C314.76 159.094 315.174 159.109 315.588 159.124C317.725 159.2 319.862 159.271 322 159.334C321.529 160.986 320.992 162.584 320.347 164.176C320.261 164.39 320.175 164.604 320.087 164.825C319.804 165.529 319.52 166.234 319.236 166.938C319.035 167.439 318.834 167.94 318.633 168.441C318.207 169.503 317.781 170.565 317.353 171.626C316.353 174.114 315.355 176.603 314.358 179.092C314.138 179.643 313.917 180.193 313.697 180.743C311.909 185.203 310.134 189.668 308.381 194.143C308.215 194.566 308.215 194.566 308.046 194.998C306.987 197.703 305.932 200.411 304.879 203.119C296.873 223.712 296.873 223.712 292.658 233.354C292.556 233.587 292.556 233.587 292.452 233.824C288.08 243.831 283.304 253.642 277.604 262.962C277.374 263.342 277.145 263.721 276.915 264.101C274.245 268.478 271.295 272.687 268.163 276.745C268.048 276.896 267.932 277.047 267.813 277.203C265.979 279.598 264.043 281.893 262.04 284.147C261.924 284.278 261.808 284.409 261.689 284.544C259.862 286.601 257.921 288.548 255.98 290.496C255.853 290.623 255.727 290.751 255.596 290.882C254.133 292.351 252.653 293.783 251.068 295.122C250.929 295.242 250.789 295.362 250.645 295.485C248.768 297.093 246.873 298.68 244.945 300.227C244.788 300.353 244.631 300.479 244.47 300.609C234.962 308.218 224.404 314.155 213.561 319.625C213.323 319.746 213.084 319.867 212.838 319.991C199.03 326.925 183.825 331.01 168.543 332.962C168.241 333 167.94 333.039 167.629 333.079C166.611 333.201 165.593 333.309 164.572 333.408C164.234 333.442 164.234 333.442 163.888 333.476C159.071 333.936 154.272 334.011 149.438 333.999C149.052 333.998 148.666 333.998 148.279 333.997C142.538 333.986 136.85 333.867 131.147 333.153C130.944 333.128 130.74 333.104 130.53 333.078C108.906 330.444 89.2349 323.303 69.1806 315.086C66.3431 313.924 63.5031 312.769 60.6531 311.638C60.3845 311.532 60.116 311.425 59.8393 311.315C58.5711 310.811 57.3023 310.309 56.0324 309.81C55.5842 309.633 55.1361 309.455 54.6879 309.277C54.4858 309.199 54.2837 309.12 54.0755 309.039C53.1305 308.662 52.3186 308.305 51.5404 307.629C51.7384 307.564 51.9364 307.498 52.1404 307.431C55.6443 306.188 58.4519 304.096 61.348 301.814C61.9838 301.318 62.6307 300.837 63.2773 300.355C64.2984 299.591 65.3135 298.82 66.3232 298.042C69.5275 295.571 72.7366 293.108 76.003 290.719C77.6138 289.541 79.1904 288.33 80.7407 287.073C81.9085 286.127 83.0975 285.214 84.2954 284.307C87.5366 281.845 90.6484 279.222 93.7437 276.581C94.1631 276.224 94.5843 275.869 95.0057 275.515C97.6876 273.249 100.282 270.882 102.756 268.39C103.349 267.793 103.951 267.222 104.596 266.679C106.182 265.307 107.606 263.82 108.971 262.23C109.537 261.599 110.132 261.005 110.735 260.41C111.811 259.343 112.817 258.246 113.797 257.091C114.028 256.823 114.258 256.555 114.489 256.287C115.149 255.519 115.808 254.749 116.466 253.979C116.84 253.541 117.215 253.104 117.591 252.667C119.08 250.927 120.506 249.151 121.885 247.322C122.226 246.87 122.57 246.421 122.914 245.972C132.156 233.845 141.472 219.213 145.468 204.368C145.544 204.084 145.544 204.084 145.623 203.794C145.927 202.561 145.989 201.442 145.946 200.173C140.177 196.861 134.332 194.375 128.042 192.25C127.263 191.986 126.485 191.719 125.707 191.453C100.065 182.674 74.0994 177.227 20.7571 172.896C20.1305 172.861 19.5039 172.825 18.8774 172.79C15.962 172.626 13.0465 172.465 10.1308 172.308C9.47446 172.272 8.81818 172.236 8.16191 172.2C7.13281 172.143 6.10365 172.088 5.0744 172.034C4.69387 172.014 4.31335 171.993 3.93288 171.972C3.41174 171.943 2.89049 171.916 2.36924 171.89C2.07647 171.874 1.78372 171.858 1.48208 171.842C0.744292 171.803 0.744284 171.803 0 172.096C0.514317 170.493 1.09332 168.927 1.72326 167.366C1.86424 167.015 1.86425 167.015 2.00808 166.656C2.21313 166.144 2.41847 165.633 2.62409 165.122C2.95941 164.289 3.29392 163.455 3.62823 162.621C4.11647 161.403 4.60502 160.185 5.09379 158.968C6.364 155.803 7.63062 152.637 8.89693 149.471C9.03634 149.123 9.17576 148.774 9.31519 148.425C11.5072 142.945 13.6913 137.462 15.8672 131.976C15.9681 131.721 15.9681 131.721 16.0711 131.462C17.5483 127.737 19.0226 124.011 20.4898 120.282C26.3606 105.363 26.3606 105.363 29.5975 98.3317C29.6741 98.165 29.7507 97.9983 29.8297 97.8266C35.75 84.9573 42.5402 72.4428 51.0301 61.0666C51.2559 60.7639 51.2559 60.7639 51.4862 60.455C53.36 57.9516 55.2527 55.4753 57.2992 53.1103C57.8887 52.4238 58.4552 51.7237 59.0195 51.0165C60.3745 49.3523 61.849 47.8053 63.3228 46.2472C63.7752 45.7654 64.2223 45.2792 64.6677 44.791C66.6741 42.598 68.7757 40.5403 70.9664 38.5319C71.4071 38.1271 71.8452 37.7198 72.2824 37.3112C73.6617 36.0263 75.0711 34.7918 76.5402 33.6103C77.1082 33.153 77.6716 32.6921 78.2325 32.2264C97.0814 16.6293 120.405 6.31462 165.332 0.0121936Z" fill="#00BD7D"></path>
<path d="M165.332 0.0121936C165.69 0.0103907 166.049 0.00857015 166.408 0.00673325C167.55 0.0017433 168.692 0.000430666 169.835 0.000229161C170.029 0.000153975 170.224 7.87886e-05 170.425 1.32304e-06C176.331 -0.000366977 182.18 0.0756787 188.046 0.829762C188.467 0.882368 188.888 0.934961 189.309 0.987542C203.555 2.79079 217.526 6.03862 231.166 10.5289C231.48 10.6317 231.48 10.6317 231.8 10.7366C242.771 14.3355 253.445 18.6603 264.14 22.9943C267.348 24.2942 270.561 25.5817 273.777 26.8643C273.192 27.1599 272.608 27.4408 272.009 27.7078C269.888 28.6919 268.183 29.8883 266.389 31.3799C265.276 32.3031 264.117 33.1584 262.949 34.0111C262.536 34.3128 262.124 34.6146 261.712 34.9164C261.51 35.0636 261.309 35.2108 261.102 35.3625C258.564 37.2251 256.057 39.1291 253.569 41.0572C253.241 41.311 252.913 41.5645 252.585 41.8177C250.336 43.5546 248.103 45.3084 245.904 47.1089C244.825 47.9912 243.733 48.8541 242.632 49.7084C240.869 51.0814 239.189 52.5427 237.51 54.0161C236.74 54.6871 235.962 55.3476 235.185 56.0096C233.859 57.1423 232.561 58.3009 231.276 59.4803C230.757 59.9538 230.232 60.4168 229.699 60.8752C226.602 63.5771 223.682 66.4704 220.782 69.3799C220.189 69.9737 219.596 70.5662 219.002 71.1586C218.618 71.5427 218.234 71.9269 217.851 72.3111C217.59 72.5716 217.59 72.5716 217.323 72.8374C216.329 73.8365 215.38 74.8618 214.461 75.9304C213.89 76.5906 213.295 77.2258 212.7 77.8646C211.625 79.0303 210.601 80.2257 209.606 81.4619C209.122 82.0617 208.633 82.6565 208.139 83.2486C206.124 85.6676 204.181 88.1241 202.334 90.6745C202.194 90.8689 202.053 91.0632 201.908 91.2635C193.893 102.395 184.462 117.526 184.729 131.768C185.888 132.355 187.049 132.937 188.213 133.513C188.597 133.704 188.981 133.895 189.365 134.087C211.972 145.34 238.616 150.819 263.414 154.389C264.085 154.485 264.755 154.583 265.425 154.681C273.579 155.869 281.768 156.696 289.97 157.463C290.826 157.543 291.682 157.624 292.538 157.705C299.801 158.389 307.055 158.822 314.345 159.079C314.76 159.094 315.174 159.109 315.588 159.124C317.725 159.2 319.862 159.271 322 159.334C321.529 160.986 320.992 162.584 320.347 164.176C320.261 164.39 320.175 164.604 320.087 164.825C319.804 165.529 319.52 166.234 319.236 166.938C319.035 167.439 318.834 167.94 318.633 168.441C318.207 169.503 317.781 170.565 317.353 171.626C316.353 174.114 315.355 176.603 314.358 179.092C314.138 179.643 313.917 180.193 313.697 180.743C311.909 185.203 310.134 189.668 308.381 194.143C308.215 194.566 308.215 194.566 308.046 194.998C306.987 197.703 305.932 200.411 304.879 203.119C296.873 223.712 296.873 223.712 292.658 233.354C292.556 233.587 292.556 233.587 292.452 233.824C288.08 243.831 283.304 253.642 277.604 262.962C277.374 263.342 277.145 263.721 276.915 264.101C274.245 268.478 271.295 272.687 268.163 276.745C268.048 276.896 267.932 277.047 267.813 277.203C265.979 279.598 264.043 281.893 262.04 284.147C261.924 284.278 261.808 284.409 261.689 284.544C259.862 286.601 257.921 288.548 255.98 290.496C255.853 290.623 255.727 290.751 255.596 290.882C254.133 292.351 252.653 293.783 251.068 295.122C250.929 295.242 250.789 295.362 250.645 295.485C248.768 297.093 246.873 298.68 244.945 300.227C244.788 300.353 244.631 300.479 244.47 300.609C234.962 308.218 224.404 314.155 213.561 319.625C213.323 319.746 213.084 319.867 212.838 319.991C199.03 326.925 183.825 331.01 168.543 332.962C168.241 333 167.94 333.039 167.629 333.079C166.611 333.201 165.593 333.309 164.572 333.408C164.234 333.442 164.234 333.442 163.888 333.476C159.071 333.936 154.272 334.011 149.438 333.999C149.052 333.998 148.666 333.998 148.279 333.997C142.538 333.986 136.85 333.867 131.147 333.153C130.944 333.128 130.74 333.104 130.53 333.078C108.906 330.444 89.2349 323.303 69.1806 315.086C66.3431 313.924 63.5031 312.769 60.6531 311.638C60.3845 311.532 60.116 311.425 59.8393 311.315C58.5711 310.811 57.3023 310.309 56.0324 309.81C55.5842 309.633 55.1361 309.455 54.6879 309.277C54.4858 309.199 54.2837 309.12 54.0755 309.039C53.1305 308.662 52.3186 308.305 51.5404 307.629C51.7384 307.564 51.9364 307.498 52.1404 307.431C55.6443 306.188 58.4519 304.096 61.348 301.814C61.9838 301.318 62.6307 300.837 63.2773 300.355C64.2984 299.591 65.3135 298.82 66.3232 298.042C69.5275 295.571 72.7366 293.108 76.003 290.719C77.6138 289.541 79.1904 288.33 80.7407 287.073C81.9085 286.127 83.0975 285.214 84.2954 284.307C87.5366 281.845 90.6484 279.222 93.7437 276.581C94.1631 276.224 94.5843 275.869 95.0057 275.515C97.6876 273.249 100.282 270.882 102.756 268.39C103.349 267.793 103.951 267.222 104.596 266.679C106.182 265.307 107.606 263.82 108.971 262.23C109.537 261.599 110.132 261.005 110.735 260.41C111.811 259.343 112.817 258.246 113.797 257.091C114.028 256.823 114.258 256.555 114.489 256.287C115.149 255.519 115.808 254.749 116.466 253.979C116.84 253.541 117.215 253.104 117.591 252.667C119.08 250.927 120.506 249.151 121.885 247.322C122.226 246.87 122.57 246.421 122.914 245.972C132.156 233.845 141.472 219.213 145.468 204.368C145.544 204.084 145.544 204.084 145.623 203.794C145.927 202.561 145.989 201.442 145.946 200.173C140.177 196.861 134.332 194.375 128.042 192.25C127.263 191.986 126.485 191.719 125.707 191.453C100.065 182.674 74.0994 177.227 20.7571 172.896C20.1305 172.861 19.5039 172.825 18.8774 172.79C15.962 172.626 13.0465 172.465 10.1308 172.308C9.47446 172.272 8.81818 172.236 8.16191 172.2C7.13281 172.143 6.10365 172.088 5.0744 172.034C4.69387 172.014 4.31335 171.993 3.93288 171.972C3.41174 171.943 2.89049 171.916 2.36924 171.89C2.07647 171.874 1.78372 171.858 1.48208 171.842C0.744292 171.803 0.744284 171.803 0 172.096C0.514317 170.493 1.09332 168.927 1.72326 167.366C1.86424 167.015 1.86425 167.015 2.00808 166.656C2.21313 166.144 2.41847 165.633 2.62409 165.122C2.95941 164.289 3.29392 163.455 3.62823 162.621C4.11647 161.403 4.60502 160.185 5.09379 158.968C6.364 155.803 7.63062 152.637 8.89693 149.471C9.03634 149.123 9.17576 148.774 9.31519 148.425C11.5072 142.945 13.6913 137.462 15.8672 131.976C15.9681 131.721 15.9681 131.721 16.0711 131.462C17.5483 127.737 19.0226 124.011 20.4898 120.282C26.3606 105.363 26.3606 105.363 29.5975 98.3317C29.6741 98.165 29.7507 97.9983 29.8297 97.8266C35.75 84.9573 42.5402 72.4428 51.0301 61.0666C51.2559 60.7639 51.2559 60.7639 51.4862 60.455C53.36 57.9516 55.2527 55.4753 57.2992 53.1103C57.8887 52.4238 58.4552 51.7237 59.0195 51.0165C60.3745 49.3523 61.849 47.8053 63.3228 46.2472C63.7752 45.7654 64.2223 45.2792 64.6677 44.791C66.6741 42.598 68.7757 40.5403 70.9664 38.5319C71.4071 38.1271 71.8452 37.7198 72.2824 37.3112C73.6617 36.0263 75.0711 34.7918 76.5402 33.6103C77.1082 33.153 77.6716 32.6921 78.2325 32.2264C97.0814 16.6293 120.405 6.31462 165.332 0.0121936Z" fill="url(#paint0_linear_3_160)" fill-opacity="0.2"></path>
<defs>
<linearGradient id="SvgjsLinearGradient1106" x1="161" y1="0" x2="161" y2="334" gradientUnits="userSpaceOnUse">
<stop offset="0.5" stop-color="#00BF80"></stop>
<stop offset="1" stop-color="#00CBFF"></stop>
</linearGradient>
</defs>
</svg><style>@media (prefers-color-scheme: light) { :root { filter: none; } }
@media (prefers-color-scheme: dark) { :root { filter: none; } }
</style></svg>