<svg width="1275" height="375" viewBox="0 0 1275 375" fill="none" xmlns="http://www.w3.org/2000/svg">
<path d="M463.5 276.75C451.333 276.75 440.333 274.667 430.5 270.5C420.833 266.333 413.167 260.333 407.5 252.5C401.833 244.667 398.917 235.417 398.75 224.75H436.25C436.75 231.917 439.25 237.583 443.75 241.75C448.417 245.917 454.75 248 462.75 248C470.917 248 477.333 246.083 482 242.25C486.667 238.25 489 233.083 489 226.75C489 221.583 487.417 217.333 484.25 214C481.083 210.667 477.083 208.083 472.25 206.25C467.583 204.25 461.083 202.083 452.75 199.75C441.417 196.417 432.167 193.167 425 190C418 186.667 411.917 181.75 406.75 175.25C401.75 168.583 399.25 159.75 399.25 148.75C399.25 138.417 401.833 129.417 407 121.75C412.167 114.083 419.417 108.25 428.75 104.25C438.083 100.083 448.75 98 460.75 98C478.75 98 493.333 102.417 504.5 111.25C515.833 119.917 522.083 132.083 523.25 147.75H484.75C484.417 141.75 481.833 136.833 477 133C472.333 129 466.083 127 458.25 127C451.417 127 445.917 128.75 441.75 132.25C437.75 135.75 435.75 140.833 435.75 147.5C435.75 152.167 437.25 156.083 440.25 159.25C443.417 162.25 447.25 164.75 451.75 166.75C456.417 168.583 462.917 170.75 471.25 173.25C482.583 176.583 491.833 179.917 499 183.25C506.167 186.583 512.333 191.583 517.5 198.25C522.667 204.917 525.25 213.667 525.25 224.5C525.25 233.833 522.833 242.5 518 250.5C513.167 258.5 506.083 264.917 496.75 269.75C487.417 274.417 476.333 276.75 463.5 276.75ZM633.594 134.5C644.094 134.5 653.427 136.833 661.594 141.5C669.76 146 676.094 152.75 680.594 161.75C685.26 170.583 687.594 181.25 687.594 193.75V275H652.594V198.5C652.594 187.5 649.844 179.083 644.344 173.25C638.844 167.25 631.344 164.25 621.844 164.25C612.177 164.25 604.51 167.25 598.844 173.25C593.344 179.083 590.594 187.5 590.594 198.5V275H555.594V90H590.594V153.75C595.094 147.75 601.094 143.083 608.594 139.75C616.094 136.25 624.427 134.5 633.594 134.5ZM738.627 120C732.46 120 727.294 118.083 723.127 114.25C719.127 110.25 717.127 105.333 717.127 99.5C717.127 93.6667 719.127 88.8333 723.127 85C727.294 81 732.46 79 738.627 79C744.794 79 749.877 81 753.877 85C758.044 88.8333 760.127 93.6667 760.127 99.5C760.127 105.333 758.044 110.25 753.877 114.25C749.877 118.083 744.794 120 738.627 120ZM755.877 136.5V275H720.877V136.5H755.877ZM825.457 156.5C829.957 150.167 836.124 144.917 843.957 140.75C851.957 136.417 861.04 134.25 871.207 134.25C883.04 134.25 893.707 137.167 903.207 143C912.874 148.833 920.457 157.167 925.957 168C931.624 178.667 934.457 191.083 934.457 205.25C934.457 219.417 931.624 232 925.957 243C920.457 253.833 912.874 262.25 903.207 268.25C893.707 274.25 883.04 277.25 871.207 277.25C861.04 277.25 852.04 275.167 844.207 271C836.54 266.833 830.29 261.583 825.457 255.25V341H790.457V136.5H825.457V156.5ZM898.707 205.25C898.707 196.917 896.957 189.75 893.457 183.75C890.124 177.583 885.624 172.917 879.957 169.75C874.457 166.583 868.457 165 861.957 165C855.624 165 849.624 166.667 843.957 170C838.457 173.167 833.957 177.833 830.457 184C827.124 190.167 825.457 197.417 825.457 205.75C825.457 214.083 827.124 221.333 830.457 227.5C833.957 233.667 838.457 238.417 843.957 241.75C849.624 244.917 855.624 246.5 861.957 246.5C868.457 246.5 874.457 244.833 879.957 241.5C885.624 238.167 890.124 233.417 893.457 227.25C896.957 221.083 898.707 213.75 898.707 205.25ZM1021.39 277.25C1008.06 277.25 996.057 274.333 985.391 268.5C974.724 262.5 966.307 254.083 960.141 243.25C954.141 232.417 951.141 219.917 951.141 205.75C951.141 191.583 954.224 179.083 960.391 168.25C966.724 157.417 975.307 149.083 986.141 143.25C996.974 137.25 1009.06 134.25 1022.39 134.25C1035.72 134.25 1047.81 137.25 1058.64 143.25C1069.47 149.083 1077.97 157.417 1084.14 168.25C1090.47 179.083 1093.64 191.583 1093.64 205.75C1093.64 219.917 1090.39 232.417 1083.89 243.25C1077.56 254.083 1068.89 262.5 1057.89 268.5C1047.06 274.333 1034.89 277.25 1021.39 277.25ZM1021.39 246.75C1027.72 246.75 1033.64 245.25 1039.14 242.25C1044.81 239.083 1049.31 234.417 1052.64 228.25C1055.97 222.083 1057.64 214.583 1057.64 205.75C1057.64 192.583 1054.14 182.5 1047.14 175.5C1040.31 168.333 1031.89 164.75 1021.89 164.75C1011.89 164.75 1003.47 168.333 996.641 175.5C989.974 182.5 986.641 192.583 986.641 205.75C986.641 218.917 989.891 229.083 996.391 236.25C1003.06 243.25 1011.39 246.75 1021.39 246.75ZM1182.81 165.25H1158.56V275H1123.06V165.25H1107.31V136.5H1123.06V129.5C1123.06 112.5 1127.9 100 1137.56 92C1147.23 84 1161.81 80.25 1181.31 80.75V110.25C1172.81 110.083 1166.9 111.5 1163.56 114.5C1160.23 117.5 1158.56 122.917 1158.56 130.75V136.5H1182.81V165.25ZM1269 165.25H1244.75V275H1209.25V165.25H1193.5V136.5H1209.25V129.5C1209.25 112.5 1214.08 100 1223.75 92C1233.41 84 1248 80.25 1267.5 80.75V110.25C1259 110.083 1253.08 111.5 1249.75 114.5C1246.41 117.5 1244.75 122.917 1244.75 130.75V136.5H1269V165.25Z" fill="white"/>
<path d="M165.332 21.0122C165.69 21.0104 166.049 21.0086 166.408 21.0067C167.55 21.0017 168.692 21.0004 169.835 21.0002C170.029 21.0002 170.224 21.0001 170.425 21C176.331 20.9996 182.18 21.0757 188.046 21.8298C188.467 21.8824 188.888 21.935 189.309 21.9875C203.555 23.7908 217.526 27.0386 231.166 31.5289C231.48 31.6317 231.48 31.6317 231.8 31.7366C242.771 35.3355 253.445 39.6603 264.14 43.9943C267.348 45.2942 270.561 46.5817 273.777 47.8643C273.192 48.1599 272.608 48.4408 272.009 48.7078C269.888 49.6919 268.183 50.8883 266.389 52.3799C265.276 53.3031 264.117 54.1584 262.949 55.0111C262.536 55.3128 262.124 55.6146 261.712 55.9164C261.51 56.0636 261.309 56.2108 261.102 56.3625C258.564 58.2251 256.057 60.1291 253.569 62.0572C253.241 62.311 252.913 62.5645 252.585 62.8177C250.336 64.5546 248.103 66.3084 245.904 68.1089C244.825 68.9912 243.733 69.8541 242.632 70.7084C240.869 72.0814 239.189 73.5427 237.51 75.0161C236.74 75.6871 235.962 76.3476 235.185 77.0096C233.859 78.1423 232.561 79.3009 231.276 80.4803C230.757 80.9538 230.232 81.4168 229.699 81.8752C226.602 84.5771 223.682 87.4704 220.782 90.3799C220.189 90.9737 219.596 91.5662 219.002 92.1586C218.618 92.5427 218.234 92.9269 217.851 93.3111C217.59 93.5716 217.59 93.5716 217.323 93.8374C216.329 94.8365 215.38 95.8618 214.461 96.9304C213.89 97.5906 213.295 98.2258 212.7 98.8646C211.625 100.03 210.601 101.226 209.606 102.462C209.122 103.062 208.633 103.656 208.139 104.249C206.124 106.668 204.181 109.124 202.334 111.675C202.194 111.869 202.053 112.063 201.908 112.264C193.893 123.395 184.462 138.526 184.729 152.768C185.888 153.355 187.049 153.937 188.213 154.513C188.597 154.704 188.981 154.895 189.365 155.087C211.972 166.34 238.616 171.819 263.414 175.389C264.085 175.485 264.755 175.583 265.425 175.681C273.579 176.869 281.768 177.696 289.97 178.463C290.826 178.543 291.682 178.624 292.538 178.705C299.801 179.389 307.055 179.822 314.345 180.079C314.76 180.094 315.174 180.109 315.588 180.124C317.725 180.2 319.862 180.271 322 180.334C321.529 181.986 320.992 183.584 320.347 185.176C320.261 185.39 320.175 185.604 320.087 185.825C319.804 186.529 319.52 187.234 319.236 187.938C319.035 188.439 318.834 188.94 318.633 189.441C318.207 190.503 317.781 191.565 317.353 192.626C316.353 195.114 315.355 197.603 314.358 200.092C314.138 200.643 313.917 201.193 313.697 201.743C311.909 206.203 310.134 210.668 308.381 215.143C308.215 215.566 308.215 215.566 308.046 215.998C306.987 218.703 305.932 221.411 304.879 224.119C296.873 244.712 296.873 244.712 292.658 254.354C292.556 254.587 292.556 254.587 292.452 254.824C288.08 264.831 283.304 274.642 277.604 283.962C277.374 284.342 277.145 284.721 276.915 285.101C274.245 289.478 271.295 293.687 268.163 297.745C268.048 297.896 267.932 298.047 267.813 298.203C265.979 300.598 264.043 302.893 262.04 305.147C261.924 305.278 261.808 305.409 261.689 305.544C259.862 307.601 257.921 309.548 255.98 311.496C255.853 311.623 255.727 311.751 255.596 311.882C254.133 313.351 252.653 314.783 251.068 316.122C250.929 316.242 250.789 316.362 250.645 316.485C248.768 318.093 246.873 319.68 244.945 321.227C244.788 321.353 244.631 321.479 244.47 321.609C234.962 329.218 224.404 335.155 213.561 340.625C213.323 340.746 213.084 340.867 212.838 340.991C199.03 347.925 183.825 352.01 168.543 353.962C168.241 354 167.94 354.039 167.629 354.079C166.611 354.201 165.593 354.309 164.572 354.408C164.234 354.442 164.234 354.442 163.888 354.476C159.071 354.936 154.272 355.011 149.438 354.999C149.052 354.998 148.666 354.998 148.279 354.997C142.538 354.986 136.85 354.867 131.147 354.153C130.944 354.128 130.74 354.104 130.53 354.078C108.906 351.444 89.2349 344.303 69.1806 336.086C66.3431 334.924 63.5031 333.769 60.6531 332.638C60.3845 332.532 60.116 332.425 59.8393 332.315C58.5711 331.811 57.3023 331.309 56.0324 330.81C55.5842 330.633 55.1361 330.455 54.6879 330.277C54.4858 330.199 54.2837 330.12 54.0755 330.039C53.1305 329.662 52.3186 329.305 51.5404 328.629C51.7384 328.564 51.9364 328.498 52.1404 328.431C55.6443 327.188 58.4519 325.096 61.348 322.814C61.9838 322.318 62.6307 321.837 63.2773 321.355C64.2984 320.591 65.3135 319.82 66.3232 319.042C69.5275 316.571 72.7366 314.108 76.003 311.719C77.6138 310.541 79.1904 309.33 80.7407 308.073C81.9085 307.127 83.0975 306.214 84.2954 305.307C87.5366 302.845 90.6484 300.222 93.7437 297.581C94.1631 297.224 94.5843 296.869 95.0057 296.515C97.6876 294.249 100.282 291.882 102.756 289.39C103.349 288.793 103.951 288.222 104.596 287.679C106.182 286.307 107.606 284.82 108.971 283.23C109.537 282.599 110.132 282.005 110.735 281.41C111.811 280.343 112.817 279.246 113.797 278.091C114.028 277.823 114.258 277.555 114.489 277.287C115.149 276.519 115.808 275.749 116.466 274.979C116.84 274.541 117.215 274.104 117.591 273.667C119.08 271.927 120.506 270.151 121.885 268.322C122.226 267.87 122.57 267.421 122.914 266.972C132.156 254.845 141.472 240.213 145.468 225.368C145.544 225.084 145.544 225.084 145.623 224.794C145.927 223.561 145.989 222.442 145.946 221.173C140.177 217.861 134.332 215.375 128.042 213.25C127.263 212.986 126.485 212.719 125.707 212.453C100.065 203.674 74.0994 198.227 20.7571 193.896C20.1305 193.861 19.5039 193.825 18.8774 193.79C15.962 193.626 13.0465 193.465 10.1308 193.308C9.47446 193.272 8.81818 193.236 8.16191 193.2C7.13281 193.143 6.10365 193.088 5.0744 193.034C4.69387 193.014 4.31335 192.993 3.93288 192.972C3.41174 192.943 2.89049 192.916 2.36924 192.89C2.07647 192.874 1.78372 192.858 1.48208 192.842C0.744292 192.803 0.744284 192.803 0 193.096C0.514317 191.493 1.09332 189.927 1.72326 188.366C1.86424 188.015 1.86425 188.015 2.00808 187.656C2.21313 187.144 2.41847 186.633 2.62409 186.122C2.95941 185.289 3.29392 184.455 3.62823 183.621C4.11647 182.403 4.60502 181.185 5.09379 179.968C6.364 176.803 7.63062 173.637 8.89693 170.471C9.03634 170.123 9.17576 169.774 9.31519 169.425C11.5072 163.945 13.6913 158.462 15.8672 152.976C15.9681 152.721 15.9681 152.721 16.0711 152.462C17.5483 148.737 19.0226 145.011 20.4898 141.282C26.3606 126.363 26.3606 126.363 29.5975 119.332C29.6741 119.165 29.7507 118.998 29.8297 118.827C35.75 105.957 42.5402 93.4428 51.0301 82.0666C51.2559 81.7639 51.2559 81.7639 51.4862 81.455C53.36 78.9516 55.2527 76.4753 57.2992 74.1103C57.8887 73.4238 58.4552 72.7237 59.0195 72.0165C60.3745 70.3523 61.849 68.8053 63.3228 67.2472C63.7752 66.7654 64.2223 66.2792 64.6677 65.791C66.6741 63.598 68.7757 61.5403 70.9664 59.5319C71.4071 59.1271 71.8452 58.7198 72.2824 58.3112C73.6617 57.0263 75.0711 55.7918 76.5402 54.6103C77.1082 54.153 77.6716 53.6921 78.2325 53.2264C97.0814 37.6293 120.405 27.3146 165.332 21.0122Z" fill="#00BD7D"/>
<path d="M165.332 21.0122C165.69 21.0104 166.049 21.0086 166.408 21.0067C167.55 21.0017 168.692 21.0004 169.835 21.0002C170.029 21.0002 170.224 21.0001 170.425 21C176.331 20.9996 182.18 21.0757 188.046 21.8298C188.467 21.8824 188.888 21.935 189.309 21.9875C203.555 23.7908 217.526 27.0386 231.166 31.5289C231.48 31.6317 231.48 31.6317 231.8 31.7366C242.771 35.3355 253.445 39.6603 264.14 43.9943C267.348 45.2942 270.561 46.5817 273.777 47.8643C273.192 48.1599 272.608 48.4408 272.009 48.7078C269.888 49.6919 268.183 50.8883 266.389 52.3799C265.276 53.3031 264.117 54.1584 262.949 55.0111C262.536 55.3128 262.124 55.6146 261.712 55.9164C261.51 56.0636 261.309 56.2108 261.102 56.3625C258.564 58.2251 256.057 60.1291 253.569 62.0572C253.241 62.311 252.913 62.5645 252.585 62.8177C250.336 64.5546 248.103 66.3084 245.904 68.1089C244.825 68.9912 243.733 69.8541 242.632 70.7084C240.869 72.0814 239.189 73.5427 237.51 75.0161C236.74 75.6871 235.962 76.3476 235.185 77.0096C233.859 78.1423 232.561 79.3009 231.276 80.4803C230.757 80.9538 230.232 81.4168 229.699 81.8752C226.602 84.5771 223.682 87.4704 220.782 90.3799C220.189 90.9737 219.596 91.5662 219.002 92.1586C218.618 92.5427 218.234 92.9269 217.851 93.3111C217.59 93.5716 217.59 93.5716 217.323 93.8374C216.329 94.8365 215.38 95.8618 214.461 96.9304C213.89 97.5906 213.295 98.2258 212.7 98.8646C211.625 100.03 210.601 101.226 209.606 102.462C209.122 103.062 208.633 103.656 208.139 104.249C206.124 106.668 204.181 109.124 202.334 111.675C202.194 111.869 202.053 112.063 201.908 112.264C193.893 123.395 184.462 138.526 184.729 152.768C185.888 153.355 187.049 153.937 188.213 154.513C188.597 154.704 188.981 154.895 189.365 155.087C211.972 166.34 238.616 171.819 263.414 175.389C264.085 175.485 264.755 175.583 265.425 175.681C273.579 176.869 281.768 177.696 289.97 178.463C290.826 178.543 291.682 178.624 292.538 178.705C299.801 179.389 307.055 179.822 314.345 180.079C314.76 180.094 315.174 180.109 315.588 180.124C317.725 180.2 319.862 180.271 322 180.334C321.529 181.986 320.992 183.584 320.347 185.176C320.261 185.39 320.175 185.604 320.087 185.825C319.804 186.529 319.52 187.234 319.236 187.938C319.035 188.439 318.834 188.94 318.633 189.441C318.207 190.503 317.781 191.565 317.353 192.626C316.353 195.114 315.355 197.603 314.358 200.092C314.138 200.643 313.917 201.193 313.697 201.743C311.909 206.203 310.134 210.668 308.381 215.143C308.215 215.566 308.215 215.566 308.046 215.998C306.987 218.703 305.932 221.411 304.879 224.119C296.873 244.712 296.873 244.712 292.658 254.354C292.556 254.587 292.556 254.587 292.452 254.824C288.08 264.831 283.304 274.642 277.604 283.962C277.374 284.342 277.145 284.721 276.915 285.101C274.245 289.478 271.295 293.687 268.163 297.745C268.048 297.896 267.932 298.047 267.813 298.203C265.979 300.598 264.043 302.893 262.04 305.147C261.924 305.278 261.808 305.409 261.689 305.544C259.862 307.601 257.921 309.548 255.98 311.496C255.853 311.623 255.727 311.751 255.596 311.882C254.133 313.351 252.653 314.783 251.068 316.122C250.929 316.242 250.789 316.362 250.645 316.485C248.768 318.093 246.873 319.68 244.945 321.227C244.788 321.353 244.631 321.479 244.47 321.609C234.962 329.218 224.404 335.155 213.561 340.625C213.323 340.746 213.084 340.867 212.838 340.991C199.03 347.925 183.825 352.01 168.543 353.962C168.241 354 167.94 354.039 167.629 354.079C166.611 354.201 165.593 354.309 164.572 354.408C164.234 354.442 164.234 354.442 163.888 354.476C159.071 354.936 154.272 355.011 149.438 354.999C149.052 354.998 148.666 354.998 148.279 354.997C142.538 354.986 136.85 354.867 131.147 354.153C130.944 354.128 130.74 354.104 130.53 354.078C108.906 351.444 89.2349 344.303 69.1806 336.086C66.3431 334.924 63.5031 333.769 60.6531 332.638C60.3845 332.532 60.116 332.425 59.8393 332.315C58.5711 331.811 57.3023 331.309 56.0324 330.81C55.5842 330.633 55.1361 330.455 54.6879 330.277C54.4858 330.199 54.2837 330.12 54.0755 330.039C53.1305 329.662 52.3186 329.305 51.5404 328.629C51.7384 328.564 51.9364 328.498 52.1404 328.431C55.6443 327.188 58.4519 325.096 61.348 322.814C61.9838 322.318 62.6307 321.837 63.2773 321.355C64.2984 320.591 65.3135 319.82 66.3232 319.042C69.5275 316.571 72.7366 314.108 76.003 311.719C77.6138 310.541 79.1904 309.33 80.7407 308.073C81.9085 307.127 83.0975 306.214 84.2954 305.307C87.5366 302.845 90.6484 300.222 93.7437 297.581C94.1631 297.224 94.5843 296.869 95.0057 296.515C97.6876 294.249 100.282 291.882 102.756 289.39C103.349 288.793 103.951 288.222 104.596 287.679C106.182 286.307 107.606 284.82 108.971 283.23C109.537 282.599 110.132 282.005 110.735 281.41C111.811 280.343 112.817 279.246 113.797 278.091C114.028 277.823 114.258 277.555 114.489 277.287C115.149 276.519 115.808 275.749 116.466 274.979C116.84 274.541 117.215 274.104 117.591 273.667C119.08 271.927 120.506 270.151 121.885 268.322C122.226 267.87 122.57 267.421 122.914 266.972C132.156 254.845 141.472 240.213 145.468 225.368C145.544 225.084 145.544 225.084 145.623 224.794C145.927 223.561 145.989 222.442 145.946 221.173C140.177 217.861 134.332 215.375 128.042 213.25C127.263 212.986 126.485 212.719 125.707 212.453C100.065 203.674 74.0994 198.227 20.7571 193.896C20.1305 193.861 19.5039 193.825 18.8774 193.79C15.962 193.626 13.0465 193.465 10.1308 193.308C9.47446 193.272 8.81818 193.236 8.16191 193.2C7.13281 193.143 6.10365 193.088 5.0744 193.034C4.69387 193.014 4.31335 192.993 3.93288 192.972C3.41174 192.943 2.89049 192.916 2.36924 192.89C2.07647 192.874 1.78372 192.858 1.48208 192.842C0.744292 192.803 0.744284 192.803 0 193.096C0.514317 191.493 1.09332 189.927 1.72326 188.366C1.86424 188.015 1.86425 188.015 2.00808 187.656C2.21313 187.144 2.41847 186.633 2.62409 186.122C2.95941 185.289 3.29392 184.455 3.62823 183.621C4.11647 182.403 4.60502 181.185 5.09379 179.968C6.364 176.803 7.63062 173.637 8.89693 170.471C9.03634 170.123 9.17576 169.774 9.31519 169.425C11.5072 163.945 13.6913 158.462 15.8672 152.976C15.9681 152.721 15.9681 152.721 16.0711 152.462C17.5483 148.737 19.0226 145.011 20.4898 141.282C26.3606 126.363 26.3606 126.363 29.5975 119.332C29.6741 119.165 29.7507 118.998 29.8297 118.827C35.75 105.957 42.5402 93.4428 51.0301 82.0666C51.2559 81.7639 51.2559 81.7639 51.4862 81.455C53.36 78.9516 55.2527 76.4753 57.2992 74.1103C57.8887 73.4238 58.4552 72.7237 59.0195 72.0165C60.3745 70.3523 61.849 68.8053 63.3228 67.2472C63.7752 66.7654 64.2223 66.2792 64.6677 65.791C66.6741 63.598 68.7757 61.5403 70.9664 59.5319C71.4071 59.1271 71.8452 58.7198 72.2824 58.3112C73.6617 57.0263 75.0711 55.7918 76.5402 54.6103C77.1082 54.153 77.6716 53.6921 78.2325 53.2264C97.0814 37.6293 120.405 27.3146 165.332 21.0122Z" fill="url(#paint0_linear_3_158)" fill-opacity="0.2"/>
<rect x="717" y="78" width="44" height="44" rx="22" fill="#00B774"/>
<defs>
<linearGradient id="paint0_linear_3_158" x1="161" y1="21" x2="161" y2="355" gradientUnits="userSpaceOnUse">
<stop offset="0.5" stop-color="#00BF80"/>
<stop offset="1" stop-color="#00CBFF"/>
</linearGradient>
</defs>
</svg>
