<svg width="49" height="49" viewBox="0 0 49 49" fill="none" xmlns="http://www.w3.org/2000/svg">
<mask id="mask0_5_68" style="mask-type:alpha" maskUnits="userSpaceOnUse" x="0" y="0" width="49" height="49">
<rect width="49" height="49" fill="#D9D9D9"/>
</mask>
<g mask="url(#mask0_5_68)">
<mask id="mask1_5_68" style="mask-type:luminance" maskUnits="userSpaceOnUse" x="1" y="0" width="206" height="50">
<path d="M82.25 40.0641H88.6603L76.9616 6.73076H69.4295L57.7308 40.0641H64.141L66.8654 31.891H79.3654L82.25 40.0641ZM68.468 26.9231L72.9551 13.4615H73.2757L77.7628 26.9231H68.468ZM95.0705 25.4808V40.2244H89.141V15.0641H94.75V19.391H95.0705C95.7116 17.9487 96.5128 16.8269 97.7949 16.0256C99.0769 15.2244 100.679 14.7436 102.442 14.7436C104.205 14.7436 105.647 15.0641 106.929 15.8654C108.212 16.6667 109.173 17.6282 109.974 19.0705C110.615 20.5128 111.096 22.1154 111.096 24.1987V40.0641H105.167V25C105.167 23.3974 104.686 21.9551 103.885 20.9936C103.083 20.0321 101.801 19.5513 100.359 19.5513C99.3975 19.5513 98.4359 19.7115 97.6346 20.1923C96.8333 20.6731 96.1923 21.3141 95.7115 22.1154C95.2308 23.2372 95.0705 24.1987 95.0705 25.4808ZM124.077 50C121.994 50 120.071 49.6795 118.628 49.1987C117.186 48.5577 115.904 47.9167 114.942 46.9551C113.981 45.9936 113.34 44.8718 113.019 43.75L118.308 42.468C118.468 42.9487 118.949 43.4295 119.43 43.9103C119.91 44.391 120.551 44.8718 121.353 45.1923C122.154 45.5128 123.115 45.6731 124.237 45.6731C125.84 45.6731 127.282 45.1923 128.404 44.391C129.526 43.5897 130.006 42.3077 130.006 40.3846V35.5769H129.686C129.365 36.2179 128.885 36.859 128.404 37.5C127.763 38.141 127.122 38.6218 126.16 39.1026C125.199 39.5833 124.077 39.7436 122.635 39.7436C120.712 39.7436 118.949 39.2628 117.346 38.3013C115.744 37.3397 114.622 36.0577 113.66 34.2949C112.699 32.5321 112.218 30.2885 112.218 27.5641C112.218 24.8397 112.699 22.4359 113.66 20.5128C114.622 18.5897 115.744 17.1474 117.346 16.1859C118.949 15.2244 120.712 14.7436 122.635 14.7436C124.077 14.7436 125.359 14.9038 126.321 15.5449C127.282 16.0256 128.083 16.6667 128.564 17.3077C129.205 17.9487 129.526 18.5897 129.846 19.2308H130.167V15.0641H135.936V40.5449C135.936 42.6282 135.455 44.391 134.333 45.8333C133.372 47.2756 131.93 48.2372 130.167 49.0385C128.404 49.6795 126.321 50 124.077 50ZM124.077 35.0962C125.359 35.0962 126.321 34.7756 127.282 34.1346C128.083 33.4936 128.885 32.6923 129.205 31.5705C129.686 30.4487 129.846 29.0064 129.846 27.4038C129.846 25.8013 129.686 24.5192 129.205 23.2372C128.724 22.1154 128.083 21.1538 127.282 20.5128C126.481 19.8718 125.359 19.5513 124.077 19.5513C122.795 19.5513 121.673 19.8718 120.712 20.5128C119.91 21.1538 119.109 22.1154 118.788 23.2372C118.308 24.359 118.147 25.8013 118.147 27.2436C118.147 28.6859 118.308 30.1282 118.788 31.25C119.269 32.3718 119.91 33.3333 120.712 33.9744C121.673 34.7756 122.795 35.0962 124.077 35.0962ZM153.724 29.4872V15.0641H159.654V40.0641H153.885V35.5769H153.564C152.923 37.0192 152.122 38.141 150.84 38.9423C149.558 39.9038 147.955 40.2244 146.032 40.2244C144.43 40.2244 142.987 39.9039 141.705 39.1026C140.423 38.3013 139.462 37.3397 138.821 35.8974C138.18 34.4551 137.699 32.8526 137.699 30.7692V14.9038H143.628V29.9679C143.628 31.5705 144.109 32.8526 144.91 33.8141C145.712 34.7756 146.994 35.2564 148.276 35.2564C149.077 35.2564 150.038 35.0962 150.84 34.6154C151.641 34.1346 152.282 33.4936 152.923 32.6923C153.404 31.891 153.724 30.7692 153.724 29.4872ZM167.506 6.73076V40.0641H161.577V6.73076H167.506ZM176.801 40.5449C175.199 40.5449 173.756 40.2244 172.474 39.7436C171.192 39.1026 170.231 38.3013 169.43 37.1795C168.628 36.0577 168.308 34.6154 168.308 33.0128C168.308 31.5705 168.628 30.4487 169.109 29.4872C169.59 28.5256 170.391 27.8846 171.192 27.2436C172.154 26.7628 173.115 26.282 174.237 25.9615C175.359 25.641 176.481 25.4808 177.763 25.3205C179.205 25.1603 180.487 25 181.288 24.8397C182.25 24.6795 182.891 24.5192 183.212 24.1987C183.692 23.8782 183.853 23.5577 183.853 22.9167V22.7564C183.853 21.4744 183.532 20.5128 182.731 19.8718C181.93 19.2308 180.968 18.9103 179.526 18.9103C178.083 18.9103 176.962 19.2308 176.16 19.8718C175.359 20.5128 174.718 21.3141 174.397 22.1154L168.949 21.3141C169.43 19.8718 170.071 18.5897 171.032 17.4679C171.994 16.5064 173.276 15.7051 174.718 15.2244C176.16 14.7436 177.763 14.4231 179.526 14.4231C180.808 14.4231 181.93 14.5833 183.212 14.9038C184.494 15.2244 185.455 15.7051 186.417 16.3461C187.378 16.9872 188.18 17.7885 188.821 18.9103C189.462 20.0321 189.782 21.4744 189.782 23.0769V39.9039H184.173V36.5385H184.013C183.692 37.1795 183.212 37.8205 182.571 38.4615C181.93 39.1026 181.128 39.5833 180.167 39.9039C179.205 40.3846 178.083 40.5449 176.801 40.5449ZM178.404 36.2179C179.526 36.2179 180.647 36.0577 181.449 35.5769C182.25 35.0962 183.051 34.4551 183.532 33.6538C184.013 32.8526 184.173 32.0513 184.173 31.0897V28.2051C184.013 28.3654 183.692 28.5256 183.212 28.6859C182.731 28.8462 182.25 28.8462 181.769 29.0064C181.288 29.1667 180.647 29.1667 180.167 29.3269C179.686 29.3269 179.205 29.4872 178.724 29.4872C177.923 29.6474 177.122 29.8077 176.321 30.1282C175.68 30.4487 175.038 30.7692 174.718 31.25C174.237 31.7308 174.077 32.3718 174.077 33.1731C174.077 34.2949 174.397 35.0962 175.199 35.5769C176.16 35.8974 177.122 36.2179 178.404 36.2179ZM191.865 40.0641V15.0641H197.635V19.2308H197.955C198.436 17.7885 199.237 16.6667 200.359 15.8654C201.481 15.0641 202.763 14.7436 204.205 14.7436H205.327C205.808 14.7436 206.128 14.7436 206.288 14.9038V20.1923C205.968 20.0321 205.647 20.0321 205.167 20.0321C204.686 20.0321 204.205 19.8718 203.564 19.8718C202.442 19.8718 201.481 20.0321 200.68 20.5128C199.878 20.9936 199.237 21.6346 198.596 22.4359C198.115 23.2372 197.795 24.1987 197.795 25.3205V40.0641H191.865ZM47.3141 8.17307L45.7115 34.4551L29.6859 0L47.3141 8.17307ZM36.2564 42.3077L24.0769 49.1987L11.8974 42.3077L14.6218 36.2179H33.8526L36.2564 42.3077ZM24.2372 13.141L30.6474 28.5256H17.9872C17.8269 28.5256 24.2372 13.141 24.2372 13.141ZM2.60256 34.4551L1 8.17307L18.6282 0L2.60256 34.4551Z" fill="white"/>
<path d="M1 0H206.128V50H1V0Z" fill="white"/>
</mask>
<g mask="url(#mask1_5_68)">
<path d="M82.25 40.0641H88.6603L76.9616 6.73076H69.4295L57.7308 40.0641H64.141L66.8654 31.891H79.3654L82.25 40.0641ZM68.468 26.9231L72.9551 13.4615H73.2757L77.7628 26.9231H68.468ZM95.0705 25.4808V40.2244H89.141V15.0641H94.75V19.391H95.0705C95.7116 17.9487 96.5128 16.8269 97.7949 16.0256C99.0769 15.2244 100.679 14.7436 102.442 14.7436C104.205 14.7436 105.647 15.0641 106.929 15.8654C108.212 16.6667 109.173 17.6282 109.974 19.0705C110.615 20.5128 111.096 22.1154 111.096 24.1987V40.0641H105.167V25C105.167 23.3974 104.686 21.9551 103.885 20.9936C103.083 20.0321 101.801 19.5513 100.359 19.5513C99.3975 19.5513 98.4359 19.7115 97.6346 20.1923C96.8333 20.6731 96.1923 21.3141 95.7115 22.1154C95.2308 23.2372 95.0705 24.1987 95.0705 25.4808ZM124.077 50C121.994 50 120.071 49.6795 118.628 49.1987C117.186 48.5577 115.904 47.9167 114.942 46.9551C113.981 45.9936 113.34 44.8718 113.019 43.75L118.308 42.468C118.468 42.9487 118.949 43.4295 119.43 43.9103C119.91 44.391 120.551 44.8718 121.353 45.1923C122.154 45.5128 123.115 45.6731 124.237 45.6731C125.84 45.6731 127.282 45.1923 128.404 44.391C129.526 43.5897 130.006 42.3077 130.006 40.3846V35.5769H129.686C129.365 36.2179 128.885 36.859 128.404 37.5C127.763 38.141 127.122 38.6218 126.16 39.1026C125.199 39.5833 124.077 39.7436 122.635 39.7436C120.712 39.7436 118.949 39.2628 117.346 38.3013C115.744 37.3397 114.622 36.0577 113.66 34.2949C112.699 32.5321 112.218 30.2885 112.218 27.5641C112.218 24.8397 112.699 22.4359 113.66 20.5128C114.622 18.5897 115.744 17.1474 117.346 16.1859C118.949 15.2244 120.712 14.7436 122.635 14.7436C124.077 14.7436 125.359 14.9038 126.321 15.5449C127.282 16.0256 128.083 16.6667 128.564 17.3077C129.205 17.9487 129.526 18.5897 129.846 19.2308H130.167V15.0641H135.936V40.5449C135.936 42.6282 135.455 44.391 134.333 45.8333C133.372 47.2756 131.93 48.2372 130.167 49.0385C128.404 49.6795 126.321 50 124.077 50ZM124.077 35.0962C125.359 35.0962 126.321 34.7756 127.282 34.1346C128.083 33.4936 128.885 32.6923 129.205 31.5705C129.686 30.4487 129.846 29.0064 129.846 27.4038C129.846 25.8013 129.686 24.5192 129.205 23.2372C128.724 22.1154 128.083 21.1538 127.282 20.5128C126.481 19.8718 125.359 19.5513 124.077 19.5513C122.795 19.5513 121.673 19.8718 120.712 20.5128C119.91 21.1538 119.109 22.1154 118.788 23.2372C118.308 24.359 118.147 25.8013 118.147 27.2436C118.147 28.6859 118.308 30.1282 118.788 31.25C119.269 32.3718 119.91 33.3333 120.712 33.9744C121.673 34.7756 122.795 35.0962 124.077 35.0962ZM153.724 29.4872V15.0641H159.654V40.0641H153.885V35.5769H153.564C152.923 37.0192 152.122 38.141 150.84 38.9423C149.558 39.9038 147.955 40.2244 146.032 40.2244C144.43 40.2244 142.987 39.9039 141.705 39.1026C140.423 38.3013 139.462 37.3397 138.821 35.8974C138.18 34.4551 137.699 32.8526 137.699 30.7692V14.9038H143.628V29.9679C143.628 31.5705 144.109 32.8526 144.91 33.8141C145.712 34.7756 146.994 35.2564 148.276 35.2564C149.077 35.2564 150.038 35.0962 150.84 34.6154C151.641 34.1346 152.282 33.4936 152.923 32.6923C153.404 31.891 153.724 30.7692 153.724 29.4872ZM167.506 6.73076V40.0641H161.577V6.73076H167.506ZM176.801 40.5449C175.199 40.5449 173.756 40.2244 172.474 39.7436C171.192 39.1026 170.231 38.3013 169.43 37.1795C168.628 36.0577 168.308 34.6154 168.308 33.0128C168.308 31.5705 168.628 30.4487 169.109 29.4872C169.59 28.5256 170.391 27.8846 171.192 27.2436C172.154 26.7628 173.115 26.282 174.237 25.9615C175.359 25.641 176.481 25.4808 177.763 25.3205C179.205 25.1603 180.487 25 181.288 24.8397C182.25 24.6795 182.891 24.5192 183.212 24.1987C183.692 23.8782 183.853 23.5577 183.853 22.9167V22.7564C183.853 21.4744 183.532 20.5128 182.731 19.8718C181.93 19.2308 180.968 18.9103 179.526 18.9103C178.083 18.9103 176.962 19.2308 176.16 19.8718C175.359 20.5128 174.718 21.3141 174.397 22.1154L168.949 21.3141C169.43 19.8718 170.071 18.5897 171.032 17.4679C171.994 16.5064 173.276 15.7051 174.718 15.2244C176.16 14.7436 177.763 14.4231 179.526 14.4231C180.808 14.4231 181.93 14.5833 183.212 14.9038C184.494 15.2244 185.455 15.7051 186.417 16.3461C187.378 16.9872 188.18 17.7885 188.821 18.9103C189.462 20.0321 189.782 21.4744 189.782 23.0769V39.9039H184.173V36.5385H184.013C183.692 37.1795 183.212 37.8205 182.571 38.4615C181.93 39.1026 181.128 39.5833 180.167 39.9039C179.205 40.3846 178.083 40.5449 176.801 40.5449ZM178.404 36.2179C179.526 36.2179 180.647 36.0577 181.449 35.5769C182.25 35.0962 183.051 34.4551 183.532 33.6538C184.013 32.8526 184.173 32.0513 184.173 31.0897V28.2051C184.013 28.3654 183.692 28.5256 183.212 28.6859C182.731 28.8462 182.25 28.8462 181.769 29.0064C181.288 29.1667 180.647 29.1667 180.167 29.3269C179.686 29.3269 179.205 29.4872 178.724 29.4872C177.923 29.6474 177.122 29.8077 176.321 30.1282C175.68 30.4487 175.038 30.7692 174.718 31.25C174.237 31.7308 174.077 32.3718 174.077 33.1731C174.077 34.2949 174.397 35.0962 175.199 35.5769C176.16 35.8974 177.122 36.2179 178.404 36.2179ZM191.865 40.0641V15.0641H197.635V19.2308H197.955C198.436 17.7885 199.237 16.6667 200.359 15.8654C201.481 15.0641 202.763 14.7436 204.205 14.7436H205.327C205.808 14.7436 206.128 14.7436 206.288 14.9038V20.1923C205.968 20.0321 205.647 20.0321 205.167 20.0321C204.686 20.0321 204.205 19.8718 203.564 19.8718C202.442 19.8718 201.481 20.0321 200.68 20.5128C199.878 20.9936 199.237 21.6346 198.596 22.4359C198.115 23.2372 197.795 24.1987 197.795 25.3205V40.0641H191.865ZM47.3141 8.17307L45.7115 34.4551L29.6859 0L47.3141 8.17307ZM36.2564 42.3077L24.0769 49.1987L11.8974 42.3077L14.6218 36.2179H33.8526L36.2564 42.3077ZM24.2372 13.141L30.6474 28.5256H17.9872C17.8269 28.5256 24.2372 13.141 24.2372 13.141ZM2.60256 34.4551L1 8.17307L18.6282 0L2.60256 34.4551Z" fill="url(#paint0_linear_5_68)"/>
</g>
</g>
<defs>
<linearGradient id="paint0_linear_5_68" x1="1" y1="25" x2="206.128" y2="25" gradientUnits="userSpaceOnUse">
<stop stop-color="#F0070C"/>
<stop offset="0.526" stop-color="#CC26D5"/>
<stop offset="1" stop-color="#7702FF"/>
</linearGradient>
</defs>
</svg>
