<svg width="107" height="26" viewBox="0 0 107 26" fill="none" xmlns="http://www.w3.org/2000/svg">
<mask id="mask0_5_68" style="mask-type:luminance" maskUnits="userSpaceOnUse" x="0" y="0" width="107" height="26">
<path d="M0 0H106.667V26H0V0Z" fill="white"/>
</mask>
<g mask="url(#mask0_5_68)">
<path d="M42.25 20.8333H45.5833L39.5 3.5H35.5833L29.5 20.8333H32.8333L34.25 16.5833H40.75L42.25 20.8333ZM35.0833 14L37.4167 7H37.5833L39.9167 14H35.0833ZM48.9167 13.25V20.9167H45.8333V7.83333H48.75V10.0833H48.9167C49.25 9.33333 49.6667 8.75 50.3333 8.33333C51 7.91667 51.8333 7.66667 52.75 7.66667C53.6667 7.66667 54.4167 7.83333 55.0833 8.25C55.75 8.66667 56.25 9.16667 56.6667 9.91667C57 10.6667 57.25 11.5 57.25 12.5833V20.8333H54.1667V13C54.1667 12.1667 53.9167 11.4167 53.5 10.9167C53.0833 10.4167 52.4167 10.1667 51.6667 10.1667C51.1667 10.1667 50.6667 10.25 50.25 10.5C49.8333 10.75 49.5 11.0833 49.25 11.5C49 12.0833 48.9167 12.5833 48.9167 13.25ZM64 26C62.9167 26 61.9167 25.8333 61.1667 25.5833C60.4167 25.25 59.75 24.9167 59.25 24.4167C58.75 23.9167 58.4167 23.3333 58.25 22.75L61 22.0833C61.0833 22.3333 61.3333 22.5833 61.5833 22.8333C61.8333 23.0833 62.1667 23.3333 62.5833 23.5C63 23.6667 63.5 23.75 64.0833 23.75C64.9167 23.75 65.6667 23.5 66.25 23.0833C66.8333 22.6667 67.0833 22 67.0833 21V18.5H66.9167C66.75 18.8333 66.5 19.1667 66.25 19.5C65.9167 19.8333 65.5833 20.0833 65.0833 20.3333C64.5833 20.5833 64 20.6667 63.25 20.6667C62.25 20.6667 61.3333 20.4167 60.5 19.9167C59.6667 19.4167 59.0833 18.75 58.5833 17.8333C58.0833 16.9167 57.8333 15.75 57.8333 14.3333C57.8333 12.9167 58.0833 11.6667 58.5833 10.6667C59.0833 9.66667 59.6667 8.91667 60.5 8.41667C61.3333 7.91667 62.25 7.66667 63.25 7.66667C64 7.66667 64.6667 7.75 65.1667 8.08333C65.6667 8.33333 66.0833 8.66667 66.3333 9C66.6667 9.33333 66.8333 9.66667 67 10H67.1667V7.83333H70.1667V21.0833C70.1667 22.1667 69.9167 23.0833 69.3333 23.8333C68.8333 24.5833 68.0833 25.0833 67.1667 25.5C66.25 25.8333 65.1667 26 64 26ZM64 18.25C64.6667 18.25 65.1667 18.0833 65.6667 17.75C66.0833 17.4167 66.5 17 66.6667 16.4167C66.9167 15.8333 67 15.0833 67 14.25C67 13.4167 66.9167 12.75 66.6667 12.0833C66.4167 11.5 66.0833 11 65.6667 10.6667C65.25 10.3333 64.6667 10.1667 64 10.1667C63.3333 10.1667 62.75 10.3333 62.25 10.6667C61.8333 11 61.4167 11.5 61.25 12.0833C61 12.6667 60.9167 13.4167 60.9167 14.1667C60.9167 14.9167 61 15.6667 61.25 16.25C61.5 16.8333 61.8333 17.3333 62.25 17.6667C62.75 18.0833 63.3333 18.25 64 18.25ZM79.4167 15.3333V7.83333H82.5V20.8333H79.5V18.5H79.3333C79 19.25 78.5833 19.8333 77.9167 20.25C77.25 20.75 76.4167 20.9167 75.4167 20.9167C74.5833 20.9167 73.8333 20.75 73.1667 20.3333C72.5 19.9167 72 19.4167 71.6667 18.6667C71.3333 17.9167 71.0833 17.0833 71.0833 16V7.75H74.1667V15.5833C74.1667 16.4167 74.4167 17.0833 74.8333 17.5833C75.25 18.0833 75.9167 18.3333 76.5833 18.3333C77 18.3333 77.5 18.25 77.9167 18C78.3333 17.75 78.6667 17.4167 79 17C79.25 16.5833 79.4167 16 79.4167 15.3333ZM86.5833 3.5V20.8333H83.5V3.5H86.5833ZM91.4167 21.0833C90.5833 21.0833 89.8333 20.9167 89.1667 20.6667C88.5 20.3333 88 19.9167 87.5833 19.3333C87.1667 18.75 87 18 87 17.1667C87 16.4167 87.1667 15.8333 87.4167 15.3333C87.6667 14.8333 88.0833 14.5 88.5 14.1667C89 13.9167 89.5 13.6667 90.0833 13.5C90.6667 13.3333 91.25 13.25 91.9167 13.1667C92.6667 13.0833 93.3333 13 93.75 12.9167C94.25 12.8333 94.5833 12.75 94.75 12.5833C95 12.4167 95.0833 12.25 95.0833 11.9167V11.8333C95.0833 11.1667 94.9167 10.6667 94.5 10.3333C94.0833 10 93.5833 9.83333 92.8333 9.83333C92.0833 9.83333 91.5 10 91.0833 10.3333C90.6667 10.6667 90.3333 11.0833 90.1667 11.5L87.3333 11.0833C87.5833 10.3333 87.9167 9.66667 88.4167 9.08333C88.9167 8.58333 89.5833 8.16667 90.3333 7.91667C91.0833 7.66667 91.9167 7.5 92.8333 7.5C93.5 7.5 94.0833 7.58333 94.75 7.75C95.4167 7.91667 95.9167 8.16667 96.4167 8.5C96.9167 8.83333 97.3333 9.25 97.6667 9.83333C98 10.4167 98.1667 11.1667 98.1667 12V20.75H95.25V19H95.1667C95 19.3333 94.75 19.6667 94.4167 20C94.0833 20.3333 93.6667 20.5833 93.1667 20.75C92.6667 21 92.0833 21.0833 91.4167 21.0833ZM92.25 18.8333C92.8333 18.8333 93.4167 18.75 93.8333 18.5C94.25 18.25 94.6667 17.9167 94.9167 17.5C95.1667 17.0833 95.25 16.6667 95.25 16.1667V14.6667C95.1667 14.75 95 14.8333 94.75 14.9167C94.5 15 94.25 15 94 15.0833C93.75 15.1667 93.4167 15.1667 93.1667 15.25C92.9167 15.25 92.6667 15.3333 92.4167 15.3333C92 15.4167 91.5833 15.5 91.1667 15.6667C90.8333 15.8333 90.5 16 90.3333 16.25C90.0833 16.5 90 16.8333 90 17.25C90 17.8333 90.1667 18.25 90.5833 18.5C91.0833 18.6667 91.5833 18.8333 92.25 18.8333ZM99.25 20.8333V7.83333H102.25V10H102.417C102.667 9.25 103.083 8.66667 103.667 8.25C104.25 7.83333 104.917 7.66667 105.667 7.66667H106.25C106.5 7.66667 106.667 7.66667 106.75 7.75V10.5C106.583 10.4167 106.417 10.4167 106.167 10.4167C105.917 10.4167 105.667 10.3333 105.333 10.3333C104.75 10.3333 104.25 10.4167 103.833 10.6667C103.417 10.9167 103.083 11.25 102.75 11.6667C102.5 12.0833 102.333 12.5833 102.333 13.1667V20.8333H99.25ZM24.0833 4.25L23.25 17.9167L14.9167 0L24.0833 4.25ZM18.3333 22L12 25.5833L5.66667 22L7.08333 18.8333H17.0833L18.3333 22ZM12.0833 6.83333L15.4167 14.8333H8.83333C8.75 14.8333 12.0833 6.83333 12.0833 6.83333ZM0.833333 17.9167L0 4.25L9.16667 0L0.833333 17.9167Z" fill="url(#paint0_linear_5_68)"/>
<path d="M42.25 20.8333H45.5833L39.5 3.5H35.5833L29.5 20.8333H32.8333L34.25 16.5833H40.75L42.25 20.8333ZM35.0833 14L37.4167 7H37.5833L39.9167 14H35.0833ZM48.9167 13.25V20.9167H45.8333V7.83333H48.75V10.0833H48.9167C49.25 9.33333 49.6667 8.75 50.3333 8.33333C51 7.91667 51.8333 7.66667 52.75 7.66667C53.6667 7.66667 54.4167 7.83333 55.0833 8.25C55.75 8.66667 56.25 9.16667 56.6667 9.91667C57 10.6667 57.25 11.5 57.25 12.5833V20.8333H54.1667V13C54.1667 12.1667 53.9167 11.4167 53.5 10.9167C53.0833 10.4167 52.4167 10.1667 51.6667 10.1667C51.1667 10.1667 50.6667 10.25 50.25 10.5C49.8333 10.75 49.5 11.0833 49.25 11.5C49 12.0833 48.9167 12.5833 48.9167 13.25ZM64 26C62.9167 26 61.9167 25.8333 61.1667 25.5833C60.4167 25.25 59.75 24.9167 59.25 24.4167C58.75 23.9167 58.4167 23.3333 58.25 22.75L61 22.0833C61.0833 22.3333 61.3333 22.5833 61.5833 22.8333C61.8333 23.0833 62.1667 23.3333 62.5833 23.5C63 23.6667 63.5 23.75 64.0833 23.75C64.9167 23.75 65.6667 23.5 66.25 23.0833C66.8333 22.6667 67.0833 22 67.0833 21V18.5H66.9167C66.75 18.8333 66.5 19.1667 66.25 19.5C65.9167 19.8333 65.5833 20.0833 65.0833 20.3333C64.5833 20.5833 64 20.6667 63.25 20.6667C62.25 20.6667 61.3333 20.4167 60.5 19.9167C59.6667 19.4167 59.0833 18.75 58.5833 17.8333C58.0833 16.9167 57.8333 15.75 57.8333 14.3333C57.8333 12.9167 58.0833 11.6667 58.5833 10.6667C59.0833 9.66667 59.6667 8.91667 60.5 8.41667C61.3333 7.91667 62.25 7.66667 63.25 7.66667C64 7.66667 64.6667 7.75 65.1667 8.08333C65.6667 8.33333 66.0833 8.66667 66.3333 9C66.6667 9.33333 66.8333 9.66667 67 10H67.1667V7.83333H70.1667V21.0833C70.1667 22.1667 69.9167 23.0833 69.3333 23.8333C68.8333 24.5833 68.0833 25.0833 67.1667 25.5C66.25 25.8333 65.1667 26 64 26ZM64 18.25C64.6667 18.25 65.1667 18.0833 65.6667 17.75C66.0833 17.4167 66.5 17 66.6667 16.4167C66.9167 15.8333 67 15.0833 67 14.25C67 13.4167 66.9167 12.75 66.6667 12.0833C66.4167 11.5 66.0833 11 65.6667 10.6667C65.25 10.3333 64.6667 10.1667 64 10.1667C63.3333 10.1667 62.75 10.3333 62.25 10.6667C61.8333 11 61.4167 11.5 61.25 12.0833C61 12.6667 60.9167 13.4167 60.9167 14.1667C60.9167 14.9167 61 15.6667 61.25 16.25C61.5 16.8333 61.8333 17.3333 62.25 17.6667C62.75 18.0833 63.3333 18.25 64 18.25ZM79.4167 15.3333V7.83333H82.5V20.8333H79.5V18.5H79.3333C79 19.25 78.5833 19.8333 77.9167 20.25C77.25 20.75 76.4167 20.9167 75.4167 20.9167C74.5833 20.9167 73.8333 20.75 73.1667 20.3333C72.5 19.9167 72 19.4167 71.6667 18.6667C71.3333 17.9167 71.0833 17.0833 71.0833 16V7.75H74.1667V15.5833C74.1667 16.4167 74.4167 17.0833 74.8333 17.5833C75.25 18.0833 75.9167 18.3333 76.5833 18.3333C77 18.3333 77.5 18.25 77.9167 18C78.3333 17.75 78.6667 17.4167 79 17C79.25 16.5833 79.4167 16 79.4167 15.3333ZM86.5833 3.5V20.8333H83.5V3.5H86.5833ZM91.4167 21.0833C90.5833 21.0833 89.8333 20.9167 89.1667 20.6667C88.5 20.3333 88 19.9167 87.5833 19.3333C87.1667 18.75 87 18 87 17.1667C87 16.4167 87.1667 15.8333 87.4167 15.3333C87.6667 14.8333 88.0833 14.5 88.5 14.1667C89 13.9167 89.5 13.6667 90.0833 13.5C90.6667 13.3333 91.25 13.25 91.9167 13.1667C92.6667 13.0833 93.3333 13 93.75 12.9167C94.25 12.8333 94.5833 12.75 94.75 12.5833C95 12.4167 95.0833 12.25 95.0833 11.9167V11.8333C95.0833 11.1667 94.9167 10.6667 94.5 10.3333C94.0833 10 93.5833 9.83333 92.8333 9.83333C92.0833 9.83333 91.5 10 91.0833 10.3333C90.6667 10.6667 90.3333 11.0833 90.1667 11.5L87.3333 11.0833C87.5833 10.3333 87.9167 9.66667 88.4167 9.08333C88.9167 8.58333 89.5833 8.16667 90.3333 7.91667C91.0833 7.66667 91.9167 7.5 92.8333 7.5C93.5 7.5 94.0833 7.58333 94.75 7.75C95.4167 7.91667 95.9167 8.16667 96.4167 8.5C96.9167 8.83333 97.3333 9.25 97.6667 9.83333C98 10.4167 98.1667 11.1667 98.1667 12V20.75H95.25V19H95.1667C95 19.3333 94.75 19.6667 94.4167 20C94.0833 20.3333 93.6667 20.5833 93.1667 20.75C92.6667 21 92.0833 21.0833 91.4167 21.0833ZM92.25 18.8333C92.8333 18.8333 93.4167 18.75 93.8333 18.5C94.25 18.25 94.6667 17.9167 94.9167 17.5C95.1667 17.0833 95.25 16.6667 95.25 16.1667V14.6667C95.1667 14.75 95 14.8333 94.75 14.9167C94.5 15 94.25 15 94 15.0833C93.75 15.1667 93.4167 15.1667 93.1667 15.25C92.9167 15.25 92.6667 15.3333 92.4167 15.3333C92 15.4167 91.5833 15.5 91.1667 15.6667C90.8333 15.8333 90.5 16 90.3333 16.25C90.0833 16.5 90 16.8333 90 17.25C90 17.8333 90.1667 18.25 90.5833 18.5C91.0833 18.6667 91.5833 18.8333 92.25 18.8333ZM99.25 20.8333V7.83333H102.25V10H102.417C102.667 9.25 103.083 8.66667 103.667 8.25C104.25 7.83333 104.917 7.66667 105.667 7.66667H106.25C106.5 7.66667 106.667 7.66667 106.75 7.75V10.5C106.583 10.4167 106.417 10.4167 106.167 10.4167C105.917 10.4167 105.667 10.3333 105.333 10.3333C104.75 10.3333 104.25 10.4167 103.833 10.6667C103.417 10.9167 103.083 11.25 102.75 11.6667C102.5 12.0833 102.333 12.5833 102.333 13.1667V20.8333H99.25ZM24.0833 4.25L23.25 17.9167L14.9167 0L24.0833 4.25ZM18.3333 22L12 25.5833L5.66667 22L7.08333 18.8333H17.0833L18.3333 22ZM12.0833 6.83333L15.4167 14.8333H8.83333C8.75 14.8333 12.0833 6.83333 12.0833 6.83333ZM0.833333 17.9167L0 4.25L9.16667 0L0.833333 17.9167Z" fill="url(#paint1_radial_5_68)"/>
</g>
<defs>
<linearGradient id="paint0_linear_5_68" x1="0" y1="13" x2="106.667" y2="13" gradientUnits="userSpaceOnUse">
<stop stop-color="#F0070C"/>
<stop offset="0.526" stop-color="#CC26D5"/>
<stop offset="1" stop-color="#7702FF"/>
</linearGradient>
<radialGradient id="paint1_radial_5_68" cx="0" cy="0" r="1" gradientUnits="userSpaceOnUse" gradientTransform="translate(33.0924 -6.78279) rotate(118.122) scale(22.2944)">
<stop stop-color="#FF41F8"/>
<stop offset="0.707" stop-color="#FF41F8" stop-opacity="0.5"/>
<stop offset="1" stop-color="#FF41F8" stop-opacity="0"/>
</radialGradient>
</defs>
</svg>
