<svg width="76" height="27" viewBox="0 0 76 27" fill="none" xmlns="http://www.w3.org/2000/svg">
<path d="M8.88068 0H13V19.4274C10.8874 19.8363 9.33557 20 7.65076 20C2.62166 20 0 17.6833 0 13.2406C0 8.96217 2.78231 6.18262 7.08877 6.18262C7.75728 6.18262 8.26572 6.23658 8.88068 6.40026V0ZM8.88068 9.77876C8.3993 9.61569 7.99796 9.56113 7.49011 9.56113C5.40338 9.56113 4.19995 10.8694 4.19995 13.1585C4.19995 15.393 5.34983 16.6197 7.46304 16.6197C7.91793 16.6197 8.29279 16.5921 8.88126 16.5106L8.88068 9.77876Z" fill="#092E20"/>
<path d="M19.2951 6.50966V16.3155C19.2951 19.6933 19.0504 21.3139 18.3163 22.7146C17.636 24.0615 16.7385 24.9123 14.8891 25.8465L11 23.9787C12.8494 23.0995 13.7463 22.3309 14.3177 21.1496C14.916 19.9411 15.1075 18.5404 15.1075 14.8593V6.50966H19.2951ZM15.1069 0H19.2951V4.33977H15.1069V0ZM21.8255 7.47103C23.6743 6.59244 25.4423 6.20813 27.3737 6.20813C29.5217 6.20813 30.9361 6.7846 31.562 7.91093C31.915 8.54238 32.0239 9.36658 32.0239 11.1244V19.7211C30.1475 19.9961 27.7818 20.1882 26.0406 20.1882C22.5327 20.1882 20.9549 18.9519 20.9549 16.2056C20.9549 13.2387 23.049 11.8658 28.1892 11.4259V10.4923C28.1892 9.72309 27.8087 9.44876 26.7479 9.44876C25.1982 9.44876 23.4571 9.88806 21.8249 10.7401L21.8255 7.47103ZM28.3795 14.2006C25.6057 14.475 24.7082 14.9149 24.7082 16.0134C24.7082 16.837 25.2251 17.2219 26.3673 17.2219C26.9926 17.2219 27.564 17.1675 28.3795 17.0298V14.2006ZM34.0647 7.1689C36.5394 6.51026 38.5791 6.20813 40.6463 6.20813C42.7949 6.20813 44.3451 6.70181 45.2701 7.66379C46.1407 8.57017 46.4123 9.55813 46.4123 11.6736V19.9683H42.2241V11.8392C42.2241 10.2186 41.6796 9.61433 40.1838 9.61433C39.613 9.61433 39.0966 9.66871 38.253 9.91646V19.9689H34.0647V7.1689ZM48.0398 22.2753C49.5087 23.0445 50.9769 23.4017 52.5272 23.4017C55.2735 23.4017 56.4432 22.2753 56.4432 19.5834V19.5012C55.6277 19.9133 54.8116 20.0782 53.7238 20.0782C50.0519 20.0782 47.7131 17.6334 47.7131 13.7607C47.7131 8.95387 51.1672 6.23472 57.2863 6.23472C59.0812 6.23472 60.7404 6.42687 62.7531 6.83898L61.319 9.89047C60.2037 9.67052 61.2292 9.86026 60.3868 9.77808V10.218L60.4406 12.003L60.4681 14.31C60.4957 14.8871 60.4957 15.4641 60.5226 16.0406V17.1947C60.5226 20.8203 60.2234 22.5225 59.3259 23.9231C58.0204 25.9836 55.7635 27 52.5541 27C50.9219 27 49.5087 26.7523 48.0392 26.1758V22.2747L48.0398 22.2753ZM56.3624 9.64031H55.9269C55.1114 9.61312 54.1594 9.83247 53.5061 10.2446C52.5003 10.8216 51.9833 11.8652 51.9833 13.3486C51.9833 15.4635 53.0166 16.672 54.866 16.672C55.4374 16.672 55.8999 16.5621 56.4432 16.3977V14.9415C56.4432 14.4478 56.4163 13.8979 56.4163 13.3214L56.3894 11.3715L56.3619 9.97023V9.64092L56.3624 9.64031ZM69.2551 6.15315C73.4434 6.15315 76 8.81731 76 13.1293C76 17.5518 73.3351 20.326 69.0918 20.326C64.9035 20.326 62.32 17.6612 62.32 13.377C62.32 8.92668 64.9855 6.15315 69.2551 6.15315ZM69.1731 16.9198C70.7778 16.9198 71.7304 15.5735 71.7304 13.2393C71.7304 10.9322 70.8054 9.55874 69.2013 9.55874C67.5415 9.55874 66.5896 10.905 66.5896 13.2387C66.5896 15.5741 67.5415 16.9198 69.1731 16.9198Z" fill="#092E20"/>
</svg>
