<svg width="50" height="50" viewBox="0 0 50 50" fill="none" xmlns="http://www.w3.org/2000/svg">
<mask id="mask0_17_2" style="mask-type:alpha" maskUnits="userSpaceOnUse" x="0" y="0" width="49" height="49">
<rect width="49" height="49" fill="#D9D9D9"/>
</mask>
<g mask="url(#mask0_17_2)">
</g>
<path d="M23.2219 0H31.3977V37.8437C27.2035 38.6406 24.1242 38.959 20.7801 38.959C10.7992 38.9586 5.5965 34.4469 5.5965 25.793C5.5965 17.4578 11.118 12.043 19.6649 12.043C20.9922 12.043 22.0008 12.1492 23.2219 12.4676V0ZM23.2219 19.0488C22.2664 18.7305 21.4699 18.6246 20.4613 18.6246C16.3207 18.6246 13.9313 21.1727 13.9313 25.632C13.9313 29.9855 16.2145 32.3742 20.4086 32.3742C21.3106 32.3742 22.0539 32.3211 23.2219 32.1625V19.0488Z" fill="#112B21"/>
<path d="M44.4031 12.6254V31.5781C44.4031 38.1082 43.925 41.2402 42.4918 43.9476C41.1645 46.5496 39.4125 48.1949 35.8027 50L28.2109 46.3902C31.8211 44.691 33.5727 43.2054 34.6875 40.9215C35.8555 38.5859 36.2277 35.8785 36.2277 28.7644V12.6254H44.4031ZM36.2273 0.043335H44.4031V8.43162H36.2273V0.043335Z" fill="#112B21"/>
</svg>
