<svg width="49" height="49" viewBox="0 0 49 49" fill="none" xmlns="http://www.w3.org/2000/svg">
<mask id="mask0_16_152" style="mask-type:alpha" maskUnits="userSpaceOnUse" x="0" y="0" width="49" height="49">
<rect width="49" height="49" fill="#D9D9D9"/>
</mask>
<g mask="url(#mask0_16_152)">
<path d="M49 36.2846C47.2541 36.715 46.1744 36.3031 45.2058 34.8931C43.0311 31.7355 40.6305 28.7226 38.3142 25.6541C38.0156 25.2571 37.7054 24.8675 37.3187 24.374C34.5774 27.9583 31.8399 31.3719 29.2709 34.9228C28.352 36.1918 27.3872 36.7447 25.6719 36.2957L35.9787 22.8898L26.3841 10.7826C28.0342 10.4709 29.1752 10.6304 30.1859 12.0627C32.418 15.224 34.8799 18.2332 37.3341 21.4167C39.8035 18.2443 42.2347 15.2314 44.5319 12.0998C45.4547 10.8308 46.4463 10.3484 48.1041 10.816C46.8483 12.43 45.6193 14.0181 44.3826 15.595C42.7133 17.7211 41.0747 19.8732 39.3441 21.9548C38.7277 22.6969 38.8272 23.1792 39.3786 23.8805C42.5793 27.9583 45.7418 32.0769 49 36.2846ZM1.01149 22.6672C1.28715 21.3277 1.47093 19.9622 1.85379 18.6487C4.15099 10.6972 13.5695 7.39121 20.04 12.3187C23.8303 15.2091 24.7722 19.2832 24.5846 23.8768H3.22063C2.89902 32.1177 9.02106 37.0934 16.8239 34.5555C19.5614 33.665 21.1732 31.5871 21.9811 28.9898C22.3908 27.6874 23.0684 27.4833 24.3319 27.8544C23.6849 31.1048 22.2185 33.8208 19.1555 35.5202C14.5611 38.0656 8.00263 37.2419 4.553 33.7058C2.51615 31.6279 1.65087 29.0417 1.26801 26.2478C1.21058 25.8025 1.09189 25.3647 1 24.9231C1.00766 24.1711 1.01149 23.4192 1.01149 22.6672ZM3.25891 22.1143H22.5669C22.4405 16.1553 18.6119 11.9217 13.3781 11.8846C7.63508 11.84 3.50778 15.9735 3.25891 22.1143Z" fill="black" stroke="black"/>
</g>
</svg>
