<svg width="126" height="30" viewBox="0 0 126 30" fill="none" xmlns="http://www.w3.org/2000/svg">
<mask id="path-1-outside-1_5_30" maskUnits="userSpaceOnUse" x="0" y="0" width="126" height="30" fill="black">
<rect fill="white" width="126" height="30"/>
<path d="M39.4 28.6219V1.54188H40.87V5.80187C41.0436 5.61316 41.204 5.41269 41.35 5.20188C41.9507 3.95499 42.8943 2.90517 44.0704 2.17546C45.2464 1.44576 46.6061 1.0664 47.99 1.08187C51.34 0.981872 54.06 2.22188 55.66 5.20188C56.6781 7.0531 57.2383 9.12107 57.294 11.233C57.3497 13.345 56.8991 15.4396 55.98 17.3419C54.49 20.6819 50.81 22.3419 46.87 21.7319C45.6439 21.6274 44.4635 21.2177 43.4364 20.5399C42.4093 19.8622 41.5683 18.9381 40.99 17.8519V28.6219H39.4ZM40.87 11.1219C41 12.4419 41.05 13.3819 41.2 14.3019C41.78 17.9219 43.92 20.0719 47.28 20.4619C48.8577 20.7212 50.4765 20.4254 51.8605 19.6249C53.2445 18.8244 54.3081 17.5687 54.87 16.0719C55.5157 14.5322 55.8264 12.8728 55.7816 11.2039C55.7368 9.53495 55.3374 7.89463 54.61 6.39187C54.0102 5.05027 52.9902 3.94026 51.7039 3.22948C50.4177 2.5187 48.9351 2.24576 47.48 2.45188C46.1139 2.55085 44.8125 3.07305 43.7569 3.94585C42.7013 4.81865 41.9439 5.99868 41.59 7.32187C41.2768 8.57357 41.0364 9.84236 40.87 11.1219ZM87.28 14.8019C87.0573 16.7085 86.1497 18.4693 84.7259 19.7569C83.3022 21.0445 81.4593 21.7712 79.54 21.8019C73.38 22.1119 70.49 18.0219 70.03 13.3019C69.7107 10.7387 70.1269 8.13751 71.23 5.80187C71.9982 4.19977 73.2563 2.88369 74.8222 2.04411C76.388 1.20454 78.1805 0.885049 79.94 1.13188C81.6128 1.27365 83.1986 1.93807 84.4728 3.03105C85.7471 4.12403 86.6452 5.59018 87.04 7.22187C87.353 8.70797 87.5833 10.2103 87.73 11.7219H71.54C71.24 16.0019 73.54 19.4419 76.8 20.2719C80.86 21.2719 84.33 19.5119 85.59 15.6519C85.87 14.6619 86.38 14.5219 87.28 14.8019ZM71.54 10.3519H86.01C85.92 5.79187 83.08 2.49187 79.23 2.44187C74.87 2.37187 71.73 5.55187 71.54 10.3519ZM90.26 14.9019H91.68C91.7325 15.9467 92.072 16.9569 92.6612 17.8214C93.2505 18.6858 94.0666 19.3711 95.02 19.8019C96.2172 20.3406 97.5205 20.6024 98.8328 20.5678C100.145 20.5332 101.433 20.203 102.6 19.6019C103.236 19.3151 103.769 18.8402 104.126 18.2412C104.484 17.6421 104.649 16.9478 104.6 16.2519C104.637 15.5807 104.453 14.9159 104.078 14.3582C103.703 13.8006 103.156 13.3806 102.52 13.1619C100.96 12.5819 99.3 12.2619 97.71 11.7519C96.0556 11.2808 94.438 10.6892 92.87 9.98187C90.31 8.73187 90.15 3.86187 93.05 2.32187C94.5349 1.48391 96.2061 1.03117 97.9109 1.00497C99.6158 0.978767 101.3 1.37994 102.81 2.17187C103.725 2.6774 104.464 3.44975 104.928 4.38595C105.393 5.32214 105.561 6.3777 105.41 7.41187H104.19C104.19 7.35187 104.08 7.30187 104.08 7.24187C103.93 3.35187 100.67 2.15187 97.17 2.49187C96.1252 2.62075 95.1104 2.92858 94.17 3.40187C93.6051 3.66023 93.1343 4.0876 92.8226 4.62497C92.5109 5.16234 92.3737 5.78321 92.43 6.40187C92.4317 7.02082 92.6249 7.62407 92.9829 8.12894C93.341 8.6338 93.8465 9.01556 94.43 9.22187C95.97 9.78187 97.58 10.1419 99.16 10.5819C100.43 10.9319 101.75 11.1619 102.98 11.5819C103.848 11.8665 104.609 12.408 105.163 13.1348C105.717 13.8616 106.036 14.7393 106.08 15.6519C106.228 16.6517 106.058 17.6729 105.593 18.5705C105.128 19.468 104.392 20.1963 103.49 20.6519C100.15 22.5419 94.65 22.0419 92.2 19.6519C91.5791 19.0274 91.088 18.2861 90.755 17.4709C90.422 16.6556 90.2538 15.7825 90.26 14.9019ZM124.08 7.41187H122.75C122.75 7.23187 122.68 7.07187 122.66 6.92187C122.638 5.92493 122.275 4.96567 121.631 4.20471C120.986 3.44376 120.1 2.92732 119.12 2.74187C117.271 2.21146 115.299 2.30637 113.51 3.01187C112.803 3.21465 112.18 3.64071 111.735 4.22645C111.29 4.81219 111.046 5.52619 111.04 6.26187C111.015 6.98437 111.24 7.69332 111.678 8.26903C112.115 8.84473 112.737 9.25193 113.44 9.42187C115.44 10.0419 117.49 10.4219 119.52 10.9819C120.178 11.1398 120.826 11.3368 121.46 11.5719C122.407 11.9108 123.23 12.5275 123.821 13.3416C124.413 14.1556 124.744 15.1291 124.774 16.1347C124.803 17.1403 124.528 18.1314 123.985 18.9783C123.442 19.8252 122.656 20.4886 121.73 20.8819C120.319 21.5227 118.789 21.8617 117.24 21.8772C115.69 21.8927 114.154 21.5843 112.73 20.9719C111.559 20.4669 110.571 19.6154 109.899 18.532C109.227 17.4485 108.903 16.1851 108.97 14.9119H110.27C110.51 16.0722 111.03 17.1563 111.784 18.0705C112.538 18.9847 113.503 19.7013 114.597 20.1583C115.69 20.6153 116.878 20.799 118.058 20.6933C119.239 20.5876 120.375 20.1958 121.37 19.5519C121.976 19.2371 122.479 18.7551 122.819 18.1631C123.16 17.5711 123.323 16.8939 123.29 16.2119C123.32 15.5403 123.13 14.8772 122.75 14.3232C122.369 13.7691 121.818 13.3544 121.18 13.1419C119.62 12.5619 117.96 12.2519 116.37 11.7419C114.706 11.278 113.079 10.6931 111.5 9.99187C109 8.76187 108.8 3.93187 111.65 2.39187C113.153 1.5188 114.857 1.04981 116.596 1.03053C118.334 1.01125 120.048 1.44235 121.57 2.28187C122.441 2.80161 123.141 3.56323 123.587 4.47402C124.033 5.38481 124.204 6.40551 124.08 7.41187ZM36.97 21.3119C36.4464 21.5101 35.8684 21.5097 35.3451 21.3107C34.8218 21.1117 34.3895 20.7279 34.13 20.2319C32.5 17.7919 30.7 15.4619 28.97 13.0819L28.22 12.0819C26.16 14.8419 24.1 17.4919 22.22 20.2419C21.9751 20.716 21.5661 21.0849 21.0694 21.2799C20.5727 21.4749 20.0221 21.4827 19.52 21.3019L27.25 10.9319L20.06 1.56187C20.5776 1.37499 21.1438 1.37243 21.663 1.55462C22.1822 1.7368 22.6227 2.09258 22.91 2.56187C24.58 5.00187 26.43 7.33187 28.27 9.80187C30.12 7.35187 31.95 5.01187 33.66 2.59187C33.9063 2.12549 34.3154 1.7659 34.8096 1.58152C35.3037 1.39713 35.8484 1.40082 36.34 1.59187L33.55 5.29188C32.3 6.94188 31.07 8.60187 29.77 10.2119C29.6652 10.3057 29.5815 10.4205 29.5241 10.5489C29.4667 10.6772 29.4371 10.8163 29.4371 10.9569C29.4371 11.0975 29.4667 11.2365 29.5241 11.3649C29.5815 11.4932 29.6652 11.6081 29.77 11.7019C32.16 14.8719 34.53 18.0519 36.97 21.3119ZM69.79 1.46187V2.86188C68.7786 2.79554 67.7645 2.94201 66.8132 3.29184C65.8619 3.64167 64.9945 4.18708 64.2671 4.89288C63.5396 5.59867 62.9682 6.44916 62.5898 7.38944C62.2113 8.32973 62.0343 9.33892 62.07 10.3519V21.3519H60.64V1.54188H62.04V5.60187C63.77 2.64187 66.44 1.54187 69.79 1.46187ZM1 10.8019C1.21 9.80187 1.34 8.71187 1.63 7.69187C3.36 1.54187 10.41 -1.01812 15.26 2.79188C18.1 5.02188 18.81 8.18187 18.67 11.7419H2.67C2.41 18.1019 7 21.9419 12.87 19.9819C13.8222 19.6413 14.6746 19.0689 15.3502 18.3164C16.0259 17.564 16.5035 16.6551 16.74 15.6719C17.05 14.6719 17.55 14.5019 18.5 14.7919C18.3435 16.0093 17.9131 17.1754 17.241 18.2025C16.569 19.2296 15.6729 20.091 14.62 20.7219C12.8804 21.6732 10.8845 22.05 8.91784 21.7986C6.95114 21.5471 5.1143 20.6802 3.67 19.3219C2.24116 17.7153 1.3772 15.6854 1.21 13.5419C1.21 13.2019 1.08 12.8619 1.01 12.5419C1.00333 11.9485 1 11.3685 1 10.8019ZM2.69 10.3719H17.16C17.07 5.76187 14.16 2.49187 10.28 2.46187C5.96 2.40187 2.87 5.60187 2.68 10.3519L2.69 10.3719Z"/>
</mask>
<path d="M39.4 28.6219V1.54188H40.87V5.80187C41.0436 5.61316 41.204 5.41269 41.35 5.20188C41.9507 3.95499 42.8943 2.90517 44.0704 2.17546C45.2464 1.44576 46.6061 1.0664 47.99 1.08187C51.34 0.981872 54.06 2.22188 55.66 5.20188C56.6781 7.0531 57.2383 9.12107 57.294 11.233C57.3497 13.345 56.8991 15.4396 55.98 17.3419C54.49 20.6819 50.81 22.3419 46.87 21.7319C45.6439 21.6274 44.4635 21.2177 43.4364 20.5399C42.4093 19.8622 41.5683 18.9381 40.99 17.8519V28.6219H39.4ZM40.87 11.1219C41 12.4419 41.05 13.3819 41.2 14.3019C41.78 17.9219 43.92 20.0719 47.28 20.4619C48.8577 20.7212 50.4765 20.4254 51.8605 19.6249C53.2445 18.8244 54.3081 17.5687 54.87 16.0719C55.5157 14.5322 55.8264 12.8728 55.7816 11.2039C55.7368 9.53495 55.3374 7.89463 54.61 6.39187C54.0102 5.05027 52.9902 3.94026 51.7039 3.22948C50.4177 2.5187 48.9351 2.24576 47.48 2.45188C46.1139 2.55085 44.8125 3.07305 43.7569 3.94585C42.7013 4.81865 41.9439 5.99868 41.59 7.32187C41.2768 8.57357 41.0364 9.84236 40.87 11.1219ZM87.28 14.8019C87.0573 16.7085 86.1497 18.4693 84.7259 19.7569C83.3022 21.0445 81.4593 21.7712 79.54 21.8019C73.38 22.1119 70.49 18.0219 70.03 13.3019C69.7107 10.7387 70.1269 8.13751 71.23 5.80187C71.9982 4.19977 73.2563 2.88369 74.8222 2.04411C76.388 1.20454 78.1805 0.885049 79.94 1.13188C81.6128 1.27365 83.1986 1.93807 84.4728 3.03105C85.7471 4.12403 86.6452 5.59018 87.04 7.22187C87.353 8.70797 87.5833 10.2103 87.73 11.7219H71.54C71.24 16.0019 73.54 19.4419 76.8 20.2719C80.86 21.2719 84.33 19.5119 85.59 15.6519C85.87 14.6619 86.38 14.5219 87.28 14.8019ZM71.54 10.3519H86.01C85.92 5.79187 83.08 2.49187 79.23 2.44187C74.87 2.37187 71.73 5.55187 71.54 10.3519ZM90.26 14.9019H91.68C91.7325 15.9467 92.072 16.9569 92.6612 17.8214C93.2505 18.6858 94.0666 19.3711 95.02 19.8019C96.2172 20.3406 97.5205 20.6024 98.8328 20.5678C100.145 20.5332 101.433 20.203 102.6 19.6019C103.236 19.3151 103.769 18.8402 104.126 18.2412C104.484 17.6421 104.649 16.9478 104.6 16.2519C104.637 15.5807 104.453 14.9159 104.078 14.3582C103.703 13.8006 103.156 13.3806 102.52 13.1619C100.96 12.5819 99.3 12.2619 97.71 11.7519C96.0556 11.2808 94.438 10.6892 92.87 9.98187C90.31 8.73187 90.15 3.86187 93.05 2.32187C94.5349 1.48391 96.2061 1.03117 97.9109 1.00497C99.6158 0.978767 101.3 1.37994 102.81 2.17187C103.725 2.6774 104.464 3.44975 104.928 4.38595C105.393 5.32214 105.561 6.3777 105.41 7.41187H104.19C104.19 7.35187 104.08 7.30187 104.08 7.24187C103.93 3.35187 100.67 2.15187 97.17 2.49187C96.1252 2.62075 95.1104 2.92858 94.17 3.40187C93.6051 3.66023 93.1343 4.0876 92.8226 4.62497C92.5109 5.16234 92.3737 5.78321 92.43 6.40187C92.4317 7.02082 92.6249 7.62407 92.9829 8.12894C93.341 8.6338 93.8465 9.01556 94.43 9.22187C95.97 9.78187 97.58 10.1419 99.16 10.5819C100.43 10.9319 101.75 11.1619 102.98 11.5819C103.848 11.8665 104.609 12.408 105.163 13.1348C105.717 13.8616 106.036 14.7393 106.08 15.6519C106.228 16.6517 106.058 17.6729 105.593 18.5705C105.128 19.468 104.392 20.1963 103.49 20.6519C100.15 22.5419 94.65 22.0419 92.2 19.6519C91.5791 19.0274 91.088 18.2861 90.755 17.4709C90.422 16.6556 90.2538 15.7825 90.26 14.9019ZM124.08 7.41187H122.75C122.75 7.23187 122.68 7.07187 122.66 6.92187C122.638 5.92493 122.275 4.96567 121.631 4.20471C120.986 3.44376 120.1 2.92732 119.12 2.74187C117.271 2.21146 115.299 2.30637 113.51 3.01187C112.803 3.21465 112.18 3.64071 111.735 4.22645C111.29 4.81219 111.046 5.52619 111.04 6.26187C111.015 6.98437 111.24 7.69332 111.678 8.26903C112.115 8.84473 112.737 9.25193 113.44 9.42187C115.44 10.0419 117.49 10.4219 119.52 10.9819C120.178 11.1398 120.826 11.3368 121.46 11.5719C122.407 11.9108 123.23 12.5275 123.821 13.3416C124.413 14.1556 124.744 15.1291 124.774 16.1347C124.803 17.1403 124.528 18.1314 123.985 18.9783C123.442 19.8252 122.656 20.4886 121.73 20.8819C120.319 21.5227 118.789 21.8617 117.24 21.8772C115.69 21.8927 114.154 21.5843 112.73 20.9719C111.559 20.4669 110.571 19.6154 109.899 18.532C109.227 17.4485 108.903 16.1851 108.97 14.9119H110.27C110.51 16.0722 111.03 17.1563 111.784 18.0705C112.538 18.9847 113.503 19.7013 114.597 20.1583C115.69 20.6153 116.878 20.799 118.058 20.6933C119.239 20.5876 120.375 20.1958 121.37 19.5519C121.976 19.2371 122.479 18.7551 122.819 18.1631C123.16 17.5711 123.323 16.8939 123.29 16.2119C123.32 15.5403 123.13 14.8772 122.75 14.3232C122.369 13.7691 121.818 13.3544 121.18 13.1419C119.62 12.5619 117.96 12.2519 116.37 11.7419C114.706 11.278 113.079 10.6931 111.5 9.99187C109 8.76187 108.8 3.93187 111.65 2.39187C113.153 1.5188 114.857 1.04981 116.596 1.03053C118.334 1.01125 120.048 1.44235 121.57 2.28187C122.441 2.80161 123.141 3.56323 123.587 4.47402C124.033 5.38481 124.204 6.40551 124.08 7.41187ZM36.97 21.3119C36.4464 21.5101 35.8684 21.5097 35.3451 21.3107C34.8218 21.1117 34.3895 20.7279 34.13 20.2319C32.5 17.7919 30.7 15.4619 28.97 13.0819L28.22 12.0819C26.16 14.8419 24.1 17.4919 22.22 20.2419C21.9751 20.716 21.5661 21.0849 21.0694 21.2799C20.5727 21.4749 20.0221 21.4827 19.52 21.3019L27.25 10.9319L20.06 1.56187C20.5776 1.37499 21.1438 1.37243 21.663 1.55462C22.1822 1.7368 22.6227 2.09258 22.91 2.56187C24.58 5.00187 26.43 7.33187 28.27 9.80187C30.12 7.35187 31.95 5.01187 33.66 2.59187C33.9063 2.12549 34.3154 1.7659 34.8096 1.58152C35.3037 1.39713 35.8484 1.40082 36.34 1.59187L33.55 5.29188C32.3 6.94188 31.07 8.60187 29.77 10.2119C29.6652 10.3057 29.5815 10.4205 29.5241 10.5489C29.4667 10.6772 29.4371 10.8163 29.4371 10.9569C29.4371 11.0975 29.4667 11.2365 29.5241 11.3649C29.5815 11.4932 29.6652 11.6081 29.77 11.7019C32.16 14.8719 34.53 18.0519 36.97 21.3119ZM69.79 1.46187V2.86188C68.7786 2.79554 67.7645 2.94201 66.8132 3.29184C65.8619 3.64167 64.9945 4.18708 64.2671 4.89288C63.5396 5.59867 62.9682 6.44916 62.5898 7.38944C62.2113 8.32973 62.0343 9.33892 62.07 10.3519V21.3519H60.64V1.54188H62.04V5.60187C63.77 2.64187 66.44 1.54187 69.79 1.46187ZM1 10.8019C1.21 9.80187 1.34 8.71187 1.63 7.69187C3.36 1.54187 10.41 -1.01812 15.26 2.79188C18.1 5.02188 18.81 8.18187 18.67 11.7419H2.67C2.41 18.1019 7 21.9419 12.87 19.9819C13.8222 19.6413 14.6746 19.0689 15.3502 18.3164C16.0259 17.564 16.5035 16.6551 16.74 15.6719C17.05 14.6719 17.55 14.5019 18.5 14.7919C18.3435 16.0093 17.9131 17.1754 17.241 18.2025C16.569 19.2296 15.6729 20.091 14.62 20.7219C12.8804 21.6732 10.8845 22.05 8.91784 21.7986C6.95114 21.5471 5.1143 20.6802 3.67 19.3219C2.24116 17.7153 1.3772 15.6854 1.21 13.5419C1.21 13.2019 1.08 12.8619 1.01 12.5419C1.00333 11.9485 1 11.3685 1 10.8019ZM2.69 10.3719H17.16C17.07 5.76187 14.16 2.49187 10.28 2.46187C5.96 2.40187 2.87 5.60187 2.68 10.3519L2.69 10.3719Z" fill="black"/>
<path d="M39.4 28.6219V1.54188H40.87V5.80187C41.0436 5.61316 41.204 5.41269 41.35 5.20188C41.9507 3.95499 42.8943 2.90517 44.0704 2.17546C45.2464 1.44576 46.6061 1.0664 47.99 1.08187C51.34 0.981872 54.06 2.22188 55.66 5.20188C56.6781 7.0531 57.2383 9.12107 57.294 11.233C57.3497 13.345 56.8991 15.4396 55.98 17.3419C54.49 20.6819 50.81 22.3419 46.87 21.7319C45.6439 21.6274 44.4635 21.2177 43.4364 20.5399C42.4093 19.8622 41.5683 18.9381 40.99 17.8519V28.6219H39.4ZM40.87 11.1219C41 12.4419 41.05 13.3819 41.2 14.3019C41.78 17.9219 43.92 20.0719 47.28 20.4619C48.8577 20.7212 50.4765 20.4254 51.8605 19.6249C53.2445 18.8244 54.3081 17.5687 54.87 16.0719C55.5157 14.5322 55.8264 12.8728 55.7816 11.2039C55.7368 9.53495 55.3374 7.89463 54.61 6.39187C54.0102 5.05027 52.9902 3.94026 51.7039 3.22948C50.4177 2.5187 48.9351 2.24576 47.48 2.45188C46.1139 2.55085 44.8125 3.07305 43.7569 3.94585C42.7013 4.81865 41.9439 5.99868 41.59 7.32187C41.2768 8.57357 41.0364 9.84236 40.87 11.1219ZM87.28 14.8019C87.0573 16.7085 86.1497 18.4693 84.7259 19.7569C83.3022 21.0445 81.4593 21.7712 79.54 21.8019C73.38 22.1119 70.49 18.0219 70.03 13.3019C69.7107 10.7387 70.1269 8.13751 71.23 5.80187C71.9982 4.19977 73.2563 2.88369 74.8222 2.04411C76.388 1.20454 78.1805 0.885049 79.94 1.13188C81.6128 1.27365 83.1986 1.93807 84.4728 3.03105C85.7471 4.12403 86.6452 5.59018 87.04 7.22187C87.353 8.70797 87.5833 10.2103 87.73 11.7219H71.54C71.24 16.0019 73.54 19.4419 76.8 20.2719C80.86 21.2719 84.33 19.5119 85.59 15.6519C85.87 14.6619 86.38 14.5219 87.28 14.8019ZM71.54 10.3519H86.01C85.92 5.79187 83.08 2.49187 79.23 2.44187C74.87 2.37187 71.73 5.55187 71.54 10.3519ZM90.26 14.9019H91.68C91.7325 15.9467 92.072 16.9569 92.6612 17.8214C93.2505 18.6858 94.0666 19.3711 95.02 19.8019C96.2172 20.3406 97.5205 20.6024 98.8328 20.5678C100.145 20.5332 101.433 20.203 102.6 19.6019C103.236 19.3151 103.769 18.8402 104.126 18.2412C104.484 17.6421 104.649 16.9478 104.6 16.2519C104.637 15.5807 104.453 14.9159 104.078 14.3582C103.703 13.8006 103.156 13.3806 102.52 13.1619C100.96 12.5819 99.3 12.2619 97.71 11.7519C96.0556 11.2808 94.438 10.6892 92.87 9.98187C90.31 8.73187 90.15 3.86187 93.05 2.32187C94.5349 1.48391 96.2061 1.03117 97.9109 1.00497C99.6158 0.978767 101.3 1.37994 102.81 2.17187C103.725 2.6774 104.464 3.44975 104.928 4.38595C105.393 5.32214 105.561 6.3777 105.41 7.41187H104.19C104.19 7.35187 104.08 7.30187 104.08 7.24187C103.93 3.35187 100.67 2.15187 97.17 2.49187C96.1252 2.62075 95.1104 2.92858 94.17 3.40187C93.6051 3.66023 93.1343 4.0876 92.8226 4.62497C92.5109 5.16234 92.3737 5.78321 92.43 6.40187C92.4317 7.02082 92.6249 7.62407 92.9829 8.12894C93.341 8.6338 93.8465 9.01556 94.43 9.22187C95.97 9.78187 97.58 10.1419 99.16 10.5819C100.43 10.9319 101.75 11.1619 102.98 11.5819C103.848 11.8665 104.609 12.408 105.163 13.1348C105.717 13.8616 106.036 14.7393 106.08 15.6519C106.228 16.6517 106.058 17.6729 105.593 18.5705C105.128 19.468 104.392 20.1963 103.49 20.6519C100.15 22.5419 94.65 22.0419 92.2 19.6519C91.5791 19.0274 91.088 18.2861 90.755 17.4709C90.422 16.6556 90.2538 15.7825 90.26 14.9019ZM124.08 7.41187H122.75C122.75 7.23187 122.68 7.07187 122.66 6.92187C122.638 5.92493 122.275 4.96567 121.631 4.20471C120.986 3.44376 120.1 2.92732 119.12 2.74187C117.271 2.21146 115.299 2.30637 113.51 3.01187C112.803 3.21465 112.18 3.64071 111.735 4.22645C111.29 4.81219 111.046 5.52619 111.04 6.26187C111.015 6.98437 111.24 7.69332 111.678 8.26903C112.115 8.84473 112.737 9.25193 113.44 9.42187C115.44 10.0419 117.49 10.4219 119.52 10.9819C120.178 11.1398 120.826 11.3368 121.46 11.5719C122.407 11.9108 123.23 12.5275 123.821 13.3416C124.413 14.1556 124.744 15.1291 124.774 16.1347C124.803 17.1403 124.528 18.1314 123.985 18.9783C123.442 19.8252 122.656 20.4886 121.73 20.8819C120.319 21.5227 118.789 21.8617 117.24 21.8772C115.69 21.8927 114.154 21.5843 112.73 20.9719C111.559 20.4669 110.571 19.6154 109.899 18.532C109.227 17.4485 108.903 16.1851 108.97 14.9119H110.27C110.51 16.0722 111.03 17.1563 111.784 18.0705C112.538 18.9847 113.503 19.7013 114.597 20.1583C115.69 20.6153 116.878 20.799 118.058 20.6933C119.239 20.5876 120.375 20.1958 121.37 19.5519C121.976 19.2371 122.479 18.7551 122.819 18.1631C123.16 17.5711 123.323 16.8939 123.29 16.2119C123.32 15.5403 123.13 14.8772 122.75 14.3232C122.369 13.7691 121.818 13.3544 121.18 13.1419C119.62 12.5619 117.96 12.2519 116.37 11.7419C114.706 11.278 113.079 10.6931 111.5 9.99187C109 8.76187 108.8 3.93187 111.65 2.39187C113.153 1.5188 114.857 1.04981 116.596 1.03053C118.334 1.01125 120.048 1.44235 121.57 2.28187C122.441 2.80161 123.141 3.56323 123.587 4.47402C124.033 5.38481 124.204 6.40551 124.08 7.41187ZM36.97 21.3119C36.4464 21.5101 35.8684 21.5097 35.3451 21.3107C34.8218 21.1117 34.3895 20.7279 34.13 20.2319C32.5 17.7919 30.7 15.4619 28.97 13.0819L28.22 12.0819C26.16 14.8419 24.1 17.4919 22.22 20.2419C21.9751 20.716 21.5661 21.0849 21.0694 21.2799C20.5727 21.4749 20.0221 21.4827 19.52 21.3019L27.25 10.9319L20.06 1.56187C20.5776 1.37499 21.1438 1.37243 21.663 1.55462C22.1822 1.7368 22.6227 2.09258 22.91 2.56187C24.58 5.00187 26.43 7.33187 28.27 9.80187C30.12 7.35187 31.95 5.01187 33.66 2.59187C33.9063 2.12549 34.3154 1.7659 34.8096 1.58152C35.3037 1.39713 35.8484 1.40082 36.34 1.59187L33.55 5.29188C32.3 6.94188 31.07 8.60187 29.77 10.2119C29.6652 10.3057 29.5815 10.4205 29.5241 10.5489C29.4667 10.6772 29.4371 10.8163 29.4371 10.9569C29.4371 11.0975 29.4667 11.2365 29.5241 11.3649C29.5815 11.4932 29.6652 11.6081 29.77 11.7019C32.16 14.8719 34.53 18.0519 36.97 21.3119ZM69.79 1.46187V2.86188C68.7786 2.79554 67.7645 2.94201 66.8132 3.29184C65.8619 3.64167 64.9945 4.18708 64.2671 4.89288C63.5396 5.59867 62.9682 6.44916 62.5898 7.38944C62.2113 8.32973 62.0343 9.33892 62.07 10.3519V21.3519H60.64V1.54188H62.04V5.60187C63.77 2.64187 66.44 1.54187 69.79 1.46187ZM1 10.8019C1.21 9.80187 1.34 8.71187 1.63 7.69187C3.36 1.54187 10.41 -1.01812 15.26 2.79188C18.1 5.02188 18.81 8.18187 18.67 11.7419H2.67C2.41 18.1019 7 21.9419 12.87 19.9819C13.8222 19.6413 14.6746 19.0689 15.3502 18.3164C16.0259 17.564 16.5035 16.6551 16.74 15.6719C17.05 14.6719 17.55 14.5019 18.5 14.7919C18.3435 16.0093 17.9131 17.1754 17.241 18.2025C16.569 19.2296 15.6729 20.091 14.62 20.7219C12.8804 21.6732 10.8845 22.05 8.91784 21.7986C6.95114 21.5471 5.1143 20.6802 3.67 19.3219C2.24116 17.7153 1.3772 15.6854 1.21 13.5419C1.21 13.2019 1.08 12.8619 1.01 12.5419C1.00333 11.9485 1 11.3685 1 10.8019ZM2.69 10.3719H17.16C17.07 5.76187 14.16 2.49187 10.28 2.46187C5.96 2.40187 2.87 5.60187 2.68 10.3519L2.69 10.3719Z" stroke="black" mask="url(#path-1-outside-1_5_30)"/>
</svg>
