<svg width="118" height="28" viewBox="0 0 118 28" fill="none" xmlns="http://www.w3.org/2000/svg">
<mask id="path-1-outside-1_5_171" maskUnits="userSpaceOnUse" x="0" y="0" width="118" height="28" fill="black">
<rect fill="white" width="118" height="28"/>
<path d="M36.9877 27V1.51006H38.3653V5.51992C38.5281 5.34229 38.6784 5.15359 38.8152 4.95515C39.3781 3.78148 40.2625 2.7933 41.3647 2.10644C42.4668 1.41958 43.7411 1.0625 45.0381 1.07707C48.1776 0.982937 50.7267 2.15013 52.2262 4.95515C53.1803 6.69768 53.7054 8.64422 53.7576 10.6322C53.8097 12.6201 53.3875 14.5917 52.5261 16.3823C51.1297 19.5262 47.6809 21.0887 43.9884 20.5146C42.8393 20.4163 41.7331 20.0305 40.7705 19.3926C39.8079 18.7547 39.0197 17.8848 38.4778 16.8624V27H36.9877ZM38.3653 10.5275C38.4872 11.77 38.534 12.6548 38.6746 13.5208C39.2182 16.9283 41.2237 18.952 44.3727 19.3191C45.8512 19.5632 47.3683 19.2848 48.6654 18.5313C49.9625 17.7778 50.9592 16.5959 51.4859 15.1869C52.091 13.7377 52.3822 12.1757 52.3402 10.6048C52.2982 9.0338 51.9239 7.4898 51.2422 6.07528C50.6801 4.81245 49.7241 3.76761 48.5187 3.09857C47.3132 2.42953 45.9237 2.17261 44.5601 2.36663C43.2798 2.45979 42.0602 2.95132 41.0709 3.77288C40.0816 4.59443 39.3718 5.70518 39.0401 6.95067C38.7466 8.12887 38.5213 9.32316 38.3653 10.5275ZM81.8598 13.9915C81.6511 15.7861 80.8005 17.4436 79.4662 18.6556C78.132 19.8676 76.4048 20.5516 74.6061 20.5805C68.833 20.8722 66.1246 17.0224 65.6935 12.5795C65.3943 10.1668 65.7843 7.71841 66.8181 5.51992C67.538 4.01189 68.7171 2.77308 70.1846 1.98281C71.6521 1.19253 73.3319 0.891799 74.9809 1.12413C76.5486 1.25758 78.0348 1.88299 79.229 2.9118C80.4232 3.9406 81.2649 5.32065 81.6349 6.85654C81.9282 8.25538 82.1441 9.66947 82.2816 11.0923H67.1086C66.8275 15.121 68.983 18.359 72.0382 19.1403C75.8431 20.0816 79.0952 18.4249 80.276 14.7916C80.5384 13.8597 81.0164 13.7279 81.8598 13.9915ZM67.1086 9.80276H80.6696C80.5853 5.51051 77.9237 2.40427 74.3155 2.35721C70.2294 2.29132 67.2867 5.2846 67.1086 9.80276ZM84.6526 14.0856H85.9834C86.0326 15.0691 86.3508 16.02 86.903 16.8337C87.4552 17.6474 88.2201 18.2924 89.1136 18.6979C90.2356 19.205 91.457 19.4514 92.6869 19.4188C93.9169 19.3862 95.1236 19.0755 96.2174 18.5096C96.8135 18.2397 97.3128 17.7927 97.648 17.2288C97.9832 16.665 98.1381 16.0114 98.0918 15.3563C98.1261 14.7245 97.9543 14.0988 97.6025 13.5739C97.2507 13.049 96.7381 12.6536 96.1425 12.4478C94.6805 11.9018 93.1247 11.6006 91.6346 11.1206C90.0842 10.6771 88.5682 10.1203 87.0987 9.45448C84.6995 8.27788 84.5495 3.69383 87.2674 2.24426C88.659 1.4555 90.2252 1.02934 91.8229 1.00468C93.4207 0.980013 94.9991 1.35763 96.4142 2.10306C97.2715 2.57891 97.9639 3.30591 98.3993 4.18713C98.8346 5.06836 98.9922 6.06193 98.8509 7.03539H97.7075C97.7075 6.97891 97.6045 6.93185 97.6045 6.87537C97.4639 3.21378 94.4087 2.08424 91.1285 2.40427C90.1494 2.52559 89.1983 2.81534 88.317 3.26084C87.7876 3.50403 87.3463 3.9063 87.0542 4.41212C86.7621 4.91794 86.6336 5.50235 86.6863 6.08469C86.6879 6.66729 86.8689 7.23513 87.2045 7.71035C87.5401 8.18557 88.0138 8.54491 88.5607 8.73911C90.0039 9.26623 91.5128 9.60509 92.9935 10.0193C94.1837 10.3487 95.4208 10.5652 96.5736 10.9605C97.3872 11.2284 98.1006 11.7381 98.6194 12.4222C99.1382 13.1064 99.4379 13.9326 99.4788 14.7916C99.6179 15.7327 99.4583 16.694 99.0225 17.5388C98.5868 18.3836 97.8972 19.0691 97.0515 19.498C93.9213 21.277 88.7669 20.8064 86.4708 18.5567C85.8888 17.9689 85.4286 17.2712 85.1165 16.5038C84.8045 15.7364 84.6468 14.9145 84.6526 14.0856ZM116.348 7.03539H115.102C115.102 6.86596 115.036 6.71535 115.017 6.57416C114.997 5.63575 114.656 4.73281 114.052 4.01654C113.449 3.30027 112.618 2.81415 111.7 2.63959C109.967 2.14032 108.119 2.22966 106.442 2.89374C105.779 3.08461 105.196 3.48566 104.779 4.03701C104.361 4.58835 104.133 5.26043 104.127 5.95291C104.104 6.63299 104.315 7.30031 104.725 7.84221C105.135 8.38411 105.718 8.7674 106.376 8.92736C108.251 9.51096 110.172 9.86865 112.075 10.3958C112.691 10.5444 113.298 10.7298 113.893 10.9511C114.78 11.2701 115.552 11.8507 116.106 12.6169C116.66 13.3832 116.971 14.2994 116.998 15.246C117.025 16.1926 116.768 17.1254 116.259 17.9226C115.75 18.7199 115.014 19.3443 114.146 19.7145C112.823 20.3177 111.39 20.6368 109.937 20.6514C108.485 20.6659 107.045 20.3757 105.711 19.7992C104.614 19.3239 103.688 18.5224 103.058 17.5025C102.428 16.4827 102.124 15.2935 102.187 14.095H103.406C103.631 15.1872 104.118 16.2077 104.825 17.0682C105.531 17.9287 106.436 18.6032 107.46 19.0334C108.485 19.4636 109.599 19.6364 110.705 19.5369C111.811 19.4375 112.876 19.0687 113.808 18.4626C114.376 18.1662 114.848 17.7126 115.166 17.1553C115.485 16.5981 115.639 15.9607 115.608 15.3187C115.636 14.6865 115.458 14.0624 115.101 13.5409C114.744 13.0194 114.228 12.629 113.63 12.4289C112.168 11.883 110.613 11.5912 109.122 11.1111C107.563 10.6745 106.038 10.124 104.558 9.4639C102.215 8.30612 102.028 3.75972 104.699 2.31015C106.108 1.48834 107.705 1.04688 109.334 1.02874C110.963 1.01059 112.569 1.41638 113.996 2.20661C114.812 2.69583 115.468 3.41272 115.886 4.27004C116.304 5.12735 116.464 6.08811 116.348 7.03539ZM34.7103 20.1192C34.2197 20.3058 33.6779 20.3055 33.1875 20.1181C32.6971 19.9308 32.292 19.5696 32.0487 19.1026C30.5211 16.8059 28.8342 14.6127 27.2129 12.3725L26.51 11.4312C24.5794 14.0291 22.6488 16.5235 20.8869 19.1121C20.6574 19.5583 20.2742 19.9055 19.8087 20.0891C19.3431 20.2726 18.8271 20.28 18.3566 20.1098L25.601 10.3487L18.8626 1.52888C19.3477 1.35297 19.8783 1.35056 20.3649 1.52205C20.8515 1.69354 21.2643 2.02842 21.5336 2.47016C23.0987 4.76689 24.8325 6.96008 26.5569 9.28505C28.2907 6.97891 30.0057 4.77631 31.6083 2.4984C31.8391 2.0594 32.2225 1.72093 32.6856 1.54737C33.1487 1.37382 33.6592 1.37729 34.1199 1.55712L31.5052 5.03987C30.3337 6.59299 29.181 8.15551 27.9627 9.67098C27.8645 9.75927 27.7859 9.86735 27.7322 9.98819C27.6784 10.109 27.6506 10.2399 27.6506 10.3722C27.6506 10.5046 27.6784 10.6354 27.7322 10.7563C27.7859 10.8771 27.8645 10.9852 27.9627 11.0735C30.2025 14.0574 32.4236 17.0506 34.7103 20.1192ZM65.4686 1.43475V2.75255C64.5207 2.69011 63.5703 2.82798 62.6788 3.15727C61.7872 3.48656 60.9744 3.99995 60.2926 4.6643C59.6108 5.32865 59.0753 6.1292 58.7207 7.01427C58.366 7.89935 58.2001 8.84928 58.2335 9.80276V20.1569H56.8934V1.51006H58.2054V5.33166C59.8267 2.54547 62.329 1.51006 65.4686 1.43475ZM1 10.2263C1.19681 9.28505 1.31864 8.25906 1.59042 7.29895C3.21174 1.51006 9.81886 -0.899626 14.3642 2.68666C17.0258 4.78572 17.6912 7.76017 17.56 11.1111H2.56509C2.32142 17.0977 6.62308 20.7122 12.1243 18.8673C13.0167 18.5467 13.8155 18.008 14.4487 17.2997C15.0819 16.5914 15.5296 15.7359 15.7512 14.8104C16.0417 13.8691 16.5103 13.7091 17.4006 13.9821C17.254 15.128 16.8506 16.2256 16.2208 17.1924C15.591 18.1592 14.7511 18.97 13.7644 19.5639C12.1341 20.4593 10.2636 20.814 8.42044 20.5773C6.57728 20.3407 4.85584 19.5247 3.50227 18.2461C2.16319 16.7338 1.35351 14.8231 1.19681 12.8055C1.19681 12.4854 1.07497 12.1654 1.00937 11.8642C1.00312 11.3057 1 10.7597 1 10.2263ZM2.58383 9.82158H16.1448C16.0605 5.48227 13.3333 2.40428 9.69702 2.37604C5.64841 2.31956 2.75253 5.33166 2.57446 9.80276L2.58383 9.82158Z"/>
</mask>
<path d="M36.9877 27V1.51006H38.3653V5.51992C38.5281 5.34229 38.6784 5.15359 38.8152 4.95515C39.3781 3.78148 40.2625 2.7933 41.3647 2.10644C42.4668 1.41958 43.7411 1.0625 45.0381 1.07707C48.1776 0.982937 50.7267 2.15013 52.2262 4.95515C53.1803 6.69768 53.7054 8.64422 53.7576 10.6322C53.8097 12.6201 53.3875 14.5917 52.5261 16.3823C51.1297 19.5262 47.6809 21.0887 43.9884 20.5146C42.8393 20.4163 41.7331 20.0305 40.7705 19.3926C39.8079 18.7547 39.0197 17.8848 38.4778 16.8624V27H36.9877ZM38.3653 10.5275C38.4872 11.77 38.534 12.6548 38.6746 13.5208C39.2182 16.9283 41.2237 18.952 44.3727 19.3191C45.8512 19.5632 47.3683 19.2848 48.6654 18.5313C49.9625 17.7778 50.9592 16.5959 51.4859 15.1869C52.091 13.7377 52.3822 12.1757 52.3402 10.6048C52.2982 9.0338 51.9239 7.4898 51.2422 6.07528C50.6801 4.81245 49.7241 3.76761 48.5187 3.09857C47.3132 2.42953 45.9237 2.17261 44.5601 2.36663C43.2798 2.45979 42.0602 2.95132 41.0709 3.77288C40.0816 4.59443 39.3718 5.70518 39.0401 6.95067C38.7466 8.12887 38.5213 9.32316 38.3653 10.5275ZM81.8598 13.9915C81.6511 15.7861 80.8005 17.4436 79.4662 18.6556C78.132 19.8676 76.4048 20.5516 74.6061 20.5805C68.833 20.8722 66.1246 17.0224 65.6935 12.5795C65.3943 10.1668 65.7843 7.71841 66.8181 5.51992C67.538 4.01189 68.7171 2.77308 70.1846 1.98281C71.6521 1.19253 73.3319 0.891799 74.9809 1.12413C76.5486 1.25758 78.0348 1.88299 79.229 2.9118C80.4232 3.9406 81.2649 5.32065 81.6349 6.85654C81.9282 8.25538 82.1441 9.66947 82.2816 11.0923H67.1086C66.8275 15.121 68.983 18.359 72.0382 19.1403C75.8431 20.0816 79.0952 18.4249 80.276 14.7916C80.5384 13.8597 81.0164 13.7279 81.8598 13.9915ZM67.1086 9.80276H80.6696C80.5853 5.51051 77.9237 2.40427 74.3155 2.35721C70.2294 2.29132 67.2867 5.2846 67.1086 9.80276ZM84.6526 14.0856H85.9834C86.0326 15.0691 86.3508 16.02 86.903 16.8337C87.4552 17.6474 88.2201 18.2924 89.1136 18.6979C90.2356 19.205 91.457 19.4514 92.6869 19.4188C93.9169 19.3862 95.1236 19.0755 96.2174 18.5096C96.8135 18.2397 97.3128 17.7927 97.648 17.2288C97.9832 16.665 98.1381 16.0114 98.0918 15.3563C98.1261 14.7245 97.9543 14.0988 97.6025 13.5739C97.2507 13.049 96.7381 12.6536 96.1425 12.4478C94.6805 11.9018 93.1247 11.6006 91.6346 11.1206C90.0842 10.6771 88.5682 10.1203 87.0987 9.45448C84.6995 8.27788 84.5495 3.69383 87.2674 2.24426C88.659 1.4555 90.2252 1.02934 91.8229 1.00468C93.4207 0.980013 94.9991 1.35763 96.4142 2.10306C97.2715 2.57891 97.9639 3.30591 98.3993 4.18713C98.8346 5.06836 98.9922 6.06193 98.8509 7.03539H97.7075C97.7075 6.97891 97.6045 6.93185 97.6045 6.87537C97.4639 3.21378 94.4087 2.08424 91.1285 2.40427C90.1494 2.52559 89.1983 2.81534 88.317 3.26084C87.7876 3.50403 87.3463 3.9063 87.0542 4.41212C86.7621 4.91794 86.6336 5.50235 86.6863 6.08469C86.6879 6.66729 86.8689 7.23513 87.2045 7.71035C87.5401 8.18557 88.0138 8.54491 88.5607 8.73911C90.0039 9.26623 91.5128 9.60509 92.9935 10.0193C94.1837 10.3487 95.4208 10.5652 96.5736 10.9605C97.3872 11.2284 98.1006 11.7381 98.6194 12.4222C99.1382 13.1064 99.4379 13.9326 99.4788 14.7916C99.6179 15.7327 99.4583 16.694 99.0225 17.5388C98.5868 18.3836 97.8972 19.0691 97.0515 19.498C93.9213 21.277 88.7669 20.8064 86.4708 18.5567C85.8888 17.9689 85.4286 17.2712 85.1165 16.5038C84.8045 15.7364 84.6468 14.9145 84.6526 14.0856ZM116.348 7.03539H115.102C115.102 6.86596 115.036 6.71535 115.017 6.57416C114.997 5.63575 114.656 4.73281 114.052 4.01654C113.449 3.30027 112.618 2.81415 111.7 2.63959C109.967 2.14032 108.119 2.22966 106.442 2.89374C105.779 3.08461 105.196 3.48566 104.779 4.03701C104.361 4.58835 104.133 5.26043 104.127 5.95291C104.104 6.63299 104.315 7.30031 104.725 7.84221C105.135 8.38411 105.718 8.7674 106.376 8.92736C108.251 9.51096 110.172 9.86865 112.075 10.3958C112.691 10.5444 113.298 10.7298 113.893 10.9511C114.78 11.2701 115.552 11.8507 116.106 12.6169C116.66 13.3832 116.971 14.2994 116.998 15.246C117.025 16.1926 116.768 17.1254 116.259 17.9226C115.75 18.7199 115.014 19.3443 114.146 19.7145C112.823 20.3177 111.39 20.6368 109.937 20.6514C108.485 20.6659 107.045 20.3757 105.711 19.7992C104.614 19.3239 103.688 18.5224 103.058 17.5025C102.428 16.4827 102.124 15.2935 102.187 14.095H103.406C103.631 15.1872 104.118 16.2077 104.825 17.0682C105.531 17.9287 106.436 18.6032 107.46 19.0334C108.485 19.4636 109.599 19.6364 110.705 19.5369C111.811 19.4375 112.876 19.0687 113.808 18.4626C114.376 18.1662 114.848 17.7126 115.166 17.1553C115.485 16.5981 115.639 15.9607 115.608 15.3187C115.636 14.6865 115.458 14.0624 115.101 13.5409C114.744 13.0194 114.228 12.629 113.63 12.4289C112.168 11.883 110.613 11.5912 109.122 11.1111C107.563 10.6745 106.038 10.124 104.558 9.4639C102.215 8.30612 102.028 3.75972 104.699 2.31015C106.108 1.48834 107.705 1.04688 109.334 1.02874C110.963 1.01059 112.569 1.41638 113.996 2.20661C114.812 2.69583 115.468 3.41272 115.886 4.27004C116.304 5.12735 116.464 6.08811 116.348 7.03539ZM34.7103 20.1192C34.2197 20.3058 33.6779 20.3055 33.1875 20.1181C32.6971 19.9308 32.292 19.5696 32.0487 19.1026C30.5211 16.8059 28.8342 14.6127 27.2129 12.3725L26.51 11.4312C24.5794 14.0291 22.6488 16.5235 20.8869 19.1121C20.6574 19.5583 20.2742 19.9055 19.8087 20.0891C19.3431 20.2726 18.8271 20.28 18.3566 20.1098L25.601 10.3487L18.8626 1.52888C19.3477 1.35297 19.8783 1.35056 20.3649 1.52205C20.8515 1.69354 21.2643 2.02842 21.5336 2.47016C23.0987 4.76689 24.8325 6.96008 26.5569 9.28505C28.2907 6.97891 30.0057 4.77631 31.6083 2.4984C31.8391 2.0594 32.2225 1.72093 32.6856 1.54737C33.1487 1.37382 33.6592 1.37729 34.1199 1.55712L31.5052 5.03987C30.3337 6.59299 29.181 8.15551 27.9627 9.67098C27.8645 9.75927 27.7859 9.86735 27.7322 9.98819C27.6784 10.109 27.6506 10.2399 27.6506 10.3722C27.6506 10.5046 27.6784 10.6354 27.7322 10.7563C27.7859 10.8771 27.8645 10.9852 27.9627 11.0735C30.2025 14.0574 32.4236 17.0506 34.7103 20.1192ZM65.4686 1.43475V2.75255C64.5207 2.69011 63.5703 2.82798 62.6788 3.15727C61.7872 3.48656 60.9744 3.99995 60.2926 4.6643C59.6108 5.32865 59.0753 6.1292 58.7207 7.01427C58.366 7.89935 58.2001 8.84928 58.2335 9.80276V20.1569H56.8934V1.51006H58.2054V5.33166C59.8267 2.54547 62.329 1.51006 65.4686 1.43475ZM1 10.2263C1.19681 9.28505 1.31864 8.25906 1.59042 7.29895C3.21174 1.51006 9.81886 -0.899626 14.3642 2.68666C17.0258 4.78572 17.6912 7.76017 17.56 11.1111H2.56509C2.32142 17.0977 6.62308 20.7122 12.1243 18.8673C13.0167 18.5467 13.8155 18.008 14.4487 17.2997C15.0819 16.5914 15.5296 15.7359 15.7512 14.8104C16.0417 13.8691 16.5103 13.7091 17.4006 13.9821C17.254 15.128 16.8506 16.2256 16.2208 17.1924C15.591 18.1592 14.7511 18.97 13.7644 19.5639C12.1341 20.4593 10.2636 20.814 8.42044 20.5773C6.57728 20.3407 4.85584 19.5247 3.50227 18.2461C2.16319 16.7338 1.35351 14.8231 1.19681 12.8055C1.19681 12.4854 1.07497 12.1654 1.00937 11.8642C1.00312 11.3057 1 10.7597 1 10.2263ZM2.58383 9.82158H16.1448C16.0605 5.48227 13.3333 2.40428 9.69702 2.37604C5.64841 2.31956 2.75253 5.33166 2.57446 9.80276L2.58383 9.82158Z" fill="white"/>
<path d="M36.9877 27V1.51006H38.3653V5.51992C38.5281 5.34229 38.6784 5.15359 38.8152 4.95515C39.3781 3.78148 40.2625 2.7933 41.3647 2.10644C42.4668 1.41958 43.7411 1.0625 45.0381 1.07707C48.1776 0.982937 50.7267 2.15013 52.2262 4.95515C53.1803 6.69768 53.7054 8.64422 53.7576 10.6322C53.8097 12.6201 53.3875 14.5917 52.5261 16.3823C51.1297 19.5262 47.6809 21.0887 43.9884 20.5146C42.8393 20.4163 41.7331 20.0305 40.7705 19.3926C39.8079 18.7547 39.0197 17.8848 38.4778 16.8624V27H36.9877ZM38.3653 10.5275C38.4872 11.77 38.534 12.6548 38.6746 13.5208C39.2182 16.9283 41.2237 18.952 44.3727 19.3191C45.8512 19.5632 47.3683 19.2848 48.6654 18.5313C49.9625 17.7778 50.9592 16.5959 51.4859 15.1869C52.091 13.7377 52.3822 12.1757 52.3402 10.6048C52.2982 9.0338 51.9239 7.4898 51.2422 6.07528C50.6801 4.81245 49.7241 3.76761 48.5187 3.09857C47.3132 2.42953 45.9237 2.17261 44.5601 2.36663C43.2798 2.45979 42.0602 2.95132 41.0709 3.77288C40.0816 4.59443 39.3718 5.70518 39.0401 6.95067C38.7466 8.12887 38.5213 9.32316 38.3653 10.5275ZM81.8598 13.9915C81.6511 15.7861 80.8005 17.4436 79.4662 18.6556C78.132 19.8676 76.4048 20.5516 74.6061 20.5805C68.833 20.8722 66.1246 17.0224 65.6935 12.5795C65.3943 10.1668 65.7843 7.71841 66.8181 5.51992C67.538 4.01189 68.7171 2.77308 70.1846 1.98281C71.6521 1.19253 73.3319 0.891799 74.9809 1.12413C76.5486 1.25758 78.0348 1.88299 79.229 2.9118C80.4232 3.9406 81.2649 5.32065 81.6349 6.85654C81.9282 8.25538 82.1441 9.66947 82.2816 11.0923H67.1086C66.8275 15.121 68.983 18.359 72.0382 19.1403C75.8431 20.0816 79.0952 18.4249 80.276 14.7916C80.5384 13.8597 81.0164 13.7279 81.8598 13.9915ZM67.1086 9.80276H80.6696C80.5853 5.51051 77.9237 2.40427 74.3155 2.35721C70.2294 2.29132 67.2867 5.2846 67.1086 9.80276ZM84.6526 14.0856H85.9834C86.0326 15.0691 86.3508 16.02 86.903 16.8337C87.4552 17.6474 88.2201 18.2924 89.1136 18.6979C90.2356 19.205 91.457 19.4514 92.6869 19.4188C93.9169 19.3862 95.1236 19.0755 96.2174 18.5096C96.8135 18.2397 97.3128 17.7927 97.648 17.2288C97.9832 16.665 98.1381 16.0114 98.0918 15.3563C98.1261 14.7245 97.9543 14.0988 97.6025 13.5739C97.2507 13.049 96.7381 12.6536 96.1425 12.4478C94.6805 11.9018 93.1247 11.6006 91.6346 11.1206C90.0842 10.6771 88.5682 10.1203 87.0987 9.45448C84.6995 8.27788 84.5495 3.69383 87.2674 2.24426C88.659 1.4555 90.2252 1.02934 91.8229 1.00468C93.4207 0.980013 94.9991 1.35763 96.4142 2.10306C97.2715 2.57891 97.9639 3.30591 98.3993 4.18713C98.8346 5.06836 98.9922 6.06193 98.8509 7.03539H97.7075C97.7075 6.97891 97.6045 6.93185 97.6045 6.87537C97.4639 3.21378 94.4087 2.08424 91.1285 2.40427C90.1494 2.52559 89.1983 2.81534 88.317 3.26084C87.7876 3.50403 87.3463 3.9063 87.0542 4.41212C86.7621 4.91794 86.6336 5.50235 86.6863 6.08469C86.6879 6.66729 86.8689 7.23513 87.2045 7.71035C87.5401 8.18557 88.0138 8.54491 88.5607 8.73911C90.0039 9.26623 91.5128 9.60509 92.9935 10.0193C94.1837 10.3487 95.4208 10.5652 96.5736 10.9605C97.3872 11.2284 98.1006 11.7381 98.6194 12.4222C99.1382 13.1064 99.4379 13.9326 99.4788 14.7916C99.6179 15.7327 99.4583 16.694 99.0225 17.5388C98.5868 18.3836 97.8972 19.0691 97.0515 19.498C93.9213 21.277 88.7669 20.8064 86.4708 18.5567C85.8888 17.9689 85.4286 17.2712 85.1165 16.5038C84.8045 15.7364 84.6468 14.9145 84.6526 14.0856ZM116.348 7.03539H115.102C115.102 6.86596 115.036 6.71535 115.017 6.57416C114.997 5.63575 114.656 4.73281 114.052 4.01654C113.449 3.30027 112.618 2.81415 111.7 2.63959C109.967 2.14032 108.119 2.22966 106.442 2.89374C105.779 3.08461 105.196 3.48566 104.779 4.03701C104.361 4.58835 104.133 5.26043 104.127 5.95291C104.104 6.63299 104.315 7.30031 104.725 7.84221C105.135 8.38411 105.718 8.7674 106.376 8.92736C108.251 9.51096 110.172 9.86865 112.075 10.3958C112.691 10.5444 113.298 10.7298 113.893 10.9511C114.78 11.2701 115.552 11.8507 116.106 12.6169C116.66 13.3832 116.971 14.2994 116.998 15.246C117.025 16.1926 116.768 17.1254 116.259 17.9226C115.75 18.7199 115.014 19.3443 114.146 19.7145C112.823 20.3177 111.39 20.6368 109.937 20.6514C108.485 20.6659 107.045 20.3757 105.711 19.7992C104.614 19.3239 103.688 18.5224 103.058 17.5025C102.428 16.4827 102.124 15.2935 102.187 14.095H103.406C103.631 15.1872 104.118 16.2077 104.825 17.0682C105.531 17.9287 106.436 18.6032 107.46 19.0334C108.485 19.4636 109.599 19.6364 110.705 19.5369C111.811 19.4375 112.876 19.0687 113.808 18.4626C114.376 18.1662 114.848 17.7126 115.166 17.1553C115.485 16.5981 115.639 15.9607 115.608 15.3187C115.636 14.6865 115.458 14.0624 115.101 13.5409C114.744 13.0194 114.228 12.629 113.63 12.4289C112.168 11.883 110.613 11.5912 109.122 11.1111C107.563 10.6745 106.038 10.124 104.558 9.4639C102.215 8.30612 102.028 3.75972 104.699 2.31015C106.108 1.48834 107.705 1.04688 109.334 1.02874C110.963 1.01059 112.569 1.41638 113.996 2.20661C114.812 2.69583 115.468 3.41272 115.886 4.27004C116.304 5.12735 116.464 6.08811 116.348 7.03539ZM34.7103 20.1192C34.2197 20.3058 33.6779 20.3055 33.1875 20.1181C32.6971 19.9308 32.292 19.5696 32.0487 19.1026C30.5211 16.8059 28.8342 14.6127 27.2129 12.3725L26.51 11.4312C24.5794 14.0291 22.6488 16.5235 20.8869 19.1121C20.6574 19.5583 20.2742 19.9055 19.8087 20.0891C19.3431 20.2726 18.8271 20.28 18.3566 20.1098L25.601 10.3487L18.8626 1.52888C19.3477 1.35297 19.8783 1.35056 20.3649 1.52205C20.8515 1.69354 21.2643 2.02842 21.5336 2.47016C23.0987 4.76689 24.8325 6.96008 26.5569 9.28505C28.2907 6.97891 30.0057 4.77631 31.6083 2.4984C31.8391 2.0594 32.2225 1.72093 32.6856 1.54737C33.1487 1.37382 33.6592 1.37729 34.1199 1.55712L31.5052 5.03987C30.3337 6.59299 29.181 8.15551 27.9627 9.67098C27.8645 9.75927 27.7859 9.86735 27.7322 9.98819C27.6784 10.109 27.6506 10.2399 27.6506 10.3722C27.6506 10.5046 27.6784 10.6354 27.7322 10.7563C27.7859 10.8771 27.8645 10.9852 27.9627 11.0735C30.2025 14.0574 32.4236 17.0506 34.7103 20.1192ZM65.4686 1.43475V2.75255C64.5207 2.69011 63.5703 2.82798 62.6788 3.15727C61.7872 3.48656 60.9744 3.99995 60.2926 4.6643C59.6108 5.32865 59.0753 6.1292 58.7207 7.01427C58.366 7.89935 58.2001 8.84928 58.2335 9.80276V20.1569H56.8934V1.51006H58.2054V5.33166C59.8267 2.54547 62.329 1.51006 65.4686 1.43475ZM1 10.2263C1.19681 9.28505 1.31864 8.25906 1.59042 7.29895C3.21174 1.51006 9.81886 -0.899626 14.3642 2.68666C17.0258 4.78572 17.6912 7.76017 17.56 11.1111H2.56509C2.32142 17.0977 6.62308 20.7122 12.1243 18.8673C13.0167 18.5467 13.8155 18.008 14.4487 17.2997C15.0819 16.5914 15.5296 15.7359 15.7512 14.8104C16.0417 13.8691 16.5103 13.7091 17.4006 13.9821C17.254 15.128 16.8506 16.2256 16.2208 17.1924C15.591 18.1592 14.7511 18.97 13.7644 19.5639C12.1341 20.4593 10.2636 20.814 8.42044 20.5773C6.57728 20.3407 4.85584 19.5247 3.50227 18.2461C2.16319 16.7338 1.35351 14.8231 1.19681 12.8055C1.19681 12.4854 1.07497 12.1654 1.00937 11.8642C1.00312 11.3057 1 10.7597 1 10.2263ZM2.58383 9.82158H16.1448C16.0605 5.48227 13.3333 2.40428 9.69702 2.37604C5.64841 2.31956 2.75253 5.33166 2.57446 9.80276L2.58383 9.82158Z" stroke="white" mask="url(#path-1-outside-1_5_171)"/>
</svg>
