<svg width="49" height="49" viewBox="0 0 49 49" fill="none" xmlns="http://www.w3.org/2000/svg">
<mask id="mask0_16_99" style="mask-type:alpha" maskUnits="userSpaceOnUse" x="0" y="0" width="49" height="49">
<rect width="49" height="49" fill="#D9D9D9"/>
</mask>
<g mask="url(#mask0_16_99)">
<path d="M21.7463 48.8361C21.0179 48.7493 20.2539 48.6373 20.0491 48.5868C19.7477 48.5154 19.4446 48.4517 19.14 48.3956C18.7922 48.3282 18.447 48.2475 18.1054 48.1535C16.5188 47.6993 16.4051 47.6622 15.209 47.1735C14.1085 46.7254 12.081 45.6784 11.3874 45.202C11.1975 45.0705 11.0199 44.9645 10.9928 44.9645C10.966 44.9645 10.522 44.6525 10.006 44.2713C6.72565 41.8459 4.26291 38.9016 2.48341 35.2751C2.17719 34.6522 1.92725 34.0997 1.92725 34.0477C1.92725 33.9965 1.87213 33.8546 1.80476 33.7353C1.66581 33.4871 1.46792 32.9526 1.30831 32.4C1.23968 32.1653 1.15984 31.9339 1.06908 31.7068C0.994436 31.5309 0.934341 31.3168 0.934341 31.2304C0.934341 31.1436 0.859701 30.8614 0.768601 30.6014C0.677502 30.3432 0.60401 30.0385 0.60401 29.9245C0.60401 29.8114 0.532433 29.4198 0.444013 29.0543C0.228896 28.1518 0 25.8144 0 24.5044C0 23.1959 0.228896 20.8584 0.444013 19.9564C0.53205 19.5905 0.60401 19.1916 0.60401 19.0693C0.60401 18.9465 0.659512 18.706 0.726497 18.5339C0.795395 18.3626 0.883432 18.0548 0.924006 17.8503C0.966111 17.6457 1.0618 17.2931 1.13951 17.0645L1.36534 16.4045C1.53108 15.9101 1.68495 15.4918 1.75844 15.3289C1.80055 15.2379 1.96476 14.8662 2.12475 14.5029C2.38351 13.916 2.93814 12.809 3.26235 12.2297C3.38062 12.0175 3.42541 11.9471 4.0654 10.948C5.07935 9.3619 6.81215 7.38846 8.42514 5.9817C8.99356 5.48576 10.8925 4.04573 10.9778 4.04573C11.0016 4.04573 11.1807 3.93828 11.3771 3.80674C11.8927 3.46184 12.3983 3.16894 13.0574 2.83895C13.294 2.72206 13.5283 2.60056 13.7602 2.47455C13.8693 2.41184 14.0741 2.31777 15.1255 1.84745C15.3571 1.74421 15.6067 1.65014 16.3259 1.39892C16.4844 1.34386 16.8028 1.22724 17.0302 1.14197C17.2591 1.05708 17.5282 0.986721 17.6285 0.986721C17.7272 0.986721 17.9871 0.917893 18.2057 0.833006C18.4239 0.747736 18.82 0.650613 19.0876 0.617728C19.354 0.586373 19.708 0.51181 19.8742 0.453307C20.0388 0.396715 20.4904 0.323299 20.8774 0.290797C21.3818 0.245276 21.8848 0.185985 22.3859 0.112992C23.4148 -0.037664 25.6517 -0.037664 26.6699 0.112992C27.1508 0.181932 27.6333 0.23867 28.1171 0.283149C28.4819 0.313357 28.947 0.38945 29.1517 0.452159C29.3565 0.51334 29.711 0.589815 29.9383 0.617728C30.1657 0.647936 30.5485 0.742 30.7888 0.828417C31.03 0.916364 31.3033 0.986721 31.3974 0.986721C31.4916 0.986721 31.6861 1.03911 31.8281 1.10488C31.9716 1.16911 32.2751 1.27656 32.504 1.34386C32.7314 1.41269 33.1214 1.54843 33.3729 1.64861C33.6225 1.74841 33.9574 1.87995 34.1174 1.9396C34.4121 2.05049 36.5901 3.13911 36.8864 3.32457C39.2905 4.82233 40.5273 5.80083 42.19 7.51694C44.195 9.58712 45.5259 11.5586 46.8805 14.4609C46.9762 14.6658 47.1224 14.9691 47.2062 15.1331C47.2885 15.299 47.3574 15.4933 47.3574 15.5652C47.3574 15.6378 47.4263 15.8558 47.5113 16.0504C47.7417 16.5792 47.9388 17.1811 48.0318 17.6411C48.0778 17.8667 48.1631 18.1458 48.2213 18.2609C48.2799 18.3756 48.3484 18.6674 48.3756 18.9064C48.4024 19.145 48.4816 19.5365 48.549 19.774C48.9394 21.1242 49.1335 25.102 48.8973 26.8613C48.8272 27.384 48.748 28.0161 48.7212 28.2654C48.6761 28.6925 48.4502 29.7964 48.2573 30.5386L48.0583 31.3244C47.6831 32.8375 46.7561 34.9929 45.6242 36.987C45.1756 37.7785 43.6717 39.9191 43.3877 40.1699C43.3621 40.1921 43.235 40.342 43.1064 40.4999C42.9778 40.6597 42.5651 41.1064 42.1915 41.4918C40.5453 43.1899 39.2174 44.2399 36.8864 45.6861C36.61 45.8578 34.2655 47.0018 33.8273 47.1796C33.5999 47.2706 33.2202 47.4244 32.984 47.52C32.7494 47.6144 32.4876 47.6935 32.4053 47.6951C32.323 47.6962 32.1063 47.7696 31.9238 47.8576C31.7416 47.9455 31.5096 48.019 31.4066 48.0205C31.3048 48.022 31.0074 48.0939 30.7456 48.1803C30.4842 48.2683 30.1205 48.3627 29.9379 48.3906C29.7557 48.4193 29.3657 48.4969 29.0694 48.5627C28.7736 48.6285 27.879 48.7569 27.084 48.8479C25.3105 49.0546 23.5188 49.0506 21.7463 48.8361ZM23.5465 44.0564C23.6613 43.9669 23.7796 43.7887 23.811 43.6637C23.8799 43.3872 35.0008 21.115 35.2102 20.8359C35.3867 20.5999 35.4031 20.2221 35.2416 20.0891C35.1566 20.0176 34.0918 19.995 31.2493 19.9996C29.1173 20.0042 27.3248 20.0057 27.2662 20.0042C27.1797 20.0011 27.1617 18.5779 27.1705 12.4821C27.1766 8.34593 27.1571 4.92405 27.1273 4.87663C27.0974 4.82845 26.9807 4.78983 26.867 4.78983C26.707 4.78983 26.6323 4.85866 26.534 5.09879C26.3483 5.54541 25.8354 6.55947 23.3386 11.4023C22.82 12.4073 22.3026 13.4129 21.7865 14.4192C21.344 15.2841 20.6458 16.642 20.2374 17.4361C19.1381 19.571 18.0411 21.7071 16.9464 23.8444C15.0582 27.529 14.8296 27.9683 14.7485 28.0654C14.5916 28.2551 14.5062 28.6925 14.5946 28.857C14.675 29.0076 14.8354 29.0137 18.8215 29.0076C21.1002 29.0049 22.9796 29.0168 22.9991 29.0344C23.0515 29.0883 23.032 43.3008 22.978 43.6396C22.9424 43.8621 22.9662 43.9799 23.068 44.0816C23.2441 44.2579 23.2923 44.2564 23.5465 44.0564Z" fill="#049688"/>
</g>
</svg>
