<svg width="88" height="26" viewBox="0 0 88 26" fill="none" xmlns="http://www.w3.org/2000/svg">
<path d="M86.7233 3.69238L88 0.387252L87.9446 0.182279L75.3131 3.50798C76.6601 1.56107 76.1974 0 76.1974 0C76.1974 0 72.1635 2.5746 69.1133 2.50722C66.0632 2.43984 65.0795 1.62632 60.4021 3.11718C55.7246 4.60733 54.4032 9.18132 53.047 10.1643C51.6908 11.1474 47.4363 14.3475 47.4363 14.3475L47.4455 14.4043L51.2813 13.1837C51.2813 13.1837 50.2295 14.1745 47.9941 17.1846L47.8897 17.0881L47.894 17.1094C47.894 17.1094 49.6902 19.8528 51.453 19.3457C51.6304 19.2939 51.8299 19.2095 52.0477 19.0988C52.7574 19.4939 53.6843 19.8819 54.7069 19.989C54.7069 19.989 54.0143 19.1847 53.4366 18.269L53.9149 17.9584L53.8397 18.0108L55.3002 18.547L55.1391 17.1746L55.1533 17.1654L56.589 17.6924L56.4108 16.4441C56.5932 16.3491 56.7742 16.259 56.9552 16.176L58.4512 10.5197L64.6381 6.30174L64.1463 7.53797C62.8923 10.6211 60.5369 11.3488 60.5369 11.3488L59.5533 11.7233C58.8223 12.5872 58.5143 12.7999 58.2631 15.6994C58.8528 15.5511 59.4156 15.5157 59.9259 15.6533C62.5694 16.3654 63.4849 19.5485 62.7731 20.4294C62.595 20.65 62.1706 21.0266 61.6348 21.4692H60.5617L60.5475 22.338L60.4375 22.4238H59.3461L59.3326 23.2721L59.0473 23.4877C58.0218 23.509 56.7224 22.6146 56.7224 22.6146C56.7224 23.4281 57.4001 24.6807 57.4001 24.6807L57.5201 24.6225L57.4172 24.6977C57.4172 24.6977 60.1622 26.5269 61.891 25.8495C63.4281 25.2474 67.408 22.1118 70.8428 20.6266L81.2382 17.8896L82.6086 14.3404L74.6864 16.4257V13.2383L83.9818 10.7906L85.3522 7.2415L74.6886 10.0494V6.86063L86.7233 3.69238ZM67.8579 10.4488L70.3241 9.79908L70.3574 9.92178L69.5881 11.9134L67.0319 12.5872L67.8579 10.4488ZM68.7088 14.7128L66.1526 15.3866L66.9786 13.2468L69.4448 12.5971L69.4781 12.7198L68.7088 14.7128ZM72.0394 13.9979L69.4831 14.6717L70.3092 12.5318L72.7753 11.8822L72.8086 12.0049L72.0394 13.9979ZM1.91542 7.98267L1.99632 7.57556C2.22129 6.39607 2.6691 5.37758 3.50297 4.6052C4.11329 4.03567 5.00961 3.68955 6.02729 3.68955C6.67877 3.68955 7.16774 3.79097 7.4729 3.8931L6.90303 5.8464C6.64739 5.76014 6.37865 5.71909 6.1089 5.72511C5.19271 5.72511 4.66329 6.68119 4.50077 7.5557L4.41916 7.98267H6.35445L6.00813 9.77355H4.11329L2.54561 17.9342H0L1.56768 9.77355M10.2428 17.9342C10.2626 17.4058 10.3038 16.8548 10.3237 16.2661H10.2626C9.46852 17.5895 8.51116 18.0981 7.71703 18.0981C6.27142 18.0981 5.5589 16.8562 5.5589 15.1064C5.5589 12.0949 7.06555 7.82167 11.3414 7.82167C12.3392 7.82167 13.337 7.98409 13.948 8.22879L12.8494 13.7617C12.6046 14.9213 12.4215 16.8555 12.4421 17.9328H10.2428V17.9342ZM11.159 9.77355C10.9851 9.73637 10.808 9.71595 10.6303 9.71255C8.9611 9.71255 8.06477 13.029 8.04348 14.4958C8.04348 15.3717 8.16626 16.0015 8.79716 16.0015C9.48981 16.0015 10.1413 14.8617 10.5075 13.0503L11.159 9.77355ZM14.2546 15.7561C14.6619 15.981 15.1509 16.1831 15.8627 16.1632C16.5965 16.1434 17.0032 15.6746 17.0032 15.0447C17.0032 14.4951 16.7392 14.1085 16.0465 13.5588C15.1914 12.8666 14.784 11.9921 14.784 11.1374C14.784 9.30544 16.209 7.82097 18.4701 7.82097C19.3465 7.82097 19.9767 7.98338 20.3429 8.18694L19.7929 10.0388C19.4293 9.84502 19.0247 9.74048 18.6127 9.73383C17.7987 9.73383 17.2899 10.1608 17.2899 10.8325C17.2899 11.341 17.5752 11.646 18.0435 12.0332C19.1627 12.8879 19.5303 13.8638 19.5303 14.6383C19.5303 16.8363 18.0024 18.0569 15.7229 18.0569C14.8067 18.0569 13.9913 17.7931 13.645 17.5484L14.2546 15.7561ZM25.4937 5.29601L24.9849 7.98267H28.8945L28.5681 9.77355H24.6386L23.7621 14.3929C23.7121 14.6685 23.6848 14.9477 23.6805 15.2277C23.6805 15.8377 23.9857 16.0625 24.4548 16.0625C24.6386 16.0625 24.9026 16.0625 25.1474 16.0214L24.8423 17.9342C24.3746 18.0569 23.8033 18.0967 23.3143 18.0967C21.7878 18.0967 21.0334 17.242 21.0334 15.8987C21.0334 15.4511 21.115 14.9015 21.2172 14.4128L22.0937 9.77284H20.9334L21.2797 7.98196H22.44L22.8474 5.92654L25.4937 5.29601Z" fill="white"/>
<path d="M26 18L27.9804 8.21938H30.6144L28.634 18H26ZM28.4643 5.71898C28.4643 4.9996 29.0114 4.17915 29.9388 4.17915C30.8031 4.17915 31.204 4.79815 31.182 5.47849C31.1614 6.47809 30.4447 7.03924 29.6656 7.03924C28.8227 7.03924 28.4438 6.45857 28.4643 5.71898ZM32.2497 8.21938L32.3334 7.81926C32.5661 6.66003 33.0295 5.65903 33.8923 4.89992C34.5238 4.34017 35.4512 4 36.5042 4C37.1783 4 37.6842 4.09968 38 4.20006L37.4104 6.1198C37.1458 6.03502 36.8678 5.99468 36.5887 6.0006C35.6407 6.0006 35.0929 6.94025 34.9247 7.79974L34.8403 8.21938H37.8957L37.5374 9.97949H34.5245L32.9025 18H30.2685L31.8906 9.97949" fill="white"/>
<path d="M39.2134 8.00208L39.2724 12.6824C39.2916 13.5985 39.3122 14.2758 39.2916 14.992H39.3315C39.5285 14.196 39.7255 13.5381 40.0606 12.5027L41.5181 8.00208H44L40.8494 15.668C39.9034 17.8985 38.82 19.7702 37.6391 20.8653C37.0679 21.4032 36.3992 21.8216 35.9845 22L35 19.968C35.4332 19.748 35.8863 19.4898 36.2797 19.172C36.8324 18.7132 37.3624 18.1559 37.5993 17.6181C37.6391 17.4786 37.6775 17.3787 37.6583 17.1802L36.634 8H39.2141L39.2134 8.00208Z" fill="white"/>
</svg>
