<svg width="49" height="49" viewBox="0 0 49 49" fill="none" xmlns="http://www.w3.org/2000/svg">
<mask id="mask0_17_10" style="mask-type:alpha" maskUnits="userSpaceOnUse" x="0" y="0" width="49" height="49">
<rect width="49" height="49" fill="#D9D9D9"/>
</mask>
<g mask="url(#mask0_17_10)">
</g>
<path d="M32.2227 8.72436L32.1644 8.63541L32.1641 8.63577L32.1619 8.63717C32.1589 8.63914 32.1558 8.64101 32.1526 8.6428L32.1156 8.6653C31.8903 8.80074 31.6626 8.93213 31.4324 9.0594C30.8252 9.39468 30.2039 9.70491 29.5701 9.98928C28.0622 10.6639 26.155 11.3221 24.5227 11.2869C23.6983 11.269 23.0133 11.2018 22.3675 11.1354L22.2619 11.1245C21.656 11.0619 21.0781 11.0025 20.4503 10.9895C19.1181 10.9621 17.5674 11.1452 15.0161 11.9412C12.4437 12.7434 10.796 14.3757 9.61007 15.9307C9.14971 16.5343 8.75691 17.1285 8.40796 17.6572C8.30805 17.8084 8.21174 17.9543 8.1183 18.0935C7.69424 18.7253 7.33846 19.208 6.98879 19.4562C6.25063 19.9796 4.72509 21.0934 3.38462 22.0753C2.80044 22.5033 2.21658 22.9318 1.63302 23.3606L1.08893 23.7607L0.93979 23.8707L0.900978 23.8996L0.890915 23.9069L0.888399 23.9087L0.887681 23.909L0.835571 23.9477L0.845993 24.0106L0.856056 24.0711L0.876181 24.1917L0.995134 24.1548L4.7542 22.9837C4.61224 23.1321 4.41962 23.3388 4.17524 23.6137C3.59521 24.2669 2.72373 25.3048 1.54354 26.8562C1.53493 26.8486 1.52642 26.8408 1.51802 26.833L1.2794 26.6182L1.33941 26.9297L1.34373 26.9522L1.34768 26.9729L1.35954 26.9905L1.3599 26.9912L1.36098 26.993L1.36529 26.9996L1.38254 27.0249C1.48377 27.1685 1.58948 27.3089 1.69951 27.4461C1.97153 27.7868 2.26984 28.1066 2.59184 28.4027C2.96056 28.7381 3.39396 29.0608 3.86151 29.2651C4.32977 29.4697 4.83793 29.5583 5.3486 29.4145C5.53548 29.3611 5.74212 29.2774 5.96313 29.1695C6.73579 29.5847 7.73809 29.9893 8.84532 30.1025L9.11521 30.1303L8.9384 29.9289L8.93804 29.9285L8.9366 29.9267C8.93458 29.9243 8.93242 29.9219 8.93013 29.9197L8.9057 29.8912C8.76322 29.7243 8.62364 29.5551 8.48702 29.3836C8.18208 29.0013 7.89431 28.6063 7.62452 28.1995L7.92388 28.0093L9.46488 28.5634L9.62948 28.6224L9.60899 28.4519L9.4523 27.1455L10.8657 27.6535L11.035 27.7144L11.0095 27.5396L10.8266 26.2853C11.0009 26.1974 11.1734 26.114 11.3459 26.0364L11.3929 26.0156L11.4059 25.9674L13.0223 19.986L19.4246 15.7138L19.0203 16.7087C18.3465 18.3294 17.3787 19.3289 16.5816 19.9227C16.2661 20.1595 15.9275 20.3652 15.5707 20.5369C15.4466 20.5958 15.3196 20.6485 15.1901 20.6947L15.17 20.7014L15.1682 20.7021C15.1672 20.7024 15.1662 20.7027 15.1653 20.7031L15.1642 20.7035L15.161 20.7046L15.1577 20.7056L14.0886 21.1022L14.0624 21.1113L14.0444 21.1321L13.9204 21.2744C13.5876 21.6555 13.33 21.9505 13.1291 22.4659C12.9059 23.0382 12.7532 23.8792 12.617 25.4222L12.604 25.5695L12.7506 25.5333C13.3806 25.3786 13.9732 25.3438 14.504 25.4837C15.9031 25.8525 16.849 26.8629 17.3503 27.901C17.6008 28.4199 17.7384 28.942 17.7668 29.3885C17.7956 29.8392 17.7122 30.1946 17.5433 30.3989C17.3604 30.62 16.9205 31.0039 16.3509 31.4659H15.1171L15.1153 31.5696L15.1002 32.4439L15.0995 32.4446L15.0499 32.4823H13.7946L13.7928 32.586L13.7792 33.4374L13.6297 33.5475L13.5391 33.6143C13.0166 33.615 12.4197 33.397 11.941 33.1685C11.6757 33.0414 11.4181 32.8992 11.1698 32.7428C11.1544 32.7331 11.1392 32.7233 11.1241 32.7132L11.1126 32.7055L11.1105 32.7041L11.1101 32.7037L11.1094 32.7034L10.9405 32.5898V32.7906C10.9405 33.2458 11.1324 33.8119 11.3171 34.2545C11.4206 34.5003 11.5344 34.742 11.6581 34.9787L11.6589 34.9798L11.6147 35.0107L11.7088 35.0722L11.7394 35.1274L11.7714 35.1126L11.78 35.1183L11.8795 35.1798C12.3939 35.4906 12.9326 35.7611 13.4906 35.9887C13.9858 36.1888 14.5439 36.3677 15.0995 36.4507C15.6544 36.5337 16.2143 36.5214 16.7081 36.3319C17.1365 36.1677 17.728 35.8337 18.4263 35.4065C18.9064 35.113 19.4408 34.7723 20.0122 34.4085C20.2742 34.2415 20.5437 34.0699 20.8193 33.8955C22.5749 32.7849 24.5802 31.5619 26.4364 30.7758L37.7304 27.8652L37.7836 27.8515L37.8034 27.8012L39.2937 24.024L39.3696 23.8317L39.1658 23.8844L30.6878 26.0694V22.8937L40.7136 20.3098L40.7668 20.296L40.7866 20.2458L42.2769 16.4686L42.3527 16.2763L42.149 16.329L30.6906 19.2825V16.1072L43.6939 12.7554L43.7471 12.7417L43.7669 12.6914L45.1551 9.17436L45.1677 9.14202L45.1584 9.10862L45.098 8.89065L45.07 8.78975L44.9665 8.81647L31.5068 12.2857C32.1285 11.3259 32.3434 10.4632 32.398 9.82299C32.4275 9.47776 32.4099 9.19791 32.3847 9.00315C32.3724 8.9069 32.3548 8.81137 32.3319 8.71698C32.3305 8.71157 32.3291 8.70618 32.3276 8.70081L32.3262 8.69624L32.3258 8.69483L32.2227 8.72436ZM32.2227 8.72436L32.1644 8.63541L32.2852 8.56018L32.3258 8.69483L32.2227 8.72436ZM32.1192 8.75424C32.1192 8.75389 32.1192 8.75389 32.1192 8.75424ZM23.2361 19.9318L25.7579 19.2814L24.9557 21.3145L22.434 21.9649L23.2361 19.9318ZM24.8019 22.2588L23.9998 24.2933L21.4781 24.944L22.2806 22.9092L24.8019 22.2588ZM28.4234 21.4984L27.6212 23.5329L25.0995 24.1836L25.902 22.1488L28.4234 21.4984Z" fill="black"/>
<path d="M15.7209 36.6043C15.5074 36.6035 15.2942 36.5868 15.0833 36.5544C14.5852 36.4802 14.0354 36.3224 13.4496 36.0858C12.8861 35.8556 12.342 35.5824 11.8224 35.2687L11.7634 35.2325L11.693 35.2652L11.6269 35.145L11.4249 35.0135L11.5208 34.9467L11.477 34.8602C11.4127 34.7312 11.3153 34.5284 11.2179 34.2946C10.9627 33.6835 10.8334 33.1773 10.8334 32.7909V32.3894L11.1848 32.626L11.2294 32.6549C11.474 32.8092 11.7276 32.9493 11.9891 33.0743C12.3963 33.2687 12.9857 33.4997 13.5042 33.5092L13.5315 33.4891L13.5657 33.4638L13.6731 33.3851L13.6893 32.3775H14.9942L15.0115 31.3611H16.3127C16.9143 30.8725 17.3003 30.5265 17.4602 30.3332C17.6133 30.1479 17.6859 29.8058 17.66 29.3955C17.6313 28.9448 17.4872 28.4302 17.2536 27.9468C16.9954 27.4093 16.6348 26.9249 16.1913 26.5194C15.7061 26.0759 15.1173 25.7555 14.4763 25.586C13.9908 25.458 13.4352 25.4746 12.7772 25.6359L12.484 25.7084L12.5102 25.4134C12.6446 23.8943 12.7948 23.0294 13.0291 22.4286C13.2365 21.8964 13.5024 21.5919 13.8392 21.2062L13.8712 21.1693L13.9624 21.0642L13.9987 21.0224L14.0505 21.003L15.1265 20.604L15.1376 20.6005L15.1552 20.5949C15.2806 20.5498 15.4037 20.4987 15.5239 20.4416C15.8744 20.2731 16.2068 20.071 16.5165 19.8383C16.9818 19.4898 17.4006 19.0857 17.7632 18.6353C18.2239 18.0654 18.611 17.4104 18.9132 16.688V16.6855L18.9218 16.6672L19.1949 15.995L13.1161 20.051L11.5101 25.9945L11.4842 26.0909L11.3915 26.1323C11.2488 26.1967 11.1022 26.2663 10.9448 26.3447L11.1683 27.874L9.58058 27.3034L9.75775 28.78L7.93787 28.1257L7.774 28.2298C8.02508 28.6028 8.29147 28.9658 8.57253 29.3178C8.71197 29.4933 8.82553 29.63 8.89633 29.7137C8.93586 29.7608 8.96748 29.7974 8.98869 29.8223L9.01492 29.8526C9.01587 29.8535 9.01671 29.8546 9.01744 29.8557L9.04619 29.8832V29.8888L9.3743 30.2621L8.83452 30.2066C7.89691 30.1106 6.93055 29.8012 5.96095 29.2873C5.7768 29.3775 5.58531 29.4526 5.38847 29.5119L5.37877 29.5147C5.37758 29.5151 5.37638 29.5155 5.37517 29.5158L5.36439 29.5189C4.88103 29.6511 4.36102 29.598 3.81764 29.3607C3.39538 29.1762 2.95837 28.8798 2.5185 28.4794C2.08976 28.0844 1.70202 27.6489 1.36095 27.1793L1.32969 27.1357L1.32753 27.1371L1.27039 27.0513L1.2517 27.0271V27.0232L1.24487 27.0134L1.23302 26.9497L1.11406 26.3257L1.52914 26.6991C2.71759 25.1413 3.5783 24.1256 4.09436 23.5445C4.20073 23.425 4.30316 23.311 4.40163 23.2042L1.02781 24.255L0.789547 24.3288L0.71875 23.9017L0.875078 23.7867L0.944438 23.7357L1.22834 23.5269L1.56903 23.2766C1.98052 22.9743 2.61841 22.506 3.32062 21.9913C4.54214 21.0962 6.15933 19.9153 6.92623 19.3711C7.25398 19.1387 7.60402 18.6694 8.0288 18.0362C8.12187 17.8973 8.21855 17.7511 8.31809 17.6006C8.66669 17.0729 9.06164 16.4753 9.52416 15.8685C10.2325 14.9396 10.9527 14.1887 11.7257 13.5724C12.6907 12.7998 13.7962 12.2125 14.9841 11.8413C17.2371 11.1382 18.8726 10.8524 20.4531 10.8847C21.0856 10.8977 21.6628 10.9571 22.2737 11.0204L22.3794 11.0313C23.0827 11.1037 23.7295 11.1649 24.5255 11.1821C25.2601 11.198 26.1143 11.0707 27.0638 10.8035C27.83 10.588 28.6584 10.2818 29.5259 9.89402C30.1567 9.61062 30.7752 9.3018 31.3799 8.96835C31.6177 8.83707 31.8528 8.70111 32.085 8.56054L32.1109 8.54437L32.3481 8.39636L32.4598 8.76621L32.4544 8.76761C32.4649 8.81683 32.4792 8.89277 32.4918 8.9905C32.526 9.25523 32.5306 9.53859 32.5055 9.83214C32.4401 10.6024 32.182 11.3699 31.7375 12.1177L45.1461 8.66179L45.2812 9.14765L45.2561 9.21199L43.8283 12.8299L43.7216 12.8573L30.7984 16.1884V19.1457L42.5292 16.1216L42.3775 16.5066L40.8476 20.3843L40.7409 20.4117L30.7952 22.9753V25.9312L39.1381 23.7814L39.546 23.6763L39.3943 24.0613L37.8645 27.9394L37.7577 27.9668L26.4719 30.8753C24.6571 31.6448 22.7111 32.824 20.8783 33.9838C20.6152 34.1501 20.3572 34.3146 20.1074 34.4739L20.0628 34.5023C19.4968 34.8627 18.9621 35.2034 18.4837 35.4959C17.6708 35.9933 17.1354 36.2812 16.7476 36.43C16.4443 36.546 16.1007 36.6043 15.7209 36.6043ZM11.8393 35.0297L11.9366 35.0898C12.4461 35.3972 12.9795 35.665 13.5319 35.8907C14.1019 36.1209 14.6345 36.2742 15.1157 36.3459C15.7173 36.4356 16.2398 36.3976 16.6685 36.2331C17.0434 36.0893 17.5677 35.8066 18.3691 35.3166C18.846 35.0248 19.3797 34.6848 19.945 34.3248L19.9895 34.2963C20.2464 34.1324 20.5036 33.9689 20.7611 33.8059C22.6043 32.6398 24.5626 31.4536 26.3939 30.6777L26.4015 30.6745L26.4094 30.6724L37.7035 27.7618L39.1934 23.9846L30.5803 26.2044V22.8122L40.6866 20.2075L42.177 16.4303L30.5828 19.4193V16.0256L43.6666 12.6531L45.0548 9.13605L44.9945 8.91843L31.2692 12.4559L31.4162 12.2291C31.9276 11.4398 32.2219 10.6274 32.2909 9.81421C32.3204 9.46652 32.3003 9.18843 32.278 9.01652C32.2699 8.95312 32.2595 8.89003 32.2467 8.82738L32.1748 8.84812L32.131 8.78132L32.1303 8.78027C32.125 8.78326 32.1199 8.78643 32.1148 8.78976L32.1026 8.85867L32.0401 8.84953L32.0354 8.83722L32.0271 8.84214C31.8579 8.94234 31.6757 9.0464 31.4852 9.15152C30.8753 9.48817 30.2514 9.7998 29.615 10.0856C28.7378 10.478 27.8994 10.7877 27.1228 11.006C26.1524 11.2788 25.2766 11.4089 24.5202 11.3927C23.7159 11.3755 23.0643 11.3136 22.3564 11.2409L22.2507 11.23C21.6444 11.1674 21.0716 11.1083 20.4481 11.0957C18.8927 11.0637 17.278 11.3467 15.0492 12.0424C13.8747 12.4087 12.8318 12.9628 11.8615 13.7362C11.1025 14.3413 10.3942 15.0799 9.69666 15.9947C9.23809 16.5959 8.8453 17.1903 8.49886 17.7152C8.39931 17.8657 8.30228 18.0127 8.20884 18.1519C7.75855 18.823 7.4078 19.2899 7.05238 19.5419C6.28655 20.0851 4.67044 21.2657 3.44964 22.16C2.86557 22.588 2.28183 23.0165 1.69841 23.4453L1.35808 23.6957L1.07417 23.9045L1.00517 23.9551L0.954141 23.9924L0.951984 23.9896L0.962766 24.0543L5.11606 22.7605L4.83287 23.0558C4.63689 23.2614 4.44483 23.4705 4.2568 23.683C3.73247 24.2733 2.85128 25.3135 1.63012 26.9191L1.55897 27.0127L1.4932 26.9539V26.9965L1.53705 27.0577C1.61287 27.1624 1.69625 27.2711 1.78466 27.3811C1.97872 27.623 2.28922 27.983 2.66548 28.3257C3.08811 28.7103 3.50534 28.9941 3.90569 29.1691C4.4027 29.3864 4.87492 29.4356 5.30977 29.3161L5.32342 29.3094H5.33348C5.53377 29.2475 5.72839 29.1693 5.91531 29.0756L5.96563 29.051L6.01522 29.0777C6.96684 29.5889 7.91416 29.8979 8.83092 29.9957V29.9682L8.82338 29.9594C8.67968 29.7917 8.53926 29.6213 8.40219 29.4483C8.09498 29.0637 7.80528 28.6661 7.53394 28.2565L7.47572 28.1682L7.56592 28.1113L7.86492 27.9211L7.9102 27.8923L9.50223 28.4646L9.32506 26.9877L10.9031 27.5548L10.709 26.2262L10.7773 26.1918C10.9635 26.0979 11.1349 26.016 11.3009 25.9407L12.9274 19.9213L19.6539 15.4329L19.127 16.7291V16.7323L19.118 16.7509C18.8072 17.4983 18.4075 18.1768 17.9303 18.7668C17.5567 19.2312 17.1249 19.6479 16.6452 20.0071C16.3239 20.248 15.9791 20.4573 15.6159 20.6321C15.4881 20.6929 15.3573 20.7472 15.2238 20.7949L15.2019 20.8023L15.1944 20.8048L14.1256 21.2013L14.034 21.3068L14.0016 21.3437C13.6656 21.7283 13.423 22.0061 13.229 22.5042C13.0025 23.0857 12.8559 23.934 12.7233 25.432C13.4176 25.2615 14.0092 25.2453 14.531 25.3828C15.2055 25.5612 15.8253 25.8983 16.3361 26.3647C16.8 26.7885 17.177 27.2949 17.4469 27.8568C17.692 28.3641 17.8433 28.9058 17.8735 29.3825C17.9033 29.8515 17.8157 30.2365 17.6263 30.4657C17.4523 30.6763 17.0574 31.03 16.4188 31.5478L16.3889 31.5721H15.2231L15.2073 32.4907L15.1631 32.5322L15.1581 32.5346L15.1509 32.5399L15.1171 32.5656L15.0876 32.5881H13.901L13.8866 33.4909L13.8449 33.5218C13.7946 33.5591 13.7447 33.596 13.6947 33.6322L13.6606 33.6575L13.6045 33.6987L13.5758 33.7201H13.5373C13.2232 33.7201 12.6841 33.6407 11.8942 33.2634C11.6249 33.1345 11.3636 32.9902 11.1115 32.8314C11.0957 32.8214 11.08 32.8112 11.0644 32.8008L11.0486 32.7906C11.0486 33.1446 11.1762 33.6371 11.4173 34.2144C11.5171 34.4526 11.6269 34.6866 11.7465 34.9158L11.7487 34.9179L11.7562 34.9344L11.7882 34.9966L11.7915 34.9987L11.7925 35.0009L11.8288 35.023L11.8393 35.0297ZM21.3016 25.0984L22.1997 22.821L24.9784 22.1045L24.0806 24.3816L21.3016 25.0984ZM22.361 22.9975L21.6545 24.7894L23.9193 24.2051L24.6258 22.4135L22.361 22.9975ZM24.9227 24.338L25.8207 22.0605L28.5994 21.3437L27.7017 23.6208L24.9227 24.338ZM25.9825 22.237L25.2759 24.0289L27.5407 23.4446L28.2472 21.6531L25.9825 22.237ZM22.2572 22.1196L23.1552 19.8436L25.9339 19.1268L25.0359 21.4024L22.2572 22.1196ZM23.3166 20.0201L22.6101 21.8102L24.8749 21.2259L25.581 19.4358L23.3166 20.0201Z" fill="white"/>
</svg>
