<svg width="141" height="26" viewBox="0 0 141 26" fill="none" xmlns="http://www.w3.org/2000/svg">
<path d="M11.04 25.8863C8.29132 25.5145 5.47367 24.0582 3.49621 21.9858C2.06184 20.4914 1.17887 19.0578 0.50625 17.1451C0.0380283 15.8092 0 15.5005 0 12.9979C0 10.493 0.0380283 10.1807 0.50625 8.84482C2.8735 2.06637 10.1951 -1.58265 16.9118 0.661343C20.9785 2.01632 24.2691 5.58192 25.3838 9.83632C25.7926 11.3963 25.7961 14.3887 25.3933 16.0606C23.8472 22.4482 17.5429 26.761 11.04 25.8863ZM15.3384 17.1451C17.0461 13.7189 18.4436 10.8374 18.4436 10.7396C18.4436 10.6276 17.5987 10.5573 16.2855 10.5573H14.1263V6.55912C14.1263 4.35684 14.0668 2.61575 13.9955 2.68606C13.727 2.95658 7.53076 15.1668 7.59969 15.2967C7.63653 15.3718 8.63476 15.4314 9.81364 15.4314H11.9634V19.4022C11.9634 21.5854 12.0228 23.373 12.1025 23.373C12.1773 23.373 13.6355 20.5712 15.3384 17.1451ZM54.7498 24.2715C53.8074 24.0296 52.442 23.3086 51.969 22.8009C50.7711 21.5115 50.3861 18.649 51.1894 16.9866C51.8906 15.5244 53.4735 14.5519 55.7754 14.1563C56.9495 13.9513 59.2062 14.0121 60.422 14.2826C60.9092 14.3898 60.9139 14.3755 60.9139 13.5139C60.9139 11.6704 60.296 10.4465 59.0577 9.79937C58.4219 9.46808 58.0357 9.41326 56.5977 9.4359C55.6542 9.45497 54.4242 9.5801 53.8585 9.71476L52.8318 9.96622L52.7165 9.13321C52.4931 7.54585 52.4705 7.6114 53.445 7.34565C53.9417 7.21098 55.325 7.05725 56.5181 7.00124C58.2496 6.92259 58.8996 6.9643 59.7446 7.21098C61.8753 7.83425 63.1006 9.16539 63.5593 11.3629C63.7138 12.1077 63.7874 14.2588 63.7922 18.1592L63.797 23.8711L62.3994 24.0856C60.5527 24.3692 55.6043 24.4908 54.7498 24.2715ZM60.0785 21.9953L60.9139 21.8797V19.2961C60.9139 17.5038 60.8498 16.6744 60.7 16.5862C60.5848 16.5123 59.6697 16.4146 58.6632 16.3717C56.328 16.2644 55.0838 16.5909 54.2757 17.5121C53.7932 18.0615 53.7195 18.2903 53.7195 19.1471C53.7195 20.7619 54.1592 21.3435 55.7849 21.8559C56.574 22.1062 58.7606 22.1777 60.0785 21.9953ZM69.1304 24.0999C68.4483 23.9176 67.8267 23.6995 67.7471 23.6161C67.6128 23.4754 67.9753 21.465 68.1702 21.2684C68.2165 21.2231 68.7691 21.3721 69.3954 21.5902C70.9272 22.13 74.3628 22.1955 75.2589 21.7022C76.0289 21.2827 76.3914 20.7154 76.3914 19.9468C76.3914 18.6061 75.4027 17.81 71.9813 16.4146C68.8939 15.1525 67.9099 14.0216 67.9099 11.7407C67.9099 9.49192 69.0936 7.98798 71.405 7.28129C72.4686 6.95953 72.951 6.91782 74.5708 7.00124C76.7574 7.11326 78.3736 7.44337 78.3736 7.783C78.3736 8.02969 77.9969 9.8971 77.9327 9.97098C77.9089 9.99958 77.2589 9.85539 76.4829 9.65518C74.8168 9.23093 73.7033 9.19875 72.5292 9.55746C71.2576 9.93881 70.8108 10.4369 70.8108 11.4797C70.8108 12.9133 71.3871 13.365 75.1519 14.8916C77.909 16.0046 78.9583 17.0247 79.2601 18.8814C79.6963 21.558 78.3962 23.4576 75.6296 24.1964C74.2321 24.5694 70.6717 24.5182 69.1304 24.0999ZM86.4688 24.1785C85.3316 23.8246 84.4177 22.9964 83.8283 21.7904L83.322 20.7572V2.5371L84.1301 2.40243C84.5965 2.32845 85.062 2.24899 85.5265 2.16409L86.1111 2.06279V7.3087H92.4107V9.65518H86.0945L86.1504 14.7557C86.1967 19.4868 86.2288 19.9051 86.5722 20.5569C86.7766 20.9526 87.214 21.409 87.5562 21.5949C88.3881 22.0418 90.3049 22.0418 91.5765 21.5902L92.5331 21.2565L92.8065 22.4101C93.0667 23.4945 93.0667 23.5732 92.7601 23.7364C91.479 24.4252 88.0375 24.6671 86.4688 24.1785ZM36.2598 12.905V1.71839H49.7598V4.24124H39.3104L39.3615 7.71865L39.4078 11.1913L44.0449 11.2378L48.6772 11.289V13.8071H39.3199V24.0951H36.261L36.2598 12.905ZM94.2076 24.0022C94.2076 23.7972 97.5172 14.9154 98.7472 11.8241C99.6401 9.59753 100.57 7.3862 101.537 5.19103L103.079 1.71839H104.56C105.817 1.71839 106.059 1.76487 106.142 2.02942C106.194 2.20699 106.839 3.6859 107.577 5.3257C109.187 8.9199 111.105 13.7189 113.281 19.5976C114.172 22.0049 114.907 24.0069 114.907 24.0391C114.907 24.0761 114.164 24.0868 113.255 24.0582L111.602 24.0022L110.599 21.2088L109.591 18.4107L104.467 18.3594L99.3366 18.313L98.3253 21.1576L97.3176 24.0022L95.762 24.0582C94.9087 24.0856 94.2076 24.063 94.2076 24.0022ZM108.607 15.7436C108.607 15.1621 104.694 5.3257 104.462 5.3257C104.17 5.3257 100.327 14.9845 100.327 15.7162C100.327 15.9307 101.017 15.9712 104.467 15.9712C107.684 15.9712 108.607 15.9188 108.607 15.7436ZM118.146 13.0158V1.93647L118.732 1.81969C119.994 1.573 126.057 1.48601 127.185 1.70409C129.761 2.18792 131.725 3.2402 132.686 4.64165C134.385 7.1228 134.106 11.3212 132.11 13.328C130.565 14.8773 128.132 15.5947 123.949 15.7484L121.206 15.8461V24.0951H118.146V13.0158ZM127.529 12.7322C129.678 12.0565 130.592 10.8183 130.592 8.57907C130.592 5.49254 128.442 4.06844 123.791 4.06367C122.989 4.06367 122.074 4.11135 121.767 4.1757L121.206 4.28772V13.3185L123.833 13.1874C125.561 13.104 126.832 12.9455 127.529 12.7322ZM137.941 12.9038V1.71839H141V24.0951H137.941V12.9038Z" fill="#049688"/>
</svg>
