<svg width="49" height="49" viewBox="0 0 49 49" fill="none" xmlns="http://www.w3.org/2000/svg">
<mask id="mask0_16_76" style="mask-type:alpha" maskUnits="userSpaceOnUse" x="0" y="0" width="49" height="49">
<rect width="49" height="49" fill="#D9D9D9"/>
</mask>
<g mask="url(#mask0_16_76)">
<path d="M16.4374 43.6345C14.3427 41.9878 12.1093 40.4103 10.5791 38.1899C7.36528 34.2734 4.88926 29.7337 3.20062 24.9666C2.17555 21.866 1.8289 18.5429 0.50671 15.561C-0.869955 13.395 0.744408 11.0312 3.11643 10.3439C4.17122 10.1411 6.03318 9.14218 3.78991 9.85923C1.77938 11.3329 1.58625 8.5191 3.6463 8.34107C5.05268 8.15316 5.57264 7.00588 5.09229 5.9674C3.58192 4.98332 8.7568 3.90034 6.15203 2.43163C3.43831 -0.490946 9.94529 -1.05469 8.34083 2.26844C7.95952 4.82013 12.8868 1.79865 11.7429 4.74596C12.9066 6.16027 16.1007 5.06739 16.0165 7.05534C17.7101 7.17402 18.2944 8.59327 19.8791 8.70207C21.5281 9.44384 24.5142 10.0323 25.0738 11.8867C23.4396 13.1774 19.6513 9.21636 19.473 12.7966C19.9682 18.083 19.8395 23.5276 21.7757 28.5617C22.6918 31.6079 24.9103 34.0063 26.9159 36.38C28.8373 38.7042 31.4322 40.3411 34.0865 41.7208C36.409 42.8136 38.9147 43.5406 41.4501 43.9955C42.4752 43.2092 44.2926 40.2966 45.8921 41.523C45.9713 42.9076 42.7129 44.4109 45.7386 44.2626C47.5164 43.7285 48.7494 45.6324 50.2152 43.9115C51.5622 45.5087 55.8209 42.8928 54.8602 46.1516C53.5628 46.9873 51.6711 46.4829 50.3687 47.6351C48.2245 46.567 46.521 48.5896 44.149 48.3374C41.5145 48.8071 38.8355 49 36.1614 49C31.7788 48.6538 27.3022 48.5104 23.1375 46.9873C20.7902 46.3049 18.4975 44.9697 16.4374 43.6345ZM20.1366 45.2368C22.4294 46.2258 24.6726 47.2692 27.1833 47.5857C31.1697 48.1395 35.2898 48.9901 39.291 48.2137C37.4786 47.3978 35.6067 48.5302 33.8042 47.6302C31.6402 48.095 29.3176 47.5115 27.1189 47.2247C24.6182 46.112 21.9193 45.3455 19.577 43.9016C16.6503 42.8334 21.0923 45.2714 21.8797 45.4692C23.707 46.5076 19.8692 44.9351 19.3244 44.5049C17.7943 43.6444 17.5962 43.8274 19.1709 44.6977C19.4879 44.8807 19.8048 45.0785 20.1366 45.2368ZM15.7738 42.1559C17.9973 42.9768 15.7639 40.5933 14.7488 40.7317C14.2981 39.9504 13.0255 39.4559 13.9218 39.0355C12.3074 39.5943 12.2282 36.9091 11.4705 37.2899C9.76206 36.7509 10.8069 34.8421 8.77166 33.6701C8.58843 32.4338 6.75123 31.3656 6.16689 29.5013C5.90938 28.5469 4.09198 25.8122 5.20619 28.359C6.15698 30.8118 7.82582 32.9135 9.21734 35.0102C10.2969 37.008 11.5745 39.0949 13.5355 40.3411C14.1991 40.9839 14.8379 41.9581 15.7738 42.1559ZM9.37085 35.1388C9.77692 35.8608 9.45009 34.8025 9.37085 35.1388ZM18.4331 43.14C18.9283 42.9224 17.7249 42.8631 18.4331 43.14ZM19.6414 43.5801C19.5176 42.9719 19.0917 43.9213 19.6414 43.5801ZM21.1517 44.2082C21.8698 43.5257 20.0425 43.7779 21.1517 44.2082ZM23.7367 45.6472C24.1774 45.0043 22.3402 45.4049 23.7367 45.6472ZM18.7698 42.1905C19.884 41.4686 17.3288 42.1807 18.7698 42.1905ZM19.9038 42.7543C19.8692 42.3735 19.4978 42.9224 19.9038 42.7543ZM25.564 46.2802C26.4752 46.8538 30.8775 47.5362 28.1193 46.5175C27.6587 46.6164 23.0038 45.2021 25.564 46.2802ZM16.5761 39.2927C16.4869 38.9119 15.1647 38.8724 16.5761 39.2927ZM19.2105 40.8257C19.8989 40.351 17.7893 40.4597 19.2105 40.8257ZM21.4291 42.1856C22.4096 41.8147 19.8296 41.8147 21.4291 42.1856ZM15.5015 38.1256C16.5711 38.9416 19.8097 38.2295 17.1356 37.6361C15.9224 36.9883 13.179 36.5481 15.0459 38.0267L15.5015 38.1256ZM22.9295 42.6554C23.3752 41.8988 21.0626 42.2202 22.9295 42.6554ZM20.6714 40.8603C23.2811 41.5971 18.4776 39.2086 20.0276 40.5883L20.3743 40.7466L20.6714 40.8603ZM25.1976 43.4713C27.6686 43.4961 22.9642 43.1351 25.1976 43.4713ZM14.5507 36.6965C14.4566 36.2366 13.9416 36.7361 14.5507 36.6965ZM29.3771 45.8153C29.4464 44.9845 28.5748 46.4335 29.3771 45.8153ZM18.7698 39.2779C18.6213 38.8427 17.9973 39.2581 18.7698 39.2779ZM14.7884 36.4097C16.2047 36.3256 12.8422 35.7866 14.7884 36.4097ZM10.0641 33.3635C9.88586 32.681 8.5191 32.142 10.0641 33.3635ZM22.4591 41.2164C22.3353 41.2806 22.2016 40.9196 22.4591 41.2164ZM30.1744 45.9439C30.1496 45.4939 29.7534 46.117 30.1744 45.9439ZM21.7757 40.5141C21.9144 39.9306 20.5674 40.3361 21.7757 40.5141ZM16.0313 36.8745C17.0861 36.7608 14.3377 36.1624 16.0313 36.8745ZM25.7522 42.9076C27.3963 42.2548 24.1477 42.5911 25.7522 42.9076ZM20.6962 39.4806C22.5928 39.7229 18.438 38.1899 20.2802 39.3421L20.6962 39.4806ZM27.2873 43.5307C29.0601 42.4724 28.4758 46.0082 30.2932 43.8274C32.0858 42.5219 28.7432 45.4444 30.9518 44.0598C32.5513 42.9917 34.9085 44.5642 36.3991 45.0785C37.4687 45.0241 38.5136 46.0032 39.6129 45.4098C41.7274 44.8411 35.473 44.5642 37.1122 43.5554C35.1759 44.1191 33.7448 42.8829 32.794 41.6466C30.62 41.1471 28.1094 40.0394 27.0249 38.1158C26.5841 37.3938 27.6637 38.2196 26.6436 37.0377C25.3362 35.8756 24.6825 34.5553 23.806 33.1409C22.7562 32.5821 22.6324 30.9354 22.5284 33.0865C22.5383 31.7316 21.2607 30.8167 20.9487 31.1975C20.9438 29.892 22.3155 30.5447 21.3548 29.5804C21.1468 28.2255 20.4684 26.8161 20.2653 25.2881C19.9484 24.5512 20.2208 22.9737 19.1808 24.6402C18.8045 26.4057 19.057 22.4743 19.6463 23.7699C20.4188 22.4496 19.369 22.6029 19.3244 22.7858C19.8296 21.6682 19.6414 20.0858 19.1907 20.6891C19.4581 19.5072 19.6166 16.3374 18.7896 16.9011C19.2898 15.6648 19.7404 11.2439 17.5665 12.9302C16.685 12.945 15.1647 13.2466 14.4417 13.6076C16.6999 14.8489 14.2139 14.0577 13.2929 13.8598C13.174 15.0121 12.2628 14.5126 11.1239 14.5225C12.9413 14.745 10.2375 16.3769 9.19753 15.7439C7.84067 16.3918 10.3662 18.0039 9.22229 18.5033C9.36095 19.255 7.14739 18.2313 7.32071 19.9671C6.00842 19.4132 7.14244 22.0243 7.79611 21.144C10.0295 21.7473 9.37085 23.127 9.42533 24.4326C9.05888 25.1941 7.62774 22.6424 9.10839 22.7611C7.93971 20.8671 7.81591 22.0787 6.85027 22.954C6.62743 23.0182 9.32133 24.2051 7.62774 24.7935C9.1183 25.026 9.16287 26.3265 9.46494 27.1474C10.3613 28.0771 10.178 26.1188 11.2477 27.2364C10.5692 26.2375 7.65745 24.4276 9.99976 25.0062C9.98491 24.0023 9.57389 23.1913 10.2969 23.2111C11.01 21.9254 9.54913 26.3859 11.1536 24.749C11.5993 24.5562 11.7082 23.4633 12.5055 24.8529C13.6643 25.9903 12.9264 26.8161 11.2873 25.7727C11.5795 26.7667 13.4761 27.1178 13.1195 28.6705C13.4959 30.0354 14.0258 29.531 14.4863 29.4519C14.8478 30.7772 15.0508 29.803 15.0706 29.17C16.7246 29.526 16.3384 30.5002 16.8534 31.1827C17.9923 31.697 15.2242 27.7013 17.1802 29.981C19.2403 31.8354 17.9527 32.6118 16.1056 32.3151C17.2743 32.2211 17.6507 33.8926 19.1115 33.8333C20.4436 34.4662 21.3498 36.8992 19.0521 35.8855C18.2548 35.1684 15.4321 34.2833 17.7398 35.6481C19.8692 36.6322 21.5578 37.2207 23.6129 38.457C25.0787 39.5053 25.7175 40.7021 26.2721 40.9394C25.0391 41.5279 22.5532 40.4696 24.4003 40.1433C23.2465 39.9356 21.954 39.352 23.0583 40.7861C23.9942 41.5675 26.3811 41.4883 26.8119 41.5724C26.4504 42.3686 25.8265 42.4329 26.8268 42.4922C25.7126 43.0955 27.1833 43.1895 27.2873 43.5307ZM25.0094 37.102C24.3309 36.3948 24.1576 35.0695 24.8905 36.2218C25.2619 36.3701 26.0939 38.3877 25.0094 37.102ZM32.4325 41.8098C32.8534 41.7801 32.4424 42.1312 32.4325 41.8098ZM23.9397 35.3663C24.1824 36.1921 23.91 34.2932 23.9397 35.3663ZM23.2019 34.3723C24.2765 34.8421 22.3452 32.7305 23.2019 34.3723ZM14.2585 28.2106C14.7587 28.0771 14.5061 29.0661 14.2585 28.2106ZM21.3746 32.0629C21.7361 33.0321 21.6816 30.9107 21.3746 32.0629ZM16.3483 28.5716C17.0911 29.17 15.9967 27.9337 16.3483 28.5716ZM20.6615 29.9513C19.8543 28.1464 21.2359 28.9623 20.8398 30.248L20.6615 29.9513ZM13.2235 25.0012C12.862 24.4078 12.2678 22.6671 12.456 22.138C12.6293 23.0034 14.2981 25.8617 13.2731 23.3199C12.144 21.1935 14.625 24.0122 14.8825 24.5413C15.0013 25.0705 14.1842 24.3979 14.7389 25.6342C13.7286 24.2249 14.1446 26.4156 13.2235 25.0012ZM10.9258 23.4188C11.4507 24.3633 11.0199 22.0391 10.9258 23.4188ZM11.9558 23.7748C12.7927 25.2238 12.451 22.7314 11.9558 23.7748ZM9.46989 21.8512C8.61319 21.0006 7.99419 20.2193 9.50951 21.3221C10.0939 21.3468 8.21208 19.5418 9.64817 20.7484C11.1635 21.0254 10.3959 23.2259 9.46989 21.8512ZM10.7772 21.8166C11.2724 21.327 11.0397 22.3012 10.7772 21.8166ZM11.5795 22.0737C12.4956 22.6671 10.8268 20.6644 11.5795 22.0737ZM9.98491 20.5506C7.49898 18.3401 13.1096 21.7078 10.391 20.9611L9.98491 20.5506ZM17.1109 24.6848C16.0313 24.0419 16.8237 20.1451 17.1901 22.8105C18.235 22.4743 17.1307 24.1853 17.9131 24.1705C17.7943 25.2485 17.4427 25.6392 17.1109 24.6848ZM19.7503 26.2425C19.9732 27.0436 19.8543 25.0655 19.7503 26.2425ZM19.2898 25.7875C19.4086 25.2881 19.3046 26.3809 19.2898 25.7875ZM10.4702 19.8237C8.8707 17.6231 15.1152 22.0539 11.4953 20.3825C11.114 20.2786 10.6584 20.244 10.4702 19.8237ZM15.551 22.5089C15.8877 22.8155 15.3975 20.6545 15.551 22.5089ZM19.4037 24.9815C19.7008 23.9232 19.4284 25.6787 19.4037 24.9815ZM10.7178 18.983C11.6686 18.7803 14.6547 20.6495 11.9112 19.5171C11.6042 19.1759 10.9555 19.3292 10.7178 18.983ZM18.8738 23.043C18.9728 21.144 19.4433 21.9105 18.8788 23.315L18.8738 23.043ZM11.421 18.3204C11.8073 17.7517 10.391 15.7588 11.624 17.6033C12.1588 18.0237 13.1641 18.3105 12.2727 18.4885C13.6791 19.7248 11.936 18.8248 11.421 18.3204ZM18.4727 22.4496C18.7401 20.2885 18.7054 23.7155 18.4727 22.4496ZM10.6138 16.3275C10.9109 16.1989 10.7723 16.7181 10.6138 16.3275ZM12.451 17.4203C13.3275 18.5231 12.9264 16.4264 12.451 17.4203ZM17.6358 20.2984C17.7348 20.8523 17.6358 19.9176 17.6358 20.2984ZM17.3387 19.6358C18.0072 20.5753 16.6206 17.8605 17.3387 19.6358ZM16.8979 18.4737C17.309 19.3935 16.7741 17.7418 16.8979 18.4737ZM17.616 17.3066C17.1208 16.4363 18.2399 13.4741 18.3637 15.3137C17.8438 16.7429 18.2152 17.544 18.5767 15.6253C19.2502 14.112 18.4331 18.6022 17.616 17.3066ZM18.3538 12.9005C18.5717 12.6384 18.4034 13.2219 18.3538 12.9005ZM17.1208 37.191C17.1555 37.3542 16.8286 36.9339 17.1208 37.191ZM19.6612 38.4767C21.0775 38.8427 21.0676 38.2592 19.7899 38.0861C19.1016 37.4482 16.9326 36.7707 18.8738 38.007C19.0075 38.3284 19.4136 38.3185 19.6612 38.4767ZM14.6398 35.1437C15.4173 35.7272 17.5764 36.7855 15.7491 35.3663C16.3631 34.6542 14.5705 34.2734 15.1647 33.7937C13.6494 32.869 13.9713 32.953 15.031 32.9827C13.2136 32.1717 15.2935 32.231 15.1944 31.8156C14.4913 31.6772 11.7132 30.5794 13.3473 31.9047C11.6835 31.059 12.9512 32.2211 12.4461 32.0975C10.7426 31.6327 13.9614 33.3931 12.1787 32.953C13.1542 33.7245 14.8032 34.9311 12.5897 33.769C12.3074 34.1893 14.1793 34.8272 14.6398 35.1437ZM17.2991 36.6718C20.5327 37.7103 15.7144 35.3959 17.2991 36.6718ZM30.9172 44.9054C30.9568 44.2626 30.4715 45.4543 30.9172 44.9054ZM32.3136 45.4939C33.0614 44.7719 32.3433 46.6461 33.5516 45.3159C33.5665 44.3664 33.517 43.8027 32.1651 44.9598C31.7937 45.1675 31.6253 46.0428 32.3136 45.4939ZM10.1038 31.5634C9.87101 30.6634 8.49434 30.6684 10.1038 31.5634ZM11.5943 32.5426C11.0397 31.6228 9.6135 31.7118 11.5943 32.5426ZM20.097 37.6608C20.9289 38.3976 23.91 38.1998 21.1022 37.7498C20.6912 37.1366 18.4677 37.285 20.097 37.6608ZM31.7838 44.8659C33.0564 43.7977 30.5458 45.3455 31.7838 44.8659ZM34.4381 46.6906C34.448 46.3494 33.8884 46.839 34.4381 46.6906ZM34.443 46.2109C35.8593 44.7126 33.0713 46.3 34.443 46.2109ZM6.42439 28.4925C5.22105 26.7765 5.67663 26.0051 4.51291 24.6007C4.29006 23.5276 2.51724 21.0946 3.59678 23.671C4.58224 25.1793 4.8744 27.5134 6.42439 28.4925ZM33.9973 45.7362C36.6021 44.0549 32.9326 45.0043 33.9973 45.7362ZM35.9831 46.5126C37.2904 45.395 35.1611 46.2802 35.9831 46.5126ZM9.65807 29.6645C10.0344 29.1107 8.69738 29.5953 9.65807 29.6645ZM35.5721 45.9785C36.8348 45.1675 35.2799 45.2911 35.3443 46.0527L35.5721 45.9785ZM18.4479 35.2031C18.4034 34.6542 17.7794 35.2476 18.4479 35.2031ZM19.5077 35.8113C19.166 35.1289 18.9877 35.9152 19.5077 35.8113ZM37.5975 46.5274C39.2168 45.3604 36.6169 46.3049 37.2607 46.75L37.5975 46.5274ZM36.9735 46.2307C38.2957 45.128 35.5869 46.7203 36.9735 46.2307ZM40.1378 48.3324C41.0243 47.7439 39.0633 48.1445 40.1378 48.3324ZM10.4702 29.264C11.6537 29.531 15.2044 32.1766 13.1096 29.4469C12.035 29.1304 12.6788 26.5095 11.5844 26.9744C12.3173 28.2007 12.1886 28.72 10.6435 27.9485C8.70728 27.004 9.55408 28.4134 9.93538 28.8041C9.42037 28.9277 10.6237 29.2541 10.4702 29.264ZM5.07249 25.0062C5.28542 24.1309 3.11643 20.1847 4.04741 23.0281C4.38415 23.6265 4.34949 24.754 5.07249 25.0062ZM14.9815 31.1085C14.9518 31.0343 14.3724 30.5991 14.9815 31.1085ZM16.482 31.4596C16.482 30.5299 14.823 31.0788 16.482 31.4596ZM29.5058 39.6537C29.2582 39.0207 28.5253 39.6438 29.5058 39.6537ZM30.1298 40.1136C30.0406 39.7575 29.7732 40.1828 30.1298 40.1136ZM35.2948 43.3576C35.79 42.9917 34.6757 43.3131 35.2948 43.3576ZM7.76639 25.6936C9.18763 25.1447 6.24612 25.3029 7.76639 25.6936ZM28.3619 38.6498C28.3421 37.73 27.4557 38.8773 28.3619 38.6498ZM7.20681 24.388C8.11799 24.0814 6.36001 24.1853 7.20681 24.388ZM9.8512 25.6688C9.83634 25.3672 9.57389 25.7826 9.8512 25.6688ZM42.1484 45.4444C43.322 45.2071 45.9961 46.0428 46.4269 45.1329C45.0007 45.0983 41.4997 44.129 41.3362 45.3604L41.6482 45.4098L42.1484 45.4444ZM10.693 25.8815C10.7178 24.9518 9.97005 25.8469 10.693 25.8815ZM3.73544 21.06C3.41851 19.2896 2.53209 20.7929 3.73544 21.06ZM5.39437 21.4754C5.41418 20.9067 3.87409 20.966 5.39437 21.4754ZM6.34021 21.9402C6.12727 22.2221 6.06784 21.7226 6.34021 21.9402ZM12.3124 25.7628C12.5946 25.5056 11.6438 25.5749 12.3124 25.7628ZM5.7113 20.8918C5.54788 19.5517 3.78991 20.694 5.7113 20.8918ZM2.30925 18.6863C2.25973 18.0682 1.97746 18.9187 2.30925 18.6863ZM2.81436 18.3055C2.73017 17.5736 2.37858 18.3995 2.81436 18.3055ZM5.61226 19.972C6.79579 19.5072 3.45812 19.0127 5.36961 19.883L5.61226 19.972ZM43.0447 43.0609C43.8024 42.3686 42.084 42.8482 43.0447 43.0609ZM47.5659 45.4049C47.868 44.5098 46.8033 45.5186 47.5659 45.4049ZM5.89452 18.5083C6.02328 17.6429 4.95859 18.6814 5.89452 18.5083ZM1.91804 15.8478C1.7051 14.6263 1.73481 12.4752 3.78 13.2021C1.05143 13.7461 5.67168 16.5896 5.08734 14.3445C6.23621 14.3989 7.33061 13.667 6.73142 14.7796C8.9945 14.5324 10.5593 12.5741 12.7432 12.8461C14.4467 12.6186 16.3037 12.4505 18.136 11.7681C19.6414 11.6593 21.0923 10.0373 20.2703 9.0779C18.2152 8.90482 16.0611 9.16196 13.793 9.61197C11.2774 10.1362 8.98955 11.1252 6.44915 11.5554C3.97313 11.8867 6.94436 12.4703 6.23621 12.5988C4.94373 13.0439 7.7763 13.3505 6.06785 13.8203C5.01306 13.6175 3.91371 13.2565 4.36434 12.1488C1.99232 12.4554 -0.0924858 13.4395 1.78434 15.8478H1.91804ZM7.63269 12.9401C8.18732 10.8928 10.6089 14.6214 8.54386 13.212C8.29626 13.0241 7.89019 12.8758 7.63269 12.9401ZM7.74163 11.9461C8.54386 11.3527 8.16751 12.2823 7.74163 11.9461ZM8.76175 11.9659C8.83603 11.0263 11.0942 12.4653 9.13316 12.3021L8.76175 11.9659ZM10.1533 11.4021C10.6633 10.8087 10.3018 11.9312 10.1533 11.4021ZM10.5098 11.1647C11.3566 10.146 15.3083 10.5169 12.4164 11.0658C11.6438 10.4823 11.0496 11.412 10.5098 11.1647ZM15.6698 10.3735C18.235 11.3576 15.5411 7.59436 15.6698 10.3735ZM17.1356 10.3636C17.6705 8.96416 19.2155 9.79989 17.3832 10.0818C17.4229 10.2301 17.3288 10.8037 17.1356 10.3636ZM5.32009 17.7912C6.9196 16.8121 3.62154 16.9407 5.32009 17.7912ZM6.50362 18.1176C7.0632 17.5242 5.28542 17.8753 6.50362 18.1176ZM3.01739 15.65C3.93352 14.9478 1.93785 15.3829 3.01739 15.65ZM50.235 45.1477C50.2598 44.3318 49.5368 45.5137 50.235 45.1477ZM45.4365 41.879C45.5752 40.9394 44.8225 41.9581 45.4365 41.879ZM51.5572 45.4642C52.8349 45.4692 55.4297 45.0686 52.6467 45.0686C52.2109 45.1329 50.1063 45.123 51.5572 45.4642ZM7.54355 17.544C8.57853 17.4747 9.16287 16.4066 7.34052 16.4659C4.52281 16.1742 9.82644 17.4302 6.97902 17.0692C6.59771 17.3214 7.51879 17.6132 7.54355 17.544ZM8.45473 18.0039C8.34578 17.3412 8.13284 18.355 8.45473 18.0039ZM9.53427 15.1258C9.97995 14.5719 8.91031 14.9774 9.53427 15.1258ZM6.0926 9.38944C7.93971 8.76141 10.4603 8.0592 11.3319 9.69604C10.4454 8.63283 10.9753 7.57952 11.8122 9.14218C12.9957 10.7197 13.59 8.42514 12.8175 7.89601C13.694 8.98394 14.6943 9.49823 13.4068 7.96524C14.8082 6.28389 10.6039 8.18777 9.64817 8.16799C9.19258 8.37074 4.90412 9.25592 6.0926 9.38944ZM7.1771 7.32237C8.23188 6.53115 10.8168 7.79711 9.15792 6.5361C8.9945 6.38774 5.51817 7.49051 7.1771 7.32237ZM11.0149 7.48062C12.248 7.51029 10.4851 5.82894 11.9509 6.59049C11.7082 5.80421 10.2424 5.65586 9.52437 5.34432C9.1183 6.06136 10.3464 7.49051 11.0149 7.48062ZM7.85058 3.99924C8.27645 3.4256 7.10282 4.29595 7.85058 3.99924ZM9.41542 4.37507C11.4012 4.11298 8.91031 3.52451 9.01431 4.35529L9.41542 4.37507ZM6.48877 2.09042C5.09229 0.265661 9.1183 2.39701 7.69707 0.488192C6.50362 -0.461275 5.35475 1.55634 6.48877 2.09042ZM24.4201 11.7334C25.0589 10.601 21.7757 10.2054 23.9893 11.3329C24.1972 11.4021 24.1477 11.8126 24.4201 11.7334Z" fill="white"/>
</g>
</svg>
