<svg width="112" height="26" viewBox="0 0 112 26" fill="none" xmlns="http://www.w3.org/2000/svg">
<path d="M8.66598 23.152C7.56157 22.2794 6.38257 21.4427 5.57764 20.2632C3.88292 18.1834 2.57849 15.7766 1.68653 13.247C1.14703 11.6018 0.962696 9.83771 0.267509 8.25669C-0.459033 7.10814 0.392383 5.85256 1.64437 5.48746C2.20117 5.37988 3.18124 4.85124 1.99845 5.22884C0.93783 6.0112 0.83566 4.51929 1.92331 4.42421C2.66499 4.32587 2.93852 3.71519 2.68445 3.16591C1.88763 2.64325 4.61649 2.07006 3.24341 1.29041C1.81357 -0.260727 5.24356 -0.559002 4.39755 1.2024C4.19483 2.55632 6.79503 0.953565 6.1912 2.51774C6.80476 3.26914 8.48759 2.68888 8.44542 3.74236C9.33846 3.80429 9.64552 4.55895 10.4834 4.61708C11.3527 5.01206 12.9274 5.32229 13.2231 6.30676C12.3614 6.99187 10.3656 4.88982 10.2693 6.78813C10.5299 9.59323 10.4629 12.482 11.4846 15.1529C11.9673 16.7708 13.1382 18.0433 14.1956 19.3037C15.2076 20.5376 16.5779 21.4058 17.9748 22.1365C19.1998 22.7173 20.5204 23.102 21.8562 23.3443C22.3973 22.9281 23.3541 21.3808 24.1985 22.0333C24.2391 22.7668 22.5222 23.5665 24.118 23.4861C25.0553 23.2009 25.7051 24.2141 26.4771 23.2998C27.1879 24.1462 29.4324 22.7597 28.9264 24.4896C28.2415 24.9329 27.2441 24.664 26.5592 25.2758C25.4294 24.708 24.5304 25.7827 23.279 25.6479C21.8902 25.8968 20.4766 25.9984 19.0684 26C16.7579 25.8169 14.3988 25.7392 12.2014 24.9313C10.9618 24.5695 9.75417 23.8599 8.66598 23.152ZM10.6164 24.0023C11.8251 24.5271 13.0074 25.0807 14.3324 25.2481C16.4347 25.5414 18.6057 25.994 20.7155 25.5822C19.7603 25.1486 18.7732 25.7495 17.8218 25.272C16.6812 25.5192 15.4568 25.2095 14.2967 25.0568C12.9782 24.4668 11.5548 24.0604 10.3196 23.2938C8.77626 22.7271 11.1175 24.0207 11.5348 24.1256C12.4992 24.676 10.4742 23.8431 10.1883 23.6149C9.38009 23.159 9.27684 23.2541 10.1083 23.717C10.2758 23.8143 10.4413 23.9186 10.6164 24.0023ZM8.31569 22.368C9.48767 22.8048 8.31082 21.54 7.77456 21.6133C7.53671 21.1983 6.86531 20.9364 7.33885 20.7142C6.48798 21.0114 6.4469 19.5846 6.04741 19.7884C5.14626 19.5026 5.69711 18.4899 4.62351 17.8683C4.52567 17.2131 3.55803 16.6453 3.24936 15.6571C3.11313 15.1507 2.15522 13.6985 2.74337 15.0497C3.24395 16.3514 4.12456 17.4668 4.85867 18.5801C5.42736 19.6395 6.09984 20.7484 7.13614 21.4096C7.48535 21.7464 7.82267 22.2626 8.31569 22.368ZM4.94138 18.6436C4.98138 18.466 5.15545 19.0283 4.94138 18.6436V18.6436ZM9.71957 22.8912C9.34603 22.7434 9.97851 22.7733 9.71957 22.8912V22.8912ZM10.3553 23.1237C10.0645 23.3041 10.2899 22.8016 10.3553 23.1237V23.1237ZM11.1516 23.4568C10.5672 23.228 11.53 23.0944 11.1516 23.4568V23.4568ZM12.516 24.2212C11.7787 24.093 12.7463 23.88 12.516 24.2212V24.2212ZM9.8958 22.3859C9.13521 22.381 10.484 22.0029 9.8958 22.3859V22.3859ZM10.4926 22.6853C10.2802 22.7755 10.4758 22.4832 10.4926 22.6853V22.6853ZM13.4772 24.5575C13.9572 24.8623 16.2795 25.2242 14.8254 24.6819C14.5816 24.7341 12.1289 23.9854 13.4772 24.5575ZM8.74004 20.8484C7.99404 20.6245 8.69301 20.6463 8.74004 20.8484V20.8484ZM10.1283 21.6628C9.37793 21.4672 10.4904 21.4096 10.1283 21.6628V21.6628ZM11.2975 22.3832C10.4558 22.1854 11.8165 22.186 11.2975 22.3832V22.3832ZM8.17351 20.2295C8.7368 20.6642 10.445 20.286 9.03574 19.9709C8.39461 19.6276 6.95018 19.3928 7.93512 20.1779L8.17351 20.2295ZM12.0889 22.6315C11.1051 22.4022 12.3241 22.23 12.0889 22.6315V22.6315ZM10.8991 21.6813C12.2754 22.073 9.74174 20.806 10.5596 21.5373L10.7407 21.6193L10.8991 21.6813ZM13.2853 23.0667C12.1073 22.8863 14.5886 23.0797 13.2853 23.0667V23.0667ZM7.67185 19.4716C7.35075 19.4917 7.62104 19.2277 7.67185 19.4716V19.4716ZM15.4897 24.3103C15.0648 24.6385 15.5243 23.8702 15.4897 24.3103V24.3103ZM9.89743 20.8413C9.48983 20.831 9.81796 20.6088 9.89743 20.8413V20.8413ZM7.79619 19.319C6.7707 18.9881 8.54435 19.2728 7.79619 19.319V19.319ZM5.30627 17.7015C4.49215 17.0534 5.21275 17.3402 5.30627 17.7015V17.7015ZM11.8419 21.8703C11.7051 21.7128 11.777 21.9046 11.8419 21.8703V21.8703ZM15.9092 24.3788C15.6876 24.4695 15.8968 24.1386 15.9092 24.3788V24.3788ZM11.4819 21.4965C10.8434 21.402 11.5554 21.1863 11.4819 21.4965V21.4965ZM8.45137 19.5662C7.55887 19.1875 9.00817 19.5064 8.45137 19.5662V19.5662ZM13.5777 22.7668C12.7317 22.5989 14.4453 22.4218 13.5777 22.7668V22.7668ZM10.911 20.9483C11.9111 21.0776 9.7212 20.2643 10.691 20.875L10.911 20.9483ZM14.387 23.0966C15.3211 22.5359 15.0129 24.4103 15.9714 23.2547C16.9163 22.5609 15.1551 24.112 16.3195 23.3785C17.1623 22.8124 18.4067 23.6469 19.1927 23.9191C19.7576 23.8914 20.3074 24.4103 20.8874 24.0941C22.0032 23.792 18.7051 23.6464 19.5695 23.1112C18.5489 23.4095 17.7953 22.7554 17.2926 22.098C16.1471 21.8323 14.8243 21.2433 14.2518 20.2246C14.0183 19.8427 14.5881 20.2795 14.0502 19.6542C13.3604 19.037 13.016 18.3361 12.5528 17.5869C11.9997 17.2908 11.9343 16.4177 11.8787 17.5576C11.883 16.8382 11.2105 16.3536 11.0456 16.5541C11.0429 15.8608 11.7662 16.2085 11.2597 15.6956C11.151 14.9768 10.7921 14.2287 10.6845 13.4176C10.5175 13.0258 10.6613 12.1886 10.1126 13.0736C9.9131 14.0092 10.0466 11.9246 10.3575 12.6113C10.7645 11.9093 10.211 11.9925 10.1883 12.0892C10.4537 11.4975 10.3564 10.6581 10.1185 10.9781C10.2596 10.3506 10.3418 8.66852 9.90716 8.96734C10.171 8.31102 10.4077 5.96394 9.26224 6.85876C8.79842 6.86583 7.99458 7.02719 7.61563 7.21735C8.80545 7.87692 7.49562 7.45586 7.01018 7.35046C6.94747 7.96168 6.46744 7.69817 5.86739 7.7036C6.8253 7.82205 5.40087 8.68862 4.85218 8.35177C4.13807 8.69405 5.4679 9.55085 4.86623 9.81544C4.94029 10.2137 3.77264 9.67092 3.864 10.5924C3.17097 10.2984 3.7694 11.6855 4.11591 11.2161C5.29438 11.5372 4.94516 12.2674 4.97489 12.9612C4.78299 13.3659 4.02671 12.0104 4.80623 12.0734C4.19105 11.0688 4.12618 11.7105 3.61425 12.1772C3.49586 12.2103 4.91813 12.8411 4.02563 13.1524C4.81055 13.2747 4.8338 13.9647 4.99435 14.402C5.46574 14.8964 5.36898 13.8566 5.93388 14.4509C5.57602 13.9207 4.04023 12.959 5.27654 13.2676C5.27005 12.7352 5.05274 12.3054 5.43222 12.3157C5.80793 11.6333 5.03868 14 5.88469 13.1323C6.1193 13.0291 6.17715 12.4488 6.59826 13.1872C7.20912 13.7919 6.81936 14.2298 5.95659 13.6745C6.11065 14.2021 7.11019 14.389 6.92207 15.2116C7.121 15.9358 7.39994 15.669 7.64266 15.6272C7.83295 16.3302 7.9416 15.8135 7.95025 15.4794C8.82167 15.6669 8.61733 16.1846 8.89086 16.547C9.49199 16.8187 8.0308 14.6998 9.06223 15.9097C10.1472 16.8942 9.46929 17.3044 8.4957 17.1474C9.11196 17.0968 9.31036 17.9846 10.0818 17.9536C10.7851 18.2894 11.2613 19.5803 10.0488 19.043C9.62876 18.6616 8.14054 18.1921 9.35684 18.9169C10.4786 19.439 11.37 19.7509 12.4522 20.4072C13.2263 20.9619 13.5609 21.5981 13.8545 21.7258C13.2036 22.0366 11.8933 21.4753 12.8663 21.3037C12.2587 21.1934 11.5759 20.8837 12.1571 21.6443C12.6522 22.0594 13.9091 22.0165 14.135 22.0627C13.9437 22.4848 13.6161 22.519 14.1421 22.5516C13.5566 22.8673 14.3329 22.9167 14.387 23.0966ZM13.1852 19.6862C12.8274 19.3103 12.7344 18.6072 13.1215 19.2184C13.3198 19.2989 13.7566 20.3681 13.1852 19.6862ZM17.0985 22.1838C17.1055 22.3544 17.3218 22.1691 17.0985 22.1838V22.1838ZM12.6209 18.7637C12.6068 18.1959 12.7501 19.2021 12.6209 18.7637V18.7637ZM12.2322 18.2389C11.7819 17.3658 12.7993 18.4855 12.2322 18.2389V18.2389ZM7.51833 14.9692C7.64861 15.4224 7.78267 14.8981 7.51833 14.9692V14.9692ZM11.27 17.0121C11.4321 16.3998 11.4608 17.5255 11.27 17.0121V17.0121ZM8.61949 15.1599C8.43299 14.8226 9.01033 15.4772 8.61949 15.1599V15.1599ZM10.8937 15.8929C10.4677 14.9334 11.1964 15.3686 10.9883 16.0499L10.8937 15.8929ZM6.97126 13.2638C6.78097 12.9492 6.46582 12.0262 6.56799 11.7436C6.6588 12.2033 7.53887 13.7196 6.99883 12.3717C6.40257 11.2422 7.71186 12.7373 7.84646 13.0204C7.90971 13.3008 7.47832 12.9438 7.77024 13.6012C7.23831 12.8531 7.4567 14.0147 6.97126 13.2638ZM5.75982 12.4239C5.80955 11.692 6.03659 12.9253 5.75982 12.4239V12.4239ZM6.30472 12.6135C6.56474 12.0609 6.7453 13.3833 6.30472 12.6135V12.6135ZM4.99273 11.5931C4.54189 11.1416 4.21537 10.7271 5.01489 11.3139C5.32194 11.3253 4.32998 10.368 5.08841 11.0091C5.88577 11.1558 5.48196 12.3233 4.99273 11.5931ZM5.68197 11.5752C5.8209 11.8322 5.94415 11.3139 5.68197 11.5752V11.5752ZM6.10633 11.7116C5.70846 10.9634 6.58853 12.0262 6.10633 11.7116V11.7116ZM5.26356 10.9026C3.95211 9.72851 6.9118 11.5154 5.47763 11.1199L5.26356 10.9026ZM9.02277 13.097C8.45461 12.7553 8.8714 10.6891 9.06601 12.1017C9.6174 11.9224 9.0352 12.8319 9.44658 12.8232C9.38171 13.3975 9.19737 13.6028 9.02277 13.097ZM10.4131 13.9239C10.4688 13.3007 10.5299 14.3488 10.4131 13.9239V13.9239ZM10.1715 13.6827C10.1774 13.9967 10.2337 13.4181 10.1715 13.6827V13.6827ZM5.52034 10.5168C4.67703 9.34874 7.96971 11.6996 6.06038 10.8135C5.8609 10.7608 5.62035 10.7412 5.52034 10.5168ZM8.19838 11.943C8.11837 10.9591 8.37569 12.106 8.19838 11.943V11.943ZM10.2304 13.254C10.2429 13.6246 10.3877 12.6939 10.2304 13.254V13.254ZM5.65008 10.0708C6.1512 9.96322 7.72537 10.9542 6.27986 10.3539C6.1193 10.1751 5.77603 10.2561 5.65008 10.0708ZM9.95148 12.2255C10.005 11.2188 10.251 11.6252 9.95365 12.3695L9.95148 12.2255ZM6.02254 9.72036C6.22634 9.41937 5.48034 8.36046 6.13011 9.34113C6.41068 9.56497 6.94207 9.71601 6.47284 9.81C7.21128 10.4652 6.29337 9.98712 6.02254 9.72036ZM9.7385 11.9115C9.86337 12.5825 9.87959 10.7651 9.7385 11.9115V11.9115ZM5.59548 8.66145C5.67873 8.87063 5.75225 8.59463 5.59548 8.66145V8.66145ZM6.56582 9.24116C6.81503 8.7147 7.02532 9.82793 6.56582 9.24116V9.24116ZM9.299 10.77C9.29738 10.5674 9.35144 11.064 9.299 10.77V10.77ZM9.14115 10.4174C8.76221 9.47696 9.49415 10.9156 9.14115 10.4174V10.4174ZM8.90816 9.80023C8.84491 9.4123 9.12494 10.2887 8.90816 9.80023V9.80023ZM9.28819 9.18086C9.02709 8.71959 9.61632 7.14889 9.68282 8.12358C9.40766 8.88204 9.60389 9.30745 9.79472 8.28929C10.1488 7.48737 9.71795 9.87031 9.28819 9.18086ZM9.67741 6.84409C9.70282 7.01306 9.79093 6.70446 9.67741 6.84409V6.84409ZM9.02655 19.734C8.87194 19.5982 9.04601 19.8193 9.02655 19.734V19.734ZM10.3672 20.4148C11.1132 20.6071 11.1094 20.298 10.4353 20.2062C10.0731 19.8672 8.92871 19.5075 9.95311 20.1638C10.0201 20.3371 10.2342 20.3328 10.3672 20.4148ZM7.71996 18.6474C8.13027 18.956 9.26711 19.5194 8.30541 18.7648C8.62976 18.3866 7.68483 18.1845 7.99782 17.9308C7.19993 17.4407 7.36805 17.4848 7.92755 17.5C6.9691 17.0686 8.06594 17.1017 8.01458 16.8801C7.64482 16.8067 6.17823 16.2248 7.04099 16.9279C6.16417 16.4791 6.83179 17.0952 6.5669 17.03C5.66954 16.785 7.36534 17.7167 6.42473 17.4853C6.93882 17.8944 7.80916 18.5355 6.6415 17.9183C6.48798 18.1411 7.4767 18.4779 7.71996 18.6474ZM9.12169 19.457C8.28541 18.7822 10.8261 20.0079 9.12169 19.457V19.457ZM16.2995 23.8279C16.0671 24.1174 16.3217 23.4877 16.2995 23.8279V23.8279ZM17.0374 24.1392C17.431 23.7572 17.0536 24.7498 17.6888 24.0457C17.6959 23.5415 17.6699 23.2433 16.959 23.8556C16.7623 23.9659 16.6752 24.4288 17.0374 24.1392ZM5.32627 16.7469C4.47918 16.2721 5.20572 16.271 5.32627 16.7469V16.7469ZM6.11336 17.2663C5.07003 16.8246 5.8209 16.779 6.11336 17.2663V17.2663ZM10.5959 19.9829C11.0337 20.3741 12.6057 20.2697 11.1272 20.0312C10.9089 19.7058 9.73741 19.7829 10.5959 19.9829ZM16.7563 23.8072C16.1038 24.0598 17.4299 23.2389 16.7563 23.8072V23.8072ZM18.1575 24.7743C17.8672 24.8536 18.1618 24.5917 18.1575 24.7743V24.7743ZM18.1597 24.5189C17.4375 24.5657 18.9051 23.7246 18.1597 24.5189V24.5189ZM3.38829 15.117C2.75256 14.2059 2.99312 13.7962 2.38064 13.0519C2.26388 12.4825 1.32867 11.1911 1.89682 12.5591C2.41686 13.3594 2.57093 14.5982 3.38829 15.117ZM17.9256 24.2668C17.3623 23.8778 19.2981 23.3758 17.9256 24.2668V24.2668ZM18.9727 24.6787C18.5381 24.5553 19.6603 24.0854 18.9727 24.6787V24.6787ZM5.09328 15.7397C4.58513 15.7016 5.28951 15.4463 5.09328 15.7397V15.7397ZM18.7543 24.3972C19.4198 23.9669 18.6008 24.0327 18.6338 24.4364L18.7543 24.3972ZM9.72606 18.6784C9.37468 18.7028 9.70336 18.3872 9.72606 18.6784V18.6784ZM10.2839 19.0006C10.0115 19.0576 10.1061 18.6404 10.2839 19.0006V19.0006ZM19.8214 24.6885C20.6739 24.0702 19.3052 24.5706 19.643 24.8058L19.8214 24.6885ZM19.4949 24.5304C18.7624 24.789 20.1896 23.9452 19.4949 24.5304V24.5304ZM21.1631 25.6463C20.5961 25.5447 21.6297 25.3323 21.1631 25.6463V25.6463ZM5.52034 15.5278C6.14471 15.6685 8.01728 17.0746 6.91288 15.6256C6.34689 15.4571 6.68637 14.0674 6.10903 14.3129C6.49663 14.9638 6.42743 15.2398 5.6144 14.8302C4.5927 14.3281 5.03976 15.0784 5.24032 15.2849C4.96786 15.3468 5.60034 15.5234 5.52034 15.5278ZM2.67418 13.2687C2.78608 12.8031 1.64383 10.7108 2.13468 12.2196C2.31145 12.5358 2.29361 13.1345 2.67418 13.2687ZM7.8989 16.5063C7.57617 16.2357 7.88322 16.4671 7.8989 16.5063V16.5063ZM8.69085 16.6915C7.81511 16.491 8.69085 16.1993 8.69085 16.6915V16.6915ZM15.5573 21.0412C15.04 21.0336 15.426 20.7055 15.5573 21.0412V21.0412ZM15.8871 21.283C15.6968 21.32 15.8379 21.0945 15.8871 21.283V21.283ZM18.6084 23.0064C18.2818 22.9814 18.87 22.813 18.6084 23.0064V23.0064ZM4.09537 13.6333C3.2926 13.4257 4.84407 13.342 4.09537 13.6333V13.6333ZM14.9524 20.5072C14.4751 20.6289 14.9443 20.0209 14.9524 20.5072V20.5072ZM3.79967 12.9405C3.35423 12.833 4.28024 12.777 3.79967 12.9405V12.9405ZM5.19491 13.6197C5.04787 13.6811 5.18734 13.4599 5.19491 13.6197V13.6197ZM22.2211 24.1126C22.8395 23.9881 24.2488 24.4288 24.4764 23.9479C23.725 23.9295 21.8783 23.416 21.7913 24.0702L21.9556 24.0962L22.2211 24.1126ZM5.63873 13.7327C5.25599 13.7137 5.65008 13.2383 5.63873 13.7327V13.7327ZM1.96926 11.1737C1.33516 11.0308 1.80276 10.2332 1.96926 11.1737V11.1737ZM2.84392 11.3943C2.04332 11.1226 2.85527 11.0922 2.84392 11.3943V11.3943ZM3.3445 11.6415C3.19962 11.5241 3.23152 11.7898 3.3445 11.6415V11.6415ZM6.49122 13.6702C6.14039 13.5691 6.63988 13.5327 6.49122 13.6702V13.6702ZM3.01204 11.0846C1.99737 10.9787 2.92663 10.3745 3.01204 11.0846V11.0846ZM1.21623 9.91486C1.04216 10.0382 1.19136 9.58671 1.21623 9.91486V9.91486ZM1.48382 9.71221C1.25461 9.76111 1.44057 9.32266 1.48382 9.71221V9.71221ZM2.95798 10.5962C3.58181 10.3506 1.82276 10.0871 2.83041 10.55L2.95798 10.5962ZM22.6941 22.8488C22.1875 22.7353 23.0936 22.481 22.6941 22.8488V22.8488ZM25.0786 24.0903C24.6753 24.1533 25.2386 23.6165 25.0786 24.0903V24.0903ZM3.10935 9.82033C2.61417 9.91106 3.17476 9.3596 3.10935 9.82033V9.82033ZM1.01081 8.40719C0.898367 7.75794 0.914044 6.61862 1.99142 7.00328C0.552936 7.29069 2.98771 8.80108 2.68066 7.60798C3.28558 7.63841 3.86346 7.24886 3.54668 7.83889C4.73866 7.70741 5.56467 6.66806 6.71665 6.81367C7.61347 6.69414 8.59463 6.60341 9.56065 6.24048C10.3558 6.18343 11.1213 5.32338 10.6856 4.81376C9.60173 4.72139 8.46705 4.85831 7.26912 5.09736C5.94199 5.37445 4.73596 5.90091 3.39639 6.12747C2.09035 6.30405 3.65858 6.61373 3.28395 6.68219C2.60336 6.92016 4.09699 7.07989 3.19584 7.33035C2.63958 7.22387 2.06008 7.03208 2.29793 6.44259C1.04757 6.60613 -0.0519751 7.12716 0.936208 8.4061L1.01081 8.40719ZM4.02509 6.86474C4.31809 5.77921 5.59548 7.75794 4.50513 7.00872C4.37539 6.91038 4.16078 6.83051 4.02509 6.86474ZM4.08185 6.33773C4.30619 6.51594 4.50513 6.02153 4.08185 6.33773V6.33773ZM4.61865 6.34697C4.65757 5.84767 5.84955 6.61156 4.81542 6.5268L4.61865 6.34697ZM5.35384 6.05032C5.43168 6.32958 5.62251 5.73412 5.35384 6.05032V6.05032ZM5.54196 5.92373C5.98902 5.38369 8.07242 5.57819 6.54744 5.87049C6.13876 5.56135 5.82577 6.05304 5.54196 5.92373ZM8.26217 5.50213C8.1946 4.02705 9.61362 6.02533 8.26217 5.50213V5.50213ZM9.03412 5.49669C9.31576 4.75508 10.1293 5.19896 9.16494 5.34783C9.18548 5.42769 9.13629 5.73249 9.03412 5.49669ZM2.805 9.43893C1.91034 8.98798 3.64776 8.92007 2.805 9.43893V9.43893ZM3.42829 9.61224C2.78554 9.48456 3.72399 9.29658 3.42829 9.61224V9.61224ZM1.59139 8.30287C1.02108 8.16107 2.07305 7.93016 1.59139 8.30287V8.30287ZM26.4857 23.955C26.1176 24.149 26.5003 23.5231 26.4857 23.955V23.955ZM23.9563 22.2202C23.6309 22.2631 24.0288 21.7236 23.9563 22.2202V22.2202ZM27.1814 24.1223C27.855 24.1256 29.2221 23.9121 27.7566 23.9126C27.5263 23.9479 26.4171 23.9414 27.1814 24.1223ZM3.97644 9.30799C4.52188 9.27104 4.82948 8.70383 3.87048 8.73589C2.38551 8.58268 5.18085 9.24768 3.67966 9.05752C3.4791 9.19118 3.96509 9.34493 3.97644 9.30799ZM4.45647 9.55193C4.28781 9.73883 4.39971 9.20096 4.45647 9.55193V9.55193ZM5.02625 8.02579C4.69865 7.94701 5.26248 7.73131 5.02625 8.02579V8.02579ZM3.21314 4.98055C4.18618 4.64859 5.5171 4.27425 5.97605 5.14409C5.50845 4.57905 5.78685 4.02216 6.22904 4.84907C6.85341 5.68522 7.16533 4.46876 6.75989 4.18787C7.22263 4.7654 7.74862 5.03923 7.06964 4.22427C7.80808 3.33216 5.5917 4.34162 5.08841 4.3313C4.84569 4.43996 2.58606 4.90992 3.21314 4.98055ZM3.78345 3.88307C4.33755 3.46201 5.70251 4.13354 4.82677 3.46418C4.74082 3.38867 2.91041 3.97218 3.78345 3.88307ZM5.80685 3.96729C6.45554 3.98359 5.52629 3.08985 6.29986 3.49461C6.17336 3.07789 5.39925 3.0002 5.02084 2.83286C4.80623 3.21481 5.45601 3.97218 5.80685 3.96729ZM4.13807 2.12167C3.74453 2.27706 4.36295 1.81525 4.13807 2.12167V2.12167ZM4.96516 2.31998C6.01173 2.18089 4.69811 1.86741 4.75379 2.30911L4.96516 2.31998ZM3.42126 1.10678C2.68391 0.139148 4.80731 1.26922 4.05807 0.256501C3.42775 -0.247687 2.82284 0.825344 3.42126 1.10678ZM12.8766 6.22527C13.2144 5.62328 11.4819 5.41357 12.6495 6.01229C12.756 6.04761 12.7322 6.26602 12.8766 6.22527Z" fill="white"/>
<path d="M49.4326 2.31006C49.2287 3.08153 49.1016 4.37373 49.0541 6.18928C49.0541 6.54662 48.8858 6.72485 48.5484 6.72485C48.212 6.72485 47.977 6.56933 47.8453 6.25917C47.4842 5.41955 47.1413 4.83505 46.8167 4.50042C46.4327 4.10988 45.9207 3.87398 45.2834 3.7936C44.5976 3.6905 42.8906 3.63808 40.1595 3.63808C39.535 3.63808 39.1245 3.70186 38.9334 3.82767C38.8127 3.90805 38.7533 4.08104 38.7533 4.34665V12.1558C38.7533 12.4214 38.927 12.5463 39.2753 12.5358C40.346 12.5236 41.8976 12.4537 43.9293 12.3279C44.3261 12.2824 44.594 12.1575 44.732 11.9574C44.871 11.7574 45.0063 11.2366 45.138 10.397C45.2221 9.93744 45.5046 9.75921 45.9856 9.86318C46.3952 9.94356 46.5708 10.1218 46.5095 10.397C46.1721 11.9609 46.0633 13.9949 46.184 16.5007C46.1968 16.7995 45.9984 16.9602 45.5897 16.9829C45.2523 17.0179 45.042 16.8449 44.9579 16.4657C44.6461 15.0294 44.0646 14.2631 43.2179 14.1635C42.3694 14.0674 40.9897 14.0185 39.0778 14.0185C38.8611 14.0185 38.7542 14.091 38.7542 14.2413V22.0015C38.7542 22.5746 38.9754 22.966 39.4207 23.1731C39.7709 23.3443 40.5216 23.4999 41.6764 23.6379C42.267 23.6938 42.5239 23.9437 42.4526 24.3788C42.3795 24.7589 41.851 24.9074 40.8644 24.827C38.0136 24.6095 35.6628 24.6217 33.8113 24.8628C33.2938 24.9301 33.036 24.7309 33.036 24.26C33.036 23.9612 33.2938 23.7891 33.8113 23.7427C34.9899 23.6152 35.5787 22.627 35.5787 20.7765V6.01541C35.5787 5.25879 35.4379 4.67516 35.1554 4.26801C34.8719 3.85912 34.3462 3.48693 33.5763 3.15492C33.0954 2.94786 32.9162 2.66565 33.036 2.30918C33.0954 2.09076 33.1923 1.97019 33.324 1.94747C33.4438 1.91253 33.7638 1.93611 34.2795 2.01649C35.0374 2.13182 36.824 2.18949 39.6374 2.18949C42.9582 2.18949 45.8256 2.11959 48.244 1.98242C49.0495 1.93612 49.4527 1.99902 49.4527 2.17114C49.4517 2.21803 49.4449 2.26465 49.4326 2.31006ZM61.1598 24.2233C61.1598 24.682 60.8882 24.8847 60.3469 24.8244C58.6892 24.6767 56.6311 24.6977 54.1779 24.8934C53.6842 24.9406 53.3816 24.9275 53.2655 24.8602C53.1512 24.7912 53.0945 24.6016 53.0945 24.2897C53.0945 24.0153 53.4218 23.7829 54.0774 23.5933C54.7339 23.4038 55.0612 22.8367 55.0612 21.8949V6.29325C55.0612 5.36101 54.9195 4.67778 54.6379 4.24093C54.3544 3.80408 53.8589 3.46509 53.1493 3.22482C52.7763 3.09813 52.5898 2.9199 52.5898 2.68924C52.5898 2.34501 52.8604 2.08639 53.4008 1.91427C54.22 1.6609 55.0676 1.2721 55.9463 0.741769C56.6677 0.327636 57.1248 0.12319 57.3168 0.12319C57.7621 0.12319 57.9843 0.415006 57.9843 1.00213C57.9843 0.955825 57.9596 1.53072 57.9121 2.72506C57.8773 3.86262 57.8645 4.9827 57.8773 6.08705L57.9477 21.4807C57.9477 22.1832 58.1288 22.6926 58.4899 23.008C58.8511 23.3242 59.4701 23.5339 60.3469 23.637C60.8882 23.6921 61.1598 23.8887 61.1598 24.2233ZM77.6122 23.0665C77.6122 23.3094 77.1523 23.6737 76.2334 24.1613C75.3126 24.6505 74.5757 24.8943 74.0225 24.8943C73.5525 24.8943 73.1393 24.6776 72.7781 24.239C72.417 23.803 72.1646 23.5846 72.0192 23.5846C71.9122 23.5846 71.3417 23.8214 70.3067 24.2906C69.2735 24.7632 68.2312 25 67.1861 25C66.2004 25 65.3757 24.723 64.7137 24.1726C63.9933 23.5636 63.6312 22.7345 63.6312 21.6887C63.6312 19.701 66.0121 18.276 70.7757 17.4137C71.5931 17.2643 72.0082 16.948 72.0183 16.4648L72.0567 15.3614C72.1271 13.4768 71.2558 12.5349 69.4399 12.5349C68.9233 12.5349 68.4314 12.9753 67.9688 13.8612C67.507 14.7463 66.8423 15.2233 65.9764 15.2932C64.9908 15.3841 64.4961 14.9874 64.4961 14.1032C64.4961 13.5511 65.2313 12.908 66.6978 12.1715C68.2366 11.4026 69.7179 11.0173 71.136 11.0173C73.5772 11.0173 74.7869 12.1269 74.7622 14.3452L74.6891 21.4467C74.679 22.1937 75.01 22.5676 75.6829 22.5676C75.8155 22.5676 76.0679 22.5388 76.44 22.4811C76.6553 22.4433 76.8722 22.4144 77.0901 22.3946C77.4384 22.3946 77.6122 22.62 77.6122 23.0665ZM72.0576 19.1366C72.0686 18.8492 71.9991 18.6587 71.8482 18.5678C71.6992 18.4761 71.4615 18.4586 71.1369 18.5154C68.2376 19.0099 66.7893 19.9125 66.7893 21.2213C66.7893 22.5432 67.5408 23.2045 69.044 23.2045C69.6456 23.2045 70.2655 23.0962 70.9019 22.8787C71.648 22.6244 72.0201 22.3195 72.0201 21.9639L72.0576 19.1366ZM91.072 21.0142C91.072 22.2339 90.581 23.2019 89.6017 23.9201C88.6225 24.6392 87.2839 24.9982 85.586 24.9982C84.4577 24.9982 83.3249 24.8838 82.1948 24.6523C81.221 24.4452 80.655 24.2565 80.4996 24.0844C80.4027 23.9219 80.3551 23.1364 80.3551 21.7228C80.3551 21.112 80.4996 20.7966 80.7904 20.7739C81.0765 20.739 81.3234 20.8884 81.5291 21.2213C82.4307 22.7275 83.8863 23.4815 85.8941 23.4815C87.5893 23.4815 88.4369 22.9171 88.4369 21.7909C88.4369 21.2981 88.2467 20.8831 87.8599 20.5503C87.4384 20.1702 86.6219 19.7272 85.4068 19.2222C83.6504 18.4752 82.4773 17.8199 81.8885 17.2564C81.2512 16.6588 80.9312 15.855 80.9312 14.8424C80.9312 13.6017 81.4304 12.6363 82.4298 11.9469C83.3569 11.2812 84.594 10.9474 86.1447 10.9474C87.1193 10.9474 88.0099 11.0217 88.8154 11.1711C89.6822 11.3214 90.133 11.5049 90.1695 11.7233C90.2646 12.3663 90.4639 13.2977 90.7629 14.5174C90.8004 14.6659 90.6303 14.7865 90.2582 14.8782C89.8605 14.9586 89.5972 14.8948 89.4655 14.6895C88.5137 13.2059 87.3132 12.4642 85.8567 12.4642C84.209 12.4642 83.3843 12.97 83.3843 13.9818C83.3843 14.5462 83.6083 14.9927 84.0518 15.3255C84.4495 15.613 85.3812 16.0612 86.8487 16.671C88.3884 17.3027 89.4344 17.8724 89.9876 18.3774C90.7126 19.0326 91.072 19.9125 91.072 21.0142ZM112 24.1184C112 24.5212 111.717 24.7344 111.152 24.7562C110.309 24.7685 109.209 24.8244 107.85 24.9275C107.177 25.055 106.695 24.9755 106.406 24.6881C104.506 22.7336 102.894 20.6883 101.571 18.5504C101.464 18.3669 101.324 18.2751 101.157 18.2751C100.951 18.2751 100.597 18.4481 100.094 18.7924C99.5267 19.0903 99.2442 19.5158 99.2442 20.0662C99.2442 20.4585 99.2561 21.0212 99.2799 21.7577C99.3037 22.4925 99.4957 22.9756 99.8577 23.2045C100.11 23.3671 100.693 23.4929 101.607 23.5846C102.172 23.6536 102.455 23.8555 102.455 24.1875C102.455 24.4531 102.41 24.6164 102.321 24.6793C102.231 24.7431 101.993 24.7571 101.608 24.7222C100.405 24.6199 98.3738 24.6776 95.5092 24.8943C94.7887 24.9511 94.3974 24.8663 94.3389 24.6357C94.31 24.5225 94.2974 24.4061 94.3014 24.2897C94.3014 23.935 94.668 23.6641 95.4022 23.4815C96.0651 23.319 96.3943 22.579 96.3943 21.2571V6.18928C96.3943 5.24743 96.2992 4.59216 96.1072 4.2252C95.8429 3.75253 95.2879 3.38471 94.4467 3.11998C94.0499 2.99416 93.8524 2.8168 93.8524 2.58615C93.8524 2.25239 94.1359 1.99378 94.7 1.81117C95.6088 1.52059 96.4752 1.12072 97.2784 0.621198C97.9413 0.207065 98.35 0 98.5064 0C98.9992 0 99.247 0.298805 99.247 0.897288C99.247 0.816034 99.2415 1.38569 99.2278 2.60275C99.2159 3.44237 99.2095 4.56857 99.2095 5.98308L99.246 16.7733C99.246 17.0738 99.3311 17.2223 99.4975 17.2223C99.6767 17.2223 99.9547 17.0738 100.328 16.7733C101.58 15.8263 102.807 14.8491 104.007 13.8429C104.297 13.5554 104.44 13.3265 104.44 13.1535C104.44 12.8434 103.954 12.6249 102.98 12.4983C102.56 12.4511 102.358 12.2274 102.383 11.8246C102.421 11.4236 102.631 11.2506 103.016 11.3083C103.882 11.4236 105.145 11.4865 106.804 11.4979C107.96 11.5084 109.108 11.5153 110.251 11.5153C110.623 11.5276 110.81 11.739 110.81 12.1531C110.81 12.5437 110.515 12.756 109.926 12.7909C109.02 12.819 108.13 13.0242 107.31 13.3938C106.167 13.8883 104.946 14.7559 103.647 15.9965C103.603 16.0251 103.567 16.0635 103.542 16.1084C103.517 16.1533 103.503 16.2034 103.503 16.2543C103.503 16.4159 103.707 16.8003 104.117 17.4102C105.621 19.5944 107.04 21.2431 108.374 22.3579C109.229 23.0586 110.028 23.409 110.774 23.409C111.326 23.409 111.67 23.4466 111.802 23.5217C111.933 23.5986 112 23.7969 112 24.1184Z" fill="white"/>
</svg>
