<svg width="90" height="26" viewBox="0 0 90 26" fill="none" xmlns="http://www.w3.org/2000/svg">
<path d="M5.34023 1.04254e-07C5.26841 7.11294e-05 5.19786 0.0188217 5.13562 0.0543811L0.205312 2.86828C0.188437 2.87874 0.175078 2.89199 0.159609 2.90314C0.14625 2.9136 0.131484 2.92266 0.119531 2.93382C0.105469 2.94776 0.0949219 2.96519 0.0829687 2.98123C0.0738281 2.99378 0.0625781 3.00424 0.0548437 3.01748C0.0435937 3.0377 0.0365625 3.05931 0.0288281 3.08093C0.0246094 3.09278 0.0175781 3.10324 0.0147656 3.11579C0.00518067 3.15032 0.000216246 3.18595 0 3.22176L0 19.9636C0 20.11 0.07875 20.2446 0.206016 20.3171L10.0652 25.9456C10.087 25.9582 10.1102 25.9651 10.1334 25.9735C10.144 25.977 10.1545 25.9833 10.1651 25.9861C10.1995 25.9951 10.2354 26 10.2705 26C10.3062 26 10.3416 25.9953 10.376 25.9861C10.3852 25.984 10.3943 25.9784 10.4041 25.9749C10.428 25.9665 10.4527 25.9589 10.4752 25.9456L20.3351 20.3171C20.3977 20.2815 20.4496 20.2301 20.4858 20.1681C20.522 20.1062 20.5411 20.0359 20.5411 19.9643V14.6189L25.2647 11.9221C25.3273 11.8864 25.3793 11.8348 25.4155 11.7728C25.4517 11.7107 25.4707 11.6403 25.4707 11.5686V5.98756C25.4707 5.95178 25.466 5.91615 25.4566 5.88158C25.4524 5.86973 25.4461 5.85927 25.4419 5.84742C25.4334 5.8265 25.4271 5.80419 25.4152 5.78467C25.4081 5.77073 25.3962 5.76027 25.387 5.74842C25.3751 5.73238 25.3652 5.71495 25.3505 5.70101C25.3392 5.68915 25.3238 5.68009 25.3104 5.67033C25.2956 5.65848 25.2823 5.64523 25.2654 5.63547L20.3344 2.82087C20.272 2.78527 20.2014 2.76653 20.1294 2.76653C20.0575 2.76653 19.9868 2.78527 19.9245 2.82087L14.9948 5.63547C14.9773 5.64523 14.9639 5.65848 14.9491 5.67033C14.9351 5.68009 14.921 5.68915 14.9091 5.70031C14.895 5.71425 14.8845 5.73168 14.8725 5.74772C14.8634 5.76027 14.8514 5.77143 14.8444 5.78467C14.8331 5.80419 14.8261 5.82581 14.8177 5.84742C14.8134 5.85927 14.8071 5.86973 14.8036 5.88158C14.7942 5.91614 14.7895 5.95178 14.7895 5.98756V11.333L10.6812 13.6784V3.22176C10.6813 3.18574 10.6766 3.14987 10.6671 3.11509C10.6629 3.10324 10.6566 3.09278 10.6523 3.08093C10.6439 3.06001 10.6376 3.0377 10.6256 3.01818C10.6186 3.00424 10.6066 2.99378 10.5975 2.98123C10.5855 2.96519 10.575 2.94846 10.5609 2.93382C10.549 2.92266 10.5342 2.9136 10.5209 2.90314C10.5061 2.89199 10.4927 2.87874 10.4759 2.86828L5.54555 0.0543811C5.48311 0.0187037 5.4123 -5.10229e-05 5.34023 1.04254e-07ZM5.34023 0.877078L9.44648 3.22176L5.34023 5.56575L1.23398 3.22176L5.34023 0.877078ZM20.1298 3.64357L24.236 5.98826L20.1298 8.33224L16.0235 5.98826L20.1298 3.64357ZM9.85922 3.92594V14.1469L7.47633 15.5078L5.75156 16.493V6.27201L8.13516 4.91108L9.85922 3.92594ZM0.82125 3.92594L2.54602 4.91108L4.92961 6.27132V17.1992C4.92961 17.2146 4.93383 17.2292 4.93594 17.2446C4.93805 17.2648 4.93875 17.285 4.94367 17.3045C4.94859 17.3206 4.95773 17.3359 4.96336 17.3512C4.97039 17.368 4.97531 17.3861 4.98445 17.4021L4.98586 17.4035C4.9943 17.4175 5.00625 17.4293 5.01609 17.4426C5.02734 17.4572 5.03719 17.4732 5.04984 17.4858L5.05125 17.4872C5.0632 17.4983 5.07797 17.5067 5.09062 17.5165C5.10539 17.5283 5.11875 17.5416 5.13492 17.5513H5.13703L5.13844 17.5527L9.85992 20.2021V24.8887L0.821953 19.7294L0.82125 3.92594ZM32.0252 5.98965V19.7343H38.5791V17.7117H34.302V5.98965H32.0252ZM87.8421 5.98965V19.7343H90V5.98965H87.8421ZM15.6094 6.69243L17.3355 7.67757L19.7184 9.03781V13.6784L17.993 12.6939L15.6094 11.3337V6.69243ZM24.648 6.69243V11.3337L20.5397 13.6791V9.03781L22.9233 7.67757L24.648 6.69243ZM43.766 10.3478C43.0664 10.3478 42.4266 10.4761 41.8458 10.7313C41.2798 10.976 40.7707 11.3336 40.3502 11.782C39.4986 12.7035 39.0284 13.9093 39.0333 15.1592C39.0333 15.8139 39.1493 16.4288 39.3799 17.0047C39.6043 17.5708 39.9334 18.0903 40.3502 18.5365C40.7665 18.9813 41.2643 19.3313 41.8458 19.5865C42.4266 19.8416 43.0664 19.9699 43.7667 19.9699C44.3081 19.9699 44.846 19.8388 45.3804 19.5767C45.9148 19.3152 46.3275 18.9555 46.6179 18.4967V19.7343H48.7765V10.5842H46.6179V11.821C46.3275 11.363 45.9148 11.0032 45.3804 10.7411C44.846 10.4796 44.3074 10.3478 43.766 10.3478ZM61.3118 10.3478C60.6115 10.3478 59.9716 10.4761 59.3902 10.7313C58.8244 10.9761 58.3156 11.3337 57.8953 11.782C57.4772 12.2306 57.148 12.7533 56.925 13.3228C56.6934 13.9077 56.5758 14.5309 56.5784 15.1592C56.5784 15.8139 56.6937 16.4288 56.925 17.0047C57.1494 17.5708 57.4785 18.0903 57.8953 18.5365C58.3157 18.9844 58.8245 19.3418 59.3902 19.5865C59.9709 19.8416 60.6115 19.9699 61.3118 19.9699C61.8532 19.9699 62.3904 19.8388 62.9255 19.5767C63.4598 19.3152 63.8726 18.9555 64.163 18.4967V19.7343H66.3216V10.5842H64.163V11.821C63.8719 11.363 63.4598 11.0032 62.9255 10.7411C62.3911 10.4796 61.8525 10.3478 61.3118 10.3478ZM81.8684 10.3485C79.2253 10.3485 77.1335 12.5029 77.1335 15.1592C77.1335 18.0958 79.1585 19.9699 82.1454 19.9699C83.8167 19.9699 84.8841 19.3355 86.1884 17.955L84.7301 16.8367C84.7301 16.8367 83.6297 18.2694 81.9879 18.2694C80.0782 18.2694 79.2752 16.744 79.2752 15.9547H86.4352C86.8113 12.9317 84.8074 10.3485 81.8684 10.3485ZM50.4795 10.5842V19.7343H52.638V12.6897H56.3414V10.5842H50.4795ZM67.3629 10.5842L70.9052 19.7343H73.6186L77.1609 10.5842H74.9742L72.2623 17.5911L69.5489 10.5842H67.3629ZM15.1995 12.0393L19.3029 14.3819L16.2921 16.0858L10.2684 19.4951L6.16852 17.1944L10.4745 14.736L15.1995 12.0393ZM81.8515 12.049C84.157 12.049 84.4369 14.1873 84.453 14.3637H79.2809C79.297 14.188 79.5459 12.049 81.8515 12.049ZM43.8848 12.2533C44.2941 12.2533 44.6674 12.3314 45.0042 12.4889C45.341 12.6458 45.6279 12.8557 45.8655 13.1164C46.1032 13.3793 46.2881 13.6867 46.4203 14.0395C46.5518 14.393 46.6179 14.766 46.6179 15.1592C46.6179 15.5518 46.5518 15.9248 46.4203 16.2782C46.2964 16.6182 46.1081 16.9315 45.8655 17.2013C45.6239 17.4658 45.3309 17.6792 45.0042 17.8288C44.6535 17.9892 44.2711 18.0699 43.8848 18.0652C43.502 18.0709 43.1229 17.9903 42.776 17.8295C42.4534 17.6778 42.1643 17.4643 41.9252 17.2013C41.6833 16.9327 41.4981 16.6189 41.3803 16.2782C41.2536 15.9186 41.1899 15.5402 41.1919 15.1592C41.1919 14.766 41.2552 14.393 41.3803 14.0395C41.5055 13.6867 41.6876 13.3793 41.9252 13.1171C42.1644 12.8542 42.4535 12.6408 42.776 12.4889C43.1065 12.3314 43.4749 12.2533 43.8848 12.2533ZM61.4299 12.2533C61.8159 12.2481 62.1981 12.3286 62.5486 12.4889C62.8861 12.6458 63.173 12.8557 63.4106 13.1164C63.6483 13.3793 63.8325 13.6867 63.9647 14.0395C64.0978 14.398 64.1649 14.7772 64.163 15.1592C64.1647 15.541 64.0976 15.9199 63.9647 16.2782C63.841 16.6181 63.6529 16.9314 63.4106 17.2013C63.1688 17.4658 62.8756 17.6793 62.5486 17.8288C62.1983 17.989 61.8164 18.0698 61.4306 18.0652C61.0476 18.0709 60.6682 17.9904 60.3211 17.8295C59.9982 17.6779 59.7089 17.4644 59.4696 17.2013C59.228 16.9327 59.0429 16.6188 58.9254 16.2782C58.7987 15.9186 58.7349 15.5402 58.737 15.1592C58.737 14.766 58.7995 14.393 58.9247 14.0395C59.0498 13.6867 59.232 13.3793 59.4696 13.1171C59.7087 12.8542 59.9979 12.6408 60.3204 12.4889C60.6509 12.3314 61.0207 12.2533 61.4299 12.2533ZM19.7191 15.0846V19.728L10.6812 24.8873V20.2L17.3749 16.4114L19.7191 15.0846Z" fill="#F0513F"/>
</svg>
