<svg width="49" height="49" viewBox="0 0 49 49" fill="none" xmlns="http://www.w3.org/2000/svg">
<mask id="mask0_16_89" style="mask-type:alpha" maskUnits="userSpaceOnUse" x="0" y="0" width="49" height="49">
<rect width="49" height="49" fill="#D9D9D9"/>
</mask>
<g mask="url(#mask0_16_89)">
</g>
<g clip-path="url(#clip0_16_89)">
<path d="M10.4397 0.0421377C10.3631 0.0719971 8.21174 1.29776 5.65953 2.7647C2.56717 4.54248 0.978882 5.47884 0.893897 5.56689C0.821163 5.65302 0.763741 5.7514 0.726225 5.85783C0.662296 6.07373 0.657702 37.6255 0.722397 37.8525C0.745749 37.9406 0.821929 38.07 0.890835 38.1412C1.05774 38.3173 19.52 48.9327 19.7444 48.984C19.8485 49.0088 19.9652 49.0046 20.0812 48.9725C20.3331 48.9093 38.7472 38.3173 38.911 38.1442C38.978 38.0696 39.0546 37.9406 39.0794 37.8529C39.1116 37.7484 39.1235 36.0996 39.1235 32.6256V27.5495L43.6123 24.9713C47.8447 22.5377 48.1039 22.3854 48.2126 22.2185L48.3236 22.0385V16.5708C48.3236 10.6189 48.3351 10.9538 48.0997 10.7387C48.0365 10.6828 45.8801 9.42449 43.303 7.94033L38.622 5.24839H38.1017L33.5222 7.87831C31.001 9.3284 28.858 10.5683 28.7535 10.6357C28.6493 10.7046 28.5249 10.8317 28.474 10.924L28.3814 11.0836L28.3607 16.2343L28.3423 21.387L24.5605 23.5652C22.4803 24.7611 20.7489 25.7511 20.7121 25.7602C20.6451 25.779 20.6405 25.2886 20.6405 15.8201V5.85438L20.541 5.68326C20.4162 5.47463 20.9759 5.80729 15.3562 2.57712C10.6434 -0.13319 10.7567 -0.0765342 10.4397 0.0421377ZM14.772 3.98779C16.7435 5.119 18.3567 6.05497 18.3567 6.06646C18.3567 6.07833 16.6279 7.07747 14.5151 8.29175L10.6713 10.4987L6.83438 8.29213C4.72623 7.07747 2.9986 6.07833 2.9986 6.06646C2.9986 6.05497 4.72317 5.05583 6.8317 3.84423L10.6594 1.64229L10.9236 1.78623C12.2087 2.51626 13.4915 3.25011 14.772 3.98779ZM42.2074 9.06426C44.283 10.2594 46.0003 11.2471 46.0164 11.2631C46.06 11.3026 38.4467 15.6789 38.3425 15.6743C38.2384 15.6712 30.7188 11.3351 30.7219 11.2823C30.7257 11.2222 38.2912 6.8696 38.3678 6.88147C38.4026 6.88989 40.1314 7.87295 42.2074 9.06426ZM6.23987 9.6959L9.8988 11.8025L9.91985 22.233L9.93899 32.6654L10.0282 32.8063C10.0749 32.8806 10.1629 32.982 10.2272 33.0287C10.2877 33.0727 12.3239 34.233 14.7513 35.6027L19.1613 38.0933V42.506C19.1613 44.9277 19.1449 46.9145 19.1242 46.9145C19.1085 46.9145 15.2961 44.7328 10.6549 42.0619L2.21766 37.2098L2.20618 22.2931L2.19891 7.38104L2.38648 7.48478C2.49482 7.5422 4.22666 8.53675 6.23949 9.69552L6.23987 9.6959ZM19.1613 17.0382V26.6503L19.0132 26.7471C18.8122 26.8742 11.4844 31.0863 11.4595 31.0863C11.448 31.0863 11.4389 26.7468 11.4389 21.4421L11.4434 11.8021L15.2716 9.6002C17.3767 8.3886 19.1127 7.40554 19.1334 7.41281C19.1483 7.422 19.1613 11.7539 19.1613 17.0382ZM33.7656 14.8275L37.6026 17.0337V21.4069C37.6026 25.5558 37.5983 25.7786 37.5352 25.7545C37.4942 25.7388 35.7582 24.7439 33.6753 23.5441L29.8816 21.3659V16.9942C29.8816 14.5875 29.8939 12.621 29.9053 12.621C29.9218 12.621 31.6575 13.6132 33.7656 14.8275ZM46.844 16.9663C46.844 19.3604 46.828 21.3349 46.8119 21.3541C46.7843 21.3981 39.1954 25.771 39.1472 25.771C39.1353 25.771 39.1235 23.8052 39.1235 21.3981V17.0264L42.9516 14.8229C45.0597 13.6132 46.7958 12.621 46.8119 12.621C46.8322 12.621 46.844 14.5752 46.844 16.9663ZM36.7474 27.1541L19.9082 36.7653L12.2715 32.4216C12.2715 32.4216 29.0938 22.692 29.1612 22.7173L36.7474 27.1541ZM37.5953 32.83L37.5823 37.2102L29.1497 42.0627C24.51 44.7332 20.6964 46.9149 20.6773 46.9149C20.657 46.9149 20.6409 45.1317 20.6409 42.5064V38.0937L29.0934 33.2733C33.7377 30.6231 37.5539 28.4537 37.5742 28.4491C37.5907 28.4491 37.598 30.4198 37.5949 32.8296L37.5953 32.83Z" fill="#F0513F"/>
</g>
<defs>
<clipPath id="clip0_16_89">
<rect width="49" height="49" fill="white"/>
</clipPath>
</defs>
</svg>
