<svg width="49" height="49" viewBox="0 0 49 49" fill="none" xmlns="http://www.w3.org/2000/svg">
<mask id="mask0_16_25" style="mask-type:alpha" maskUnits="userSpaceOnUse" x="0" y="0" width="49" height="49">
<rect width="49" height="49" fill="#D9D9D9"/>
</mask>
<g mask="url(#mask0_16_25)">
<path d="M13.3894 14.0309C13.59 14.0309 13.789 13.9875 13.9722 13.903L34.6975 4.31034C35.031 4.1559 35.2892 3.87605 35.4155 3.53224C35.5418 3.18843 35.5259 2.80877 35.3712 2.47666C35.2159 2.14488 34.9347 1.88803 34.5892 1.76257C34.2438 1.63711 33.8625 1.65331 33.529 1.80759L12.8037 11.3999C12.5169 11.532 12.284 11.7578 12.1438 12.0397C12.0036 12.3217 11.9644 12.6429 12.0328 12.95C12.1012 13.2572 12.273 13.5318 12.5198 13.7284C12.7665 13.925 13.0734 14.0317 13.3894 14.0309ZM33.529 7.67221L12.8037 17.2645C12.6386 17.3408 12.4902 17.4487 12.3671 17.5821C12.2439 17.7156 12.1484 17.8719 12.0859 18.0421C12.0235 18.2123 11.9954 18.393 12.0032 18.5741C12.0111 18.7551 12.0547 18.9328 12.1315 19.097C12.2866 19.4287 12.5676 19.6854 12.9127 19.8109C13.2579 19.9363 13.639 19.9202 13.9722 19.7661L34.699 10.1735C35.032 10.019 35.2898 9.7393 35.4159 9.39578C35.5419 9.05226 35.5258 8.67301 35.3712 8.34127C35.2159 8.00949 34.9347 7.75264 34.5892 7.62719C34.2438 7.50173 33.8625 7.51792 33.529 7.67221ZM33.529 13.5857L12.8037 23.1769C12.5176 23.3097 12.2856 23.5357 12.1459 23.8175C12.0063 24.0993 11.9674 24.4201 12.0357 24.7269C12.1039 25.0336 12.2753 25.3081 12.5214 25.5048C12.7676 25.7016 13.0737 25.8089 13.3894 25.809C13.5844 25.809 13.7835 25.7671 13.9722 25.6796L34.699 16.087C35.0264 15.9288 35.2782 15.649 35.4001 15.3077C35.5221 14.9664 35.5044 14.5911 35.3508 14.2627C35.1973 13.9343 34.9203 13.6792 34.5795 13.5522C34.2387 13.4253 33.8614 13.4368 33.529 13.5842V13.5857ZM13.3894 8.1832C13.5913 8.1832 13.7907 8.13916 13.9737 8.05416L23.5283 3.61958C23.8544 3.46069 24.105 3.18075 24.226 2.83996C24.347 2.49916 24.3289 2.1247 24.1755 1.79707C24.0221 1.46945 23.7457 1.2148 23.4057 1.08788C23.0656 0.960954 22.6892 0.971881 22.3572 1.11831L12.8022 5.55252C12.5158 5.68509 12.2835 5.91105 12.1437 6.19297C12.004 6.47489 11.9651 6.79588 12.0336 7.10278C12.1021 7.40968 12.2739 7.68409 12.5204 7.88057C12.767 8.07705 13.0736 8.18382 13.3894 8.1832ZM33.5246 19.4518L26.1973 22.8795C25.9591 22.9908 25.7576 23.1675 25.6166 23.3887C25.4756 23.61 25.4008 23.8666 25.4011 24.1286V31.0141H22.1998V25.8737C22.1998 25.1127 21.5794 24.4937 20.8134 24.4937C20.4459 24.4941 20.0934 24.6396 19.8335 24.8983C19.5736 25.157 19.4274 25.5078 19.427 25.8737V31.0149H17.4405C17.3019 31.015 17.1651 31.0453 17.0396 31.1038C16.9142 31.1623 16.8032 31.2475 16.7144 31.3534C16.6256 31.4593 16.5613 31.5833 16.526 31.7166C16.4906 31.8499 16.4851 31.9894 16.5098 32.1251L16.9773 34.7083C17.0167 34.9258 17.1317 35.1226 17.3021 35.2644C17.4725 35.4061 17.6875 35.4837 17.9095 35.4836H22.7727L17.6207 36.4141C17.5312 36.4303 17.4457 36.4639 17.3692 36.513C17.2928 36.5621 17.2267 36.6257 17.175 36.7002C17.1232 36.7747 17.0866 36.8586 17.0674 36.9471C17.0482 37.0356 17.0467 37.1271 17.063 37.2162C17.0793 37.3053 17.1131 37.3904 17.1624 37.4665C17.2117 37.5426 17.2756 37.6083 17.3504 37.6599C17.4253 37.7114 17.5096 37.7478 17.5985 37.7669C17.6875 37.786 17.7793 37.7875 17.8689 37.7713L29.683 35.6358C29.8597 35.6045 30.017 35.5055 30.1213 35.3601C30.2457 35.2903 30.3526 35.1932 30.4338 35.0763C30.5151 34.9594 30.5686 34.8257 30.5904 34.6852L30.9911 32.1019C31.0121 31.9676 31.0036 31.8304 30.9663 31.6997C30.929 31.5689 30.8638 31.4478 30.775 31.3445C30.6862 31.2413 30.5761 31.1583 30.4521 31.1014C30.3281 31.0445 30.1932 31.015 30.0567 31.0149H28.1739V25.0047L34.7035 21.949C35.0362 21.7931 35.2932 21.5121 35.4178 21.1677C35.5425 20.8233 35.5246 20.4437 35.3682 20.1124C35.2908 19.9485 35.1816 19.8014 35.0471 19.6795C34.9125 19.5576 34.7551 19.4633 34.5839 19.4019C34.4127 19.3406 34.231 19.3134 34.0493 19.322C33.8675 19.3305 33.6892 19.3746 33.5246 19.4518ZM29.4363 37.7937L17.6207 39.9292C17.5294 39.9435 17.442 39.9757 17.3634 40.0241C17.2849 40.0725 17.2169 40.136 17.1634 40.2109C17.1098 40.2858 17.0719 40.3706 17.0518 40.4604C17.0317 40.5501 17.0298 40.6429 17.0462 40.7334C17.0627 40.8238 17.0971 40.9101 17.1476 40.9871C17.198 41.0642 17.2634 41.1304 17.3399 41.1819C17.4164 41.2334 17.5025 41.2691 17.5931 41.287C17.6837 41.3049 17.7769 41.3046 17.8674 41.2861L29.6826 39.151C29.7722 39.135 29.8577 39.1016 29.9343 39.0526C30.0109 39.0036 30.077 38.9401 30.1289 38.8657C30.1808 38.7912 30.2174 38.7073 30.2366 38.6187C30.2559 38.5302 30.2573 38.4387 30.241 38.3496C30.2249 38.2604 30.1913 38.1752 30.1422 38.099C30.093 38.0228 30.0291 37.9569 29.9543 37.9053C29.8796 37.8537 29.7953 37.8172 29.7063 37.7981C29.6173 37.7789 29.5258 37.7775 29.4363 37.7937ZM29.4363 41.4398L17.6207 43.5753C17.5294 43.5895 17.442 43.6218 17.3634 43.6701C17.2849 43.7185 17.2169 43.782 17.1634 43.8569C17.1098 43.9319 17.0719 44.0167 17.0518 44.1064C17.0317 44.1961 17.0298 44.289 17.0462 44.3794C17.0627 44.4699 17.0971 44.5562 17.1476 44.6332C17.198 44.7102 17.2634 44.7764 17.3399 44.8279C17.4164 44.8794 17.5025 44.9151 17.5931 44.933C17.6837 44.9509 17.7769 44.9506 17.8674 44.9321L29.6826 42.797C29.7722 42.781 29.8577 42.7476 29.9343 42.6986C30.0109 42.6497 30.077 42.5861 30.1289 42.5117C30.1808 42.4372 30.2174 42.3533 30.2366 42.2648C30.2559 42.1762 30.2573 42.0847 30.241 41.9956C30.2249 41.9064 30.1913 41.8213 30.1422 41.745C30.093 41.6688 30.0291 41.603 29.9543 41.5513C29.8796 41.4997 29.7953 41.4633 29.7063 41.4441C29.6173 41.425 29.5258 41.4235 29.4363 41.4398ZM28.0218 45.1178L19.2102 46.6298C19.1205 46.6452 19.0347 46.678 18.9577 46.7264C18.8807 46.7748 18.8141 46.8378 18.7616 46.9118C18.709 46.9858 18.6717 47.0694 18.6516 47.1578C18.6315 47.2462 18.6292 47.3377 18.6446 47.427C18.6601 47.5163 18.693 47.6017 18.7416 47.6783C18.7902 47.755 18.8535 47.8213 18.9279 47.8736C19.0023 47.9259 19.0863 47.9631 19.1751 47.983C19.2639 48.003 19.3558 48.0054 19.4455 47.99L28.2574 46.4776C28.3471 46.4623 28.4329 46.4296 28.5099 46.3812C28.5869 46.3328 28.6535 46.2698 28.706 46.1958C28.7585 46.1218 28.7958 46.0382 28.8158 45.9498C28.8358 45.8614 28.838 45.7699 28.8224 45.6806C28.7909 45.5005 28.6889 45.3402 28.5388 45.2348C28.3887 45.1294 28.2028 45.0871 28.0218 45.1178Z" fill="#E54537"/>
</g>
</svg>
