<svg width="108" height="43" viewBox="0 0 108 43" fill="none" xmlns="http://www.w3.org/2000/svg">
<path d="M22.006 33C21.53 33 21.1787 32.83 20.952 32.49C20.748 32.15 20.646 31.6853 20.646 31.096C20.646 30.756 20.68 30.382 20.748 29.974C20.816 29.566 20.8953 29.1353 20.986 28.682C21.258 27.4807 21.6773 26.1547 22.244 24.704C22.8333 23.2307 23.502 21.7233 24.25 20.182C25.0207 18.618 25.7913 17.0993 26.562 15.626C27.3553 14.1527 28.092 12.804 28.772 11.58C28.8173 11.4893 28.908 11.3193 29.044 11.07C29.2027 10.8207 29.3273 10.6393 29.418 10.526C28.534 10.5487 27.582 10.662 26.562 10.866C25.5647 11.0473 24.6013 11.308 23.672 11.648C22.7653 11.988 21.9833 12.3847 21.326 12.838C20.6913 13.2913 20.2833 13.79 20.102 14.334C20.0793 14.402 20.034 14.436 19.966 14.436C19.762 14.436 19.66 14.2773 19.66 13.96C19.66 13.892 19.6827 13.79 19.728 13.654C19.9547 13.0647 20.2153 12.5433 20.51 12.09C20.8047 11.6367 21.1107 11.2513 21.428 10.934C22.176 10.1633 23.0147 9.69867 23.944 9.54C24.8733 9.35867 25.8593 9.268 26.902 9.268H34.62C34.1213 9.65333 33.532 10.356 32.852 11.376C32.172 12.3733 31.4693 13.5067 30.744 14.776C30.4267 15.3427 30.03 16.0793 29.554 16.986C29.078 17.8927 28.5793 18.9013 28.058 20.012C27.5367 21.1 27.038 22.1993 26.562 23.31C26.086 24.4207 25.678 25.4747 25.338 26.472C24.998 27.4467 24.7827 28.2853 24.692 28.988C24.6693 29.1013 24.658 29.2147 24.658 29.328C24.658 29.4187 24.658 29.5207 24.658 29.634C24.658 30.2687 24.828 30.8013 25.168 31.232C25.508 31.64 26.1427 31.844 27.072 31.844C28.2733 31.844 29.486 31.7987 30.71 31.708C31.9567 31.5947 33.1693 31.368 34.348 31.028C35.3453 30.7333 36.252 30.3367 37.068 29.838C37.884 29.3393 38.4733 28.716 38.836 27.968C38.8813 27.8773 38.938 27.832 39.006 27.832C39.1647 27.832 39.244 27.9567 39.244 28.206C39.244 28.2513 39.2327 28.308 39.21 28.376C39.21 28.444 39.1987 28.5233 39.176 28.614C38.9947 29.2033 38.7793 29.7247 38.53 30.178C38.2807 30.6313 38.0313 31.0167 37.782 31.334C37.1473 32.1047 36.32 32.5807 35.3 32.762C34.3027 32.9207 33.3053 33 32.308 33H22.006ZM42.2126 33.204C41.6233 33.204 41.136 32.932 40.7506 32.388C40.388 31.8213 40.252 30.9487 40.3426 29.77C40.388 29.2713 40.5013 28.6367 40.6826 27.866C40.864 27.0953 41.102 26.268 41.3966 25.384C41.714 24.4773 42.0653 23.6047 42.4506 22.766C42.836 21.9047 43.2553 21.1453 43.7086 20.488C43.958 20.148 44.2073 19.944 44.4566 19.876C44.7286 19.7853 45.216 19.74 45.9186 19.74H47.5506C47.1653 20.284 46.7573 20.964 46.3266 21.78C45.896 22.596 45.4993 23.412 45.1366 24.228C44.774 25.0213 44.4906 25.69 44.2866 26.234C44.2413 26.3927 44.1506 26.676 44.0146 27.084C43.8786 27.4693 43.754 27.9 43.6406 28.376C43.5273 28.852 43.4706 29.294 43.4706 29.702C43.4706 30.0647 43.5386 30.3707 43.6746 30.62C43.8106 30.8693 44.06 30.994 44.4226 30.994C44.8533 30.9713 45.318 30.6993 45.8166 30.178C46.3153 29.6567 46.814 28.988 47.3126 28.172C47.8113 27.356 48.2986 26.506 48.7746 25.622C49.2733 24.7153 49.7153 23.8767 50.1006 23.106C50.5086 22.3127 50.8486 21.7007 51.1206 21.27C51.4606 20.7487 51.8233 20.2953 52.2086 19.91C52.594 19.502 53.036 19.298 53.5346 19.298C53.716 19.298 53.954 19.3093 54.2486 19.332C54.566 19.332 54.872 19.332 55.1666 19.332C55.484 19.332 55.6993 19.3207 55.8126 19.298C55.6766 19.3887 55.518 19.57 55.3366 19.842C55.1553 20.114 54.974 20.3973 54.7926 20.692C54.634 20.964 54.5093 21.1907 54.4186 21.372C53.8293 22.5507 53.2513 23.7407 52.6846 24.942C52.1406 26.1207 51.7326 27.2427 51.4606 28.308C51.3473 28.716 51.2906 29.0673 51.2906 29.362C51.2906 30.042 51.5173 30.382 51.9706 30.382C52.288 30.382 52.7413 30.1553 53.3306 29.702C53.784 29.3393 54.226 28.8747 54.6566 28.308C55.1326 27.7187 55.5746 27.084 55.9826 26.404C56.3906 25.724 56.742 25.1007 57.0366 24.534C57.1273 24.3753 57.2066 24.296 57.2746 24.296C57.4106 24.296 57.4786 24.4773 57.4786 24.84C57.4786 25.0213 57.4446 25.2367 57.3766 25.486C57.3313 25.7127 57.2406 25.9393 57.1046 26.166C56.7873 26.71 56.4133 27.3107 55.9826 27.968C55.552 28.6027 55.11 29.2373 54.6566 29.872C54.3393 30.28 53.92 30.7447 53.3986 31.266C52.8773 31.7873 52.322 32.2407 51.7326 32.626C51.166 33.0113 50.6106 33.204 50.0666 33.204C49.7493 33.204 49.4546 33.136 49.1826 33C48.9106 32.8867 48.684 32.6487 48.5026 32.286C48.276 31.81 48.1626 31.164 48.1626 30.348C48.1626 30.0987 48.174 29.838 48.1966 29.566C48.2193 29.2713 48.2533 28.9767 48.2986 28.682C47.9586 29.158 47.596 29.6 47.2106 30.008C46.848 30.416 46.474 30.824 46.0886 31.232C45.2273 32.0933 44.4906 32.6373 43.8786 32.864C43.2893 33.0907 42.734 33.204 42.2126 33.204ZM72.6501 33.204C71.8794 33.204 71.3467 32.9773 71.0521 32.524C70.7801 32.048 70.6441 31.504 70.6441 30.892C70.6441 30.2347 70.7461 29.4753 70.9501 28.614C71.1767 27.73 71.4487 26.8233 71.7661 25.894C72.1061 24.942 72.4461 24.058 72.7861 23.242C72.8994 22.97 73.0014 22.6753 73.0921 22.358C73.2054 22.0407 73.2621 21.7573 73.2621 21.508C73.2621 21.0547 73.0581 20.828 72.6501 20.828C72.4914 20.828 72.3101 20.862 72.1061 20.93C71.9021 20.9753 71.6641 21.0773 71.3921 21.236C70.9161 21.4627 70.4627 21.78 70.0321 22.188C69.6014 22.5733 69.2954 22.868 69.1141 23.072C68.2527 24.1827 67.5954 25.384 67.1421 26.676C66.7114 27.968 66.2581 29.2827 65.7821 30.62C65.6461 31.0053 65.5101 31.402 65.3741 31.81C65.2381 32.218 65.1134 32.6147 65.0001 33H61.6681C62.0534 31.912 62.4387 30.8353 62.8241 29.77C63.2321 28.682 63.6401 27.6053 64.0481 26.54C64.2974 25.928 64.5241 25.3387 64.7281 24.772C64.9321 24.1827 65.1134 23.6387 65.2721 23.14C65.3627 22.8907 65.4421 22.63 65.5101 22.358C65.5781 22.086 65.6121 21.8367 65.6121 21.61C65.6121 21.0887 65.3854 20.828 64.9321 20.828C64.7734 20.828 64.5807 20.862 64.3541 20.93C64.1501 20.9753 63.9007 21.0773 63.6061 21.236C63.1301 21.4627 62.6767 21.78 62.2461 22.188C61.8154 22.5733 61.5207 22.868 61.3621 23.072C61.0674 23.4347 60.7841 23.8427 60.5121 24.296C60.2401 24.7267 60.0021 25.1687 59.7981 25.622C59.3447 26.5967 58.9821 27.526 58.7101 28.41C58.4607 29.2713 58.2227 30.008 57.9961 30.62C57.8601 31.0053 57.7241 31.402 57.5881 31.81C57.4521 32.218 57.3274 32.6147 57.2141 33H53.9161C53.9161 33 53.9954 32.7167 54.1541 32.15C54.3127 31.5833 54.5054 31.0167 54.7321 30.45L56.9421 24.806C57.0101 24.6247 57.1121 24.33 57.2481 23.922C57.4067 23.4913 57.5654 23.0267 57.7241 22.528C57.8827 22.0067 58.0187 21.508 58.1321 21.032C58.2454 20.5333 58.3021 20.1253 58.3021 19.808C58.3021 19.604 58.2794 19.468 58.2341 19.4C58.4381 19.4 58.6647 19.4 58.9141 19.4C59.1861 19.3773 59.4354 19.366 59.6621 19.366C59.9794 19.366 60.2741 19.3773 60.5461 19.4C60.8407 19.4227 61.0334 19.4793 61.1241 19.57C61.3734 19.7513 61.4981 20.0233 61.4981 20.386C61.4981 20.6807 61.4414 20.9753 61.3281 21.27C61.2147 21.542 61.1354 21.7687 61.0901 21.95C61.4074 21.6553 61.7587 21.372 62.1441 21.1C62.5294 20.828 63.0847 20.4767 63.8101 20.046C64.2634 19.7967 64.7961 19.5927 65.4081 19.434C66.0201 19.2753 66.5754 19.196 67.0741 19.196C68.2754 19.196 68.8761 19.6947 68.8761 20.692C68.8761 21.1 68.7514 21.644 68.5021 22.324C68.9781 21.848 69.4654 21.44 69.9641 21.1C70.4854 20.7373 71.0294 20.386 71.5961 20.046C72.0494 19.7967 72.5821 19.5927 73.1941 19.434C73.8061 19.2753 74.3614 19.196 74.8601 19.196C76.0614 19.196 76.6621 19.706 76.6621 20.726C76.6621 20.9527 76.6167 21.2133 76.5261 21.508C76.4581 21.8027 76.3561 22.1313 76.2201 22.494C76.0841 22.8567 75.8914 23.3553 75.6421 23.99C75.3927 24.602 75.1321 25.2593 74.8601 25.962C74.6107 26.642 74.3954 27.2993 74.2141 27.934C74.0554 28.546 73.9761 29.056 73.9761 29.464C73.9761 29.7133 74.0101 29.94 74.0781 30.144C74.1687 30.3253 74.3274 30.416 74.5541 30.416C74.7127 30.416 74.9394 30.3367 75.2341 30.178C75.6421 29.9287 76.0501 29.6 76.4581 29.192C76.8661 28.784 77.1381 28.4893 77.2741 28.308C77.7274 27.7187 78.1581 27.0953 78.5661 26.438C78.9741 25.758 79.3254 25.1347 79.6201 24.568C79.7334 24.3867 79.8127 24.296 79.8581 24.296C79.9941 24.296 80.0621 24.4887 80.0621 24.874C80.0621 25.0553 80.0281 25.2707 79.9601 25.52C79.9147 25.7467 79.8354 25.962 79.7221 26.166C79.4047 26.71 79.0307 27.3107 78.6001 27.968C78.1694 28.6253 77.7274 29.26 77.2741 29.872C76.9567 30.3027 76.5374 30.7787 76.0161 31.3C75.4947 31.8213 74.9394 32.2747 74.3501 32.66C73.7607 33.0227 73.1941 33.204 72.6501 33.204ZM86.3534 32.524C85.3107 33.068 84.2114 33.34 83.0554 33.34C82.0807 33.34 81.1741 33.102 80.3354 32.626C79.4967 32.15 78.9301 31.3907 78.6354 30.348C78.4994 29.872 78.4314 29.3733 78.4314 28.852C78.4314 27.9907 78.5787 27.1067 78.8734 26.2C79.1907 25.2707 79.5987 24.4207 80.0974 23.65C80.8681 22.4487 81.8427 21.4513 83.0214 20.658C84.2001 19.8647 85.5034 19.468 86.9314 19.468C87.9967 19.468 88.8241 19.74 89.4134 20.284C90.0027 20.828 90.2974 21.4627 90.2974 22.188C90.2974 23.0493 90.0027 23.8087 89.4134 24.466C88.8467 25.1007 88.0987 25.588 87.1694 25.928C86.7161 26.0867 86.2287 26.2113 85.7074 26.302C85.2087 26.37 84.7327 26.404 84.2794 26.404C83.3501 26.404 82.6361 26.2793 82.1374 26.03C81.7067 27.1407 81.4914 28.1607 81.4914 29.09C81.4914 29.9287 81.6841 30.62 82.0694 31.164C82.4547 31.6853 83.0667 31.946 83.9054 31.946C84.6081 31.946 85.2994 31.7533 85.9794 31.368C86.6821 30.9827 87.3281 30.5067 87.9174 29.94C88.5294 29.3733 89.0394 28.8293 89.4474 28.308C89.7647 27.9227 90.0367 27.56 90.2634 27.22C90.4901 26.88 90.7281 26.4947 90.9774 26.064C91.2267 25.6107 91.5214 25.0553 91.8614 24.398C91.9521 24.2393 92.0314 24.16 92.0994 24.16C92.2354 24.16 92.3034 24.3413 92.3034 24.704C92.3034 24.908 92.2694 25.1347 92.2014 25.384C92.1561 25.6107 92.0654 25.8487 91.9294 26.098C91.6121 26.6647 91.2267 27.288 90.7734 27.968C90.3427 28.6253 89.9007 29.26 89.4474 29.872C89.0394 30.416 88.5747 30.9147 88.0534 31.368C87.5321 31.8213 86.9654 32.2067 86.3534 32.524ZM83.2594 25.282C83.3727 25.35 83.4974 25.3953 83.6334 25.418C83.7694 25.4407 83.9054 25.452 84.0414 25.452C84.4947 25.452 84.9481 25.35 85.4014 25.146C85.8547 24.9193 86.2401 24.6927 86.5574 24.466C87.0787 24.1033 87.5207 23.6727 87.8834 23.174C88.2461 22.6753 88.4501 22.1087 88.4954 21.474C88.5181 21.202 88.4501 20.9753 88.2914 20.794C88.1554 20.59 87.9061 20.488 87.5434 20.488C87.3621 20.488 87.1354 20.522 86.8634 20.59C86.5007 20.6807 86.1381 20.8507 85.7754 21.1C85.4127 21.3493 85.0614 21.644 84.7214 21.984C84.6081 22.0973 84.4041 22.324 84.1094 22.664C83.8374 22.9813 83.5767 23.344 83.3274 23.752C83.0781 24.1373 82.9534 24.4773 82.9534 24.772C82.9534 25.0213 83.0554 25.1913 83.2594 25.282ZM99.6609 33.204C98.8903 33.204 98.3576 32.9773 98.0629 32.524C97.7909 32.048 97.6549 31.504 97.6549 30.892C97.6549 30.144 97.8023 29.2487 98.0969 28.206C98.3916 27.1407 98.7316 26.0753 99.1169 25.01C99.5249 23.922 99.8876 22.9587 100.205 22.12C100.296 21.916 100.341 21.7007 100.341 21.474C100.341 21.2247 100.262 21.0433 100.103 20.93C99.9443 20.8167 99.7403 20.76 99.4909 20.76C99.1283 20.76 98.7203 20.8733 98.2669 21.1C97.5643 21.4627 96.8956 22.0407 96.2609 22.834C95.6263 23.6273 95.1163 24.4547 94.7309 25.316C94.3003 26.2907 93.9149 27.2653 93.5749 28.24C93.2349 29.2147 92.9629 30.008 92.7589 30.62C92.6229 31.0053 92.4983 31.402 92.3849 31.81C92.2716 32.218 92.1583 32.6147 92.0449 33H88.7469C88.7469 33 88.8263 32.7167 88.9849 32.15C89.1209 31.5833 89.3023 31.0167 89.5289 30.45C89.9143 29.4527 90.2996 28.4553 90.6849 27.458C91.0929 26.4607 91.4443 25.5767 91.7389 24.806C91.8296 24.5793 91.9656 24.16 92.1469 23.548C92.3509 22.9133 92.5323 22.256 92.6909 21.576C92.8723 20.896 92.9629 20.3407 92.9629 19.91C92.9629 19.6607 92.9289 19.4907 92.8609 19.4C93.0649 19.4 93.2916 19.4 93.5409 19.4C93.8129 19.3773 94.0623 19.366 94.2889 19.366C94.6063 19.366 94.9009 19.3773 95.1729 19.4C95.4676 19.4227 95.6603 19.4793 95.7509 19.57C96.0229 19.774 96.1589 20.0687 96.1589 20.454C96.1589 20.726 96.1023 20.998 95.9889 21.27C95.8983 21.542 95.8303 21.7687 95.7849 21.95C96.1023 21.6553 96.4309 21.372 96.7709 21.1C97.1109 20.828 97.6323 20.4767 98.3349 20.046C98.7429 19.7967 99.2529 19.5927 99.8649 19.434C100.477 19.2753 101.032 19.196 101.531 19.196C102.823 19.196 103.469 19.7967 103.469 20.998C103.469 21.202 103.446 21.4287 103.401 21.678C103.378 21.9273 103.31 22.1993 103.197 22.494C103.084 22.8567 102.902 23.3553 102.653 23.99C102.404 24.6247 102.143 25.3047 101.871 26.03C101.622 26.7327 101.406 27.4013 101.225 28.036C101.044 28.6707 100.953 29.1807 100.953 29.566C100.953 30.11 101.157 30.382 101.565 30.382C101.928 30.382 102.381 30.1553 102.925 29.702C103.446 29.2713 103.9 28.8067 104.285 28.308C104.761 27.7187 105.192 27.0953 105.577 26.438C105.985 25.758 106.336 25.1347 106.631 24.568C106.744 24.3867 106.824 24.296 106.869 24.296C107.005 24.296 107.073 24.4887 107.073 24.874C107.073 25.0553 107.039 25.2707 106.971 25.52C106.926 25.7467 106.846 25.962 106.733 26.166C106.416 26.71 106.042 27.3107 105.611 27.968C105.18 28.6253 104.738 29.26 104.285 29.872C103.968 30.3027 103.548 30.7787 103.027 31.3C102.506 31.8213 101.95 32.2747 101.361 32.66C100.772 33.0227 100.205 33.204 99.6609 33.204Z" fill="#E54537"/>
<path d="M0.768615 15.2086C0.879551 15.2086 0.989671 15.1846 1.091 15.1378L12.5561 9.83125C12.7405 9.74582 12.8834 9.59101 12.9533 9.40081C13.0231 9.21062 13.0143 9.0006 12.9287 8.81688C12.8428 8.63334 12.6873 8.49125 12.4962 8.42185C12.3051 8.35245 12.0941 8.3614 11.9097 8.44675L0.44459 13.7531C0.285919 13.8262 0.157119 13.9511 0.0795562 14.1071C0.00199353 14.2631 -0.0196711 14.4407 0.0181563 14.6106C0.0559836 14.7806 0.151029 14.9325 0.287528 15.0413C0.424026 15.15 0.593774 15.2091 0.768615 15.2086ZM11.9097 11.691L0.44459 16.9974C0.353257 17.0396 0.271179 17.0993 0.203051 17.1731C0.134923 17.2469 0.0820808 17.3334 0.0475465 17.4275C0.0130122 17.5217 -0.00253625 17.6217 0.00178981 17.7218C0.00611588 17.822 0.0302319 17.9203 0.0727586 18.0111C0.158527 18.1946 0.313966 18.3366 0.504906 18.406C0.695846 18.4754 0.90666 18.4665 1.091 18.3813L12.5569 13.0747C12.7411 12.9892 12.8837 12.8345 12.9535 12.6445C13.0232 12.4544 13.0143 12.2446 12.9287 12.0611C12.8428 11.8776 12.6873 11.7355 12.4962 11.6661C12.3051 11.5967 12.0941 11.6057 11.9097 11.691ZM11.9097 14.9623L0.44459 20.2681C0.286326 20.3415 0.157971 20.4665 0.0807252 20.6224C0.00347914 20.7783 -0.0180375 20.9558 0.019729 21.1255C0.0574955 21.2952 0.152286 21.447 0.288445 21.5559C0.424604 21.6647 0.593985 21.7241 0.768615 21.7241C0.876487 21.7241 0.986606 21.701 1.091 21.6526L12.5569 16.346C12.738 16.2585 12.8773 16.1037 12.9447 15.9149C13.0122 15.7261 13.0024 15.5185 12.9175 15.3368C12.8326 15.1552 12.6793 15.014 12.4908 14.9438C12.3022 14.8736 12.0935 14.8799 11.9097 14.9615V14.9623ZM0.768615 11.9737C0.880297 11.9737 0.990622 11.9493 1.09182 11.9023L6.37735 9.44913C6.55778 9.36123 6.69636 9.20637 6.76331 9.01785C6.83026 8.82932 6.82022 8.62218 6.73537 8.44093C6.65051 8.25969 6.4976 8.11883 6.30951 8.04861C6.12142 7.9784 5.91316 7.98444 5.7295 8.06545L0.443773 10.5184C0.285348 10.5918 0.156836 10.7167 0.0795164 10.8727C0.00219647 11.0287 -0.0192948 11.2062 0.0186021 11.376C0.0564989 11.5458 0.15151 11.6976 0.287905 11.8063C0.424299 11.915 0.593896 11.974 0.768615 11.9737ZM11.9072 18.2074L7.85385 20.1035C7.72205 20.1651 7.61061 20.2629 7.5326 20.3853C7.45459 20.5076 7.41323 20.6496 7.41337 20.7946V24.6036H5.64247V21.7599C5.64247 21.339 5.29924 20.9965 4.87552 20.9965C4.67217 20.9967 4.47722 21.0772 4.33344 21.2203C4.18965 21.3635 4.10878 21.5575 4.10856 21.7599V24.604H3.00962C2.93298 24.604 2.85729 24.6208 2.78789 24.6532C2.71849 24.6855 2.65707 24.7327 2.60796 24.7912C2.55886 24.8498 2.52328 24.9184 2.50372 24.9922C2.48416 25.0659 2.48111 25.1431 2.49477 25.2181L2.75342 26.6472C2.77522 26.7675 2.8388 26.8764 2.93306 26.9547C3.02731 27.0331 3.14625 27.0761 3.26908 27.076H5.95934L3.10932 27.5908C3.05979 27.5997 3.01252 27.6183 2.97021 27.6455C2.92791 27.6726 2.89139 27.7078 2.86274 27.749C2.83409 27.7902 2.81388 27.8367 2.80326 27.8856C2.79263 27.9346 2.7918 27.9852 2.80082 28.0345C2.80983 28.0838 2.82851 28.1308 2.8558 28.173C2.88308 28.2151 2.91843 28.2514 2.95982 28.2799C3.00122 28.3085 3.04785 28.3286 3.09706 28.3391C3.14626 28.3497 3.19708 28.3505 3.24661 28.3416L9.78206 27.1602C9.87981 27.1429 9.96686 27.0881 10.0246 27.0077C10.0934 26.9691 10.1525 26.9154 10.1974 26.8507C10.2424 26.7861 10.272 26.7121 10.284 26.6343L10.5057 25.2053C10.5173 25.131 10.5126 25.0551 10.492 24.9828C10.4714 24.9105 10.4353 24.8435 10.3862 24.7863C10.3371 24.7292 10.2761 24.6833 10.2075 24.6519C10.139 24.6204 10.0643 24.604 9.98882 24.604H8.94728V21.2792L12.5594 19.5888C12.7434 19.5026 12.8856 19.3471 12.9545 19.1566C13.0235 18.9661 13.0136 18.7561 12.9271 18.5728C12.8843 18.4822 12.8239 18.4008 12.7494 18.3333C12.675 18.2659 12.5879 18.2137 12.4932 18.1798C12.3985 18.1459 12.298 18.1308 12.1975 18.1356C12.0969 18.1403 11.9983 18.1647 11.9072 18.2074ZM9.64559 28.354L3.10932 29.5353C3.05884 29.5432 3.01046 29.561 2.96701 29.5878C2.92356 29.6146 2.88593 29.6497 2.85632 29.6911C2.82671 29.7326 2.80573 29.7795 2.7946 29.8291C2.78348 29.8788 2.78243 29.9301 2.79153 29.9802C2.80063 30.0302 2.81969 30.0779 2.84759 30.1205C2.87548 30.1631 2.91166 30.1998 2.95398 30.2283C2.9963 30.2567 3.04392 30.2765 3.09403 30.2864C3.14415 30.2963 3.19574 30.2962 3.24579 30.2859L9.78186 29.1048C9.83142 29.096 9.87874 29.0775 9.92111 29.0504C9.96348 29.0233 10.0001 28.9881 10.0288 28.947C10.0575 28.9058 10.0777 28.8594 10.0883 28.8104C10.099 28.7614 10.0998 28.7108 10.0908 28.6615C10.0819 28.6121 10.0633 28.565 10.0361 28.5229C10.0089 28.4807 9.97357 28.4443 9.93219 28.4157C9.89082 28.3871 9.84418 28.367 9.79497 28.3564C9.74575 28.3458 9.69512 28.345 9.64559 28.354ZM9.64559 30.3709L3.10932 31.5523C3.05884 31.5602 3.01046 31.578 2.96701 31.6048C2.92356 31.6315 2.88593 31.6666 2.85632 31.7081C2.82671 31.7495 2.80573 31.7965 2.7946 31.8461C2.78348 31.8957 2.78243 31.9471 2.79153 31.9971C2.80063 32.0472 2.81969 32.0949 2.84759 32.1375C2.87548 32.1801 2.91166 32.2167 2.95398 32.2452C2.9963 32.2737 3.04392 32.2935 3.09403 32.3034C3.14415 32.3133 3.19574 32.3131 3.24579 32.3029L9.78186 31.1218C9.83142 31.1129 9.87874 31.0944 9.92111 31.0673C9.96348 31.0402 10.0001 31.0051 10.0288 30.9639C10.0575 30.9227 10.0777 30.8763 10.0883 30.8273C10.099 30.7783 10.0998 30.7277 10.0908 30.6784C10.0819 30.6291 10.0633 30.582 10.0361 30.5398C10.0089 30.4976 9.97357 30.4612 9.93219 30.4327C9.89082 30.4041 9.84418 30.3839 9.79497 30.3733C9.74575 30.3628 9.69512 30.3619 9.64559 30.3709ZM8.86311 32.4056L3.98864 33.242C3.939 33.2505 3.89154 33.2687 3.84895 33.2954C3.80636 33.3222 3.76949 33.3571 3.74044 33.398C3.71138 33.439 3.69072 33.4852 3.67962 33.5341C3.66852 33.583 3.6672 33.6336 3.67575 33.683C3.68429 33.7324 3.70253 33.7797 3.72942 33.8221C3.75631 33.8644 3.79132 33.9011 3.83246 33.9301C3.8736 33.959 3.92006 33.9796 3.96919 33.9906C4.01831 34.0017 4.06914 34.003 4.11878 33.9945L8.99345 33.1578C9.04309 33.1494 9.09056 33.1312 9.13315 33.1045C9.17573 33.0777 9.2126 33.0429 9.24164 33.0019C9.27067 32.961 9.29131 32.9147 9.30236 32.8658C9.31341 32.8169 9.31466 32.7663 9.30604 32.7169C9.28856 32.6173 9.23215 32.5286 9.14913 32.4703C9.06611 32.412 8.96327 32.3886 8.86311 32.4056Z" fill="#E54537"/>
</svg>
