<svg width="78" height="26" viewBox="0 0 78 26" fill="none" xmlns="http://www.w3.org/2000/svg">
<path d="M15.5634 0C15.3806 0 15.1966 0.0607964 15.0138 0.121592C15.3794 0.364776 15.5628 0.669364 15.6847 0.973952V1.21774C15.6847 1.82692 15.5019 1.88711 15.38 2.25249C15.1966 2.67867 15.2581 3.22766 15.5025 3.59304C15.5025 3.65384 15.5634 3.71463 15.5634 3.71463C15.3197 2.00931 16.7231 1.70533 17.0284 1.21774C17.0284 0.730766 16.6628 0.426788 16.3575 0.243792C16.0522 0.0614045 15.8072 0 15.5634 0ZM17.6993 0.486367V0.852967C17.6993 0.913763 17.6993 0.973951 17.6384 1.03475C17.6384 1.09554 17.5774 1.15695 17.5774 1.21774C17.5774 1.27854 17.5159 1.33933 17.5159 1.40013L17.4549 1.46153C17.4549 1.46153 17.4549 1.52233 17.394 1.52233C17.3331 1.58313 17.3337 1.64392 17.2721 1.64392L17.1502 1.76612L17.0284 1.88771C16.9065 2.00931 16.7225 2.0701 16.6006 2.19169C16.5397 2.25249 16.4787 2.25249 16.4787 2.31329L16.3568 2.43549L16.235 2.55708L16.1131 2.67928C16.0522 2.74007 16.0509 2.80087 15.99 2.80087C15.99 2.86166 15.9291 2.92246 15.9291 2.98387C15.9291 3.04466 15.8681 3.10546 15.8681 3.16625C15.8681 3.22705 15.8072 3.28784 15.8072 3.34864V3.95782C15.8072 4.01861 15.8072 4.07941 15.8681 4.1402C15.8681 4.201 15.9291 4.2618 15.9291 4.32259C15.9291 4.38339 15.99 4.38339 15.99 4.44418L14.4032 3.83562C14.1594 3.77482 13.8548 3.71402 13.611 3.65323C13.4891 3.59243 13.3051 3.59243 13.1826 3.53103C12.756 3.47023 12.3283 3.40944 11.962 3.34864H11.9011C11.4745 3.28784 11.1077 3.28785 10.6805 3.28785C10.3758 3.28785 10.0705 3.28784 9.76523 3.34864C9.33806 3.34864 8.91089 3.40944 8.54466 3.47023C8.42278 3.47023 8.36184 3.53103 8.23936 3.53103C8.05655 3.59182 7.81219 3.59243 7.62938 3.65384C7.5075 3.65384 7.44595 3.71463 7.32408 3.71463C7.2022 3.77543 7.14127 3.77482 7.01878 3.83562C6.95784 3.89641 6.89691 3.89702 6.77442 3.95782H6.71348C6.65255 4.01861 6.59161 4.01861 6.53006 4.07941H6.46913C6.40819 4.1402 6.34786 4.14081 6.28631 4.20161C6.22538 4.20161 6.16444 4.2624 6.16444 4.2624C6.16444 4.2624 6.1035 4.2624 6.1035 4.3232C6.04256 4.384 5.98102 4.384 5.91947 4.44479C5.85853 4.50559 5.7982 4.50559 5.73727 4.56638C5.67633 4.62718 5.61478 4.62718 5.61478 4.68798C5.55384 4.68798 5.55384 4.74999 5.49291 4.81078C5.43197 4.81078 5.43197 4.87158 5.37103 4.87158H5.30948C5.24855 4.87158 5.24855 4.93238 5.18761 4.93238L5.06573 5.05336L4.94386 5.17556C4.88292 5.05397 4.88292 5.05397 4.82198 5.11476C4.82198 5.11476 4.76105 5.11476 4.76105 5.17556L4.63856 5.29715V5.35795L4.45575 5.54033C4.33387 5.66253 4.21078 5.78473 4.08891 5.84553C3.96703 5.96712 3.84516 6.02792 3.72328 6.14951C3.6008 6.2711 3.47953 6.33251 3.29611 6.39391C3.17423 6.45471 3.05114 6.51489 2.86833 6.57569C2.74645 6.63649 2.56364 6.69728 2.44177 6.75869C2.13647 6.81948 1.83056 6.94168 1.58681 6.94168H1.404C1.34306 6.94168 1.28212 6.94168 1.22119 7.00248C1.22119 7.06327 1.16025 7.06327 1.09931 7.06327C1.03838 7.06327 0.976828 7.12407 0.915281 7.12407C0.854344 7.18487 0.793406 7.18487 0.793406 7.24627C0.732469 7.30707 0.671531 7.30707 0.671531 7.36786C0.610594 7.42866 0.549656 7.42805 0.549656 7.48945L0.426562 7.61105C0.365625 7.67184 0.365625 7.73264 0.304688 7.79343C0.24375 7.85423 0.244359 7.91502 0.183422 7.97643C0.183422 8.03722 0.121875 8.09863 0.121875 8.15942C0.121875 8.22022 0.0609375 8.28102 0.0609375 8.34181C0.0609375 8.40261 0.0609375 8.4634 0 8.5242V9.01118C0 9.07197 0 9.07258 0.0609375 9.13398C0.0609375 9.19478 0.121875 9.19417 0.121875 9.25497C0.121875 9.31576 0.183422 9.31637 0.183422 9.37778L0.305297 9.49876L0.427172 9.62035C0.609984 9.74195 0.610594 9.80274 0.854953 9.92433C0.915891 9.92433 0.915281 9.98634 0.976828 9.98634V10.0471C0.976828 10.1079 0.976219 10.1681 1.03716 10.2295C1.03716 10.2903 1.09931 10.3511 1.09931 10.4119C1.09931 10.4727 1.16025 10.4727 1.16025 10.5335V10.5955C1.16025 10.6563 1.22119 10.7171 1.22119 10.7171C1.28212 10.7779 1.28152 10.8381 1.34245 10.8381L1.46494 10.9603L1.58681 11.0819L1.7093 11.2041C1.77023 11.2649 1.83117 11.2649 1.83117 11.2649C1.89211 11.2649 1.95305 11.3257 2.01398 11.3257H2.25773V12.178C2.44055 12.3604 2.74645 11.9342 3.05175 11.4467C2.99081 11.9342 2.99081 12.482 3.05175 12.6042C3.11269 12.7866 3.53986 12.2388 3.90609 11.6303C8.72808 10.5341 13.1832 13.8226 13.611 18.5719C13.5501 17.8412 12.6336 17.4144 12.2064 17.536C12.0236 18.023 11.6567 18.6929 11.1077 19.0583C11.1686 18.6321 11.1077 18.1452 11.0468 17.719C10.913 18.3511 10.6186 18.9384 10.1918 19.4243C9.8775 19.4528 9.56111 19.4006 9.27278 19.2726C8.98445 19.1446 8.73378 18.945 8.54466 18.6929L8.48372 18.6321C8.48372 18.5713 8.42278 18.5105 8.42278 18.5105C8.42278 18.4498 8.36123 18.389 8.36123 18.389V18.1446C8.36123 18.0838 8.36184 18.023 8.42278 18.023C8.42278 17.9622 8.42278 17.902 8.48372 17.902C8.48372 17.8412 8.54466 17.7798 8.54466 17.7798C8.66653 17.4758 8.66653 17.1718 8.42278 17.0496C8.36184 17.0496 8.36123 16.9888 8.3003 16.9888H8.17842C8.11748 16.9888 8.05594 16.9876 8.05594 16.9268H7.44534C7.38441 16.9268 7.32347 16.928 7.32347 16.9888C7.26253 16.9888 7.26314 17.0496 7.2022 17.0496C7.14127 17.0496 7.14066 17.1104 7.07972 17.1104C5.30948 18.0236 6.28631 20.4591 7.32347 21.129C6.89691 21.1898 6.46973 21.3114 6.40819 21.3722C6.71348 21.5546 7.01878 21.6762 7.32408 21.7978C7.75064 21.92 8.23997 22.0416 8.42278 22.103C8.97244 22.2246 9.58181 22.286 10.1315 22.2252C13.1826 22.0428 15.6244 19.7289 16.1131 16.6842C16.1131 16.745 16.1131 16.8058 16.174 16.8666C16.174 16.9882 16.235 17.1098 16.235 17.2314V19.1197C16.235 19.1805 16.235 19.2413 16.174 19.3021C16.174 19.3629 16.174 19.4237 16.1131 19.4851C16.1131 19.5459 16.1131 19.6067 16.0522 19.6675C16.0522 19.7283 15.99 19.7891 15.99 19.8499C15.99 19.9107 15.9291 19.9727 15.9291 20.0335C15.9291 20.0943 15.8681 20.1545 15.8681 20.2159C15.8681 20.2767 15.8072 20.3375 15.8072 20.3983C15.8072 20.4591 15.7469 20.5199 15.7469 20.5806C15.7469 20.6414 15.6847 20.7022 15.6847 20.763V20.8238C15.2581 21.7376 14.5866 22.5298 13.7932 23.1383C13.7323 23.1991 13.6713 23.1991 13.6104 23.2599C13.6104 23.2599 13.5488 23.2599 13.5488 23.3207C13.4879 23.3815 13.427 23.3821 13.427 23.4429V23.5037C13.5488 23.5037 13.6098 23.5037 13.7323 23.4429C13.9151 23.4429 14.0985 23.3815 14.2819 23.3207C14.3429 23.3207 14.4038 23.3207 14.4038 23.2599H14.6475C14.7085 23.2599 14.7085 23.2599 14.7694 23.1991C15.441 23.0167 16.1131 22.8344 16.7231 22.5298C15.6244 23.9913 14.1594 25.2084 12.5117 26C13.3051 25.9392 14.0991 25.8176 14.8316 25.5744C17.578 24.7829 19.8967 22.8945 21.3007 20.4591C21.0002 22.0306 20.3767 23.5231 19.4695 24.8424C20.1411 24.4169 20.751 23.9293 21.3007 23.3207C22.8266 21.7376 23.8022 19.7277 24.1684 17.536C24.4128 18.6321 24.4743 19.7283 24.3525 20.8244C29.1129 14.2481 24.5956 7.12407 22.7035 5.23636V5.48015C22.7035 5.66254 22.6425 5.78413 22.6425 5.90572C22.5816 6.02731 22.5822 6.21091 22.5207 6.33311C22.4597 6.45471 22.3988 6.63709 22.3379 6.75869C22.2769 6.88028 22.216 7.06266 22.155 7.18426C22.0941 7.30585 21.9722 7.42927 21.9113 7.55086C21.8504 7.67245 21.7279 7.79404 21.606 7.91563C21.4841 8.03723 21.4232 8.15882 21.3007 8.28041L21.1173 8.46401C21.0563 8.52481 20.9954 8.52481 20.9345 8.5856C20.8126 8.7072 20.6895 8.76799 20.5676 8.82879C20.4457 8.88958 20.3239 9.01239 20.1411 9.07319C20.0192 9.13398 19.8364 9.19417 19.7145 9.25497C19.592 9.31576 19.408 9.37778 19.2861 9.37778C19.1642 9.43857 18.9814 9.43796 18.8595 9.49876C18.6767 9.49876 18.5536 9.55956 18.3708 9.55956H17.578C17.3952 9.55956 17.2721 9.49876 17.0893 9.49876C16.9065 9.49876 16.7846 9.43796 16.6628 9.37717C16.7846 9.37717 16.9674 9.37656 17.0893 9.31576C17.2721 9.31576 17.394 9.25497 17.5159 9.19417C17.6378 9.13338 17.8218 9.13338 17.9437 9.07258C18.0655 9.01178 18.2483 8.95099 18.3702 8.89019C18.4921 8.8294 18.6152 8.76799 18.7986 8.6464C18.9205 8.5856 19.0424 8.4634 19.1642 8.40261C19.2861 8.28102 19.408 8.21961 19.5299 8.09802L19.8358 7.79343C19.9576 7.67184 20.0186 7.55025 20.1405 7.42866C20.1405 7.42866 20.1405 7.36786 20.2014 7.36786C20.2623 7.24627 20.3239 7.12407 20.3848 7.06327C20.4457 6.94168 20.5067 6.82009 20.5676 6.6377C20.6286 6.51611 20.6895 6.33251 20.751 6.21031C20.812 6.08872 20.812 5.90633 20.8729 5.78473C20.8729 5.60235 20.9345 5.47954 20.9345 5.35795V4.56699C20.9345 4.3846 20.8729 4.2618 20.8729 4.1402C20.8729 3.95782 20.812 3.83623 20.751 3.71463C20.6901 3.59243 20.6292 3.41065 20.6292 3.28845C20.5682 3.16686 20.5073 2.98326 20.4464 2.86167C20.3854 2.74007 20.3239 2.61848 20.2014 2.43609C20.1405 2.31389 20.0186 2.19291 19.9576 2.07071C19.8352 1.94912 19.7742 1.82631 19.6517 1.70411L19.4695 1.52233C19.1648 1.27915 18.8595 1.03596 18.4933 0.852967C18.4324 0.852967 18.4318 0.790955 18.3708 0.790955C18.1265 0.669363 17.9437 0.547163 17.6993 0.486367ZM74.643 6.57569C73.5449 8.88958 71.1025 9.68236 71.1025 9.68236V10.1687C71.1025 10.4727 71.3475 10.4727 71.3475 10.4727H72.568C72.568 10.4727 72.4462 15.1613 72.5071 16.8058C72.568 18.4498 73.7277 18.9367 73.7277 18.9367C73.7277 18.9367 74.5199 19.3629 75.802 19.2413C77.0835 19.1197 78 17.8406 78 17.8406L77.5722 17.1706C75.6801 18.7537 75.3145 16.8666 75.3145 16.8666V10.4113H77.8775V9.19417H75.4358V6.57569H74.643ZM37.7185 8.03723C36.8032 9.68115 34.178 9.98634 34.178 9.98634V10.6557C35.8873 11.0211 35.7039 11.8133 35.7039 11.8133C35.7039 11.8133 35.7648 15.8921 35.7648 17.1706C35.7648 18.4491 35.3383 18.2066 35.3383 18.2066L34.178 18.4497V19.1805C35.3986 18.8157 39.7319 19.1805 39.7319 19.1805L39.7928 18.4491C38.5113 18.2668 38.3894 17.4752 38.3894 17.4752V11.4467C39.549 10.4119 40.6471 10.0471 40.6471 10.0471C42.9055 9.49876 43.0889 11.6905 43.0889 11.6905L43.1498 17.2314C43.5764 18.6929 41.4412 18.4491 41.4412 18.4491L41.5021 19.1805L44.8591 18.9373L47.1169 19.1805V18.4491C46.0182 18.2668 45.9572 18.2668 45.8963 17.4144C46.14 11.1427 45.6525 10.5955 45.6525 10.5955C42.9061 6.15012 38.3894 10.5955 38.3894 10.5955V8.03723H37.7185ZM53.8304 8.402C48.9474 8.402 48.7043 12.7872 48.7043 12.7872C48.7043 12.7872 47.8487 19.4243 53.8304 19.4243C57.6755 19.4243 58.8358 17.2314 58.8358 17.2314L58.1027 16.562C58.1027 16.562 52.3654 20.7022 51.6336 12.8474H58.8961C58.8352 12.7866 58.7127 8.402 53.8304 8.402ZM64.8783 8.58804C64.4761 8.59047 64.0307 8.6081 63.5347 8.6464C63.5347 8.6464 61.3988 9.13277 61.0326 11.1427C60.6663 13.152 61.9478 14.2487 61.9478 14.2487C61.9478 14.2487 62.4975 15.0403 64.3896 15.2227C66.0374 15.4051 66.7698 16.0757 66.7698 16.0757C66.7698 16.0757 67.6248 16.866 66.7089 17.8406C65.7936 18.8145 64.573 18.4491 64.573 18.4491C64.573 18.4491 63.169 18.5099 61.5213 15.6483L60.7273 15.7091L61.032 18.5719C61.032 18.5719 64.9393 20.7636 67.9301 18.5719C70.9812 15.8319 68.4176 13.2736 66.7698 12.969C65.1221 12.665 64.0234 12.2394 64.0234 12.2394C64.0234 12.2394 61.4597 11.2041 63.7187 9.68176C66.2208 8.40322 67.6857 12.0558 67.6857 12.0558C67.6857 12.0558 68.2342 12.178 68.601 11.8734C68.7229 11.5087 68.2957 9.31576 68.2957 9.31576C68.2957 9.31576 67.6882 8.57041 64.8783 8.58804ZM53.9528 9.31576C55.1125 9.31576 56.0893 10.2897 56.0893 11.4467V11.995H51.5726V11.6911C51.5726 10.4119 52.6104 9.31576 53.9528 9.31576Z" fill="#DF234F"/>
</svg>
