<svg width="49" height="49" viewBox="0 0 49 49" fill="none" xmlns="http://www.w3.org/2000/svg">
<mask id="mask0_16_105" style="mask-type:alpha" maskUnits="userSpaceOnUse" x="0" y="0" width="49" height="49">
<rect width="49" height="49" fill="#D9D9D9"/>
</mask>
<g mask="url(#mask0_16_105)">
<path d="M28.2461 0.000385227C27.9093 0.000385227 27.5726 0.077044 27.2733 0.192225C27.9093 0.615197 28.2461 1.19149 28.4332 1.84482C28.4332 1.92186 28.4707 1.99891 28.4707 2.07557C28.4707 2.15261 28.5082 2.22927 28.5082 2.30593C28.5457 3.42075 28.2086 3.57446 27.9843 4.22779C27.6101 5.07296 27.7226 5.99557 28.1715 6.72556C28.209 6.8026 28.2465 6.91817 28.3211 6.99483C27.8347 3.76668 30.4533 3.30519 30.9397 2.30593C30.9772 1.42223 30.2666 0.845943 29.7052 0.422972C29.1442 0.077044 28.695 0 28.2465 0L28.2461 0.000385227ZM32.175 0.69147C32.1375 0.998876 32.175 0.922217 32.1375 1.07592C32.1375 1.1911 32.1375 1.30628 32.1 1.42185C32.0625 1.53703 32.0625 1.61407 32.025 1.72925C31.9875 1.84482 31.9503 1.92148 31.9128 2.03666C31.8753 2.1137 31.8378 2.19036 31.8003 2.30554C31.7632 2.34406 31.7257 2.42111 31.6886 2.45963C31.6511 2.49815 31.6511 2.53629 31.6136 2.57481C31.5386 2.65186 31.5011 2.76665 31.4265 2.8437L31.2022 3.07444C31.1272 3.15149 31.0522 3.22814 30.9776 3.26628C30.7158 3.45889 30.4166 3.61221 30.1545 3.80443C30.0795 3.88148 29.9673 3.92 29.8927 3.99666C29.8177 4.0737 29.7427 4.11222 29.6681 4.18888L29.4438 4.41925C29.3688 4.49629 29.2938 4.57333 29.2563 4.68851C29.1817 4.76556 29.1442 4.88074 29.0696 4.9574C29.0321 5.07296 28.9946 5.14962 28.92 5.2648C28.8825 5.38037 28.845 5.45741 28.8075 5.57221C28.77 5.68778 28.7328 5.80296 28.7328 5.87961C28.7328 5.91814 28.7328 5.99518 28.6953 6.0337C28.6953 6.07223 28.6953 6.14888 28.6578 6.18741V6.72517C28.6578 6.84074 28.6578 6.91778 28.6953 7.03258C28.6953 7.14815 28.7328 7.22519 28.7703 7.34037C28.8078 7.45555 28.8453 7.53221 28.8828 7.64778C28.92 7.72482 28.9575 7.76296 28.9575 7.84L26.1138 6.72517C25.6449 6.57925 25.1708 6.45114 24.6926 6.34111C24.4305 6.26406 24.1687 6.22554 23.9066 6.1485C23.1643 5.9958 22.4151 5.88048 21.6619 5.80296H21.5869C20.8387 5.72591 20.1281 5.68739 19.38 5.68739C18.8186 5.68739 18.2947 5.72591 17.7712 5.76443C17.0227 5.80296 16.275 5.91852 15.5265 6.0337L14.9651 6.14888C14.5912 6.22593 14.217 6.30259 13.8427 6.41777C13.6556 6.45629 13.4689 6.53333 13.2817 6.57186C13.0946 6.64851 12.9075 6.72517 12.7579 6.80222C12.6082 6.87926 12.4961 6.91778 12.3465 6.99444C12.309 6.99444 12.309 6.99444 12.2715 7.03296C12.159 7.10962 12.0472 7.14814 11.9347 7.2248C11.8972 7.2248 11.8597 7.26333 11.8597 7.26333C11.7105 7.34037 11.598 7.41741 11.4859 7.45555C11.4109 7.49407 11.2987 7.53259 11.2241 7.57112C11.1866 7.60925 11.1491 7.60925 11.1116 7.64778C10.9995 7.72482 10.8874 7.76296 10.7749 7.83962C10.6627 7.91666 10.5506 7.95518 10.4756 8.03223C10.4006 8.10888 10.2885 8.14741 10.2139 8.22406C10.2139 8.22406 10.1764 8.22406 10.1764 8.26259C10.1014 8.30111 10.0267 8.37815 9.95211 8.45481L9.91461 8.49333C9.83961 8.53186 9.80212 8.60851 9.72749 8.64704C9.68999 8.64704 9.68999 8.68556 9.65249 8.68556C9.57787 8.72408 9.54037 8.80074 9.46574 8.83888C9.46574 8.8774 9.42824 8.8774 9.42824 8.8774L9.20362 9.10814L9.16612 9.14667L8.94187 9.37703C8.94187 9.37703 8.94187 9.41555 8.90437 9.41555L8.71724 9.60778C8.67974 9.6463 8.64224 9.6463 8.64224 9.68482L8.41799 9.91518C8.41799 9.9537 8.38049 9.9537 8.38049 9.99222L8.08124 10.2992L8.04374 10.3378C7.85699 10.5685 7.63237 10.7607 7.40812 10.953C7.18349 11.1448 6.95887 11.337 6.69712 11.5293C6.43537 11.7215 6.21074 11.8752 5.94899 12.0289C5.68687 12.1826 5.42512 12.2978 5.16337 12.4133C4.90124 12.5285 4.6395 12.6437 4.37775 12.7207C3.85387 12.8363 3.33 13.0667 2.88112 13.1048C2.88112 12.913 2.76862 12.9511 2.6565 12.9511C2.54437 12.9896 2.43225 12.9896 2.35725 13.0281C2.24475 13.0667 2.17012 13.1052 2.058 13.1437C1.95128 13.179 1.85039 13.2307 1.75875 13.297C1.68375 13.3741 1.57162 13.4126 1.497 13.4896C1.422 13.5663 1.3095 13.643 1.23487 13.72C1.15987 13.797 1.04775 13.8737 0.973124 13.9504C0.898124 14.0274 0.823124 14.1045 0.748499 14.2196C0.673499 14.3348 0.598874 14.4115 0.561374 14.527C0.486749 14.6041 0.44925 14.7193 0.374625 14.8344C0.337125 14.95 0.262125 15.0648 0.224625 15.1804L0.1125 15.5263C0.0749999 15.6415 0.0749999 15.7181 0.0375 15.8337V15.8722C0 15.9878 0 16.1411 0 16.2182C0.0375 16.1796 0.0375 16.2567 0.0375 16.3333V16.487C0.0375 16.5641 0.0749999 16.6407 0.0749999 16.7174C0.1125 16.7944 0.1125 16.8715 0.15 16.9481C0.187125 17.0252 0.224625 17.1018 0.29925 17.1789C0.33675 17.2559 0.41175 17.3326 0.44925 17.4093C0.523874 17.4863 0.598499 17.5633 0.673499 17.6015C0.748499 17.6785 0.823124 17.7556 0.897749 17.7937C1.197 18.0626 1.272 18.1396 1.64625 18.37C1.72125 18.4085 1.75837 18.447 1.83337 18.4856H1.87087V18.5626C1.87087 18.6774 1.90837 18.7544 1.9455 18.8696C1.983 18.9852 2.0205 19.1004 2.058 19.177L2.16975 19.4078C2.16975 19.4463 2.20725 19.4463 2.20725 19.4848C2.24475 19.6 2.31975 19.6767 2.35725 19.7537C2.43187 19.8307 2.46937 19.9459 2.544 20.0226L2.76862 20.2533L2.99287 20.4837H3.03037C3.10537 20.5607 3.18 20.5993 3.255 20.6763C3.33 20.7534 3.44212 20.7915 3.51675 20.8296C3.59175 20.8681 3.70387 20.9452 3.816 20.9837C3.891 21.0222 3.966 21.0604 4.07775 21.0604C4.07775 21.0604 4.11525 21.0604 4.11525 21.0989C4.15275 21.0989 4.22775 21.1374 4.26525 21.1374C4.22775 21.8289 4.22775 22.4822 4.30275 22.713C4.4145 22.9818 4.97587 22.1748 5.49974 21.2911C5.42474 22.1748 5.38724 23.2126 5.49974 23.52C5.64937 23.8274 6.35999 22.8281 7.03349 21.7518C15.7879 19.6767 23.7941 25.9026 24.6547 34.7037C24.5047 33.32 22.8585 32.5515 22.0732 32.7437C21.699 33.6659 21.063 34.8959 20.0531 35.6259C20.1277 34.7804 20.0906 33.9348 19.9406 33.0896C19.6789 34.2426 19.155 35.357 18.4069 36.2793C17.247 36.3563 16.05 35.7796 15.4511 34.8959C15.4136 34.8574 15.3761 34.7804 15.339 34.7418C15.3015 34.6652 15.264 34.55 15.2265 34.473C15.189 34.3959 15.1519 34.2807 15.1519 34.2041V33.743C15.1519 33.6659 15.1894 33.5504 15.2269 33.4737C15.2644 33.397 15.2644 33.2815 15.3019 33.2048C15.339 33.1278 15.3765 33.0126 15.4511 32.9359C15.6757 32.3207 15.6757 31.8211 15.264 31.5522L15.0397 31.4367C15.0022 31.4367 14.9272 31.3985 14.8897 31.3985C14.8522 31.3985 14.8151 31.36 14.7776 31.36C14.703 31.3215 14.5909 31.3215 14.5159 31.283C14.4409 31.2444 14.3287 31.2444 14.2541 31.2444C14.1791 31.2444 14.0666 31.2063 13.992 31.2063H13.8052C13.6927 31.2063 13.6177 31.2063 13.5431 31.2448C13.4681 31.2448 13.356 31.2833 13.2814 31.2833C13.2064 31.3219 13.0942 31.3219 13.0192 31.3604C12.9446 31.3985 12.8696 31.437 12.7575 31.4752L12.5329 31.5907C9.65212 33.5122 11.3734 38.047 13.3189 39.3537C12.5704 39.5078 11.8222 39.6611 11.5976 39.8152L11.5601 39.8537C12.084 40.1993 12.6454 40.4685 13.2439 40.6989C14.0295 40.9682 14.8901 41.1985 15.264 41.3141C16.2742 41.5445 17.322 41.6215 18.3694 41.5445C23.8316 41.16 28.3211 36.8559 29.1438 31.2448C29.1813 31.3604 29.1813 31.4752 29.2188 31.5907C29.2563 31.8211 29.2938 32.0519 29.3313 32.3207C29.3688 32.4363 29.3688 32.5515 29.3688 32.6667V32.7052C29.3688 32.8208 29.406 32.9359 29.406 33.0511C29.406 33.2048 29.4435 33.32 29.4435 33.4737V35.0878C29.4435 35.2033 29.406 35.2804 29.406 35.3956V35.5107C29.406 35.6263 29.3685 35.7415 29.3685 35.8952C29.331 36.0104 29.331 36.1256 29.2935 36.2411V36.2796C29.256 36.3948 29.256 36.51 29.2188 36.6252V36.6637C29.1813 36.7793 29.1813 36.8945 29.1438 37.0096V37.0482L29.0317 37.3941V37.4326C28.9942 37.5478 28.9567 37.7015 28.9196 37.8167C28.8821 37.9322 28.8446 38.0474 28.7696 38.2011C28.7325 38.3163 28.695 38.47 28.6203 38.5852C28.5828 38.7008 28.5078 38.8159 28.4703 38.9696C28.4332 39.0852 28.3582 39.2004 28.3211 39.3156C28.3211 39.3541 28.2836 39.3926 28.2836 39.3926C28.2836 39.3926 28.2836 39.4311 28.2461 39.4311C27.4605 41.0833 26.2635 42.5437 24.7668 43.6967C24.6543 43.7737 24.5797 43.8508 24.4676 43.9274C24.4301 43.9659 24.3926 43.9659 24.3926 44.0045C24.3176 44.0811 24.2055 44.1196 24.1308 44.1963L24.1683 44.2734C24.3551 44.2348 24.5051 44.2348 24.6918 44.1963C25.0286 44.1578 25.3278 44.0807 25.6646 44.0041C25.7396 44.0041 25.8521 43.9656 25.9267 43.927C26.0017 43.927 26.0388 43.8885 26.1135 43.8885C26.1881 43.8885 26.301 43.8504 26.3756 43.8504C26.4506 43.8119 26.5252 43.8119 26.5998 43.7733C27.8347 43.4663 29.0317 43.0433 30.1916 42.5437C28.2086 45.3107 25.59 47.54 22.5221 49C23.9437 48.8848 25.3653 48.6545 26.7495 48.2315C31.7198 46.7322 35.9141 43.2799 38.4221 38.6237C37.8986 41.5445 36.7758 44.35 35.0925 46.8096C36.2898 46.0026 37.3747 45.0415 38.385 44.0041C41.1532 41.0448 42.9862 37.24 43.5851 33.2048C43.9968 35.2033 44.1465 37.2785 43.9593 39.3156C52.9008 26.5178 44.7075 13.2589 41.2657 9.76148C41.2657 9.72296 41.2282 9.72296 41.2282 9.68443C41.2282 9.83852 41.2282 9.99184 41.1907 10.1459C41.1532 10.4533 41.1157 10.7222 41.0782 10.9911C41.0036 11.2604 40.929 11.5678 40.854 11.8367C40.779 12.1059 40.6668 12.3748 40.5547 12.6437C40.4422 12.913 40.3301 13.1818 40.1805 13.4126C40.0308 13.6433 39.8812 13.9122 39.7316 14.1426C39.582 14.3733 39.3948 14.6037 39.2077 14.8344C39.021 15.0652 38.8338 15.257 38.6092 15.4878C38.4967 15.6033 38.385 15.7185 38.2353 15.7952C38.1228 15.8722 38.0478 15.9493 37.9357 16.0641C37.7115 16.2567 37.4868 16.41 37.2251 16.5637C37.0005 16.7178 36.7387 16.8715 36.477 16.9867L35.691 17.3326C35.4292 17.4478 35.1675 17.5248 34.9053 17.6015C34.6436 17.6785 34.3443 17.7556 34.0822 17.7937C33.783 17.8322 33.5212 17.8707 33.2595 17.9093C33.072 17.9093 32.8477 17.9474 32.6606 17.9474C32.3613 17.9474 32.0996 17.9089 31.8378 17.9089C31.5382 17.8704 31.2765 17.8318 31.0147 17.7933C30.7309 17.7579 30.4537 17.6803 30.1916 17.563C30.4533 17.5244 30.7526 17.5244 31.0147 17.4478C31.314 17.4093 31.5757 17.3322 31.8378 17.2556C32.0996 17.1785 32.3988 17.1018 32.6235 16.9867L33.4091 16.6407C33.6708 16.5252 33.8955 16.3719 34.1572 16.2182C34.3818 16.0641 34.6436 15.8722 34.8682 15.7185C35.0925 15.5259 35.3171 15.3341 35.5042 15.1418C35.7285 14.9496 35.9156 14.7193 36.1027 14.527C36.2898 14.2963 36.477 14.0659 36.6266 13.8352C36.6641 13.7967 36.6641 13.7581 36.7016 13.7196C36.8133 13.5278 36.963 13.297 37.0755 13.1052C37.215 12.8568 37.3398 12.6001 37.4493 12.3363C37.5618 12.0674 37.6743 11.7981 37.749 11.5293L37.9732 10.7222C38.0107 10.4148 38.0857 10.1459 38.0857 9.87666C38.1232 9.56925 38.1232 9.30037 38.1232 9.0311C38.1232 8.83926 38.1232 8.60851 38.0857 8.41629C38.0482 8.10888 38.0107 7.84 37.9732 7.57073C37.9357 7.26333 37.8607 6.99444 37.7861 6.72517C37.7111 6.45629 37.599 6.18741 37.5243 5.91814C37.4118 5.64925 37.2997 5.38037 37.1876 5.14962C37.038 4.88074 36.9258 4.64999 36.7762 4.38111C36.6262 4.15036 36.4395 3.91961 36.2898 3.68925C36.1027 3.45851 35.9156 3.26628 35.7285 3.03592C35.6163 2.92035 35.5042 2.80517 35.3917 2.72851C34.8307 2.26741 34.2693 1.88296 33.6708 1.49851C33.5958 1.45998 33.5212 1.42146 33.4091 1.38294C32.9227 0.960739 32.5488 0.845173 32.175 0.69147Z" fill="#DF234F"/>
</g>
</svg>
