<svg width="50" height="50" viewBox="0 0 50 50" fill="none" xmlns="http://www.w3.org/2000/svg">
<mask id="mask0_16_2" style="mask-type:alpha" maskUnits="userSpaceOnUse" x="1" y="1" width="49" height="49">
<rect x="1" y="1" width="49" height="49" fill="#D9D9D9"/>
</mask>
<g mask="url(#mask0_16_2)">
</g>
<g clip-path="url(#clip0_16_2)">
<path d="M25 0.25C38.6691 0.25 49.75 11.331 49.75 25C49.75 38.6691 38.6691 49.75 25 49.75C11.331 49.75 0.25 38.6691 0.25 25C0.25 11.331 11.331 0.25 25 0.25Z" fill="black" stroke="white" stroke-width="0.5"/>
<path d="M41.5301 43.7555L19.2059 15H15V34.9918H18.3648V19.273L38.8883 45.7902C39.813 45.1713 40.6956 44.4916 41.5301 43.7555Z" fill="url(#paint0_linear_16_2)"/>
<path d="M31.9446 15H35.2778V35H31.9446V15Z" fill="url(#paint1_linear_16_2)"/>
</g>
<defs>
<linearGradient id="paint0_linear_16_2" x1="30.2777" y1="32.3611" x2="40.1388" y2="44.5833" gradientUnits="userSpaceOnUse">
<stop stop-color="white"/>
<stop offset="1" stop-color="white" stop-opacity="0"/>
</linearGradient>
<linearGradient id="paint1_linear_16_2" x1="33.6111" y1="15" x2="33.5553" y2="29.6875" gradientUnits="userSpaceOnUse">
<stop stop-color="white"/>
<stop offset="1" stop-color="white" stop-opacity="0"/>
</linearGradient>
<clipPath id="clip0_16_2">
<rect width="50" height="50" fill="white"/>
</clipPath>
</defs>
</svg>
