<svg width="49" height="49" viewBox="0 0 49 49" fill="none" xmlns="http://www.w3.org/2000/svg">
<mask id="mask0_16_58" style="mask-type:alpha" maskUnits="userSpaceOnUse" x="0" y="0" width="49" height="49">
<rect width="49" height="49" fill="#D9D9D9"/>
</mask>
<g mask="url(#mask0_16_58)">
<path d="M27.4396 40H45.5692C46.1488 40 46.7031 39.8001 47.2031 39.5189C47.7034 39.2376 48.2214 38.8859 48.5104 38.3991C48.7994 37.9124 49 37.3608 49 36.8002C49 36.2395 48.7994 35.686 48.5104 35.1997L36.2604 14.5606C35.9714 14.0742 35.6173 13.7206 35.1158 13.439C34.6135 13.1573 33.8984 12.9593 33.3185 12.9593C32.7389 12.9593 32.1865 13.1592 31.6865 13.439C31.1862 13.7187 30.8321 14.0738 30.5431 14.5606L27.4392 19.8405L21.2327 9.59899C20.9437 9.11262 20.5896 8.6015 20.0896 8.32025C19.5893 8.039 19.035 8 18.4554 8C17.8758 8 17.3234 8.039 16.8231 8.32025C16.3231 8.6015 15.8048 9.11262 15.5158 9.59899L0.326922 35.1989C0.0378984 35.6853 0 36.2377 0 36.8002C0 37.3623 0.0378984 37.9124 0.326922 38.3988C0.615562 38.8851 1.13198 39.2388 1.63423 39.5185C2.13609 39.7986 2.68849 40 3.26654 40H14.7C19.2306 40 22.5281 38.0088 24.8265 34.2385L30.3792 24.7999L33.3185 19.8402L42.3023 34.879H30.3796L27.4396 40ZM14.5354 34.8787H6.53308L18.4565 14.7188L24.5 24.8002L20.4969 31.6353C18.971 34.0814 17.2304 34.879 14.5358 34.879L14.5354 34.8787Z" fill="#00DC82"/>
</g>
</svg>
