<svg width="104" height="26" viewBox="0 0 104 26" fill="none" xmlns="http://www.w3.org/2000/svg">
<path d="M14.69 0C14.2293 0 13.7889 0.0324998 13.39 0.26C12.9644 0.517523 12.6075 0.874377 12.35 1.3L0.26 22.1C0.02925 22.4941 0 22.9442 0 23.4C0 23.8574 0.0300625 24.3051 0.26 24.7C0.489937 25.0949 0.901063 25.3817 1.3 25.61C1.69813 25.8375 2.1385 26 2.6 26H11.7C15.3059 26 17.9303 24.3831 19.76 21.32L24.18 13.65L26.52 9.62L33.67 21.84H24.18L21.84 26H36.27C36.7315 26 37.1719 25.8375 37.57 25.61C37.9689 25.3817 38.3801 25.0957 38.61 24.7C38.8399 24.3043 39 23.8574 39 23.4C39 22.9442 38.8408 22.4949 38.61 22.1L28.86 5.33C28.6463 4.94859 28.3314 4.63366 27.95 4.42C27.5112 4.1779 27.0209 4.04419 26.52 4.03C26.0601 4.03 25.6181 4.19087 25.22 4.42C24.8386 4.63366 24.5237 4.94859 24.31 5.33L21.84 9.62L16.9 1.3C16.6701 0.905124 16.3881 0.488312 15.99 0.26C15.5911 0.0324998 15.1507 0 14.69 0ZM14.69 5.46L19.5 13.65L16.3134 19.2051C15.0987 21.1924 13.7134 21.8408 11.57 21.8408H5.2L14.69 5.46ZM45.5 6.5V26H49.01C49.2911 26 49.53 25.766 49.53 25.48V13.39L51.35 16.51L56.42 25.22C56.6508 25.7051 57.1675 26 57.59 26H61.1V6.5H57.59C57.3568 6.5 57.07 6.695 57.07 7.02V19.24L54.73 15.08L50.05 7.15C49.8225 6.747 49.3326 6.5 48.88 6.5H45.5ZM96.85 7.8V11.18C96.85 11.3869 96.7678 11.5853 96.6215 11.7315C96.4753 11.8778 96.2769 11.96 96.07 11.96H94.38V15.08H96.85V20.8C96.85 24.0581 98.7927 26 101.79 26H104V22.62H102.31C101.147 22.62 100.49 22.035 100.49 20.67V15.08H104V11.96H100.49V7.8H96.85ZM64.74 11.96V20.02C64.74 21.8416 65.4404 23.3756 66.43 24.44C67.4367 25.5052 68.9552 26 70.85 26C72.7431 26 74.1333 25.5052 75.14 24.44C76.1475 23.3756 76.83 21.8416 76.83 20.02V11.96H74.49C74.1032 11.9559 73.8359 11.9478 73.58 12.22C73.2907 12.5288 73.19 12.8131 73.19 13.26V20.02C73.19 21.0681 73.1299 21.7141 72.67 22.23C72.2085 22.7273 71.7876 22.88 70.85 22.88C69.9278 22.88 69.3615 22.7273 68.9 22.23C68.4401 21.7141 68.38 21.0681 68.38 20.02V13.26C68.38 12.8131 68.2801 12.6409 67.99 12.35C67.6999 12.0413 67.2636 11.96 66.82 11.96H64.74ZM79.43 11.96L83.85 18.59L79.04 26H82.42C82.8425 26 83.2244 25.5816 83.46 25.22L85.8 21.71L88.27 25.35C88.5072 25.7116 88.8875 26 89.31 26H92.69L87.88 18.72L92.3 11.96H88.92C88.4934 11.96 88.1156 12.1119 87.88 12.48L85.8 15.6L83.85 12.61C83.6144 12.2428 83.1058 11.96 82.68 11.96H79.43Z" fill="#00DC82"/>
</svg>
