<svg width="128" height="26" viewBox="0 0 128 26" fill="none" xmlns="http://www.w3.org/2000/svg">
<mask id="mask0_7_19" style="mask-type:alpha" maskUnits="userSpaceOnUse" x="0" y="0" width="128" height="26">
<rect width="128" height="26" fill="#D9D9D9"/>
</mask>
<g mask="url(#mask0_7_19)">
<path d="M78.7937 -7.71558C83.4969 -3.14122 88.1357 -0.435254 91.8725 -0.435254C93.0966 -0.435254 94.2563 -0.692967 95.2227 -1.27282C98.5729 -3.20565 99.7971 -8.03772 98.6374 -14.9315C98.4441 -16.1556 98.1864 -17.3797 97.8642 -18.6683C99.1528 -19.0549 100.312 -19.4414 101.472 -19.828C107.979 -22.3407 111.587 -25.8198 111.587 -29.621C111.587 -33.4866 107.979 -36.9657 101.472 -39.414C100.312 -39.865 99.1528 -40.2516 97.8642 -40.5737C98.1864 -41.8622 98.4441 -43.0864 98.6374 -44.3105C99.7326 -51.3331 98.5085 -56.2296 95.1583 -58.1624C94.1919 -58.7423 93.0322 -59 91.808 -59C88.1357 -59 83.4324 -56.294 78.7292 -51.7197C74.0904 -56.294 69.4516 -59 65.7148 -59C64.4907 -59 63.331 -58.7423 62.3646 -58.1624C59.0144 -56.2296 57.7902 -51.3975 58.9499 -44.5038C59.1432 -43.2797 59.4009 -42.0555 59.7231 -40.767C58.4345 -40.3804 57.2748 -39.9938 56.1151 -39.6073C49.6079 -37.0946 46 -33.6155 46 -29.8143C46 -25.9486 49.6079 -22.4695 56.1151 -20.0213C57.2748 -19.5703 58.4345 -19.1837 59.7231 -18.8616C59.4009 -17.573 59.1432 -16.3489 58.9499 -15.1248C57.8547 -8.231 59.0788 -3.3345 62.3646 -1.4661C63.331 -0.886247 64.4907 -0.628539 65.7148 -0.628539C69.4516 -0.499684 74.0904 -3.20565 78.7937 -7.71558ZM75.1857 -16.4133C76.3454 -16.3489 77.5695 -16.3489 78.7937 -16.3489C80.0178 -16.3489 81.2419 -16.3489 82.4016 -16.4133C81.2419 -14.8671 80.0178 -13.4496 78.7937 -12.0967C77.5695 -13.4496 76.3454 -14.8671 75.1857 -16.4133ZM67.1967 -23.0494C67.8409 -21.9541 68.4208 -20.9233 69.1295 -19.8924C67.1322 -20.1501 65.2638 -20.4723 63.4599 -20.8588C64.0397 -22.5984 64.684 -24.4023 65.4571 -26.2063C65.9725 -25.1755 66.5524 -24.0802 67.1967 -23.0494ZM63.4599 -38.5764C65.2638 -38.963 67.1322 -39.2851 69.1295 -39.5428C68.4852 -38.512 67.8409 -37.4812 67.1967 -36.3859C66.5524 -35.2906 65.9725 -34.2598 65.4571 -33.1645C64.6196 -35.0329 63.9753 -36.8369 63.4599 -38.5764ZM67.0034 -29.7498C67.8409 -31.4894 68.7429 -33.2289 69.7738 -34.9685C70.7402 -36.6436 71.8355 -38.3187 72.9307 -39.9938C74.8636 -40.1227 76.7964 -40.1871 78.7937 -40.1871C80.8553 -40.1871 82.7882 -40.1227 84.6566 -39.9938C85.8163 -38.3187 86.8471 -36.6436 87.8135 -34.9685C88.8444 -33.2289 89.7464 -31.4894 90.5839 -29.7498C89.7464 -28.0103 88.8444 -26.2707 87.8135 -24.5312C86.8471 -22.8561 85.7518 -21.181 84.6566 -19.5058C82.7237 -19.377 80.7909 -19.3126 78.7937 -19.3126C76.732 -19.3126 74.7991 -19.377 72.9307 -19.5058C71.771 -21.181 70.7402 -22.8561 69.7738 -24.5312C68.7429 -26.2707 67.8409 -28.0103 67.0034 -29.7498ZM92.1946 -33.2289L90.4551 -36.4503C89.8108 -37.5456 89.2309 -38.5764 88.5222 -39.6073C90.5195 -39.3496 92.3879 -39.0274 94.1919 -38.6409C93.612 -36.8369 92.9677 -35.0329 92.1946 -33.2289ZM92.1946 -26.2707C92.9677 -24.4668 93.612 -22.6628 94.1919 -20.9233C92.3879 -20.5367 90.5195 -20.2145 88.5222 -19.9568C89.1665 -20.9877 89.8108 -22.0185 90.4551 -23.1138C91.0349 -24.0802 91.6148 -25.1755 92.1946 -26.2707ZM93.6764 -3.91435C93.161 -3.59221 92.5167 -3.46335 91.808 -3.46335C88.6511 -3.46335 84.721 -6.04046 80.8553 -9.90612C82.7237 -11.9034 84.5277 -14.1583 86.3317 -16.671C89.3598 -16.9287 92.259 -17.3797 94.965 -18.024C95.2871 -16.8643 95.4804 -15.7046 95.6737 -14.5449C96.5757 -9.06856 95.867 -5.13847 93.6764 -3.91435ZM97.0267 -37.8677C104.243 -35.806 108.559 -32.6491 108.559 -29.7498C108.559 -27.2372 105.596 -24.7245 100.377 -22.7272C99.3461 -22.3407 98.1864 -21.9541 97.0267 -21.632C96.1891 -24.2735 95.1583 -26.9795 93.8697 -29.7498C95.1583 -32.5202 96.2535 -35.2262 97.0267 -37.8677ZM91.8725 -56.0363C92.5812 -56.0363 93.161 -55.9075 93.7409 -55.5853C95.867 -54.3612 96.6401 -50.4955 95.7381 -44.9548C95.5448 -43.8595 95.2871 -42.6998 95.0294 -41.4757C92.3235 -42.0555 89.4242 -42.5065 86.3961 -42.8287C84.6566 -45.3413 82.7882 -47.5963 80.9198 -49.5936C84.7854 -53.3948 88.7155 -56.0363 91.8725 -56.0363ZM82.4016 -43.0864C81.2419 -43.1508 80.0178 -43.1508 78.7937 -43.1508C77.5695 -43.1508 76.3454 -43.1508 75.1857 -43.0864C76.3454 -44.6326 77.5695 -46.05 78.7937 -47.403C80.0178 -46.05 81.2419 -44.5682 82.4016 -43.0864ZM63.9109 -55.5853C64.4263 -55.9075 65.0706 -56.0363 65.7793 -56.0363C68.9362 -56.0363 72.8663 -53.4592 76.732 -49.5936C74.8636 -47.5963 73.0596 -45.3413 71.2556 -42.8287C68.2275 -42.5709 65.3283 -42.12 62.6223 -41.4757C62.3002 -42.6354 62.1069 -43.7951 61.9136 -44.9548C61.0116 -50.4311 61.7203 -54.2968 63.9109 -55.5853ZM60.5606 -21.632C53.3447 -23.6936 49.0281 -26.8506 49.0281 -29.7498C49.0281 -32.2625 51.9917 -34.7752 57.2104 -36.7725C58.2412 -37.159 59.4009 -37.5456 60.5606 -37.8677C61.3982 -35.2262 62.429 -32.5202 63.7176 -29.7498C62.429 -26.9795 61.3338 -24.2091 60.5606 -21.632ZM61.9136 -14.5449C62.1069 -15.6402 62.3646 -16.7999 62.6223 -18.024C65.3283 -17.4442 68.2275 -16.9932 71.2556 -16.671C72.9952 -14.1583 74.8636 -11.9034 76.732 -9.90612C72.8663 -6.10489 68.9362 -3.46335 65.7793 -3.46335C65.0706 -3.46335 64.4907 -3.59221 63.9109 -3.91435C61.7203 -5.13847 61.0116 -9.06856 61.9136 -14.5449ZM59.2076 11.9993C60.625 10.2597 60.6895 8.32691 59.9163 6.39408C59.1432 4.46125 57.5325 3.55926 55.5353 3.49483C53.1514 3.4304 50.7032 3.49483 48.3194 3.49483H47.8684V20.1816H49.8012V13.8677H52.8293C53.2159 13.8677 53.538 13.9965 53.7313 14.3187L57.5969 20.3105C57.6614 20.4393 57.8547 20.6326 57.9835 20.6326H60.4962C58.9499 18.2488 57.4681 15.9938 55.9218 13.6744C57.2748 13.4811 58.4345 13.0301 59.2076 11.9993ZM49.8012 11.8704V5.49209H50.5099C51.9917 5.49209 53.538 5.42766 55.0198 5.55652C56.7594 5.62095 57.9835 6.97392 57.9835 8.71347C57.9835 10.453 56.5661 11.806 54.8266 11.8704C53.2803 11.9349 51.734 11.8704 49.8012 11.8704ZM74.7347 12.708C73.7039 8.19805 69.5805 7.03836 66.4235 8.45576C63.9753 9.55104 62.88 11.6771 62.8156 14.3187C62.7512 16.3159 63.331 18.1199 64.8773 19.4729C66.6168 21.0192 68.7429 21.2124 70.9335 20.8259C72.1576 20.5682 73.2529 19.9883 74.0904 19.0863C73.7683 18.6353 73.4462 18.1843 73.124 17.7978C71.32 19.344 69.3228 19.8595 67.1322 18.8286C65.7148 18.1199 65.0061 16.3804 64.8773 15.0918H74.8636V14.2543C74.928 13.6744 74.8636 13.159 74.7347 12.708ZM65.0061 13.7388C64.8128 11.806 66.7457 9.74432 68.8718 9.74432C71.32 9.67989 72.8663 11.1617 72.9307 13.7388H65.0061ZM84.7854 8.13363C83.819 7.94034 82.7882 7.87591 81.8217 7.94034C80.2755 8.0692 78.9225 8.7779 77.8272 9.9376C78.1494 10.3886 78.4071 10.8396 78.7937 11.355C78.9225 11.2262 79.0514 11.0973 79.1802 11.0329C80.2111 10.0665 81.4352 9.55103 82.917 9.67989C84.0767 9.74431 85.172 10.1309 85.4941 11.2906C85.7518 12.1926 85.6874 13.159 85.7518 14.1254C85.5586 14.1254 85.4941 14.061 85.4297 13.9965C83.8834 12.708 82.1439 12.4503 80.2755 12.9013C78.5359 13.3523 77.4407 14.7052 77.3118 16.4448C77.183 18.442 78.0849 19.9239 79.8245 20.6326C80.9198 21.0836 82.1439 21.0836 83.3036 20.8259C84.2056 20.6326 84.5921 20.1172 85.8807 19.4085V20.246H87.6847C87.6847 17.6689 87.7491 14.512 87.6847 11.5483C87.6847 9.67989 86.5894 8.52019 84.7854 8.13363ZM85.6874 16.2515C85.623 16.4448 85.6874 16.6381 85.6874 16.8314C85.6874 18.1843 85.3653 18.6353 84.0767 19.1508C83.1747 19.4729 82.2083 19.6017 81.2419 19.2796C80.1466 18.9575 79.3735 17.9911 79.3735 16.8958C79.3091 15.8005 80.0178 14.7052 81.113 14.3831C82.5949 13.8677 83.9479 14.1898 85.172 15.0918C85.5586 15.4139 85.8163 15.7361 85.6874 16.2515ZM95.7381 9.87317C97.4132 9.35775 98.9595 9.67989 100.119 11.0973L100.312 11.2262C100.763 10.8396 101.15 10.453 101.665 10.002C101.472 9.80874 101.408 9.67989 101.279 9.48661C99.4105 7.48935 95.7381 7.23164 93.4832 8.84233C90.3262 11.1617 90.3906 15.6717 91.9369 18.0555C93.4187 20.3105 95.5448 21.0836 98.0575 20.7614C99.5394 20.5682 100.763 19.8595 101.73 18.6353C101.279 18.2488 100.828 17.8622 100.377 17.4112C100.248 17.5401 100.184 17.6045 100.119 17.7333C98.3797 19.6662 95.4804 19.4729 93.9342 17.4112C93.0322 16.1871 92.8389 14.7697 93.0966 13.3523C93.2254 11.7416 94.063 10.453 95.7381 9.87317ZM109.139 18.6353C109.01 18.6998 108.946 18.7642 108.946 18.7642C108.43 19.1508 107.915 19.2152 107.335 19.0219C106.755 18.7642 106.691 18.2488 106.626 17.7333V10.3886C106.626 10.2597 106.626 10.5174 106.691 9.87317H109.139V7.94034H106.562V4.71896H104.629V8.19805H102.954C102.825 8.19805 102.632 8.32691 102.632 8.45576C102.567 8.90676 102.632 9.22889 102.632 9.87317H104.694V18.1199C104.694 19.1508 104.951 20.0527 105.853 20.5682C106.82 21.148 108.688 21.0192 109.526 20.3105C109.654 20.246 109.719 19.9883 109.719 19.9239C109.526 19.5373 109.332 19.0863 109.139 18.6353Z" fill="#0598C0"/>
<path d="M28.3472 15.4183C29.795 15.4183 30.9686 14.2447 30.9686 12.7969C30.9686 11.3492 29.795 10.1755 28.3472 10.1755C26.8994 10.1755 25.7258 11.3492 25.7258 12.7969C25.7258 14.2447 26.8994 15.4183 28.3472 15.4183Z" fill="#0598C0"/>
<path d="M28.3472 22.4369C30.4049 24.4382 32.4343 25.6221 34.0692 25.6221C34.6047 25.6221 35.1121 25.5093 35.5349 25.2556C37.0006 24.41 37.5362 22.296 37.0288 19.28C36.9443 18.7444 36.8315 18.2089 36.6906 17.6451C37.2543 17.476 37.7617 17.3069 38.2691 17.1378C41.116 16.0385 42.6944 14.5164 42.6944 12.8533C42.6944 11.1621 41.116 9.63999 38.2691 8.56888C37.7617 8.37157 37.2543 8.20245 36.6906 8.06151C36.8315 7.49777 36.9443 6.96221 37.0288 6.42666C37.508 3.35427 36.9725 1.21205 35.5067 0.366432C35.0839 0.112748 34.5766 0 34.041 0C32.4343 0 30.3767 1.18386 28.319 3.18514C26.2895 1.18386 24.2601 0 22.6252 0C22.0897 0 21.5823 0.112748 21.1595 0.366432C19.6938 1.21205 19.1582 3.32608 19.6656 6.3421C19.7501 6.87765 19.8629 7.41321 20.0038 7.97695C19.4401 8.14607 18.9327 8.3152 18.4253 8.48432C15.5784 9.58361 14 11.1057 14 12.7688C14 14.46 15.5784 15.9821 18.4253 17.0532C18.9327 17.2505 19.4401 17.4196 20.0038 17.5606C19.8629 18.1243 19.7501 18.6599 19.6656 19.1954C19.1864 22.2114 19.722 24.3537 21.1595 25.1711C21.5823 25.4248 22.0897 25.5375 22.6252 25.5375C24.2601 25.5939 26.2895 24.41 28.3472 22.4369ZM26.7687 18.6317C27.2761 18.6599 27.8116 18.6599 28.3472 18.6599C28.8828 18.6599 29.4183 18.6599 29.9257 18.6317C29.4183 19.3082 28.8828 19.9283 28.3472 20.5202C27.8116 19.9283 27.2761 19.3082 26.7687 18.6317ZM23.2735 15.7284C23.5554 16.2076 23.8091 16.6586 24.1191 17.1096C23.2453 16.9968 22.4279 16.8559 21.6387 16.6868C21.8924 15.9257 22.1742 15.1365 22.5125 14.3472C22.738 14.7982 22.9917 15.2774 23.2735 15.7284ZM21.6387 8.93531C22.4279 8.76619 23.2453 8.62525 24.1191 8.5125C23.8373 8.9635 23.5554 9.41449 23.2735 9.89367C22.9917 10.3729 22.738 10.8238 22.5125 11.303C22.146 10.4856 21.8642 9.69636 21.6387 8.93531ZM23.189 12.7969C23.5554 12.0359 23.95 11.2748 24.401 10.5138C24.8238 9.78093 25.303 9.04806 25.7822 8.3152C26.6278 8.25882 27.4734 8.23063 28.3472 8.23063C29.2492 8.23063 30.0948 8.25882 30.9122 8.3152C31.4196 9.04806 31.8706 9.78093 32.2934 10.5138C32.7444 11.2748 33.139 12.0359 33.5054 12.7969C33.139 13.558 32.7444 14.319 32.2934 15.0801C31.8706 15.813 31.3914 16.5458 30.9122 17.2787C30.0666 17.3351 29.221 17.3633 28.3472 17.3633C27.4452 17.3633 26.5996 17.3351 25.7822 17.2787C25.2748 16.5458 24.8238 15.813 24.401 15.0801C23.95 14.319 23.5554 13.558 23.189 12.7969ZM34.2101 11.2748L33.4491 9.86549C33.1672 9.3863 32.9135 8.93531 32.6035 8.48432C33.4773 8.59707 34.2947 8.738 35.0839 8.90712C34.8302 9.69636 34.5484 10.4856 34.2101 11.2748ZM34.2101 14.319C34.5484 15.1083 34.8302 15.8975 35.0839 16.6586C34.2947 16.8277 33.4773 16.9686 32.6035 17.0814C32.8853 16.6304 33.1672 16.1794 33.4491 15.7002C33.7028 15.2774 33.9564 14.7982 34.2101 14.319ZM34.8584 24.1C34.6329 24.2409 34.3511 24.2973 34.041 24.2973C32.6598 24.2973 30.9404 23.1698 29.2492 21.4786C30.0666 20.6048 30.8559 19.6182 31.6451 18.5189C32.9699 18.4062 34.2383 18.2089 35.4222 17.927C35.5631 18.4344 35.6477 18.9417 35.7322 19.4491C36.1268 21.845 35.8168 23.5644 34.8584 24.1ZM36.3242 9.24537C39.4811 10.1474 41.3696 11.5285 41.3696 12.7969C41.3696 13.8962 40.073 14.9955 37.7899 15.8693C37.3389 16.0385 36.8315 16.2076 36.3242 16.3485C35.9577 15.1928 35.5067 14.009 34.943 12.7969C35.5067 11.5849 35.9859 10.401 36.3242 9.24537ZM34.0692 1.29661C34.3792 1.29661 34.6329 1.35298 34.8866 1.49392C35.8168 2.02947 36.155 3.7207 35.7604 6.14479C35.6759 6.62397 35.5631 7.13134 35.4504 7.66689C34.2665 7.41321 32.9981 7.2159 31.6733 7.07496C30.9122 5.97567 30.0948 4.98912 29.2774 4.11532C30.9686 2.45228 32.688 1.29661 34.0692 1.29661ZM29.9257 6.96221C29.4183 6.93403 28.8828 6.93403 28.3472 6.93403C27.8116 6.93403 27.2761 6.93403 26.7687 6.96221C27.2761 6.28572 27.8116 5.66561 28.3472 5.07368C28.8828 5.66561 29.4183 6.31391 29.9257 6.96221ZM21.836 1.49392C22.0615 1.35298 22.3434 1.29661 22.6534 1.29661C24.0346 1.29661 25.754 2.42409 27.4452 4.11532C26.6278 4.98912 25.8386 5.97567 25.0493 7.07496C23.7245 7.18771 22.4561 7.38502 21.2722 7.66689C21.1313 7.15952 21.0467 6.65216 20.9622 6.14479C20.5676 3.74888 20.8776 2.05766 21.836 1.49392ZM20.3703 16.3485C17.2133 15.4465 15.3248 14.0654 15.3248 12.7969C15.3248 11.6976 16.6214 10.5984 18.9045 9.72455C19.3555 9.55543 19.8629 9.38631 20.3703 9.24537C20.7367 10.401 21.1877 11.5849 21.7514 12.7969C21.1877 14.009 20.7085 15.221 20.3703 16.3485ZM20.9622 19.4491C21.0467 18.9699 21.1595 18.4626 21.2722 17.927C22.4561 18.1807 23.7245 18.378 25.0493 18.5189C25.8104 19.6182 26.6278 20.6048 27.4452 21.4786C25.754 23.1416 24.0346 24.2973 22.6534 24.2973C22.3434 24.2973 22.0897 24.2409 21.836 24.1C20.8776 23.5644 20.5676 21.845 20.9622 19.4491ZM19.7783 31.0622C20.3984 30.3011 20.4266 29.4555 20.0884 28.6099C19.7501 27.7643 19.0455 27.3697 18.1717 27.3415C17.1287 27.3133 16.0576 27.3415 15.0147 27.3415H14.8174V34.6419H15.663V31.8796H16.9878C17.1569 31.8796 17.2979 31.936 17.3824 32.0769L19.0736 34.6983C19.1018 34.7547 19.1864 34.8393 19.2428 34.8393H20.3421C19.6656 33.7963 19.0173 32.8098 18.3408 31.7951C18.9327 31.7105 19.4401 31.5132 19.7783 31.0622ZM15.663 31.0058V28.2153H15.9731C16.6214 28.2153 17.2979 28.1871 17.9462 28.2435C18.7072 28.2717 19.2428 28.8636 19.2428 29.6246C19.2428 30.3857 18.6227 30.9776 17.8616 31.0058C17.1851 31.034 16.5086 31.0058 15.663 31.0058ZM26.5714 31.3722C26.1204 29.3991 24.3164 28.8918 22.9353 29.5119C21.8642 29.9911 21.385 30.9213 21.3568 32.0769C21.3286 32.9507 21.5823 33.74 22.2588 34.3319C23.0198 35.0084 23.95 35.0929 24.9084 34.9238C25.4439 34.8111 25.9231 34.5574 26.2895 34.1628C26.1486 33.9655 26.0077 33.7681 25.8667 33.599C25.0775 34.2755 24.2037 34.501 23.2453 34.05C22.6252 33.74 22.3152 32.9789 22.2588 32.4152H26.6278V32.0487C26.656 31.7951 26.6278 31.5696 26.5714 31.3722ZM22.3152 31.8232C22.2306 30.9776 23.0762 30.0756 24.0064 30.0756C25.0775 30.0475 25.754 30.6958 25.7822 31.8232H22.3152ZM30.9686 29.371C30.5458 29.2864 30.0948 29.2582 29.672 29.2864C28.9955 29.3428 28.4036 29.6528 27.9244 30.1602C28.0653 30.3575 28.1781 30.5548 28.3472 30.7803C28.4036 30.7239 28.46 30.6676 28.5163 30.6394C28.9673 30.2166 29.5029 29.9911 30.1512 30.0475C30.6585 30.0756 31.1377 30.2448 31.2787 30.7521C31.3914 31.1467 31.3632 31.5696 31.3914 31.9924C31.3069 31.9924 31.2787 31.9642 31.2505 31.936C30.574 31.3722 29.8129 31.2595 28.9955 31.4568C28.2345 31.6541 27.7553 32.246 27.6989 33.0071C27.6425 33.8809 28.0371 34.5292 28.7982 34.8393C29.2774 35.0366 29.8129 35.0366 30.3203 34.9238C30.7149 34.8393 30.884 34.6138 31.4478 34.3037V34.6701H32.237C32.237 33.5427 32.2652 32.1615 32.237 30.8649C32.237 30.0475 31.7578 29.5401 30.9686 29.371ZM31.3632 32.9225C31.335 33.0071 31.3632 33.0917 31.3632 33.1762C31.3632 33.7681 31.2223 33.9655 30.6585 34.191C30.2639 34.3319 29.8411 34.3883 29.4183 34.2473C28.9391 34.1064 28.6009 33.6836 28.6009 33.2044C28.5727 32.7252 28.8828 32.246 29.3619 32.1051C30.0102 31.8796 30.6022 32.0205 31.1377 32.4152C31.3069 32.5561 31.4196 32.697 31.3632 32.9225ZM35.7604 30.132C36.4933 29.9065 37.1698 30.0475 37.6771 30.6676L37.7617 30.7239C37.959 30.5548 38.1281 30.3857 38.3536 30.1884C38.2691 30.1038 38.2409 30.0475 38.1845 29.9629C37.3671 29.0891 35.7604 28.9763 34.7739 29.681C33.3927 30.6958 33.4209 32.6689 34.0974 33.7118C34.7457 34.6983 35.6759 35.0366 36.7751 34.8956C37.4235 34.8111 37.959 34.501 38.3818 33.9655C38.1845 33.7963 37.9872 33.6272 37.7899 33.4299C37.7335 33.4863 37.7053 33.5145 37.6771 33.5708C36.9161 34.4165 35.6477 34.3319 34.9712 33.4299C34.5766 32.8943 34.492 32.2742 34.6047 31.6541C34.6611 30.9494 35.0275 30.3857 35.7604 30.132ZM41.6233 33.9655C41.567 33.9936 41.5388 34.0218 41.5388 34.0218C41.3133 34.191 41.0878 34.2191 40.8341 34.1346C40.5804 34.0218 40.5522 33.7963 40.524 33.5708V30.3575C40.524 30.3011 40.524 30.4139 40.5522 30.132H41.6233V29.2864H40.4958V27.877H39.6502V29.3991H38.9174C38.861 29.3991 38.7764 29.4555 38.7764 29.5119C38.7482 29.7092 38.7764 29.8501 38.7764 30.132H39.6784V33.74C39.6784 34.191 39.7912 34.5856 40.1858 34.8111C40.6086 35.0648 41.426 35.0084 41.7925 34.6983C41.8488 34.6701 41.877 34.5574 41.877 34.5292C41.7925 34.3601 41.7079 34.1628 41.6233 33.9655Z" fill="#0598C0"/>
</g>
</svg>
