<svg width="49" height="49" viewBox="0 0 49 49" fill="none" xmlns="http://www.w3.org/2000/svg">
<mask id="mask0_16_112" style="mask-type:alpha" maskUnits="userSpaceOnUse" x="0" y="0" width="49" height="49">
<rect width="49" height="49" fill="#D9D9D9"/>
</mask>
<g mask="url(#mask0_16_112)">
</g>
<g clip-path="url(#clip0_16_112)">
<path d="M42.2743 6.48324C37.7271 -0.0291706 28.745 -1.95931 22.2532 2.18042L10.848 9.45386C9.30515 10.422 7.98125 11.7014 6.96071 13.2108C5.94017 14.7202 5.24591 16.426 4.92218 18.2191C4.77794 19.0238 4.70454 19.8444 4.70318 20.6676C4.71018 22.8998 5.25706 25.0971 6.29701 27.072C5.32199 28.5543 4.65638 30.2188 4.34061 31.9652C4.01716 33.7904 4.06246 35.6824 4.47271 37.4822C4.88335 39.2941 5.65114 41.0056 6.73152 42.517C11.2784 49.029 20.2805 50.9592 26.7523 46.8198L38.1457 39.546C39.6876 38.5767 41.0099 37.2958 42.0279 35.7849C43.0456 34.2739 43.7364 32.5666 44.0556 30.7727C44.2021 29.9661 44.2756 29.148 44.2747 28.328C44.272 26.1001 43.7319 23.9062 42.7005 21.9316C43.6753 20.4505 44.3409 18.7876 44.6573 17.0427C44.7986 16.2354 44.8705 15.4177 44.8725 14.5981C44.8732 11.6906 43.9646 8.85591 42.2743 6.49089V6.48324Z" fill="#FF3E00"/>
<path d="M21.1385 43.1284C20.3894 43.3215 19.6254 43.419 18.8593 43.4194C17.3966 43.4198 15.9556 43.0653 14.6597 42.3858C13.3641 41.7067 12.2522 40.7232 11.4195 39.5197C10.4028 38.0971 9.85653 36.3917 9.85748 34.6426C9.85809 34.1496 9.90075 33.6579 9.98481 33.1753C10.0532 32.8122 10.1453 32.4561 10.2602 32.1103L10.4753 31.4565L11.0569 31.899C12.4076 32.8909 13.9167 33.6462 15.5198 34.1323L15.9425 34.2598L15.9027 34.6824V34.9018C15.9018 35.4305 16.0663 35.9469 16.3729 36.3772C16.6205 36.7439 16.9541 37.0448 17.3444 37.253C17.7441 37.4639 18.1758 37.573 18.6123 37.5734C18.8427 37.5744 19.0725 37.545 19.2976 37.4858C19.5419 37.4218 19.7779 37.3185 19.9992 37.1788L31.3919 29.8693C31.7335 29.6527 32.0149 29.3529 32.2094 28.9981C32.4035 28.6432 32.5048 28.2447 32.5035 27.8397C32.5003 27.311 32.3316 26.7965 32.0212 26.3681C31.7698 26.006 31.4343 25.7105 31.0437 25.506C30.6438 25.2997 30.2129 25.1941 29.7777 25.196C29.5473 25.1951 29.3175 25.2247 29.0924 25.284C28.8492 25.3465 28.6145 25.4497 28.3952 25.5906L24.0517 28.366C23.3208 28.8266 22.5423 29.1685 21.7366 29.3828C20.9917 29.575 20.2262 29.673 19.4571 29.6737C17.9947 29.6737 16.5543 29.3192 15.2588 28.6409C13.9632 27.9626 12.851 26.9803 12.0173 25.7782C11.0018 24.3549 10.4556 22.6499 10.4553 20.9012C10.4559 20.4093 10.4986 19.9185 10.5826 19.4339C10.7778 18.3559 11.1941 17.3303 11.8062 16.4223C12.4181 15.5139 13.212 14.7429 14.1373 14.1583L25.5421 6.88873C26.2577 6.43318 27.0382 6.08865 27.8573 5.86777C28.6022 5.67674 29.3677 5.58066 30.1365 5.58066C31.6023 5.57683 33.0472 5.92902 34.3472 6.60698C35.6472 7.28456 36.7633 8.26839 37.6001 9.47271C38.6095 10.8995 39.1488 12.6057 39.1424 14.3536C39.1417 14.848 39.0989 15.3411 39.0148 15.8251C38.9464 16.1881 38.8545 16.5441 38.7397 16.8897L38.5245 17.5435L37.943 17.1171C36.5933 16.1237 35.0838 15.3684 33.4801 14.8838L33.0574 14.7525L33.0972 14.3295V14.1105C33.0972 13.5803 32.9329 13.0635 32.627 12.6309C32.3758 12.2692 32.0413 11.974 31.651 11.7696C31.2519 11.5631 30.8218 11.4572 30.3873 11.4584C30.1591 11.4633 29.9321 11.4981 29.7102 11.5621C29.4654 11.6235 29.2293 11.7269 29.009 11.8691L17.6042 19.1387C17.3336 19.3075 17.0944 19.5407 16.901 19.824C16.7206 20.0884 16.5944 20.4001 16.5324 20.7339C16.5043 20.8726 16.4869 21.014 16.4805 21.1565C16.4802 21.684 16.6444 22.1985 16.9506 22.6281C17.2015 22.9898 17.5363 23.2854 17.9263 23.4894C18.3254 23.6958 18.7555 23.8016 19.19 23.8002C19.4205 23.8011 19.6503 23.7715 19.8754 23.7122C20.1201 23.6502 20.3563 23.5469 20.577 23.4056L24.9284 20.6141C25.6591 20.1528 26.4377 19.8108 27.2436 19.5973C27.9927 19.4045 28.7566 19.307 29.5227 19.3064C30.9857 19.3064 32.4268 19.6605 33.723 20.3388C35.0192 21.0172 36.1324 21.9999 36.9667 23.2023C37.9821 24.6252 38.5284 26.3302 38.5287 28.0793C38.5298 28.5766 38.4857 29.0731 38.3972 29.5623C38.2034 30.6407 37.787 31.6667 37.1752 32.5751C36.563 33.4831 35.7688 34.2537 34.8425 34.8379L23.4578 42.1075C22.7259 42.5702 21.9457 42.9135 21.1385 43.1284Z" fill="white"/>
</g>
<defs>
<clipPath id="clip0_16_112">
<rect width="49" height="49" fill="white"/>
</clipPath>
</defs>
</svg>
