<svg width="143" height="27" viewBox="0 0 143 27" fill="none" xmlns="http://www.w3.org/2000/svg">
<mask id="mask0_6_2" style="mask-type:alpha" maskUnits="userSpaceOnUse" x="0" y="0" width="143" height="27">
<rect width="143" height="27" fill="#D9D9D9"/>
</mask>
<g mask="url(#mask0_6_2)">
<path d="M32.5972 3.44013C30.1419 -0.0154135 25.2921 -1.03957 21.7869 1.15702L15.6287 5.01638C14.7956 5.53008 14.0808 6.20892 13.5298 7.00984C12.9787 7.81076 12.6039 8.71588 12.4291 9.66731C12.3512 10.0943 12.3116 10.5297 12.3108 10.9665C12.3146 12.1509 12.6099 13.3168 13.1714 14.3648C12.645 15.1513 12.2856 16.0344 12.1151 16.9611C11.9404 17.9296 11.9649 18.9335 12.1864 19.8885C12.4081 20.8499 12.8227 21.7581 13.406 22.56C15.8611 26.0154 20.7217 27.0395 24.2161 24.8431L30.3679 20.9836C31.2005 20.4692 31.9145 19.7896 32.4641 18.9879C33.0136 18.1861 33.3866 17.2802 33.559 16.3284C33.638 15.9004 33.6777 15.4663 33.6772 15.0312C33.6758 13.849 33.3842 12.6849 32.8273 11.6372C33.3536 10.8513 33.713 9.96895 33.8838 9.04311C33.9601 8.61472 33.999 8.18085 34 7.74596C34.0004 6.20323 33.5098 4.6991 32.5972 3.4442V3.44013Z" fill="#FF3E00"/>
<path d="M21.1634 22.8462C20.7541 22.9483 20.3368 22.9998 19.9182 23C19.119 23.0002 18.3317 22.8128 17.6237 22.4537C16.9159 22.0947 16.3084 21.5749 15.8534 20.9388C15.2979 20.1869 14.9995 19.2855 15 18.361C15.0003 18.1004 15.0236 17.8405 15.0696 17.5854C15.107 17.3935 15.1573 17.2053 15.22 17.0225L15.3376 16.6769L15.6553 16.9108C16.3932 17.4351 17.2178 17.8343 18.0936 18.0913L18.3246 18.1586L18.3028 18.382V18.498C18.3023 18.7774 18.3922 19.0503 18.5597 19.2778C18.695 19.4716 18.8773 19.6307 19.0905 19.7407C19.3089 19.8522 19.5448 19.9098 19.7832 19.9101C19.9091 19.9106 20.0347 19.895 20.1577 19.8637C20.2911 19.8299 20.4201 19.7753 20.541 19.7015L26.7655 15.838C26.9521 15.7235 27.1058 15.5651 27.2121 15.3775C27.3182 15.1899 27.3735 14.9793 27.3728 14.7652C27.371 14.4858 27.2789 14.2138 27.1093 13.9874C26.9719 13.796 26.7886 13.6398 26.5752 13.5318C26.3567 13.4227 26.1213 13.3669 25.8835 13.3679C25.7576 13.3674 25.6321 13.383 25.5091 13.4144C25.3762 13.4474 25.248 13.502 25.1282 13.5765L22.7551 15.0434C22.3558 15.2868 21.9304 15.4676 21.4902 15.5808C21.0833 15.6824 20.665 15.7342 20.2448 15.7346C19.4458 15.7346 18.6589 15.5473 17.951 15.1887C17.2432 14.8302 16.6355 14.311 16.18 13.6756C15.6252 12.9233 15.3268 12.0221 15.3266 11.0978C15.327 10.8378 15.3503 10.5784 15.3962 10.3223C15.5028 9.75247 15.7303 9.2104 16.0647 8.73046C16.399 8.25031 16.8327 7.84279 17.3383 7.53382L23.5694 3.69141C23.9604 3.45063 24.3868 3.26852 24.8343 3.15177C25.2412 3.0508 25.6595 3.00002 26.0795 3.00002C26.8804 2.99799 27.6698 3.18414 28.3801 3.54249C29.0904 3.90063 29.7001 4.42064 30.1573 5.0572C30.7088 5.81131 31.0035 6.71314 31 7.63702C30.9996 7.89837 30.9762 8.15899 30.9302 8.41481C30.8929 8.60667 30.8427 8.79482 30.78 8.97751L30.6624 9.32311L30.3447 9.0977C29.6072 8.57263 28.7825 8.17342 27.9063 7.91726L27.6754 7.84785L27.6971 7.62427V7.50853C27.6971 7.22829 27.6074 6.95513 27.4402 6.72649C27.303 6.53528 27.1202 6.37928 26.907 6.27123C26.6889 6.1621 26.454 6.10612 26.2166 6.10673C26.0919 6.10935 25.9679 6.12774 25.8467 6.16156C25.7129 6.19402 25.5839 6.24867 25.4635 6.32384L19.2324 10.1663C19.0846 10.2555 18.9539 10.3787 18.8483 10.5284C18.7497 10.6682 18.6807 10.833 18.6469 11.0094C18.6315 11.0827 18.622 11.1575 18.6185 11.2328C18.6183 11.5116 18.7081 11.7835 18.8754 12.0106C19.0124 12.2018 19.1954 12.358 19.4084 12.4658C19.6265 12.575 19.8615 12.6309 20.0989 12.6301C20.2248 12.6306 20.3503 12.615 20.4733 12.5836C20.607 12.5508 20.7361 12.4963 20.8566 12.4215L23.2341 10.9461C23.6333 10.7022 24.0587 10.5215 24.499 10.4087C24.9083 10.3067 25.3256 10.2552 25.7442 10.2549C26.5435 10.2549 27.3309 10.442 28.039 10.8006C28.7472 11.1591 29.3554 11.6785 29.8113 12.3141C30.366 13.0662 30.6645 13.9674 30.6647 14.8919C30.6653 15.1547 30.6412 15.4171 30.5928 15.6757C30.4869 16.2457 30.2594 16.788 29.9252 17.2681C29.5907 17.7481 29.1568 18.1554 28.6507 18.4642L22.4306 22.3066C22.0307 22.5512 21.6045 22.7326 21.1634 22.8462Z" fill="white"/>
<path d="M49.2 25.408C47.568 25.408 46.0833 25.1247 44.746 24.558C43.4313 23.9687 42.3887 23.1187 41.618 22.008C40.8473 20.8747 40.4507 19.4807 40.428 17.826H44.202C44.2247 19.186 44.6893 20.2853 45.596 21.124C46.5027 21.94 47.704 22.348 49.2 22.348C50.492 22.348 51.546 22.042 52.362 21.43C53.2007 20.7953 53.62 19.9227 53.62 18.812C53.62 18.132 53.5067 17.5767 53.28 17.146C53.0533 16.6927 52.6793 16.296 52.158 15.956C51.6593 15.616 50.9907 15.2987 50.152 15.004C49.3133 14.6867 48.282 14.324 47.058 13.916C45.698 13.44 44.576 12.9073 43.692 12.318C42.8307 11.706 42.1847 11.0033 41.754 10.21C41.3233 9.394 41.108 8.476 41.108 7.456C41.108 6.00533 41.448 4.79267 42.128 3.818C42.8307 2.82067 43.7713 2.07267 44.95 1.574C46.1287 1.05267 47.432 0.792 48.86 0.792C50.3107 0.792 51.614 1.05267 52.77 1.574C53.9487 2.07267 54.8893 2.832 55.592 3.852C56.3173 4.84933 56.6913 6.07333 56.714 7.524H52.872C52.872 6.48133 52.4867 5.60867 51.716 4.906C50.968 4.20333 49.9707 3.852 48.724 3.852C47.6587 3.82933 46.752 4.10133 46.004 4.668C45.256 5.23467 44.882 6.062 44.882 7.15C44.882 7.92067 45.0973 8.544 45.528 9.02C45.9587 9.496 46.6047 9.91533 47.466 10.278C48.3273 10.6407 49.404 11.0487 50.696 11.502C51.5347 11.774 52.3507 12.0913 53.144 12.454C53.96 12.8167 54.6853 13.27 55.32 13.814C55.9547 14.3353 56.4533 14.9813 56.816 15.752C57.2013 16.5227 57.394 17.4633 57.394 18.574C57.394 20.0247 57.02 21.26 56.272 22.28C55.5467 23.2773 54.5607 24.048 53.314 24.592C52.09 25.136 50.7187 25.408 49.2 25.408ZM65.6215 25L59.2635 8.136H63.0715L67.7635 21.668L72.4895 8.136H76.2295L69.8715 25H65.6215ZM85.5803 25.408C83.9256 25.408 82.4636 25.034 81.1943 24.286C79.9249 23.538 78.9276 22.4953 78.2023 21.158C77.4996 19.8207 77.1483 18.2907 77.1483 16.568C77.1483 14.7773 77.4996 13.2247 78.2023 11.91C78.9049 10.5953 79.8909 9.57533 81.1603 8.85C82.4523 8.102 83.9369 7.728 85.6143 7.728C87.2463 7.728 88.6743 8.09067 89.8983 8.816C91.1223 9.51867 92.0743 10.482 92.7543 11.706C93.4569 12.93 93.8083 14.324 93.8083 15.888C93.8083 16.2053 93.7969 16.4773 93.7743 16.704C93.7743 16.9307 93.7516 17.2027 93.7063 17.52H80.7523C80.8203 18.472 81.0583 19.322 81.4663 20.07C81.8743 20.7953 82.4296 21.3733 83.1323 21.804C83.8349 22.212 84.6396 22.416 85.5463 22.416C86.5209 22.416 87.3483 22.2007 88.0283 21.77C88.7309 21.3167 89.2523 20.682 89.5923 19.866H93.3323C93.0376 20.886 92.5389 21.8153 91.8363 22.654C91.1563 23.4927 90.2949 24.1613 89.2523 24.66C88.2096 25.1587 86.9856 25.408 85.5803 25.408ZM80.7863 14.97H90.1363C90.0909 13.6553 89.6263 12.624 88.7423 11.876C87.8583 11.1053 86.7816 10.72 85.5123 10.72C84.3789 10.72 83.3476 11.0713 82.4183 11.774C81.4889 12.4767 80.9449 13.542 80.7863 14.97ZM96.8189 25V1.2H100.423V25H96.8189ZM110.987 25C109.309 25 108.017 24.592 107.111 23.776C106.204 22.96 105.751 21.6227 105.751 19.764V11.162H103.201V8.136H105.751V4.056H109.355V8.136H113.639V11.162H109.355V19.764C109.355 20.6253 109.547 21.2033 109.933 21.498C110.318 21.7927 110.919 21.94 111.735 21.94H113.639V25H110.987ZM124.262 25.408C122.607 25.408 121.145 25.034 119.876 24.286C118.607 23.538 117.609 22.4953 116.884 21.158C116.181 19.8207 115.83 18.2907 115.83 16.568C115.83 14.7773 116.181 13.2247 116.884 11.91C117.587 10.5953 118.573 9.57533 119.842 8.85C121.134 8.102 122.619 7.728 124.296 7.728C125.928 7.728 127.356 8.09067 128.58 8.816C129.804 9.51867 130.756 10.482 131.436 11.706C132.139 12.93 132.49 14.324 132.49 15.888C132.49 16.2053 132.479 16.4773 132.456 16.704C132.456 16.9307 132.433 17.2027 132.388 17.52H119.434C119.502 18.472 119.74 19.322 120.148 20.07C120.556 20.7953 121.111 21.3733 121.814 21.804C122.517 22.212 123.321 22.416 124.228 22.416C125.203 22.416 126.03 22.2007 126.71 21.77C127.413 21.3167 127.934 20.682 128.274 19.866H132.014C131.719 20.886 131.221 21.8153 130.518 22.654C129.838 23.4927 128.977 24.1613 127.934 24.66C126.891 25.1587 125.667 25.408 124.262 25.408ZM119.468 14.97H128.818C128.773 13.6553 128.308 12.624 127.424 11.876C126.54 11.1053 125.463 10.72 124.194 10.72C123.061 10.72 122.029 11.0713 121.1 11.774C120.171 12.4767 119.627 13.542 119.468 14.97Z" fill="#FF3E00"/>
</g>
</svg>
