<svg width="49" height="49" viewBox="0 0 49 49" fill="none" xmlns="http://www.w3.org/2000/svg">
<mask id="mask0_16_34" style="mask-type:alpha" maskUnits="userSpaceOnUse" x="0" y="0" width="49" height="49">
<rect width="49" height="49" fill="#D9D9D9"/>
</mask>
<g mask="url(#mask0_16_34)">
<mask id="mask1_16_34" style="mask-type:alpha" maskUnits="userSpaceOnUse" x="0" y="0" width="246" height="49">
<rect width="245.946" height="49" fill="#D9D9D9"/>
</mask>
<g mask="url(#mask1_16_34)">
<path d="M33.6445 54.874C30.9827 54.874 29.1727 56.8279 29.1727 59.5418C29.1727 62.0928 30.9827 64.2096 33.6445 64.2096C36.253 64.2096 38.063 62.0928 38.063 59.5418C38.063 56.8279 36.3062 54.874 33.6445 54.874ZM33.6445 62.8527C31.728 62.8527 30.9295 61.1158 30.9295 59.5418C30.9295 57.8592 31.941 56.2309 33.6445 56.2309C35.348 56.2309 36.3595 57.8592 36.3595 59.5418C36.3595 61.1158 35.5077 62.8527 33.6445 62.8527ZM25.0736 54.3855V54.8197H22.9442V55.7424C22.9442 56.1223 23.3169 56.3937 23.6895 56.3937H25.0736V63.9925H25.9254C26.298 63.9925 26.6707 63.6126 26.6707 63.2869V56.448H28.2677C28.6404 56.448 28.8001 56.0681 28.8001 55.6881V54.8197H26.6707V54.2227C26.6707 53.0286 26.8304 52.1059 28.2145 52.1059H28.2677C28.6404 52.1601 28.9598 51.8345 29.013 51.4003L29.0663 50.8575C28.7469 50.8032 28.4275 50.7489 28.0016 50.7489C25.606 50.8032 25.0736 52.2144 25.0736 54.3855ZM7.55931 54.9283V54.9825C7.2399 54.9825 6.86725 55.2539 6.76078 55.5796L4.52491 62.4185H4.47167L2.28904 55.6339C2.12933 55.3082 1.80992 54.9283 1.49051 54.9283V54.8197H0.372574L3.35374 63.2326C3.46021 63.504 3.67315 64.0468 3.67315 64.2639C3.67315 64.4267 3.19403 66.4892 1.75669 66.4892H1.65021C1.27757 66.4892 1.01139 66.7606 0.95816 67.1406L0.904925 67.7376C1.1711 67.7919 1.49051 67.8462 2.02286 67.8462C4.15226 67.8462 4.79108 65.7294 5.37667 64.0468L8.57077 54.8197H7.55931V54.9283ZM-2.66182 56.8822C-3.9927 56.1766 -5.43005 55.7424 -5.48328 54.3312C-5.48328 52.8657 -4.15241 52.4858 -3.14094 52.4858C-2.71506 52.4858 -2.34241 52.5401 -1.96977 52.5943C-1.59712 52.6486 -1.27771 52.323 -1.22448 51.943L-1.17124 51.4003C-1.8633 51.2374 -2.55535 51.1289 -3.14094 51.1289C-5.37681 51.1289 -7.0271 52.2687 -7.0271 54.494C-7.0271 56.3937 -5.74946 57.1536 -4.41858 57.8049C-3.0877 58.4563 -1.59712 58.999 -1.59712 60.5731C-1.59712 62.2014 -3.14094 62.8527 -4.25888 62.8527C-4.8977 62.8527 -5.58975 62.6899 -6.1221 62.527C-6.49475 62.4727 -6.76092 62.7984 -6.81416 63.2326L-6.86739 63.6668C-6.06887 63.9382 -5.27034 64.1011 -4.47182 64.1011C-1.96977 64.1011 -7.1794e-05 63.1241 -7.1794e-05 60.4645C-0.0533069 58.402 -1.33095 57.5878 -2.66182 56.8822ZM19.3775 54.874C18.579 54.874 17.2481 55.3082 16.6625 56.6108C16.1834 55.4167 15.1719 54.9283 14.1605 54.9283C12.8828 54.9283 11.9778 55.3625 11.3922 56.448H11.2325V55.7967C11.2325 55.4167 10.9664 54.9283 10.5405 54.9283L10.5937 54.8197H9.63547V64.0468H10.7002C11.1261 64.0468 11.339 63.6668 11.339 63.2869L11.2325 63.2326V59.5418C11.2325 57.8592 12.0843 56.2309 13.7346 56.2309C15.0122 56.2309 15.4913 57.5878 15.4913 58.7276V64.1011H16.1834C16.556 64.1011 17.0884 63.7211 17.0884 63.3412V59.5418C17.0884 57.8592 17.674 56.2309 19.3243 56.2309C20.6019 56.2309 20.8148 57.5878 20.8148 58.7276V64.1011H21.6666C22.0392 64.1011 22.4119 63.7754 22.4119 63.4497V58.3477C22.4119 56.3395 21.6134 54.874 19.3775 54.874ZM44.0786 54.8197C42.8542 54.8197 41.6297 55.3625 41.1506 56.448H41.0442V55.7967C41.0442 55.3625 40.7248 54.9283 40.2989 54.9283V54.8197H39.4471V64.0468H40.4053C40.778 64.0468 41.0442 63.6668 41.0442 63.2869V59.8675C41.0442 57.6964 42.0024 56.1766 43.8656 56.1766C45.2497 56.2852 45.8353 57.2622 45.8353 59.3247V63.9925H46.5274C46.9 63.9925 47.4324 63.6126 47.4324 63.2326V58.6734C47.4324 56.2852 46.3144 54.8197 44.0786 54.8197ZM55.2047 54.8197V54.9825C54.8853 54.9825 54.5126 55.2539 54.4062 55.5796L52.1703 62.4185H52.1171L49.9344 55.6339C49.7747 55.3082 49.4553 54.9283 49.1359 54.9283V54.8197H48.018L50.9991 63.2326C51.1056 63.504 51.3185 64.0468 51.3185 64.2639C51.3185 64.4267 50.8394 66.4892 49.4021 66.4892H49.2956C48.923 66.4892 48.6568 66.7606 48.6035 67.1406L48.5503 67.7376C48.8165 67.7919 49.1359 67.8462 49.6682 67.8462C51.7976 67.8462 52.4365 65.7294 53.022 64.0468L56.2162 54.8197H55.2047ZM24.5413 48.415C37.6371 48.415 48.2841 37.5596 48.2841 24.2075C48.2841 10.8554 37.6371 0 24.5413 0C11.4455 0 0.798454 10.8554 0.798454 24.2075C0.798454 37.5596 11.4455 48.415 24.5413 48.415ZM8.78371 25.9444C9.15636 24.7503 10.0614 24.5332 11.0196 24.8046C11.9778 25.1302 12.4037 26.3243 12.0843 27.247C12.0311 27.3556 11.9778 27.5184 11.9246 27.7355L11.4987 28.4954C11.2858 29.2553 12.244 29.7438 12.936 29.9609C14.4799 30.4494 15.9704 29.6352 16.3431 28.3326C16.7157 27.1385 15.9704 26.3243 15.651 26.0529L14.2137 24.4789C13.5216 23.719 12.0843 21.6022 12.7763 19.214C13.0425 18.2913 13.6281 17.3143 14.4799 16.663C16.2366 15.3061 18.2063 15.089 20.0163 15.6318C22.4119 16.3374 23.5298 17.9657 25.0204 19.1598C25.8722 16.663 26.9901 14.2206 28.7469 12.158C30.2907 10.2583 32.4201 8.95569 34.8157 8.84714C37.2112 8.79286 39.0212 9.8784 39.1277 11.6153C39.1277 12.3751 38.7551 13.8406 37.2645 13.8949C36.1465 13.9492 35.4012 13.2436 35.348 12.2666C35.348 11.8866 35.4545 11.561 35.6674 11.181C35.9336 10.6926 35.9868 10.6383 35.9336 10.4212C35.9336 9.76985 34.9754 9.76985 34.7092 9.76985C31.1424 9.8784 30.1842 14.8176 29.4389 18.7798L29.0663 20.8966C31.1424 21.2223 32.5798 20.8423 33.3783 20.2996C34.4962 19.5397 33.0589 18.7798 33.2186 17.9114C33.4315 17.043 34.1768 16.6087 34.8157 16.6087C35.6674 16.6087 36.3062 17.5314 36.3062 18.4542C36.253 19.9739 34.2833 22.145 30.2374 22.0364C29.7583 22.0364 29.2792 21.9822 28.8533 21.9279L28.2677 26.2158C27.5757 29.4724 26.6707 33.8688 23.4766 37.7225C20.7084 41.0876 17.8869 41.6304 16.6093 41.6304C14.2669 41.6847 12.6699 40.4363 12.6166 38.6995C12.5634 37.0169 14.0007 36.1484 14.959 36.0942C16.2366 36.0399 17.0884 36.9626 17.1416 38.0481C17.1949 38.9708 16.7157 39.2422 16.3963 39.4051C16.1834 39.5679 15.864 39.7307 15.9172 40.1107C15.9172 40.2735 16.0769 40.6534 16.6093 40.5991C17.6207 40.5449 18.2596 40.0564 18.7387 39.7307C21.0278 37.7767 21.9328 34.3573 23.1039 28.1697L23.3701 26.65C23.7428 24.6417 24.2219 22.4164 24.8607 20.1367C23.2636 18.8884 22.2522 17.3686 20.0695 16.7716C18.579 16.3374 17.674 16.7173 17.0351 17.5314C16.2899 18.5084 16.5028 19.7568 17.2481 20.5167L18.4725 21.8736C19.9631 23.6105 20.7616 24.9674 20.4422 26.8128C19.9631 29.7438 16.556 31.9691 12.5102 30.7207C8.99665 29.798 8.35783 27.3013 8.78371 25.9444Z" fill="white"/>
</g>
</g>
</svg>
