<svg width="148" height="26" viewBox="0 0 148 26" fill="none" xmlns="http://www.w3.org/2000/svg">
<mask id="mask0_5_90" style="mask-type:alpha" maskUnits="userSpaceOnUse" x="0" y="0" width="140" height="26">
<rect width="140" height="26" fill="#D9D9D9"/>
</mask>
<g mask="url(#mask0_5_90)">
<path d="M100.31 6.88C96.101 6.88 93.2391 9.76 93.2391 13.76C93.2391 17.52 96.101 20.64 100.31 20.64C104.434 20.64 107.296 17.52 107.296 13.76C107.296 9.76 104.519 6.88 100.31 6.88ZM100.31 18.64C97.2795 18.64 96.0168 16.08 96.0168 13.76C96.0168 11.28 97.6162 8.88 100.31 8.88C103.003 8.88 104.603 11.28 104.603 13.76C104.603 16.08 103.256 18.64 100.31 18.64ZM86.7576 6.16V6.8H83.3906V8.16C83.3906 8.72 83.9798 9.12 84.569 9.12H86.7576V20.32H88.1044C88.6936 20.32 89.2828 19.76 89.2828 19.28V9.2H91.8081C92.3973 9.2 92.6498 8.64 92.6498 8.08V6.8H89.2828V5.92001C89.2828 4.16 89.5354 2.8 91.7239 2.8H91.8081C92.3973 2.88 92.9024 2.4 92.9865 1.76L93.0707 0.959999C92.5657 0.879997 92.0606 0.800003 91.3872 0.800003C87.5993 0.880005 86.7576 2.96 86.7576 6.16ZM59.064 6.96V7.04C58.5589 7.04 57.9697 7.44 57.8013 7.92001L54.266 18H54.1818L50.7306 8C50.4781 7.52 49.9731 6.96 49.468 6.96V6.8H47.7003L52.4141 19.2C52.5825 19.6 52.9192 20.4 52.9192 20.72C52.9192 20.96 52.1616 24 49.8889 24H49.7205C49.1313 24 48.7104 24.4 48.6263 24.96L48.5421 25.84C48.963 25.92 49.468 26 50.3098 26C53.6768 26 54.6869 22.88 55.6128 20.4L60.6633 6.8H59.064V6.96ZM42.9024 9.84C40.798 8.8 38.5253 8.16 38.4411 6.08C38.4411 3.92 40.5455 3.36 42.1448 3.36C42.8182 3.36 43.4074 3.44 43.9966 3.52C44.5859 3.60001 45.0909 3.12 45.1751 2.56L45.2593 1.76C44.165 1.52 43.0707 1.36 42.1448 1.36C38.6094 1.36 36 3.04 36 6.32C36 9.12 38.0202 10.24 40.1246 11.2C42.229 12.16 44.5859 12.96 44.5859 15.28C44.5859 17.68 42.1448 18.64 40.3771 18.64C39.367 18.64 38.2727 18.4 37.431 18.16C36.8418 18.08 36.4209 18.56 36.3367 19.2L36.2525 19.84C37.5152 20.24 38.7778 20.48 40.0404 20.48C43.9966 20.48 47.1111 19.04 47.1111 15.12C47.0269 12.08 45.0067 10.88 42.9024 9.84ZM77.7508 6.88C76.4882 6.88 74.3838 7.52 73.4579 9.44C72.7003 7.68 71.101 6.96 69.5017 6.96C67.4815 6.96 66.0505 7.6 65.1246 9.2H64.8721V8.24001C64.8721 7.68 64.4512 6.96 63.7778 6.96L63.8619 6.8H62.3468V20.4H64.0303C64.7037 20.4 65.0404 19.84 65.0404 19.28L64.8721 19.2V13.76C64.8721 11.28 66.2189 8.88 68.8283 8.88C70.8485 8.88 71.6061 10.88 71.6061 12.56V20.48H72.7003C73.2896 20.48 74.1313 19.92 74.1313 19.36V13.76C74.1313 11.28 75.0572 8.88 77.6667 8.88C79.6869 8.88 80.0236 10.88 80.0236 12.56V20.48H81.3704C81.9596 20.48 82.5488 20 82.5488 19.52V12C82.5488 9.04 81.2862 6.88 77.7508 6.88ZM116.808 6.8C114.872 6.8 112.936 7.6 112.178 9.2H112.01V8.24001C112.01 7.60001 111.505 6.96 110.832 6.96V6.8H109.485V20.4H111C111.589 20.4 112.01 19.84 112.01 19.28V14.24C112.01 11.04 113.525 8.8 116.471 8.8C118.66 8.96 119.586 10.4 119.586 13.44V20.32H120.68C121.269 20.32 122.111 19.76 122.111 19.2V12.48C122.111 8.96 120.343 6.8 116.808 6.8ZM134.401 6.8V7.04C133.896 7.04 133.306 7.44 133.138 7.92001L129.603 18H129.519L126.067 8C125.815 7.52 125.31 6.96 124.805 6.96V6.8H123.037L127.751 19.2C127.919 19.6 128.256 20.4 128.256 20.72C128.256 20.96 127.498 24 125.226 24H125.057C124.468 24 124.047 24.4 123.963 24.96L123.879 25.84C124.3 25.92 124.805 26 125.646 26C129.013 26 130.024 22.88 130.949 20.4L136 6.8H134.401ZM85.9158 -2.64C106.623 -2.64 123.458 -18.64 123.458 -38.32C123.458 -58 106.623 -74 85.9158 -74C65.2088 -74 48.3737 -58 48.3737 -38.32C48.3737 -18.64 65.2088 -2.64 85.9158 -2.64ZM61 -35.76C61.5892 -37.52 63.0202 -37.84 64.5354 -37.44C66.0505 -36.96 66.7239 -35.2 66.2189 -33.84C66.1347 -33.68 66.0505 -33.44 65.9663 -33.12L65.2929 -32C64.9562 -30.88 66.4714 -30.16 67.5657 -29.84C70.0067 -29.12 72.3636 -30.32 72.9529 -32.24C73.5421 -34 72.3636 -35.2 71.8586 -35.6L69.5859 -37.92C68.4916 -39.04 66.2189 -42.16 67.3131 -45.68C67.734 -47.04 68.6599 -48.48 70.0067 -49.44C72.7845 -51.44 75.899 -51.76 78.7609 -50.96C82.5488 -49.92 84.3165 -47.52 86.6734 -45.76C88.0202 -49.44 89.7879 -53.04 92.5657 -56.08C95.0067 -58.88 98.3737 -60.8 102.162 -60.96C105.949 -61.04 108.811 -59.44 108.98 -56.88C108.98 -55.76 108.391 -53.6 106.034 -53.52C104.266 -53.44 103.088 -54.48 103.003 -55.92C103.003 -56.48 103.172 -56.96 103.508 -57.52C103.929 -58.24 104.013 -58.32 103.929 -58.64C103.929 -59.6 102.414 -59.6 101.993 -59.6C96.3535 -59.44 94.8384 -52.16 93.6599 -46.32L93.0707 -43.2C96.3535 -42.72 98.6263 -43.28 99.8889 -44.08C101.657 -45.2 99.3838 -46.32 99.6364 -47.6C99.9731 -48.88 101.152 -49.52 102.162 -49.52C103.508 -49.52 104.519 -48.16 104.519 -46.8C104.434 -44.56 101.32 -41.36 94.9226 -41.52C94.165 -41.52 93.4074 -41.6 92.734 -41.68L91.8081 -35.36C90.7138 -30.56 89.2828 -24.08 84.2323 -18.4C79.8552 -13.44 75.3939 -12.64 73.3737 -12.64C69.67 -12.56 67.1448 -14.4 67.0606 -16.96C66.9764 -19.44 69.2492 -20.72 70.7643 -20.8C72.7845 -20.88 74.1313 -19.52 74.2155 -17.92C74.2997 -16.56 73.5421 -16.16 73.037 -15.92C72.7003 -15.68 72.1953 -15.44 72.2795 -14.88C72.2795 -14.64 72.532 -14.08 73.3737 -14.16C74.9731 -14.24 75.9832 -14.96 76.7407 -15.44C80.3603 -18.32 81.7912 -23.36 83.6431 -32.48L84.064 -34.72C84.6532 -37.68 85.4108 -40.96 86.4209 -44.32C83.8956 -46.16 82.2963 -48.4 78.8451 -49.28C76.4882 -49.92 75.0572 -49.36 74.0471 -48.16C72.8687 -46.72 73.2054 -44.88 74.3838 -43.76L76.3199 -41.76C78.6768 -39.2 79.9394 -37.2 79.4343 -34.48C78.6768 -30.16 73.2896 -26.88 66.8923 -28.72C61.3367 -30.08 60.3266 -33.76 61 -35.76Z" fill="white"/>
<path d="M19.1515 29.1168C17.6364 29.1168 16.6061 30.1536 16.6061 31.5936C16.6061 32.9472 17.6364 34.0704 19.1515 34.0704C20.6364 34.0704 21.6667 32.9472 21.6667 31.5936C21.6667 30.1536 20.6667 29.1168 19.1515 29.1168ZM19.1515 33.3504C18.0606 33.3504 17.6061 32.4288 17.6061 31.5936C17.6061 30.7008 18.1818 29.8368 19.1515 29.8368C20.1212 29.8368 20.697 30.7008 20.697 31.5936C20.697 32.4288 20.2121 33.3504 19.1515 33.3504ZM14.2727 28.8576V29.088H13.0606V29.5776C13.0606 29.7792 13.2727 29.9232 13.4848 29.9232H14.2727V33.9552H14.7576C14.9697 33.9552 15.1818 33.7536 15.1818 33.5808V29.952H16.0909C16.303 29.952 16.3939 29.7504 16.3939 29.5488V29.088H15.1818V28.7712C15.1818 28.1376 15.2727 27.648 16.0606 27.648H16.0909C16.303 27.6768 16.4848 27.504 16.5152 27.2736L16.5455 26.9856C16.3636 26.9568 16.1818 26.928 15.9394 26.928C14.5758 26.9568 14.2727 27.7056 14.2727 28.8576ZM4.30303 29.1456V29.1744C4.12121 29.1744 3.90909 29.3184 3.84848 29.4912L2.57576 33.12H2.54545L1.30303 29.52C1.21212 29.3472 1.0303 29.1456 0.848485 29.1456V29.088H0.212121L1.90909 33.552C1.9697 33.696 2.09091 33.984 2.09091 34.0992C2.09091 34.1856 1.81818 35.28 1 35.28H0.939394C0.727272 35.28 0.575758 35.424 0.545455 35.6256L0.515152 35.9424C0.666667 35.9712 0.848485 36 1.15152 36C2.36364 36 2.72727 34.8768 3.06061 33.984L4.87879 29.088H4.30303V29.1456ZM-1.51515 30.1824C-2.27273 29.808 -3.09091 29.5776 -3.12121 28.8288C-3.12121 28.0512 -2.36364 27.8496 -1.78788 27.8496C-1.54545 27.8496 -1.33333 27.8784 -1.12121 27.9072C-0.909091 27.936 -0.727273 27.7632 -0.69697 27.5616L-0.666667 27.2736C-1.06061 27.1872 -1.45455 27.1296 -1.78788 27.1296C-3.06061 27.1296 -4 27.7344 -4 28.9152C-4 29.9232 -3.27273 30.3264 -2.51515 30.672C-1.75758 31.0176 -0.909091 31.3056 -0.909091 32.1408C-0.909091 33.0048 -1.78788 33.3504 -2.42424 33.3504C-2.78788 33.3504 -3.18182 33.264 -3.48485 33.1776C-3.69697 33.1488 -3.84848 33.3216 -3.87879 33.552L-3.90909 33.7824C-3.45455 33.9264 -3 34.0128 -2.54545 34.0128C-1.12121 34.0128 -2.38419e-07 33.4944 -2.38419e-07 32.0832C-0.0303035 30.9888 -0.757576 30.5568 -1.51515 30.1824ZM11.0303 29.1168C10.5758 29.1168 9.81818 29.3472 9.48485 30.0384C9.21212 29.4048 8.63636 29.1456 8.06061 29.1456C7.33333 29.1456 6.81818 29.376 6.48485 29.952H6.39394V29.6064C6.39394 29.4048 6.24242 29.1456 6 29.1456L6.0303 29.088H5.48485V33.984H6.09091C6.33333 33.984 6.45455 33.7824 6.45455 33.5808L6.39394 33.552V31.5936C6.39394 30.7008 6.87879 29.8368 7.81818 29.8368C8.54545 29.8368 8.81818 30.5568 8.81818 31.1616V34.0128H9.21212C9.42424 34.0128 9.72727 33.8112 9.72727 33.6096V31.5936C9.72727 30.7008 10.0606 29.8368 11 29.8368C11.7273 29.8368 11.8485 30.5568 11.8485 31.1616V34.0128H12.3333C12.5455 34.0128 12.7576 33.84 12.7576 33.6672V30.96C12.7576 29.8944 12.303 29.1168 11.0303 29.1168ZM25.0909 29.088C24.3939 29.088 23.697 29.376 23.4242 29.952H23.3636V29.6064C23.3636 29.376 23.1818 29.1456 22.9394 29.1456V29.088H22.4545V33.984H23C23.2121 33.984 23.3636 33.7824 23.3636 33.5808V31.7664C23.3636 30.6144 23.9091 29.808 24.9697 29.808C25.7576 29.8656 26.0909 30.384 26.0909 31.4784V33.9552H26.4848C26.697 33.9552 27 33.7536 27 33.552V31.1328C27 29.8656 26.3636 29.088 25.0909 29.088ZM31.4242 29.088V29.1744C31.2424 29.1744 31.0303 29.3184 30.9697 29.4912L29.697 33.12H29.6667L28.4242 29.52C28.3333 29.3472 28.1515 29.1456 27.9697 29.1456V29.088H27.3333L29.0303 33.552C29.0909 33.696 29.2121 33.984 29.2121 34.0992C29.2121 34.1856 28.9394 35.28 28.1212 35.28H28.0606C27.8485 35.28 27.697 35.424 27.6667 35.6256L27.6364 35.9424C27.7879 35.9712 27.9697 36 28.2727 36C29.4848 36 29.8485 34.8768 30.1818 33.984L32 29.088H31.4242ZM13.9697 25.6896C21.4242 25.6896 27.4848 19.9296 27.4848 12.8448C27.4848 5.76 21.4242 0 13.9697 0C6.51515 0 0.454545 5.76 0.454545 12.8448C0.454545 19.9296 6.51515 25.6896 13.9697 25.6896ZM5 13.7664C5.21212 13.1328 5.72727 13.0176 6.27273 13.1616C6.81818 13.3344 7.06061 13.968 6.87879 14.4576C6.84848 14.5152 6.81818 14.6016 6.78788 14.7168L6.54545 15.12C6.42424 15.5232 6.9697 15.7824 7.36364 15.8976C8.24242 16.1568 9.09091 15.7248 9.30303 15.0336C9.51515 14.4 9.09091 13.968 8.90909 13.824L8.09091 12.9888C7.69697 12.5856 6.87879 11.4624 7.27273 10.1952C7.42424 9.7056 7.75757 9.1872 8.24242 8.8416C9.24242 8.1216 10.3636 8.0064 11.3939 8.2944C12.7576 8.6688 13.3939 9.5328 14.2424 10.1664C14.7273 8.8416 15.3636 7.5456 16.3636 6.4512C17.2424 5.4432 18.4545 4.752 19.8182 4.6944C21.1818 4.6656 22.2121 5.2416 22.2727 6.1632C22.2727 6.5664 22.0606 7.344 21.2121 7.3728C20.5758 7.4016 20.1515 7.0272 20.1212 6.5088C20.1212 6.3072 20.1818 6.1344 20.303 5.9328C20.4545 5.6736 20.4848 5.6448 20.4545 5.5296C20.4545 5.184 19.9091 5.184 19.7576 5.184C17.7273 5.2416 17.1818 7.8624 16.7576 9.9648L16.5455 11.088C17.7273 11.2608 18.5455 11.0592 19 10.7712C19.6364 10.368 18.8182 9.9648 18.9091 9.504C19.0303 9.0432 19.4545 8.8128 19.8182 8.8128C20.303 8.8128 20.6667 9.3024 20.6667 9.792C20.6364 10.5984 19.5152 11.7504 17.2121 11.6928C16.9394 11.6928 16.6667 11.664 16.4242 11.6352L16.0909 13.9104C15.697 15.6384 15.1818 17.9712 13.3636 20.016C11.7879 21.8016 10.1818 22.0896 9.45454 22.0896C8.12121 22.1184 7.21212 21.456 7.18182 20.5344C7.15151 19.6416 7.9697 19.1808 8.51515 19.152C9.24242 19.1232 9.72727 19.6128 9.75757 20.1888C9.78788 20.6784 9.51515 20.8224 9.33333 20.9088C9.21212 20.9952 9.0303 21.0816 9.06061 21.2832C9.06061 21.3696 9.15151 21.5712 9.45454 21.5424C10.0303 21.5136 10.3939 21.2544 10.6667 21.0816C11.9697 20.0448 12.4848 18.2304 13.1515 14.9472L13.303 14.1408C13.5152 13.0752 13.7879 11.8944 14.1515 10.6848C13.2424 10.0224 12.6667 9.216 11.4242 8.8992C10.5758 8.6688 10.0606 8.8704 9.69697 9.3024C9.27273 9.8208 9.39394 10.4832 9.81818 10.8864L10.5152 11.6064C11.3636 12.528 11.8182 13.248 11.6364 14.2272C11.3636 15.7824 9.42424 16.9632 7.12121 16.3008C5.12121 15.8112 4.75758 14.4864 5 13.7664Z" fill="white"/>
</g>
</svg>
