<svg width="92" height="29" viewBox="0 0 92 29" fill="none" xmlns="http://www.w3.org/2000/svg">
<path d="M25.9139 4.98379L13.7007 26.6627C13.4483 27.1103 12.8004 27.1129 12.5447 26.6677L0.0890155 4.98632C-0.190153 4.50048 0.227643 3.9127 0.782366 4.01084L13.0088 6.17983C13.0868 6.19397 13.1668 6.19397 13.2448 6.17983L25.2153 4.01422C25.7677 3.91439 26.188 4.49732 25.9139 4.98379Z" fill="url(#paint0_linear_8_45)"/>
<path d="M18.9262 1.00618L9.82982 2.71705C9.75722 2.73067 9.69138 2.76705 9.64265 2.82049C9.59393 2.87392 9.56507 2.94138 9.56061 3.01226L9.00056 12.086C8.99755 12.1357 9.00665 12.1855 9.02714 12.2313C9.04762 12.2771 9.07894 12.3177 9.1186 12.3498C9.15825 12.382 9.20517 12.4049 9.25563 12.4166C9.30609 12.4284 9.3587 12.4287 9.40931 12.4175L11.9422 11.8557C11.9968 11.8436 12.0536 11.8449 12.1075 11.8595C12.1614 11.874 12.2106 11.9013 12.2507 11.9388C12.2907 11.9764 12.3203 12.023 12.3367 12.0743C12.3531 12.1257 12.3558 12.1802 12.3446 12.2328L11.5919 15.7702C11.5804 15.8247 11.5838 15.8811 11.6018 15.9339C11.6198 15.9867 11.6518 16.0341 11.6946 16.0714C11.7374 16.1088 11.7896 16.1349 11.8461 16.1471C11.9025 16.1593 11.9613 16.1572 12.0167 16.1411L13.5806 15.6844C13.8231 15.6137 14.0564 15.8183 14.0054 16.0566L12.8092 21.613C12.7347 21.9606 13.2162 22.1501 13.4169 21.8522L13.5507 21.6533L20.9637 7.45153C21.0883 7.21322 20.8736 6.94205 20.6021 6.99258L17.9944 7.47577C17.9383 7.48623 17.8804 7.48268 17.8261 7.46543C17.7718 7.44819 17.7231 7.41785 17.6846 7.37731C17.646 7.33678 17.619 7.28742 17.6061 7.23397C17.5931 7.18052 17.5947 7.12477 17.6107 7.07209L19.312 1.40986C19.328 1.35699 19.3296 1.30106 19.3165 1.24745C19.3034 1.19385 19.2762 1.14438 19.2374 1.10381C19.1987 1.06324 19.1497 1.03295 19.0951 1.01585C19.0406 0.998751 18.9824 0.99542 18.9262 1.00618Z" fill="url(#paint1_linear_8_45)"/>
<path d="M34.916 7.962L39.932 20.458L38.436 20.172L43.1 7.962H46.18L38.986 24.748L31.814 7.962H34.916ZM48.5065 14.672H51.0145V24H48.5065V14.672ZM48.3965 11.328C48.3965 10.9467 48.5432 10.6313 48.8365 10.382C49.1445 10.118 49.4745 9.986 49.8265 9.986C50.1785 9.986 50.5012 10.118 50.7945 10.382C51.0878 10.6313 51.2345 10.9467 51.2345 11.328C51.2345 11.724 51.0878 12.0467 50.7945 12.296C50.5012 12.5307 50.1785 12.648 49.8265 12.648C49.4745 12.648 49.1445 12.5307 48.8365 12.296C48.5432 12.0467 48.3965 11.724 48.3965 11.328ZM55.2517 10.58H57.7817V14.672H60.2017V16.63H57.7817V24H55.2517V16.63H53.6677V14.672H55.2517V10.58ZM67.0657 24.242C65.9657 24.242 65.0271 24.0293 64.2497 23.604C63.4724 23.1787 62.8711 22.592 62.4457 21.844C62.0351 21.0813 61.8297 20.216 61.8297 19.248C61.8297 18.324 62.0644 17.488 62.5337 16.74C63.0177 15.9773 63.6557 15.376 64.4477 14.936C65.2544 14.4813 66.1417 14.254 67.1097 14.254C68.4004 14.254 69.4637 14.628 70.2997 15.376C71.1357 16.1093 71.6931 17.158 71.9717 18.522L64.4697 21.052L63.8977 19.644L69.7057 17.576L69.1997 17.862C69.0384 17.422 68.7817 17.0407 68.4297 16.718C68.0777 16.3953 67.5791 16.234 66.9337 16.234C66.1564 16.234 65.5257 16.5053 65.0417 17.048C64.5577 17.576 64.3157 18.2653 64.3157 19.116C64.3157 20.04 64.5797 20.7733 65.1077 21.316C65.6504 21.844 66.3177 22.108 67.1097 22.108C67.4911 22.108 67.8577 22.042 68.2097 21.91C68.5617 21.778 68.8917 21.602 69.1997 21.382L70.3437 23.23C69.8597 23.538 69.3244 23.7873 68.7377 23.978C68.1657 24.154 67.6084 24.242 67.0657 24.242ZM73.2517 22.658C73.2517 22.262 73.391 21.932 73.6697 21.668C73.9484 21.404 74.2564 21.272 74.5937 21.272C74.9164 21.272 75.2097 21.404 75.4737 21.668C75.7524 21.932 75.8917 22.262 75.8917 22.658C75.8917 23.054 75.7524 23.3767 75.4737 23.626C75.2097 23.8753 74.9164 24 74.5937 24C74.2564 24 73.9484 23.8753 73.6697 23.626C73.391 23.3767 73.2517 23.054 73.2517 22.658ZM78.464 28.488L76.99 26.948C77.4153 26.6107 77.7453 26.1927 77.98 25.694C78.2293 25.1953 78.354 24.6013 78.354 23.912V14.672H80.862V24.022C80.862 25.1073 80.6713 26.0167 80.29 26.75C79.9233 27.4833 79.3146 28.0627 78.464 28.488ZM78.2 11.328C78.2 10.9467 78.3466 10.6313 78.64 10.382C78.948 10.118 79.278 9.986 79.63 9.986C79.982 9.986 80.3046 10.118 80.598 10.382C80.8913 10.6313 81.038 10.9467 81.038 11.328C81.038 11.724 80.8913 12.0467 80.598 12.296C80.3046 12.5307 79.982 12.648 79.63 12.648C79.278 12.648 78.948 12.5307 78.64 12.296C78.3466 12.0467 78.2 11.724 78.2 11.328ZM86.9866 24.198C86.2679 24.198 85.5859 24.0733 84.9406 23.824C84.3099 23.56 83.7746 23.1933 83.3346 22.724L84.3906 21.316C84.8012 21.6973 85.2119 21.9833 85.6226 22.174C86.0332 22.3647 86.4146 22.46 86.7666 22.46C87.1772 22.46 87.5292 22.3867 87.8226 22.24C88.1306 22.0787 88.2846 21.822 88.2846 21.47C88.2846 21.1767 88.1819 20.9493 87.9766 20.788C87.7712 20.612 87.5072 20.4727 87.1846 20.37C86.8619 20.2527 86.5246 20.1427 86.1726 20.04C85.3659 19.7907 84.7646 19.424 84.3686 18.94C83.9726 18.4413 83.7746 17.8767 83.7746 17.246C83.7746 16.762 83.8919 16.3 84.1266 15.86C84.3759 15.4053 84.7572 15.0313 85.2706 14.738C85.7986 14.4447 86.4586 14.298 87.2506 14.298C87.9546 14.298 88.5706 14.3787 89.0986 14.54C89.6266 14.6867 90.1179 14.9433 90.5726 15.31L89.6046 16.806C89.3406 16.5567 89.0326 16.366 88.6806 16.234C88.3286 16.0873 88.0059 16.0067 87.7126 15.992C87.3166 15.9773 86.9792 16.058 86.7006 16.234C86.4366 16.41 86.3046 16.6373 86.3046 16.916C86.3046 17.2093 86.4072 17.444 86.6126 17.62C86.8326 17.796 87.1112 17.9353 87.4486 18.038C87.7859 18.1407 88.1232 18.2507 88.4606 18.368C89.1352 18.588 89.6852 18.9033 90.1106 19.314C90.5506 19.71 90.7706 20.2673 90.7706 20.986C90.7706 21.558 90.6312 22.086 90.3526 22.57C90.0886 23.054 89.6706 23.45 89.0986 23.758C88.5412 24.0513 87.8372 24.198 86.9866 24.198Z" fill="url(#paint2_linear_8_45)"/>
<defs>
<linearGradient id="paint0_linear_8_45" x1="-0.215412" y1="3.23619" x2="14.8401" y2="23.8345" gradientUnits="userSpaceOnUse">
<stop stop-color="#41D1FF"/>
<stop offset="1" stop-color="#BD34FE"/>
</linearGradient>
<linearGradient id="paint1_linear_8_45" x1="12.3585" y1="1.47046" x2="14.9132" y2="19.7262" gradientUnits="userSpaceOnUse">
<stop stop-color="#FFEA83"/>
<stop offset="0.083" stop-color="#FFDD35"/>
<stop offset="1" stop-color="#FFA800"/>
</linearGradient>
<linearGradient id="paint2_linear_8_45" x1="61.5" y1="0" x2="61.5" y2="27" gradientUnits="userSpaceOnUse">
<stop stop-color="#4FBFFF"/>
<stop offset="1" stop-color="#9D5CFE"/>
</linearGradient>
</defs>
</svg>
