<svg width="50" height="50" viewBox="0 0 50 50" fill="none" xmlns="http://www.w3.org/2000/svg">
<mask id="mask0_16_129" style="mask-type:alpha" maskUnits="userSpaceOnUse" x="0" y="0" width="49" height="49">
<rect width="49" height="49" fill="#D9D9D9"/>
</mask>
<g mask="url(#mask0_16_129)">
</g>
<path d="M48.7367 7.62498L26.2985 47.7492C25.8348 48.5777 24.6446 48.5824 24.1746 47.7586L1.29104 7.62967C0.778152 6.73045 1.54573 5.64256 2.56487 5.8242L25.0274 9.83865C25.1707 9.86482 25.3176 9.86482 25.461 9.83865L47.4532 5.83045C48.468 5.64568 49.2403 6.72459 48.7367 7.62498Z" fill="url(#paint0_linear_16_129)"/>
<path d="M35.7266 0.558567L19.1227 3.81169C18.9901 3.83759 18.87 3.90677 18.781 4.00837C18.6921 4.10997 18.6394 4.23823 18.6313 4.37302L17.609 21.6261C17.6035 21.7208 17.6201 21.8154 17.6575 21.9024C17.6949 21.9895 17.7521 22.0667 17.8244 22.1279C17.8968 22.1891 17.9825 22.2325 18.0746 22.2549C18.1667 22.2772 18.2627 22.2778 18.3551 22.2566L22.9785 21.1883C23.0781 21.1654 23.1818 21.1679 23.2802 21.1955C23.3785 21.2231 23.4684 21.275 23.5415 21.3464C23.6146 21.4178 23.6686 21.5064 23.6985 21.604C23.7285 21.7017 23.7334 21.8054 23.7129 21.9054L22.3391 28.6316C22.3181 28.7351 22.3243 28.8423 22.3572 28.9427C22.39 29.0431 22.4484 29.1333 22.5266 29.2043C22.6047 29.2754 22.7 29.325 22.803 29.3482C22.9061 29.3714 23.0134 29.3674 23.1145 29.3367L25.9692 28.4683C26.4117 28.334 26.8375 28.723 26.7445 29.1761L24.561 39.7414C24.425 40.4023 25.3039 40.7625 25.6703 40.1961L25.9145 39.8179L39.4457 12.814C39.6731 12.3609 39.2813 11.8453 38.7856 11.9414L34.0258 12.8601C33.9234 12.88 33.8176 12.8733 33.7185 12.8405C33.6194 12.8077 33.5305 12.75 33.4602 12.6729C33.3898 12.5958 33.3405 12.502 33.3169 12.4004C33.2933 12.2987 33.2962 12.1927 33.3254 12.0926L36.4309 1.32614C36.4601 1.22562 36.4629 1.11926 36.439 1.01733C36.4152 0.915401 36.3655 0.821336 36.2947 0.744202C36.2239 0.667069 36.1345 0.609468 36.0349 0.576953C35.9354 0.544439 35.8292 0.538106 35.7266 0.558567Z" fill="url(#paint1_linear_16_129)"/>
<defs>
<linearGradient id="paint0_linear_16_129" x1="0.731745" y1="4.39045" x2="28.659" y2="42.3179" gradientUnits="userSpaceOnUse">
<stop stop-color="#41D1FF"/>
<stop offset="1" stop-color="#BD34FE"/>
</linearGradient>
<linearGradient id="paint1_linear_16_129" x1="23.7383" y1="1.44137" x2="28.7902" y2="36.0969" gradientUnits="userSpaceOnUse">
<stop stop-color="#FFEA83"/>
<stop offset="0.083" stop-color="#FFDD35"/>
<stop offset="1" stop-color="#FFA800"/>
</linearGradient>
</defs>
</svg>
