<svg width="99" height="29" viewBox="0 0 99 29" fill="none" xmlns="http://www.w3.org/2000/svg">
<path d="M40.4975 1C40.1614 0.99951 39.8326 1.10024 39.5521 1.28965C39.2662 1.48306 39.0045 1.81671 39.0045 2.24385C39.0045 2.30068 38.9723 2.42718 39.0798 2.64717L39.052 2.57751L44.7962 21.6405C44.8992 21.9979 45.1457 22.2711 45.4235 22.4287C45.7013 22.5864 46.0042 22.6442 46.2999 22.6442C46.9272 22.6442 47.6172 22.338 47.8278 21.6469V21.645L53.5665 2.51059V2.44093C53.5665 2.53809 53.5943 2.48218 53.5943 2.27319C53.5943 1.83779 53.3228 1.51789 53.0325 1.31715C52.742 1.11286 52.3983 1.00238 52.0458 1C51.6067 1 51.1031 1.27224 50.9346 1.79104L50.931 1.79654L46.2981 17.6119L41.6472 1.82495C41.5782 1.54264 41.3927 1.30706 41.1767 1.17507C40.9608 1.04308 40.7251 1 40.4975 1ZM86.2491 1.98262C85.335 1.98262 84.5643 2.69942 84.5643 3.59587C84.5643 4.49233 85.3225 5.23387 86.2491 5.23387C87.1577 5.23387 87.88 4.47858 87.88 3.59587C87.88 2.71317 87.1452 1.98262 86.2491 1.98262ZM72.7812 8.08547C69.6555 8.08547 67.081 10.6447 67.081 13.7199V16.8713C67.081 18.5936 67.7513 20.0703 68.8911 21.0887C70.0292 22.1079 71.619 22.6717 73.4408 22.6717C74.7867 22.6717 75.8845 22.3628 76.6686 21.9448C77.0611 21.7349 77.3765 21.5002 77.6086 21.2445C77.8416 20.9878 78.0119 20.7083 78.0119 20.3581C78.0119 20.0373 77.8918 19.7586 77.6956 19.5084C77.5002 19.2582 77.1919 19.0281 76.7941 19.0281C76.5073 19.0281 76.2869 19.1518 76.096 19.2719C75.9051 19.3911 75.7259 19.524 75.5099 19.6514C75.078 19.9053 74.5063 20.1528 73.4954 20.1528C72.3699 20.1528 71.4326 19.8246 70.7856 19.2728C70.1403 18.7229 69.764 17.9575 69.764 16.9547V16.3717H75.5305C76.1462 16.3717 76.8299 16.3717 77.4213 15.9867C78.0128 15.5999 78.3712 14.8318 78.3712 13.6649C78.3712 10.4293 75.7331 8.08547 72.7812 8.08547ZM94.4549 8.08547C92.7934 8.08547 91.5711 8.63544 90.7861 9.46224C90.0011 10.289 89.6624 11.3651 89.6624 12.3698C89.6624 13.6512 90.1687 14.5696 90.8928 15.1572C91.6177 15.7466 92.5192 16.0427 93.3768 16.3066C94.2344 16.5715 95.0553 16.8062 95.6064 17.1536C96.1575 17.5019 96.4532 17.8768 96.4532 18.6697C96.4532 19.0959 96.3278 19.4351 95.9899 19.7119C95.6512 19.9896 95.049 20.2078 94.0695 20.2078C92.9108 20.2078 92.2629 19.9154 91.7907 19.6175C91.555 19.4681 91.365 19.3132 91.1697 19.1747C90.9743 19.0363 90.7521 18.8869 90.4411 18.8869C90.0674 18.8869 89.7914 19.1225 89.6239 19.3663C89.4541 19.6055 89.3616 19.893 89.3595 20.1885C89.3595 20.5598 89.5369 20.8861 89.787 21.1693C90.0379 21.4525 90.3757 21.7046 90.7915 21.9246C91.6222 22.3646 92.7666 22.6717 94.1251 22.6717C95.601 22.6717 96.8144 22.3032 97.6737 21.5882C98.5322 20.8732 99 19.8109 99 18.5863C99 17.2022 98.508 16.2076 97.784 15.5495C97.059 14.8923 96.1441 14.5531 95.2739 14.28C94.4038 14.0078 93.5659 13.7951 93.0058 13.4963C92.4449 13.1975 92.1814 12.9216 92.1814 12.2863C92.1814 11.9426 92.3158 11.51 92.6572 11.1681C92.9987 10.828 93.556 10.5512 94.4826 10.5512C95.2228 10.5512 95.7731 10.7253 96.214 10.9087C96.4344 11.0012 96.6262 11.0975 96.8072 11.1782C96.9891 11.2579 97.1567 11.3367 97.3968 11.3367C97.8315 11.3367 98.1299 11.0434 98.3073 10.7712C98.4847 10.4989 98.5869 10.2304 98.5869 9.92238C98.5869 9.5374 98.353 9.26425 98.094 9.06076C97.835 8.85727 97.5089 8.69228 97.1325 8.55112C96.3797 8.2688 95.4191 8.08547 94.4549 8.08547ZM55.1536 8.25597C54.4268 8.25597 53.7986 8.72253 53.7986 9.41641V16.9263C53.7986 19.9731 56.3311 22.6717 59.4711 22.6717C62.5591 22.6717 65.1436 20.0043 65.1436 16.9263V9.38891C65.1436 9.04243 64.9572 8.74086 64.7116 8.54929C64.4661 8.35863 64.1542 8.25597 63.8155 8.25597C63.4768 8.25597 63.1631 8.35679 62.9122 8.5447C62.6613 8.73169 62.4606 9.03051 62.4606 9.38891V16.9263C62.4606 18.523 61.1003 20.0684 59.4711 20.0684C57.816 20.0684 56.4825 18.4955 56.4825 16.9263V9.41641C56.4825 9.05618 56.2899 8.77935 56.0524 8.58228C55.8149 8.38521 55.5013 8.25597 55.1536 8.25597ZM86.25 8.25597C85.9094 8.25597 85.5958 8.3458 85.3449 8.5392C85.094 8.73169 84.9237 9.05068 84.9237 9.38891V23.2262C84.9237 24.2647 84.852 25.1355 84.6289 25.6635C84.4066 26.1906 84.1432 26.4243 83.3922 26.4243C82.7282 26.4243 82.1735 27.0173 82.1735 27.7277C82.1735 28.022 82.2667 28.3464 82.5024 28.5985C82.7381 28.8506 83.1046 29 83.5284 29C84.9568 29 86.0501 28.3519 86.7007 27.2997C87.3531 26.2465 87.6058 24.8385 87.6058 23.2262V9.38891C87.6058 9.02868 87.4051 8.71519 87.1488 8.53003C86.8842 8.34556 86.5701 8.24979 86.25 8.25597ZM72.7534 10.5228C74.5376 10.5228 75.7429 12.0508 75.7429 13.6072C75.7429 13.7768 75.725 13.8877 75.7071 13.9381C75.6909 13.9885 75.6927 13.9821 75.6676 13.9995C75.6184 14.0325 75.3423 14.1049 74.8154 14.1049H69.764V13.4945C69.764 11.8656 71.0947 10.5228 72.7534 10.5228ZM81.2774 19.1115C80.3024 19.1115 79.564 19.9365 79.564 20.8916C79.564 21.8082 80.2916 22.6442 81.2774 22.6442C82.2111 22.6442 82.9621 21.8339 82.9621 20.8916C82.9621 19.9135 82.1986 19.1115 81.2774 19.1115Z" fill="#5E8AB8"/>
<path d="M6 0L11.7503 0.00170467L15.509 6.08367L19.2546 0.002557L25 0.00113645L15.5379 16L6 0Z" fill="#35495E"/>
<path d="M0 0.0409449L6.15847 0L15.5314 15.7932L24.8309 0.000841331L31 0.00729155L15.5302 26L0 0.0409449Z" fill="#41B883"/>
</svg>
